<svg xmlns="http://www.w3.org/2000/svg" xmlns:xlink="http://www.w3.org/1999/xlink" width="500" zoomAndPan="magnify" viewBox="0 0 375 374.999991" height="500" preserveAspectRatio="xMidYMid meet" version="1.0"><defs><clipPath id="7d42cdb54c"><path d="M 197 11.238281 L 231 11.238281 L 231 52 L 197 52 Z M 197 11.238281 " clip-rule="nonzero"/></clipPath><clipPath id="78d7d36708"><path d="M 273 316 L 300.636719 316 L 300.636719 347 L 273 347 Z M 273 316 " clip-rule="nonzero"/></clipPath><clipPath id="ba36130019"><path d="M 253 337 L 298 337 L 298 363.738281 L 253 363.738281 Z M 253 337 " clip-rule="nonzero"/></clipPath></defs><path fill="#ffffff" d="M 265.941406 83.445312 C 269.789062 106.042969 271.375 129.023438 270.75 151.957031 C 270.507812 160.273438 269.980469 168.640625 267.578125 176.574219 C 265.511719 183.351562 262.148438 189.699219 260.609375 196.621094 C 259.261719 202.679688 259.457031 208.980469 259.648438 215.230469 C 260.082031 229.605469 260.511719 243.980469 260.992188 258.355469 C 261.328125 269.222656 262.050781 281.144531 269.5 289.125 C 277.1875 297.394531 291.460938 300.90625 293.140625 312.058594 C 293.476562 314.269531 293.238281 316.628906 294.054688 318.695312 C 294.917969 320.859375 296.792969 322.445312 297.804688 324.558594 C 300.398438 329.992188 296.3125 336.195312 295.929688 342.203125 C 295.785156 344.417969 296.167969 346.628906 295.878906 348.792969 C 295.304688 353.550781 291.75 357.542969 287.421875 359.65625 C 281.753906 362.398438 274.738281 362.15625 269.308594 358.984375 C 261.28125 354.273438 257.773438 344.65625 251.765625 337.542969 C 246.386719 331.097656 238.695312 326.578125 230.429688 325.039062 C 228.222656 324.609375 225.960938 324.414062 224.039062 323.308594 C 222.261719 322.300781 220.917969 320.570312 219.667969 318.933594 C 215.582031 313.644531 211.546875 308.308594 207.460938 303.019531 C 199.773438 293.019531 192.035156 282.925781 186.847656 271.433594 C 180.648438 257.777344 178.339844 242.777344 176.035156 227.96875 C 159.648438 228.164062 143.261719 221.910156 131.152344 210.902344 C 119.042969 199.84375 111.355469 184.074219 110.054688 167.726562 C 108.902344 152.871094 112.796875 138.109375 116.878906 123.734375 C 120.53125 110.996094 124.761719 97.582031 134.660156 88.78125 C 144.800781 79.742188 159.023438 77.195312 172.429688 75.03125 C 181.992188 73.492188 191.796875 71.90625 201.3125 73.636719 " fill-opacity="1" fill-rule="nonzero"/><path fill="#ffffff" d="M 160.222656 51.808594 C 162.339844 58.492188 163.058594 65.609375 162.386719 72.578125 C 162.339844 73.300781 162.195312 74.070312 161.761719 74.648438 C 161.136719 75.414062 160.03125 75.65625 159.070312 75.464844 C 158.109375 75.273438 157.246094 74.742188 156.378906 74.214844 C 152.054688 71.472656 147.730469 68.78125 143.359375 66.039062 C 143.070312 65.847656 142.734375 65.65625 142.589844 65.320312 C 142.203125 64.550781 142.878906 63.683594 143.5 63.109375 C 148.308594 58.683594 153.640625 54.886719 159.40625 51.855469 " fill-opacity="1" fill-rule="nonzero"/><path fill="#474341" d="M 154.648438 55.367188 C 161.234375 60.464844 167.097656 78.972656 167.863281 87.242188 C 168.585938 94.648438 160.65625 97.582031 155.898438 101.378906 C 148.789062 107.101562 143.5 116.234375 140.859375 125.128906 C 138.457031 133.253906 136.773438 139.3125 131.871094 146.523438 C 127.164062 153.398438 119.332031 157.488281 112.171875 161.238281 C 110.199219 154.457031 109.863281 147.246094 111.066406 140.324219 C 111.304688 138.976562 111.59375 137.484375 110.96875 136.285156 C 110.152344 134.695312 108.183594 134.214844 106.453125 133.832031 C 90.785156 130.417969 76.082031 122.628906 64.453125 111.570312 C 63.492188 110.65625 62.484375 109.601562 62.097656 108.300781 C 61.328125 105.5625 63.589844 102.964844 65.847656 101.28125 C 77.765625 92.386719 93.8125 92.4375 108.710938 91.8125 C 110.25 91.761719 111.835938 91.667969 113.226562 90.945312 C 114.910156 90.078125 116.015625 88.347656 117.023438 86.761719 C 125.242188 74.359375 136.34375 63.878906 149.21875 56.425781 " fill-opacity="1" fill-rule="nonzero"/><path fill="#474341" d="M 256.285156 256.578125 C 253.160156 255.902344 249.894531 256.046875 246.867188 257.058594 C 245.28125 257.585938 243.742188 258.355469 242.683594 259.605469 C 241.578125 260.855469 241.050781 262.683594 241.628906 264.222656 C 242.253906 265.953125 243.984375 266.960938 245.710938 267.539062 C 247.441406 268.117188 249.316406 268.355469 250.902344 269.222656 C 254.988281 271.433594 256.523438 276.960938 260.707031 279.03125 C 260.992188 279.171875 261.328125 279.269531 261.570312 279.125 C 262.003906 278.933594 262.003906 278.355469 261.90625 277.875 C 261.042969 271.671875 260.847656 265.808594 258.496094 259.992188 C 257.726562 258.117188 258.015625 255.472656 256.042969 256 " fill-opacity="1" fill-rule="nonzero"/><path fill="#eead5c" d="M 155.753906 54.117188 C 154.648438 62.386719 158.015625 72.050781 161.667969 79.40625 C 163.394531 82.867188 165.175781 86.378906 167.769531 89.214844 C 173.152344 95.128906 181.847656 92.4375 189.488281 90.03125 C 198.714844 87.097656 205.972656 78.253906 216.351562 79.550781 C 220.242188 80.03125 223.945312 81.617188 227.453125 83.398438 C 234.757812 87.050781 241.484375 91.714844 248.644531 95.5625 C 253.113281 97.964844 264.261719 104.839844 269.59375 102.675781 C 270.125 102.484375 266.710938 90.65625 267.046875 90.222656 C 267.578125 89.550781 267.433594 88.589844 267.289062 87.722656 C 265.65625 79.453125 262.53125 71.472656 258.0625 64.359375 C 257.101562 62.867188 256.09375 61.328125 255.898438 59.597656 C 255.5625 56.859375 257.246094 54.117188 256.71875 51.425781 C 255.996094 47.675781 251.671875 46.039062 247.972656 45.03125 C 242.15625 43.445312 236.34375 41.90625 230.574219 40.320312 C 229.566406 40.03125 228.507812 39.742188 227.691406 39.117188 C 226.875 38.539062 226.347656 37.675781 225.769531 36.808594 C 221.492188 30.414062 216.785156 24.308594 211.640625 18.585938 C 209.09375 15.75 205.972656 12.867188 202.273438 13.105469 C 198.476562 13.394531 195.785156 16.808594 193.957031 20.125 C 191.652344 24.355469 189.96875 28.921875 188.960938 33.683594 C 188.625 35.269531 188.335938 36.953125 187.277344 38.203125 C 186.125 39.5 184.394531 40.03125 182.714844 40.558594 C 171.324219 44.164062 160.511719 49.164062 152.054688 57.53125 " fill-opacity="1" fill-rule="nonzero"/><path fill="#eead5c" d="M 178.050781 228.355469 C 182.183594 230.039062 186.367188 231.71875 190.5 233.402344 C 192.566406 234.21875 194.632812 235.085938 196.503906 236.289062 C 199.339844 238.164062 201.597656 240.949219 202.894531 244.125 C 203.28125 245.085938 203.570312 246.09375 203.519531 247.105469 C 203.472656 248.882812 202.414062 250.472656 201.40625 251.960938 C 199.003906 255.421875 196.457031 258.980469 195.640625 263.164062 C 195.304688 265.039062 195.304688 266.960938 195.015625 268.835938 C 194.535156 271.769531 193.191406 274.511719 191.21875 276.722656 C 187.710938 274.269531 186.269531 269.847656 185.117188 265.710938 C 181.800781 253.644531 177.8125 241 176.128906 228.59375 " fill-opacity="1" fill-rule="nonzero"/><path fill="#474341" d="M 161.714844 50.847656 C 161.234375 54.40625 160.417969 57.914062 159.359375 61.328125 C 158.6875 63.445312 157.390625 65.894531 155.132812 65.894531 C 154.074219 65.894531 153.066406 65.320312 152.152344 64.839844 C 150.277344 63.925781 148.210938 63.347656 146.097656 63.203125 C 145.761719 63.15625 145.425781 63.15625 145.136719 62.964844 C 144.65625 62.628906 144.65625 61.808594 145.039062 61.328125 C 145.425781 60.847656 146 60.558594 146.527344 60.320312 C 151.527344 58.011719 156.234375 55.03125 160.367188 51.425781 " fill-opacity="1" fill-rule="nonzero"/><path fill="#474341" d="M 162.867188 50.75 C 157.726562 60.464844 157.003906 72.386719 160.847656 82.675781 C 157.292969 78.78125 154.601562 74.117188 153.113281 69.117188 C 152.726562 67.914062 152.441406 66.617188 152.726562 65.367188 C 152.96875 64.40625 153.496094 63.589844 154.027344 62.769531 C 155.949219 59.839844 157.917969 56.90625 159.839844 54.019531 " fill-opacity="1" fill-rule="nonzero"/><path fill="#474341" d="M 162.050781 50.269531 C 157.964844 58.109375 156.574219 67.195312 158.0625 75.898438 C 158.445312 78.300781 159.121094 80.65625 159.9375 82.917969 C 160.464844 82.628906 160.992188 82.292969 161.523438 82.003906 C 158.878906 79.117188 156.714844 75.753906 155.179688 72.148438 C 154.792969 71.234375 154.457031 70.273438 154.121094 69.359375 C 153.832031 68.398438 153.496094 67.433594 153.496094 66.425781 C 153.496094 65.464844 153.929688 64.644531 154.457031 63.828125 C 155.035156 62.914062 155.707031 61.953125 156.285156 61.039062 C 157.726562 58.875 159.167969 56.664062 160.609375 54.5 C 161.28125 53.445312 159.648438 52.484375 158.925781 53.539062 C 157.582031 55.609375 156.1875 57.625 154.84375 59.695312 C 154.167969 60.703125 153.496094 61.664062 152.871094 62.675781 C 152.296875 63.589844 151.765625 64.550781 151.621094 65.65625 C 151.335938 67.820312 152.246094 70.128906 153.015625 72.097656 C 153.785156 74.070312 154.699219 75.945312 155.804688 77.773438 C 157.054688 79.792969 158.496094 81.714844 160.082031 83.492188 C 160.707031 84.167969 162.050781 83.445312 161.667969 82.578125 C 158.734375 74.695312 158.496094 65.945312 160.898438 57.914062 C 161.570312 55.65625 162.484375 53.492188 163.539062 51.375 C 164.308594 50.125 162.628906 49.164062 162.050781 50.269531 Z M 162.050781 50.269531 " fill-opacity="1" fill-rule="nonzero"/><path fill="#e2a59f" d="M 117.3125 111.761719 C 103.714844 105.226562 88.433594 102.195312 73.390625 103.011719 C 69.789062 103.207031 66.039062 103.6875 63.25 105.945312 C 62.722656 106.378906 62.148438 107.050781 62.339844 107.726562 C 62.433594 108.011719 62.628906 108.253906 62.820312 108.496094 C 69.164062 115.800781 77.285156 121.570312 86.269531 125.128906 C 89.058594 126.234375 91.941406 127.148438 94.632812 128.445312 C 98.476562 130.273438 102.753906 132.917969 106.597656 131.089844 C 110.679688 129.167969 111.210938 123.734375 112.746094 119.457031 C 113.5625 117.246094 114.765625 115.226562 116.304688 113.445312 " fill-opacity="1" fill-rule="nonzero"/><path fill="#e2a59f" d="M 222.453125 51.375 C 219.761719 40.992188 214.238281 31.328125 206.597656 23.730469 C 205.15625 22.335938 203.472656 20.894531 201.453125 20.992188 C 198.234375 21.183594 196.746094 25.03125 196.121094 28.203125 C 195.449219 31.664062 194.871094 35.125 194.390625 38.636719 C 193.191406 48.058594 193.046875 58.492188 198.765625 66.039062 C 200.878906 64.308594 202.128906 61.519531 201.933594 58.78125 C 202.945312 59.839844 203.953125 60.894531 204.960938 61.90625 C 205.875 60.703125 206.308594 59.117188 206.210938 57.625 C 207.507812 59.164062 209.960938 57.769531 211.546875 56.570312 C 214.8125 54.070312 218.753906 52.433594 222.839844 51.855469 " fill-opacity="1" fill-rule="nonzero"/><path fill="#e2a59f" d="M 203.617188 182.824219 C 205.925781 180.277344 207.460938 176.621094 206.210938 173.449219 C 205.300781 171.140625 202.847656 169.507812 200.347656 169.554688 C 197.851562 169.601562 195.496094 171.285156 194.632812 173.59375 C 194.488281 174.027344 194.34375 174.457031 194.007812 174.699219 C 193.527344 175.035156 192.851562 174.84375 192.277344 174.699219 C 190.5 174.21875 188.480469 174.265625 186.941406 175.277344 C 186.222656 175.757812 185.691406 176.429688 185.210938 177.152344 C 184.15625 178.6875 183.433594 180.515625 183.386719 182.4375 C 183.339844 184.363281 184.105469 186.238281 185.550781 187.488281 C 187.230469 188.882812 189.632812 189.171875 191.84375 189.121094 C 194.054688 189.074219 196.3125 188.832031 198.425781 189.457031 C 199.148438 189.699219 199.867188 189.988281 200.636719 190.082031 C 201.40625 190.179688 202.273438 189.988281 202.753906 189.363281 C 203.039062 188.976562 203.136719 188.449219 203.183594 187.96875 C 203.519531 185.804688 203.859375 183.640625 204.144531 181.527344 " fill-opacity="1" fill-rule="nonzero"/><g clip-path="url(#7d42cdb54c)"><path fill="#8b5312" d="M 230 51.28125 C 230.238281 50.894531 230.191406 50.558594 230.144531 50.125 C 230.09375 49.839844 230 49.550781 229.949219 49.261719 C 229.804688 48.683594 229.710938 48.105469 229.519531 47.53125 C 229.277344 46.519531 228.988281 45.464844 228.703125 44.453125 C 228.222656 42.769531 227.597656 41.085938 226.972656 39.453125 C 225.722656 36.183594 224.28125 33.011719 222.648438 29.933594 C 219.714844 24.355469 216.253906 18.539062 211.015625 14.835938 C 209.527344 13.777344 207.894531 12.914062 206.210938 12.289062 C 205.347656 12 204.480469 11.710938 203.570312 11.519531 C 202.65625 11.328125 201.695312 11.421875 200.78125 11.519531 C 200.398438 11.566406 199.964844 11.566406 199.582031 11.664062 C 199.148438 11.757812 198.765625 12 198.378906 12.144531 C 197.660156 12.433594 197.851562 13.492188 198.570312 13.636719 C 199.101562 13.730469 199.582031 13.875 200.109375 13.921875 C 200.398438 13.972656 200.6875 13.972656 201.023438 14.019531 C 201.695312 14.164062 202.367188 14.402344 203.039062 14.5 C 203.234375 14.546875 203.425781 14.597656 203.570312 14.597656 C 203.617188 14.597656 203.953125 14.691406 203.808594 14.644531 C 204.195312 14.742188 204.53125 14.835938 204.867188 14.980469 C 206.261719 15.460938 207.558594 16.085938 208.757812 16.902344 C 211.210938 18.539062 213.226562 20.652344 214.957031 23.011719 C 216.734375 25.367188 218.273438 27.960938 219.667969 30.558594 C 221.300781 33.585938 222.839844 36.664062 224.136719 39.886719 C 225.675781 43.636719 227.019531 47.433594 228.269531 51.28125 C 228.363281 51.617188 228.75 51.761719 229.085938 51.855469 C 229.085938 51.855469 229.132812 51.855469 229.132812 51.855469 C 229.664062 51.90625 229.804688 51.570312 230 51.28125 Z M 230 51.28125 " fill-opacity="1" fill-rule="nonzero"/></g><path fill="#8b5312" d="M 195.59375 13.636719 C 194.824219 14.789062 193.957031 15.941406 193.285156 17.144531 C 192.804688 18.011719 192.324219 18.921875 191.890625 19.789062 C 190.929688 21.710938 190.113281 23.683594 189.394531 25.703125 C 188 29.5 187.085938 33.441406 186.460938 37.480469 C 185.355469 45.03125 185.789062 52.769531 187.375 60.222656 C 187.757812 62.050781 188.191406 63.925781 188.960938 65.65625 C 189.34375 66.570312 189.875 67.484375 190.449219 68.300781 C 190.691406 68.636719 190.980469 68.972656 191.265625 69.308594 C 191.507812 69.550781 191.746094 69.789062 191.988281 69.984375 C 192.371094 70.320312 192.804688 70.414062 193.332031 70.558594 C 194.199219 70.753906 195.160156 69.695312 194.726562 68.878906 C 194.4375 68.347656 194.246094 68.058594 193.863281 67.628906 C 193.765625 67.53125 193.671875 67.433594 193.527344 67.339844 C 193.238281 67.050781 192.996094 66.761719 192.757812 66.425781 C 192.660156 66.28125 192.566406 66.136719 192.421875 65.945312 C 192.371094 65.847656 192.324219 65.800781 192.277344 65.703125 C 192.132812 65.511719 192.371094 65.894531 192.277344 65.703125 C 192.085938 65.367188 191.890625 64.984375 191.746094 64.597656 C 191.074219 63.15625 190.691406 61.570312 190.304688 60.03125 C 189.488281 56.519531 188.960938 52.914062 188.769531 49.308594 C 188.335938 41.953125 189.105469 34.5 191.171875 27.433594 C 191.84375 25.222656 192.613281 23.058594 193.527344 20.941406 C 193.957031 19.886719 194.488281 18.875 194.96875 17.867188 C 195.542969 16.664062 196.023438 15.511719 196.648438 14.355469 C 197.082031 13.636719 196.074219 12.960938 195.59375 13.636719 Z M 195.59375 13.636719 " fill-opacity="1" fill-rule="nonzero"/><path fill="#8b5312" d="M 226.539062 39.308594 C 227.546875 40.125 228.988281 40.269531 230.191406 40.605469 C 231.488281 40.945312 232.835938 41.328125 234.132812 41.664062 C 236.292969 42.242188 238.457031 42.820312 240.570312 43.394531 C 242.347656 43.875 244.078125 44.355469 245.808594 44.933594 C 246.578125 45.222656 247.394531 45.464844 248.164062 45.800781 C 248.546875 45.945312 248.882812 46.089844 249.269531 46.28125 C 249.414062 46.328125 249.605469 46.425781 249.75 46.472656 C 249.988281 46.570312 249.558594 46.375 249.796875 46.472656 C 249.894531 46.519531 250.039062 46.570312 250.132812 46.617188 C 250.902344 47 251.71875 47.433594 252.441406 47.914062 C 253.066406 48.300781 253.6875 48.636719 254.3125 49.019531 C 254.792969 49.308594 255.324219 49.5 255.753906 49.789062 C 256.09375 49.980469 256.429688 50.125 256.71875 50.367188 C 257.003906 50.605469 257.484375 50.269531 257.339844 49.933594 C 257.246094 49.695312 257.148438 49.5 257.101562 49.261719 C 256.957031 48.875 256.71875 48.539062 256.574219 48.15625 C 256.476562 47.964844 256.429688 47.722656 256.332031 47.53125 C 256.1875 47.242188 255.949219 47.050781 255.753906 46.808594 C 255.324219 46.328125 254.988281 45.945312 254.507812 45.558594 C 253.882812 45.125 253.207031 44.695312 252.488281 44.308594 C 251 43.492188 249.414062 42.820312 247.777344 42.289062 C 243.839844 40.945312 239.800781 40.03125 235.765625 39.164062 C 234.46875 38.875 233.171875 38.636719 231.871094 38.492188 C 230.910156 38.394531 229.949219 38.203125 228.988281 38.105469 C 228.269531 38.011719 227.597656 37.960938 226.875 38.203125 C 226.394531 38.445312 226.15625 39.019531 226.539062 39.308594 Z M 226.539062 39.308594 " fill-opacity="1" fill-rule="nonzero"/><path fill="#8b5312" d="M 255.851562 48.539062 C 255.179688 51.953125 255.035156 55.511719 254.601562 58.972656 C 254.554688 59.5 255.082031 59.984375 255.613281 60.03125 C 256.140625 60.03125 256.667969 59.597656 256.667969 59.019531 C 256.621094 55.558594 257.054688 52.144531 256.859375 48.683594 C 256.859375 48.105469 255.996094 47.964844 255.851562 48.539062 Z M 255.851562 48.539062 " fill-opacity="1" fill-rule="nonzero"/><path fill="#8b5312" d="M 251.71875 56.28125 C 253.160156 58.78125 254.792969 61.136719 256.285156 63.589844 C 257.484375 65.609375 258.640625 67.675781 259.648438 69.789062 C 261.570312 73.828125 263.058594 78.058594 264.308594 82.386719 C 266.761719 90.992188 267.960938 99.839844 268.777344 108.734375 C 269.691406 118.78125 270.21875 128.925781 270.414062 139.023438 C 270.605469 149.9375 270.21875 160.949219 268.203125 171.71875 C 267.433594 175.757812 266.375 179.699219 264.742188 183.496094 C 263.109375 187.34375 260.753906 190.613281 257.820312 193.59375 C 257.199219 194.21875 256.667969 194.941406 255.996094 195.515625 C 255.46875 195.996094 254.9375 196.429688 254.410156 196.816406 C 253.976562 197.152344 254.265625 197.921875 254.84375 197.777344 C 256.910156 197.152344 258.925781 196.382812 260.609375 194.941406 C 261.570312 194.121094 262.433594 193.207031 263.253906 192.246094 C 264.550781 190.613281 265.65625 188.785156 266.617188 186.910156 C 268.539062 183.160156 269.835938 179.074219 270.75 174.9375 C 271.855469 169.84375 272.476562 164.648438 272.910156 159.457031 C 273.390625 153.832031 273.488281 148.207031 273.441406 142.582031 C 273.34375 132.003906 272.71875 121.425781 271.855469 110.898438 C 271.085938 101.8125 269.929688 92.722656 267.671875 83.925781 C 266.519531 79.503906 265.078125 75.128906 263.15625 70.945312 C 261.089844 66.425781 258.589844 61.761719 255.132812 58.15625 C 254.265625 57.242188 253.449219 56.425781 252.488281 55.65625 C 252.054688 55.414062 251.480469 55.894531 251.71875 56.28125 Z M 251.71875 56.28125 " fill-opacity="1" fill-rule="nonzero"/><path fill="#8b5312" d="M 259.359375 193.785156 C 259.3125 194.410156 259.214844 195.035156 259.121094 195.710938 C 259.023438 196.382812 259.070312 197.054688 259.023438 197.726562 C 258.976562 198.929688 258.925781 200.132812 258.925781 201.382812 C 258.925781 203.738281 258.878906 206.140625 258.832031 208.496094 C 258.78125 213.160156 258.6875 217.824219 258.6875 222.441406 C 258.640625 231.289062 258.589844 240.132812 258.542969 248.980469 C 258.542969 251.480469 258.542969 253.980469 258.496094 256.480469 C 258.496094 257.777344 258.496094 259.078125 258.445312 260.328125 C 258.445312 260.953125 258.445312 261.625 258.445312 262.25 C 258.445312 262.539062 258.445312 262.828125 258.445312 263.117188 C 258.445312 263.644531 258.542969 264.078125 258.78125 264.558594 C 258.976562 264.992188 259.261719 265.277344 259.746094 265.328125 C 260.175781 265.375 260.65625 265.132812 260.800781 264.75 C 260.992188 264.316406 261.1875 263.933594 261.1875 263.453125 C 261.1875 263.164062 261.1875 262.875 261.1875 262.585938 C 261.1875 262.007812 261.1875 261.433594 261.1875 260.902344 C 261.1875 259.796875 261.1875 258.691406 261.1875 257.632812 C 261.1875 255.183594 261.1875 252.777344 261.1875 250.328125 C 261.1875 245.855469 261.136719 241.382812 261.136719 236.863281 C 261.089844 227.96875 261.042969 219.074219 260.945312 210.230469 C 260.898438 207.441406 260.898438 204.652344 260.847656 201.863281 C 260.847656 200.515625 260.800781 199.21875 260.800781 197.871094 C 260.800781 197.246094 260.753906 196.671875 260.753906 196.046875 C 260.707031 195.226562 260.511719 194.460938 260.464844 193.640625 C 260.464844 193.066406 259.40625 193.160156 259.359375 193.785156 Z M 259.359375 193.785156 " fill-opacity="1" fill-rule="nonzero"/><path fill="#8b5312" d="M 255.417969 256.238281 C 256.285156 257.828125 257.054688 259.460938 257.679688 261.144531 C 258.300781 262.875 258.878906 264.605469 259.40625 266.386719 C 260.367188 269.605469 261.042969 272.875 261.425781 276.242188 C 261.523438 277.15625 261.617188 277.875 261.667969 278.644531 C 261.714844 279.316406 261.761719 279.941406 261.859375 280.617188 C 261.953125 281.191406 262.050781 281.675781 262.386719 282.15625 C 262.628906 282.492188 262.867188 282.828125 263.058594 283.164062 C 263.203125 283.40625 263.539062 283.40625 263.683594 283.164062 C 263.972656 282.683594 264.308594 282.25 264.550781 281.722656 C 264.742188 281.289062 264.789062 280.953125 264.839844 280.519531 C 264.886719 279.894531 264.886719 279.316406 264.839844 278.742188 C 264.742188 277.78125 264.695312 276.867188 264.550781 275.90625 C 264.355469 274.222656 264.019531 272.585938 263.683594 270.902344 C 262.914062 267.25 261.714844 263.691406 260.128906 260.328125 C 259.3125 258.597656 258.398438 256.863281 257.484375 255.183594 C 257.199219 254.652344 256.523438 254.363281 255.949219 254.652344 C 255.371094 254.941406 255.082031 255.664062 255.417969 256.238281 Z M 255.417969 256.238281 " fill-opacity="1" fill-rule="nonzero"/><path fill="#8b5312" d="M 259.792969 277.683594 C 259.839844 277.921875 259.839844 278.210938 259.9375 278.453125 C 260.082031 278.886719 260.320312 279.367188 260.511719 279.796875 C 260.992188 280.808594 261.523438 281.867188 262.195312 282.78125 C 262.914062 283.789062 263.683594 284.800781 264.453125 285.761719 C 265.941406 287.539062 267.480469 289.175781 269.164062 290.761719 C 270.75 292.25 272.429688 293.597656 274.207031 294.847656 C 275.699219 295.90625 277.285156 296.820312 278.820312 297.78125 C 279.589844 298.261719 280.359375 298.742188 281.082031 299.320312 C 281.5625 299.703125 281.992188 300.039062 282.523438 300.328125 C 282.90625 300.570312 283.339844 300.714844 283.675781 301.050781 C 284.011719 301.386719 284.300781 301.867188 284.445312 302.347656 C 284.589844 302.730469 285.164062 302.636719 285.210938 302.25 C 285.308594 301.195312 284.972656 300.714844 284.875 299.320312 C 284.875 298.980469 284.828125 298.742188 284.730469 298.40625 C 284.589844 297.972656 284.109375 297.445312 283.769531 297.105469 C 283.578125 296.914062 283.386719 296.722656 283.195312 296.578125 C 282.570312 296.050781 281.945312 295.617188 281.273438 295.183594 C 279.734375 294.222656 278.101562 293.40625 276.609375 292.347656 C 273.054688 289.945312 269.691406 287.058594 266.808594 283.886719 C 265.992188 283.019531 265.222656 282.105469 264.5 281.191406 C 263.875 280.421875 263.203125 279.703125 262.53125 278.980469 C 262.242188 278.644531 261.90625 278.261719 261.570312 277.921875 C 261.28125 277.585938 260.992188 277.394531 260.65625 277.105469 C 260.226562 276.769531 259.648438 277.203125 259.792969 277.683594 Z M 259.792969 277.683594 " fill-opacity="1" fill-rule="nonzero"/><path fill="#8b5312" d="M 281.703125 300.136719 C 282.183594 300.328125 282.664062 300.519531 283.144531 300.761719 C 283.386719 300.90625 283.628906 301.050781 283.867188 301.195312 C 284.058594 301.339844 284.25 301.433594 284.445312 301.578125 C 285.117188 302.105469 285.453125 302.925781 286.03125 303.5 C 286.847656 304.320312 287.808594 304.992188 288.578125 305.90625 C 290.066406 307.636719 291.171875 309.703125 291.507812 311.914062 C 291.507812 312.011719 291.554688 312.15625 291.554688 312.253906 C 291.652344 312.78125 291.554688 311.964844 291.554688 312.492188 C 291.554688 312.78125 291.554688 313.070312 291.554688 313.359375 C 291.554688 313.453125 291.554688 313.597656 291.554688 313.695312 C 291.554688 313.742188 291.460938 314.320312 291.554688 313.886719 C 291.507812 314.175781 291.460938 314.414062 291.410156 314.703125 C 291.363281 314.945312 291.316406 315.136719 291.21875 315.328125 C 291.363281 314.945312 291.171875 315.425781 291.171875 315.472656 C 291.125 315.570312 291.074219 315.664062 291.027344 315.761719 C 290.929688 316.003906 290.785156 316.195312 290.691406 316.433594 C 290.449219 316.867188 290.882812 316.195312 290.59375 316.578125 C 290.5 316.675781 290.402344 316.820312 290.355469 316.914062 C 290.210938 317.109375 290.066406 317.300781 289.875 317.492188 C 289.585938 317.828125 290.066406 317.347656 289.824219 317.539062 C 289.730469 317.636719 289.632812 317.683594 289.585938 317.78125 C 289.394531 317.925781 289.203125 318.070312 289.007812 318.214844 C 288.769531 318.40625 288.960938 318.261719 289.007812 318.214844 C 288.863281 318.308594 288.671875 318.40625 288.527344 318.453125 C 288.289062 318.550781 288.046875 318.644531 287.808594 318.742188 C 287.855469 318.742188 288.097656 318.695312 287.808594 318.742188 C 287.664062 318.789062 287.566406 318.789062 287.421875 318.839844 C 287.183594 318.886719 286.941406 318.933594 286.65625 318.933594 C 286.511719 318.933594 286.414062 318.933594 286.269531 318.984375 C 285.835938 319.03125 286.511719 318.984375 286.125 318.984375 C 284.875 318.933594 283.722656 318.789062 282.472656 318.597656 C 282.136719 318.550781 281.847656 318.503906 281.511719 318.453125 C 280.9375 318.359375 280.359375 318.40625 279.78125 318.453125 C 279.109375 318.503906 278.339844 318.503906 277.714844 318.839844 C 277.285156 319.03125 276.949219 319.367188 276.5625 319.65625 C 276.273438 319.898438 276.371094 320.378906 276.707031 320.472656 C 276.996094 320.570312 277.234375 320.714844 277.476562 320.859375 C 277.910156 321.097656 278.292969 321.148438 278.773438 321.289062 C 279.445312 321.484375 280.117188 321.722656 280.792969 321.820312 C 281.367188 321.914062 281.945312 322.011719 282.523438 322.109375 C 283.578125 322.253906 284.589844 322.398438 285.644531 322.445312 C 288 322.492188 290.304688 321.867188 292.035156 320.183594 C 293.8125 318.453125 294.824219 316.050781 294.871094 313.550781 C 294.917969 310.953125 294.054688 308.40625 292.660156 306.242188 C 291.890625 304.992188 290.980469 303.933594 289.921875 302.925781 C 288.863281 301.867188 287.183594 300.28125 285.597656 301 C 285.835938 301 286.125 300.953125 286.367188 300.953125 C 284.828125 300.570312 283.289062 300.089844 281.703125 299.847656 C 281.5625 299.75 281.511719 300.089844 281.703125 300.136719 Z M 281.703125 300.136719 " fill-opacity="1" fill-rule="nonzero"/><g clip-path="url(#78d7d36708)"><path fill="#8b5312" d="M 291.027344 318.164062 C 291.265625 318.070312 291.652344 318.261719 291.890625 318.359375 C 292.371094 318.597656 292.804688 318.984375 293.191406 319.269531 C 293.527344 319.558594 293.863281 319.847656 294.152344 320.183594 C 294.726562 320.761719 295.160156 321.433594 295.542969 322.109375 C 296.265625 323.308594 296.746094 324.703125 296.9375 326.003906 C 297.128906 327.492188 297.179688 329.128906 296.984375 330.472656 C 296.890625 331.292969 296.746094 332.109375 296.601562 332.878906 C 296.554688 333.214844 296.457031 333.550781 296.359375 333.933594 C 296.3125 334.222656 296.410156 333.695312 296.359375 333.984375 C 296.359375 334.078125 296.3125 334.128906 296.3125 334.222656 C 296.265625 334.417969 296.21875 334.609375 296.167969 334.753906 C 295.976562 335.425781 295.785156 336.097656 295.496094 336.722656 C 295.449219 336.820312 295.449219 336.867188 295.398438 336.964844 C 295.398438 336.917969 295.496094 336.722656 295.398438 336.917969 C 295.304688 337.0625 295.257812 337.253906 295.160156 337.445312 C 295.015625 337.734375 294.871094 338.070312 294.679688 338.359375 C 294.582031 338.503906 294.488281 338.695312 294.390625 338.839844 C 294.246094 339.128906 294.488281 338.742188 294.296875 338.984375 C 294.101562 339.273438 293.910156 339.5625 293.671875 339.800781 C 293.574219 339.945312 293.429688 340.089844 293.332031 340.234375 C 293.09375 340.472656 293.476562 340.136719 293.238281 340.328125 C 292.996094 340.570312 292.710938 340.8125 292.46875 341.050781 C 292.371094 341.148438 292.230469 341.242188 292.085938 341.339844 C 291.988281 341.386719 291.699219 341.578125 291.941406 341.4375 C 291.652344 341.628906 291.316406 341.773438 291.027344 341.917969 C 290.738281 342.0625 290.5 342.15625 290.210938 342.253906 C 290.113281 342.300781 289.777344 342.398438 290.066406 342.300781 C 289.875 342.347656 289.683594 342.398438 289.488281 342.445312 C 288.863281 342.589844 288.191406 342.6875 287.566406 342.78125 C 287.230469 342.828125 287.757812 342.78125 287.421875 342.78125 C 287.277344 342.78125 287.136719 342.78125 286.941406 342.78125 C 286.605469 342.78125 286.222656 342.78125 285.886719 342.734375 C 285.5 342.6875 285.117188 342.636719 284.730469 342.589844 C 284.539062 342.542969 284.394531 342.542969 284.203125 342.492188 C 284.539062 342.542969 284.109375 342.445312 283.964844 342.445312 C 283.144531 342.253906 282.378906 342.011719 281.609375 341.722656 C 281.222656 341.578125 280.839844 341.386719 280.40625 341.242188 C 280.214844 341.148438 280.023438 341.097656 279.878906 341.003906 C 279.832031 341.003906 279.589844 340.859375 279.832031 340.953125 C 279.734375 340.90625 279.636719 340.859375 279.542969 340.8125 C 278.871094 340.472656 278.195312 340.136719 277.476562 339.898438 C 276.707031 339.609375 275.9375 339.320312 275.121094 339.511719 C 275.363281 339.5625 275.601562 339.609375 275.84375 339.609375 C 275.265625 339.320312 274.738281 339.078125 274.113281 339.03125 C 273.726562 338.984375 273.34375 339.464844 273.535156 339.847656 C 273.632812 339.992188 273.726562 340.1875 273.824219 340.328125 C 274.015625 340.570312 274.257812 340.714844 274.449219 340.90625 C 274.738281 341.242188 274.929688 341.628906 275.265625 341.964844 C 275.554688 342.253906 275.84375 342.492188 276.128906 342.734375 C 276.515625 343.023438 276.851562 343.3125 277.285156 343.550781 C 278.101562 343.984375 278.917969 344.367188 279.734375 344.753906 C 281.273438 345.425781 282.90625 345.859375 284.589844 346.148438 C 287.617188 346.582031 290.929688 346.148438 293.574219 344.511719 C 296.503906 342.6875 298.234375 339.65625 299.148438 336.386719 C 300.207031 332.683594 300.636719 328.695312 299.820312 324.898438 C 299.390625 322.972656 298.523438 321.003906 297.179688 319.464844 C 296.359375 318.550781 295.449219 317.683594 294.390625 317.15625 C 293.332031 316.628906 290.449219 315.714844 290.402344 317.734375 C 290.449219 318.019531 290.738281 318.261719 291.027344 318.164062 Z M 291.027344 318.164062 " fill-opacity="1" fill-rule="nonzero"/></g><g clip-path="url(#ba36130019)"><path fill="#8b5312" d="M 294.871094 342.109375 C 294.726562 342.445312 294.488281 342.828125 294.4375 343.167969 C 294.390625 343.695312 294.535156 344.175781 294.632812 344.707031 C 294.777344 345.472656 294.777344 346.195312 294.726562 346.964844 C 294.632812 348.070312 294.535156 349.128906 294.246094 350.136719 C 294.007812 351.003906 293.621094 351.867188 293.191406 352.6875 C 293.09375 352.878906 292.949219 353.117188 292.851562 353.3125 C 292.804688 353.40625 292.710938 353.550781 292.660156 353.648438 C 292.710938 353.601562 292.804688 353.40625 292.613281 353.695312 C 292.324219 354.082031 292.035156 354.511719 291.699219 354.898438 C 291.074219 355.667969 290.304688 356.292969 289.539062 356.867188 C 289.152344 357.15625 288.71875 357.445312 288.335938 357.6875 C 288.578125 357.542969 288.097656 357.832031 288.046875 357.832031 C 287.808594 357.976562 287.617188 358.070312 287.375 358.167969 C 286.941406 358.359375 286.511719 358.550781 286.125 358.742188 C 286.03125 358.792969 285.933594 358.839844 285.835938 358.839844 C 285.355469 359.03125 286.03125 358.792969 285.742188 358.886719 C 285.5 358.984375 285.261719 359.03125 285.019531 359.128906 C 284.589844 359.273438 284.15625 359.367188 283.722656 359.464844 C 283.484375 359.511719 283.195312 359.5625 282.953125 359.609375 C 282.859375 359.609375 282.761719 359.65625 282.664062 359.65625 C 282.953125 359.609375 282.570312 359.65625 282.472656 359.65625 C 281.5625 359.800781 280.597656 359.851562 279.6875 359.851562 C 279.589844 359.851562 279.496094 359.851562 279.398438 359.851562 C 278.871094 359.851562 279.589844 359.898438 279.253906 359.851562 C 279.015625 359.800781 278.726562 359.800781 278.484375 359.800781 C 277.957031 359.753906 277.429688 359.707031 276.898438 359.609375 C 274.929688 359.273438 273.007812 358.648438 271.132812 357.78125 C 271.035156 357.734375 270.941406 357.6875 270.84375 357.636719 C 270.363281 357.398438 270.988281 357.734375 270.75 357.589844 C 270.507812 357.492188 270.316406 357.351562 270.074219 357.253906 C 269.59375 357.011719 269.164062 356.773438 268.683594 356.484375 C 267.769531 355.957031 266.902344 355.378906 266.085938 354.753906 C 265.894531 354.609375 265.703125 354.464844 265.511719 354.320312 C 265.414062 354.273438 265.320312 354.175781 265.222656 354.082031 C 265.269531 354.128906 264.839844 353.742188 264.980469 353.886719 C 265.175781 354.03125 264.695312 353.648438 264.742188 353.695312 C 264.644531 353.601562 264.550781 353.550781 264.5 353.457031 C 264.261719 353.261719 264.070312 353.070312 263.875 352.878906 C 263.15625 352.15625 262.484375 351.4375 261.859375 350.617188 C 261.808594 350.523438 261.714844 350.425781 261.667969 350.378906 C 261.570312 350.28125 261.617188 350.28125 261.714844 350.425781 C 261.667969 350.378906 261.617188 350.28125 261.570312 350.234375 C 261.425781 349.992188 261.234375 349.753906 261.089844 349.511719 C 260.800781 349.082031 260.511719 348.597656 260.273438 348.167969 C 259.746094 347.207031 259.261719 346.242188 258.832031 345.234375 C 258.589844 344.707031 258.398438 344.222656 258.160156 343.695312 C 258.109375 343.597656 258.0625 343.503906 258.0625 343.40625 C 258.207031 343.742188 258.015625 343.261719 258.015625 343.214844 C 257.917969 342.972656 257.820312 342.734375 257.726562 342.445312 C 257.101562 340.8125 256.378906 339.03125 255.132812 337.78125 C 254.652344 337.347656 253.785156 337.589844 253.640625 338.261719 C 253.304688 340.234375 253.976562 342.347656 254.652344 344.175781 C 255.035156 345.234375 255.46875 346.242188 255.949219 347.253906 C 256.8125 349.175781 257.871094 351.003906 259.121094 352.6875 C 261.714844 356.195312 265.367188 358.886719 269.257812 360.714844 C 273.199219 362.589844 277.667969 363.648438 282.042969 363.167969 C 286.316406 362.6875 290.644531 360.90625 293.574219 357.636719 C 295.351562 355.667969 296.601562 353.359375 297.226562 350.8125 C 297.515625 349.65625 297.660156 348.40625 297.609375 347.253906 C 297.5625 346.050781 297.324219 344.65625 296.84375 343.550781 C 296.503906 342.734375 295.976562 342.300781 295.113281 342.011719 C 294.96875 342.0625 294.871094 342.0625 294.871094 342.109375 Z M 294.871094 342.109375 " fill-opacity="1" fill-rule="nonzero"/></g><path fill="#8b5312" d="M 250.324219 339.847656 C 250.566406 339.511719 250.804688 339.175781 251.046875 338.839844 C 251.765625 338.503906 251.960938 338.070312 251.671875 337.636719 C 251.625 337.492188 251.527344 337.347656 251.480469 337.253906 C 251.335938 337.011719 251.238281 336.773438 251.09375 336.53125 C 250.855469 336.097656 250.566406 335.714844 250.277344 335.328125 C 249.75 334.65625 249.171875 333.984375 248.5 333.40625 C 247.441406 332.398438 246.242188 331.578125 245.039062 330.808594 C 242.492188 329.273438 239.707031 328.214844 236.964844 327.15625 C 235.574219 326.628906 234.179688 326.050781 232.785156 325.472656 C 232.066406 325.136719 231.390625 324.800781 230.671875 324.464844 C 230.335938 324.273438 230 324.128906 229.710938 323.933594 C 229.710938 323.933594 229.46875 323.789062 229.613281 323.886719 C 229.757812 323.984375 229.519531 323.839844 229.519531 323.839844 C 229.324219 323.742188 229.183594 323.648438 229.039062 323.503906 C 228.363281 323.070312 227.742188 322.589844 227.117188 322.109375 C 226.828125 321.867188 226.539062 321.628906 226.25 321.386719 C 226.105469 321.289062 225.960938 321.148438 225.867188 321.050781 C 225.722656 320.90625 225.816406 321.003906 225.867188 321.050781 C 225.769531 320.953125 225.675781 320.859375 225.53125 320.761719 C 224.375 319.65625 223.320312 318.503906 222.261719 317.347656 C 220.964844 315.953125 219.667969 314.558594 218.371094 313.117188 C 217.648438 312.347656 216.976562 311.53125 216.207031 310.859375 C 215.726562 310.425781 215.292969 310.089844 214.71875 309.800781 C 214.429688 309.65625 214.1875 309.464844 213.949219 309.269531 C 213.515625 308.933594 213.132812 308.597656 212.652344 308.359375 C 212.316406 308.214844 211.980469 308.117188 211.640625 307.972656 C 211.402344 307.875 211.113281 308.117188 211.210938 308.359375 C 211.355469 308.789062 211.449219 309.222656 211.640625 309.609375 C 212.027344 310.328125 212.554688 311.003906 212.890625 311.769531 C 213.324219 312.828125 214.285156 313.695312 215.054688 314.511719 C 216.207031 315.761719 217.359375 316.964844 218.515625 318.214844 C 220.773438 320.617188 222.984375 323.117188 225.625 325.136719 C 230.671875 328.984375 236.964844 330.136719 242.539062 333.023438 C 243.789062 333.695312 244.992188 334.417969 246.144531 335.28125 C 246.867188 335.8125 247.585938 336.4375 248.210938 337.109375 C 248.546875 337.445312 248.882812 337.828125 249.171875 338.214844 C 249.558594 338.695312 249.84375 339.222656 250.277344 339.703125 C 250.179688 339.511719 250.132812 339.367188 250.039062 339.175781 C 250.085938 339.367188 250.132812 339.609375 250.230469 339.753906 C 250.179688 339.609375 250.132812 339.417969 250.085938 339.273438 C 249.988281 339.417969 250.039062 339.703125 250.324219 339.847656 Z M 250.324219 339.847656 " fill-opacity="1" fill-rule="nonzero"/><path fill="#8b5312" d="M 208.808594 302.636719 C 208.757812 302.589844 208.710938 303.355469 208.710938 303.453125 C 208.710938 303.644531 208.710938 303.789062 208.710938 303.980469 C 208.710938 304.320312 208.710938 304.65625 208.710938 304.992188 C 208.710938 305.234375 208.710938 305.519531 208.710938 305.761719 C 208.710938 305.953125 208.710938 306.144531 208.757812 306.339844 C 208.808594 306.578125 208.902344 306.769531 209.046875 306.964844 C 209 306.867188 208.953125 306.722656 208.902344 306.625 C 209 307.300781 209.09375 307.972656 209.289062 308.597656 C 209.382812 308.839844 209.769531 308.886719 209.863281 308.644531 C 209.960938 308.40625 210.007812 308.117188 210.054688 307.828125 C 210.199219 307.203125 210.394531 306.578125 210.441406 305.953125 C 210.488281 305.425781 210.488281 304.894531 210.441406 304.414062 C 210.441406 303.886719 210.441406 303.308594 210.34375 302.78125 C 210.296875 302.347656 210.152344 301.820312 209.625 301.769531 C 209.382812 301.722656 209.144531 301.820312 209 301.964844 C 208.953125 302.105469 208.613281 302.539062 208.808594 302.636719 Z M 208.808594 302.636719 " fill-opacity="1" fill-rule="nonzero"/><path fill="#8b5312" d="M 205.105469 299.703125 C 205.058594 299.945312 204.960938 300.183594 204.914062 300.425781 C 204.820312 300.953125 204.722656 301.480469 204.625 302.058594 C 204.578125 302.492188 204.578125 302.972656 204.53125 303.40625 C 204.53125 303.886719 204.53125 304.367188 204.578125 304.847656 C 204.675781 305.714844 204.769531 306.675781 205.394531 307.300781 C 205.585938 307.492188 205.972656 307.492188 206.117188 307.25 C 206.644531 306.53125 206.597656 305.519531 206.597656 304.703125 C 206.597656 304.367188 206.644531 304.03125 206.644531 303.695312 C 206.691406 303.117188 206.691406 302.589844 206.789062 302.058594 C 206.835938 301.769531 206.835938 301.480469 206.886719 301.144531 C 206.933594 300.714844 207.027344 300.328125 207.027344 299.894531 C 207.027344 299.367188 206.691406 298.839844 206.117188 298.789062 C 205.636719 298.742188 205.15625 299.175781 205.105469 299.703125 Z M 205.105469 299.703125 " fill-opacity="1" fill-rule="nonzero"/><path fill="#8b5312" d="M 204.53125 296.578125 C 203.472656 294.945312 202.175781 293.453125 200.878906 291.960938 C 200.0625 291 199.292969 289.992188 198.570312 288.980469 C 197.320312 287.300781 196.074219 285.664062 194.917969 283.886719 C 192.660156 280.519531 190.644531 276.960938 189.007812 273.261719 C 188.191406 271.386719 187.421875 269.511719 186.703125 267.585938 C 186.558594 267.152344 186.367188 266.671875 186.222656 266.242188 C 186.316406 266.527344 186.125 266 186.125 265.902344 C 186.03125 265.617188 185.933594 265.328125 185.835938 265.085938 C 185.5 263.980469 185.164062 262.921875 184.875 261.816406 C 183.675781 257.394531 182.808594 252.875 181.992188 248.355469 C 181.511719 245.808594 181.03125 243.210938 180.597656 240.664062 C 180.3125 239.171875 180.023438 237.730469 179.734375 236.238281 C 179.542969 235.324219 179.445312 234.21875 179.0625 233.355469 C 178.917969 233.066406 178.675781 232.777344 178.53125 232.441406 C 178.246094 231.914062 177.714844 231.625 177.429688 231.09375 C 177.285156 230.855469 176.804688 230.855469 176.753906 231.144531 C 176.707031 231.335938 176.707031 231.527344 176.609375 231.671875 C 176.515625 231.914062 176.324219 232.152344 176.226562 232.394531 C 176.128906 232.683594 176.128906 232.96875 176.082031 233.257812 C 175.9375 234.269531 176.082031 235.230469 176.226562 236.238281 C 176.46875 237.539062 176.660156 238.835938 176.898438 240.132812 C 177.332031 242.441406 177.765625 244.75 178.195312 247.058594 C 179.0625 251.625 179.878906 256.191406 180.984375 260.664062 C 182.042969 264.847656 183.386719 268.980469 185.117188 272.921875 C 186.847656 276.867188 188.914062 280.664062 191.265625 284.316406 C 192.515625 286.289062 193.910156 288.164062 195.398438 289.945312 C 196.410156 291.195312 197.515625 292.394531 198.667969 293.550781 C 200.207031 295.089844 201.742188 296.578125 203.617188 297.636719 C 204.339844 298.164062 204.914062 297.15625 204.53125 296.578125 Z M 204.53125 296.578125 " fill-opacity="1" fill-rule="nonzero"/><path fill="#8b5312" d="M 109.914062 134.792969 C 109.816406 136.910156 109.527344 138.976562 109.429688 141.089844 C 109.382812 142.679688 109.289062 144.265625 109.289062 145.804688 C 109.238281 148.785156 109.144531 151.8125 109.09375 154.792969 C 109.046875 160.324219 108.855469 165.898438 109.144531 171.429688 C 109.429688 176.382812 110.152344 181.285156 111.640625 186.046875 C 112.890625 190.035156 114.574219 193.882812 116.6875 197.535156 C 121.011719 204.988281 126.921875 211.480469 133.890625 216.574219 C 141.292969 221.960938 149.941406 225.613281 158.878906 227.539062 C 168.539062 229.554688 178.582031 229.699219 188.289062 227.96875 C 188.863281 227.875 189.539062 227.824219 190.066406 227.585938 C 190.402344 227.441406 190.691406 227.199219 190.980469 227.007812 C 191.460938 226.671875 191.941406 226.429688 192.46875 226.191406 C 193.191406 225.855469 193.046875 224.554688 192.179688 224.554688 C 191.605469 224.554688 191.125 224.554688 190.546875 224.460938 C 190.210938 224.410156 189.875 224.316406 189.585938 224.269531 C 189.152344 224.21875 188.71875 224.363281 188.335938 224.410156 C 187.710938 224.507812 187.136719 224.605469 186.511719 224.699219 C 185.355469 224.894531 184.25 225.035156 183.097656 225.179688 C 180.792969 225.46875 178.390625 225.566406 176.082031 225.613281 C 173.777344 225.660156 171.421875 225.613281 169.113281 225.421875 C 167.960938 225.324219 166.808594 225.230469 165.65625 225.085938 C 165.125 225.035156 164.550781 224.941406 164.019531 224.84375 C 163.734375 224.796875 163.492188 224.75 163.203125 224.699219 C 162.675781 224.605469 163.539062 224.75 163.011719 224.652344 C 162.867188 224.605469 162.675781 224.605469 162.53125 224.554688 C 157.917969 223.738281 153.402344 222.488281 149.027344 220.804688 C 148.5 220.613281 148.019531 220.375 147.492188 220.179688 C 146.816406 219.894531 146.527344 219.796875 146.097656 219.554688 C 145.039062 219.074219 144.03125 218.546875 143.019531 218.019531 C 141.242188 217.054688 139.464844 216 137.785156 214.890625 C 136.917969 214.316406 136.101562 213.738281 135.285156 213.113281 C 134.851562 212.824219 134.46875 212.488281 134.082031 212.199219 C 133.890625 212.054688 133.652344 211.863281 133.457031 211.71875 C 133.410156 211.671875 133.21875 211.527344 133.457031 211.71875 C 133.3125 211.625 133.21875 211.527344 133.074219 211.382812 C 131.488281 210.035156 129.949219 208.640625 128.507812 207.199219 C 125.675781 204.316406 123.128906 201.140625 120.964844 197.726562 C 118.800781 194.265625 116.976562 190.613281 115.582031 186.765625 C 114.09375 182.488281 113.226562 178.113281 112.796875 173.59375 C 112.316406 168.160156 112.363281 162.679688 112.363281 157.246094 C 112.363281 154.410156 112.363281 151.621094 112.363281 148.785156 C 112.363281 146.089844 112.363281 143.449219 112.21875 140.753906 C 112.121094 138.734375 111.976562 136.714844 111.835938 134.695312 C 111.785156 133.496094 110.007812 133.589844 109.914062 134.792969 Z M 109.914062 134.792969 " fill-opacity="1" fill-rule="nonzero"/><path fill="#8b5312" d="M 249.171875 200.324219 C 249.171875 200.324219 249.125 200.277344 249.171875 200.324219 C 248.933594 200.179688 248.691406 200.179688 248.5 200.324219 C 246.144531 202.535156 243.550781 204.554688 240.859375 206.285156 C 238.121094 208.015625 235.285156 209.507812 232.449219 211 C 229.46875 212.535156 226.492188 214.125 223.558594 215.757812 C 220.917969 217.199219 218.273438 218.59375 215.535156 219.554688 C 213.996094 220.085938 212.363281 220.519531 210.824219 220.757812 C 209.625 220.949219 208.375 221.09375 207.222656 221.429688 C 206.453125 221.625 205.730469 221.816406 204.914062 221.960938 C 204.386719 222.054688 203.953125 222.105469 203.425781 222.34375 C 203.183594 222.441406 203.183594 222.824219 203.378906 222.96875 C 203.859375 223.304688 204.339844 223.402344 204.914062 223.546875 C 206.019531 223.785156 207.222656 224.171875 208.375 224.125 C 209.433594 224.125 210.488281 224.027344 211.546875 223.835938 C 213.082031 223.546875 214.574219 223.210938 216.0625 222.679688 C 219.234375 221.625 222.117188 219.988281 225.050781 218.355469 C 227.933594 216.71875 230.769531 215.085938 233.652344 213.449219 C 236.390625 211.863281 239.175781 210.230469 241.675781 208.355469 C 243.070312 207.296875 244.414062 206.285156 245.710938 205.132812 C 247.058594 203.929688 248.257812 202.585938 249.316406 201.046875 C 249.460938 200.851562 249.414062 200.613281 249.269531 200.421875 C 249.269531 200.421875 249.171875 200.324219 249.171875 200.324219 Z M 249.171875 200.324219 " fill-opacity="1" fill-rule="nonzero"/><path fill="#8b5312" d="M 187.277344 38.828125 C 186.367188 38.585938 185.5 38.539062 184.539062 38.585938 C 183.484375 38.683594 182.425781 38.925781 181.367188 39.117188 C 179.6875 39.453125 178.148438 40.125 176.660156 40.894531 C 174.160156 42.144531 171.757812 43.539062 169.308594 44.839844 C 163.636719 47.820312 158.0625 50.894531 152.585938 54.261719 C 142.636719 60.320312 133.027344 67.195312 124.855469 75.558594 C 122.597656 77.820312 120.53125 80.222656 118.515625 82.722656 C 117.601562 83.828125 116.734375 84.984375 115.917969 86.136719 C 115.488281 86.714844 115.054688 87.339844 114.667969 87.917969 C 114.523438 88.15625 114.382812 88.398438 114.238281 88.6875 C 113.902344 89.261719 113.5625 89.792969 113.324219 90.464844 C 113.082031 91.136719 112.746094 91.8125 112.507812 92.484375 C 112.316406 92.964844 112.699219 93.589844 113.179688 93.78125 C 113.421875 93.878906 113.613281 93.878906 113.851562 93.832031 C 113.949219 93.78125 114.621094 93.398438 114.523438 93.300781 C 114.910156 93.636719 118.417969 88.78125 118.945312 88.011719 C 119.714844 86.953125 120.484375 85.945312 121.253906 84.9375 C 121.445312 84.695312 121.589844 84.503906 121.78125 84.261719 C 121.828125 84.214844 122.070312 83.925781 121.828125 84.167969 C 121.925781 84.023438 122.023438 83.925781 122.117188 83.78125 C 122.550781 83.253906 122.984375 82.722656 123.464844 82.195312 C 124.375 81.136719 125.335938 80.078125 126.296875 79.070312 C 130.046875 75.078125 134.132812 71.425781 138.40625 68.011719 C 147.972656 60.464844 158.496094 54.261719 169.164062 48.394531 C 171.855469 46.90625 174.542969 45.320312 177.234375 43.875 C 178.675781 43.105469 180.117188 42.433594 181.609375 41.808594 C 182.328125 41.472656 183.050781 41.136719 183.820312 40.894531 C 184.105469 40.800781 184.394531 40.75 184.683594 40.703125 C 185.550781 40.558594 186.460938 40.460938 187.375 40.320312 C 188.046875 40.269531 188 39.019531 187.277344 38.828125 Z M 187.277344 38.828125 " fill-opacity="1" fill-rule="nonzero"/><path fill="#8b5312" d="M 61.28125 108.636719 C 61.859375 108.398438 62.339844 108.109375 62.867188 107.773438 C 63.347656 107.386719 63.925781 107.101562 64.40625 106.714844 C 64.980469 106.234375 65.558594 105.800781 66.136719 105.367188 C 66.953125 104.695312 67.816406 104.070312 68.683594 103.445312 C 69.5 102.867188 70.316406 102.339844 71.179688 101.8125 C 71.613281 101.523438 72.046875 101.28125 72.476562 101.042969 C 72.574219 100.992188 72.671875 100.945312 72.765625 100.898438 C 72.71875 100.945312 72.527344 101.042969 72.816406 100.898438 C 73.054688 100.753906 73.296875 100.65625 73.535156 100.511719 C 75.167969 99.648438 76.851562 98.925781 78.628906 98.347656 C 78.917969 98.253906 78.246094 98.445312 78.675781 98.347656 C 78.773438 98.300781 78.871094 98.300781 78.964844 98.253906 C 79.15625 98.207031 79.300781 98.15625 79.492188 98.109375 C 79.972656 97.964844 80.503906 97.867188 80.984375 97.773438 C 81.898438 97.582031 82.859375 97.339844 83.769531 97.148438 C 91.460938 95.464844 99.339844 94.261719 107.222656 94.597656 C 109.382812 94.695312 111.546875 94.886719 113.660156 95.273438 C 113.757812 95.273438 113.851562 95.320312 113.949219 95.320312 C 113.613281 95.273438 113.996094 95.320312 114.09375 95.367188 C 114.332031 95.417969 114.621094 95.464844 114.863281 95.511719 C 115.390625 95.609375 115.871094 95.753906 116.398438 95.847656 C 117.023438 95.992188 117.601562 96.136719 118.226562 96.28125 C 119.136719 96.472656 120.003906 96.714844 120.917969 96.859375 C 121.589844 96.957031 122.308594 96.957031 123.03125 97.097656 C 123.847656 97.292969 124.230469 96.234375 123.609375 95.753906 C 123.222656 95.464844 122.933594 95.128906 122.550781 94.839844 C 122.023438 94.457031 121.589844 94.117188 121.011719 93.832031 C 120.582031 93.589844 120.148438 93.398438 119.714844 93.207031 C 119.042969 92.964844 118.371094 92.722656 117.695312 92.53125 C 116.734375 92.292969 115.773438 92.097656 114.8125 91.90625 C 112.746094 91.523438 110.679688 91.28125 108.613281 91.136719 C 104.433594 90.847656 100.207031 91.089844 96.074219 91.523438 C 92.035156 91.953125 88.046875 92.675781 84.105469 93.492188 C 80.359375 94.3125 76.609375 95.128906 73.152344 96.859375 C 70.890625 97.964844 68.777344 99.3125 66.761719 100.800781 C 65.511719 101.714844 64.355469 102.675781 63.300781 103.78125 C 62.769531 104.359375 62.289062 104.839844 61.859375 105.464844 C 61.378906 106.234375 60.847656 106.90625 60.609375 107.820312 C 60.367188 108.300781 60.800781 108.832031 61.28125 108.636719 Z M 61.28125 108.636719 " fill-opacity="1" fill-rule="nonzero"/><path fill="#8b5312" d="M 119.523438 113.109375 C 117.792969 111.234375 115.34375 110.03125 113.082031 108.832031 C 111.113281 107.773438 109.09375 106.8125 107.027344 105.992188 C 103.375 104.503906 99.582031 103.351562 95.6875 102.53125 C 91.890625 101.714844 88 101.1875 84.105469 101.042969 C 80.214844 100.898438 76.179688 100.945312 72.335938 101.667969 C 68.007812 102.484375 64.019531 104.359375 60.609375 107.148438 C 60.128906 107.53125 59.984375 108.253906 60.082031 108.832031 C 60.222656 109.550781 60.5625 109.839844 61.234375 110.128906 C 61.808594 110.371094 62.484375 110.128906 62.964844 109.746094 C 65.605469 107.582031 68.777344 106.042969 72.140625 105.273438 C 75.746094 104.503906 79.445312 104.40625 83.144531 104.503906 C 90.691406 104.742188 98.089844 106.089844 105.25 108.542969 C 107.269531 109.261719 109.289062 110.03125 111.257812 110.898438 C 112.410156 111.378906 113.613281 111.957031 114.71875 112.53125 C 116.0625 113.253906 117.457031 113.976562 118.898438 114.40625 C 119.570312 114.601562 119.957031 113.589844 119.523438 113.109375 Z M 119.523438 113.109375 " fill-opacity="1" fill-rule="nonzero"/><path fill="#8b5312" d="M 60.464844 109.3125 C 61.378906 110.753906 62.675781 112.050781 63.875 113.253906 C 64.644531 113.976562 65.414062 114.695312 66.230469 115.371094 C 67.671875 116.621094 69.210938 117.773438 70.75 118.878906 C 73.535156 120.898438 76.464844 122.726562 79.492188 124.359375 C 85.597656 127.675781 92.085938 130.226562 98.761719 132.054688 C 100.589844 132.535156 102.414062 132.964844 104.289062 133.351562 C 105.203125 133.542969 106.117188 133.6875 107.027344 133.832031 C 107.460938 133.929688 107.941406 133.976562 108.375 134.023438 C 108.949219 134.070312 109.429688 133.976562 109.960938 133.929688 C 110.585938 133.878906 111.015625 133.734375 111.449219 133.253906 C 111.738281 132.964844 111.738281 132.535156 111.546875 132.195312 C 110.679688 130.707031 108.183594 130.609375 106.644531 130.320312 C 105.828125 130.175781 105.011719 130.035156 104.242188 129.839844 C 102.65625 129.503906 101.023438 129.121094 99.484375 128.734375 C 99.101562 128.640625 98.714844 128.542969 98.332031 128.398438 C 98.140625 128.351562 97.996094 128.300781 97.800781 128.253906 C 97.707031 128.207031 97.609375 128.207031 97.515625 128.160156 C 97.464844 128.160156 97.082031 128.015625 97.273438 128.109375 C 97.464844 128.160156 97.226562 128.109375 97.179688 128.0625 C 97.082031 128.015625 96.984375 128.015625 96.890625 127.964844 C 96.699219 127.917969 96.503906 127.820312 96.265625 127.773438 C 95.878906 127.628906 95.449219 127.535156 95.0625 127.390625 C 93.527344 126.859375 91.988281 126.332031 90.449219 125.707031 C 84.492188 123.351562 78.871094 120.320312 73.535156 116.765625 C 71.851562 115.609375 70.171875 114.40625 68.539062 113.15625 C 67.722656 112.53125 66.953125 111.90625 66.136719 111.28125 C 64.695312 110.128906 63.25 108.925781 61.667969 107.964844 C 60.753906 107.4375 59.886719 108.445312 60.464844 109.3125 Z M 60.464844 109.3125 " fill-opacity="1" fill-rule="nonzero"/><path fill="#8b5312" d="M 197.035156 22.671875 C 196.699219 23.539062 196.3125 24.308594 196.023438 25.222656 C 195.785156 26.039062 195.542969 26.855469 195.304688 27.671875 C 194.871094 29.308594 194.488281 30.941406 194.101562 32.578125 C 193.332031 35.703125 192.710938 38.875 192.277344 42.097656 C 191.554688 47.820312 191.746094 53.636719 193.71875 59.117188 C 194.246094 60.511719 194.871094 61.859375 195.640625 63.15625 C 196.023438 63.78125 196.410156 64.359375 196.839844 64.933594 C 197.417969 65.703125 198.042969 66.570312 199.050781 66.808594 C 199.386719 66.859375 199.675781 66.617188 199.582031 66.28125 C 199.4375 65.511719 199.003906 64.933594 198.523438 64.308594 C 198.140625 63.828125 197.753906 63.300781 197.417969 62.769531 C 196.746094 61.714844 196.167969 60.558594 195.6875 59.40625 C 194.679688 57 194.054688 54.40625 193.765625 51.808594 C 193.046875 45.894531 194.007812 39.980469 195.207031 34.164062 C 195.59375 32.335938 196.023438 30.558594 196.410156 28.730469 C 196.648438 27.769531 196.792969 26.761719 196.984375 25.75 C 197.179688 24.742188 197.179688 23.78125 197.273438 22.769531 C 197.320312 22.578125 197.082031 22.53125 197.035156 22.671875 Z M 197.035156 22.671875 " fill-opacity="1" fill-rule="nonzero"/><path fill="#8b5312" d="M 202.03125 56.859375 C 202.078125 56.761719 202.128906 56.664062 202.222656 56.570312 C 202.945312 56.089844 202.078125 55.03125 201.503906 55.65625 C 200.925781 56.234375 200.878906 57.195312 200.832031 57.964844 C 200.78125 58.636719 200.832031 59.261719 200.972656 59.933594 C 201.117188 60.65625 201.3125 61.328125 201.648438 62.003906 C 201.886719 62.578125 202.222656 63.203125 202.65625 63.636719 C 203.136719 64.117188 203.808594 64.019531 204.097656 63.394531 C 204.433594 62.675781 204.339844 61.859375 204.433594 61.089844 C 204.53125 60.511719 204.625 59.933594 204.769531 59.359375 C 204.867188 58.78125 204.960938 58.25 205.105469 57.675781 C 205.25 57.097656 205.441406 56.570312 205.683594 55.992188 C 205.636719 56.089844 205.585938 56.136719 205.539062 56.234375 C 205.636719 56.183594 205.730469 56.089844 205.828125 56.039062 C 206.164062 55.800781 206.308594 55.320312 206.019531 54.984375 C 205.78125 54.644531 205.203125 54.550781 204.914062 54.886719 C 204.480469 55.414062 204.195312 55.75 204.050781 56.375 C 203.953125 56.664062 203.90625 57 203.859375 57.339844 C 203.761719 58.058594 203.859375 58.734375 204 59.40625 C 204.144531 59.933594 204.339844 60.464844 204.625 60.945312 C 204.867188 61.378906 205.105469 61.664062 205.539062 61.90625 C 206.019531 62.144531 206.453125 62.242188 206.980469 62.386719 C 207.316406 62.484375 207.558594 62.003906 207.367188 61.714844 C 206.980469 61.28125 206.980469 60.65625 206.691406 60.222656 C 206.644531 60.175781 206.453125 59.839844 206.546875 59.984375 C 206.355469 59.695312 206.210938 59.40625 206.117188 59.070312 C 205.730469 57.914062 205.875 56.714844 206.210938 55.558594 C 205.78125 55.65625 205.394531 55.800781 204.960938 55.894531 C 205.058594 55.992188 204.914062 56.472656 204.914062 56.570312 C 204.867188 56.859375 204.820312 57.144531 204.722656 57.484375 C 204.578125 58.011719 204.386719 58.492188 204.242188 59.019531 C 204.050781 59.597656 203.859375 60.125 203.664062 60.703125 C 203.519531 61.039062 203.425781 61.378906 203.234375 61.714844 C 203.039062 62.097656 202.894531 62.484375 202.753906 62.914062 C 203.234375 62.867188 203.714844 62.820312 204.195312 62.769531 C 203.859375 62.242188 203.519531 61.761719 203.234375 61.183594 C 202.992188 60.65625 202.800781 60.125 202.703125 59.550781 C 202.609375 59.019531 202.558594 58.539062 202.558594 58.011719 C 202.558594 57.386719 202.800781 56.617188 202.609375 56.039062 C 202.320312 56.28125 202.03125 56.472656 201.742188 56.714844 C 201.839844 56.761719 201.886719 56.859375 201.933594 56.953125 C 201.886719 56.953125 201.984375 56.953125 202.03125 56.859375 Z M 202.03125 56.859375 " fill-opacity="1" fill-rule="nonzero"/><path fill="#8b5312" d="M 210.007812 58.203125 C 210.199219 58.15625 210.394531 58.203125 210.535156 58.15625 C 210.730469 58.15625 210.875 58.058594 211.066406 58.011719 C 211.5 57.867188 211.882812 57.625 212.265625 57.433594 C 213.035156 57.050781 213.804688 56.761719 214.574219 56.375 C 215.054688 56.136719 215.535156 55.992188 216.015625 55.800781 C 216.542969 55.609375 217.023438 55.511719 217.503906 55.269531 C 217.9375 55.078125 218.417969 54.933594 218.898438 54.789062 C 219.28125 54.644531 219.1875 54.070312 218.800781 54.019531 C 217.839844 53.875 216.832031 53.828125 215.824219 54.070312 C 215.148438 54.214844 214.476562 54.453125 213.804688 54.695312 C 212.988281 54.984375 212.265625 55.414062 211.546875 55.894531 C 211.210938 56.136719 210.875 56.375 210.585938 56.664062 C 210.394531 56.859375 210.25 57.050781 210.105469 57.242188 C 209.960938 57.484375 209.960938 57.769531 209.816406 58.058594 C 209.816406 58.15625 209.914062 58.25 210.007812 58.203125 Z M 210.007812 58.203125 " fill-opacity="1" fill-rule="nonzero"/><path fill="#8b5312" d="M 221.011719 48.492188 C 221.636719 48.683594 222.023438 48.203125 222.117188 47.625 C 222.261719 46.808594 221.925781 45.800781 221.734375 45.03125 C 221.300781 43.25 220.675781 41.519531 219.90625 39.835938 C 218.515625 36.761719 216.6875 33.78125 214.527344 31.183594 C 214.238281 30.847656 213.949219 30.511719 213.660156 30.175781 C 213.226562 29.691406 212.699219 29.308594 212.21875 28.875 C 211.835938 28.539062 211.449219 28.203125 211.066406 27.914062 C 210.679688 27.625 210.25 27.242188 209.769531 27.097656 C 209.527344 27 209.335938 27.289062 209.433594 27.53125 C 209.625 27.960938 210.007812 28.394531 210.34375 28.730469 C 210.585938 29.066406 210.875 29.355469 211.160156 29.691406 C 211.5 30.078125 211.738281 30.558594 212.074219 30.941406 C 212.316406 31.230469 212.554688 31.519531 212.796875 31.808594 C 213.851562 33.105469 214.863281 34.453125 215.773438 35.847656 C 217.410156 38.347656 218.707031 41.039062 219.761719 43.828125 C 219.957031 44.261719 221.636719 48.105469 221.011719 48.25 C 220.917969 48.300781 220.867188 48.445312 221.011719 48.492188 Z M 221.011719 48.492188 " fill-opacity="1" fill-rule="nonzero"/><path fill="#8b5312" d="M 201.359375 170.902344 C 201.597656 170.949219 201.933594 171.140625 202.367188 171.238281 C 202.609375 171.285156 202.894531 171.285156 203.136719 171.382812 C 203.570312 171.476562 203.953125 171.667969 204.289062 171.957031 C 204.867188 172.4375 205.300781 173.160156 205.585938 173.929688 C 205.828125 174.554688 205.972656 175.417969 205.972656 176.238281 C 205.972656 177.199219 205.441406 177.777344 204.722656 178.351562 C 203.378906 179.410156 202.128906 180.421875 201.40625 182.054688 C 200.734375 183.6875 200.589844 185.515625 200.6875 187.246094 C 200.734375 188.496094 201.023438 189.601562 201.648438 190.660156 C 202.03125 191.332031 202.511719 191.863281 203.328125 192.007812 C 203.808594 192.101562 204.289062 192.007812 204.625 191.621094 C 204.820312 191.429688 204.867188 191.09375 204.675781 190.902344 C 204.675781 190.949219 204.675781 190.996094 204.675781 190.996094 C 204.722656 191.238281 204.722656 191.140625 204.769531 190.757812 C 204.820312 190.421875 204.820312 190.035156 204.769531 189.699219 C 204.722656 189.265625 204.625 188.882812 204.433594 188.496094 C 204.386719 188.449219 204.242188 188.066406 204.289062 188.257812 C 204.339844 188.449219 204.289062 188.207031 204.289062 188.160156 C 204.242188 188.015625 204.242188 187.921875 204.195312 187.777344 C 204.050781 187.101562 204.097656 186.382812 204.144531 185.660156 C 204.242188 184.121094 204.53125 182.726562 205.683594 181.671875 C 207.125 180.324219 208.664062 179.074219 208.757812 176.957031 C 208.855469 175.082031 208.328125 172.777344 207.171875 171.285156 C 206.453125 170.324219 205.539062 169.554688 204.386719 169.21875 C 203.808594 169.023438 203.183594 168.929688 202.558594 169.023438 C 202.175781 169.074219 201.695312 169.167969 201.40625 169.457031 C 201.214844 169.648438 201.117188 169.9375 200.925781 170.179688 C 200.832031 170.46875 200.972656 170.851562 201.359375 170.902344 Z M 201.359375 170.902344 " fill-opacity="1" fill-rule="nonzero"/><path fill="#8b5312" d="M 183.964844 179.121094 C 183.820312 179.265625 183.769531 179.3125 183.578125 179.410156 C 183.289062 179.601562 183.003906 179.988281 182.761719 180.277344 C 182.523438 180.660156 182.234375 181.332031 182.089844 181.765625 C 182.042969 181.910156 181.992188 182.054688 181.992188 182.246094 C 181.945312 182.535156 181.945312 182.871094 181.945312 183.207031 C 181.945312 184.457031 182.378906 185.660156 183.050781 186.71875 C 183.484375 187.390625 183.964844 188.015625 184.492188 188.640625 C 185.117188 189.363281 185.742188 190.132812 186.511719 190.660156 C 186.941406 190.949219 187.421875 191.09375 187.902344 191.238281 C 189.679688 191.71875 191.605469 191.382812 193.285156 190.757812 C 193.671875 190.613281 194.054688 190.46875 194.390625 190.277344 C 194.535156 190.226562 194.679688 190.132812 194.871094 190.082031 C 194.535156 190.179688 195.351562 190.035156 194.96875 190.035156 C 195.0625 190.035156 195.207031 190.035156 195.304688 190.035156 C 195.351562 190.035156 195.59375 190.082031 195.398438 190.035156 C 195.207031 189.988281 195.496094 190.082031 195.496094 190.082031 C 195.59375 190.132812 195.6875 190.132812 195.832031 190.179688 C 196.21875 190.324219 196.554688 190.46875 196.9375 190.613281 C 197.128906 190.707031 197.371094 190.804688 197.5625 190.902344 C 197.609375 190.902344 197.851562 191.046875 197.609375 190.949219 C 197.707031 190.996094 197.804688 191.046875 197.898438 191.09375 C 198.332031 191.332031 198.714844 191.527344 199.148438 191.765625 C 199.628906 192.007812 200.109375 192.296875 200.589844 192.535156 C 201.070312 192.777344 201.550781 192.96875 202.078125 192.96875 C 202.273438 192.96875 202.464844 192.96875 202.65625 192.921875 C 203.859375 192.679688 202.128906 192.871094 203.234375 192.777344 C 204.050781 192.726562 204.480469 191.765625 203.90625 191.140625 C 203.425781 190.660156 203.183594 190.082031 202.609375 189.699219 C 202.367188 189.554688 202.128906 189.410156 201.886719 189.265625 C 201.503906 189.074219 201.117188 188.832031 200.734375 188.640625 C 199.917969 188.207031 199.148438 187.777344 198.285156 187.390625 C 197.464844 187.007812 196.601562 186.671875 195.738281 186.527344 C 194.726562 186.382812 193.8125 186.671875 192.902344 187.054688 C 192.515625 187.199219 192.179688 187.390625 191.796875 187.535156 C 192.035156 187.441406 191.507812 187.582031 191.460938 187.632812 C 191.21875 187.679688 190.980469 187.726562 190.785156 187.777344 C 190.59375 187.824219 190.402344 187.824219 190.164062 187.871094 C 190.113281 187.871094 189.824219 187.871094 190.113281 187.871094 C 190.019531 187.871094 189.921875 187.871094 189.824219 187.871094 C 189.441406 187.871094 189.058594 187.871094 188.671875 187.777344 C 187.953125 187.632812 187.472656 187.007812 186.992188 186.527344 C 186.511719 186.046875 186.078125 185.515625 185.691406 184.988281 C 185.308594 184.410156 184.925781 183.738281 184.78125 183.0625 C 184.683594 182.535156 184.683594 182.007812 184.683594 181.527344 C 184.683594 181.1875 184.683594 180.804688 184.636719 180.46875 C 184.589844 180.082031 184.445312 179.746094 184.445312 179.363281 C 184.492188 178.976562 184.105469 178.882812 183.964844 179.121094 Z M 183.964844 179.121094 " fill-opacity="1" fill-rule="nonzero"/><path fill="#8b5312" d="M 240.617188 141.042969 C 242.203125 142.292969 243.789062 143.496094 244.992188 145.082031 C 246 146.378906 246.867188 147.824219 247.585938 149.265625 C 248.933594 152.003906 249.84375 154.988281 249.988281 158.0625 C 250.132812 160.851562 249.796875 163.6875 249.027344 166.382812 C 248.644531 167.726562 248.164062 169.074219 247.585938 170.324219 C 247.347656 170.851562 247.394531 171.429688 247.058594 171.910156 C 246.769531 172.34375 246.480469 172.777344 246.242188 173.207031 C 245.855469 173.882812 245.472656 174.554688 245.039062 175.226562 C 243.503906 177.632812 241.773438 179.9375 239.898438 182.054688 C 238.984375 183.113281 238.023438 184.121094 237.015625 185.082031 C 236.484375 185.5625 236.003906 186.046875 235.476562 186.527344 C 235.476562 186.527344 235.285156 186.71875 235.429688 186.574219 C 235.574219 186.429688 235.332031 186.621094 235.332031 186.671875 C 235.1875 186.765625 235.09375 186.910156 234.949219 187.007812 C 234.707031 187.246094 234.417969 187.441406 234.179688 187.679688 C 232.113281 189.410156 230 191.046875 227.691406 192.535156 C 226.492188 193.304688 225.242188 194.074219 223.894531 194.699219 C 223.703125 194.796875 223.558594 194.890625 223.367188 194.941406 C 223.320312 194.988281 222.933594 195.132812 223.128906 195.035156 C 222.742188 195.179688 222.359375 195.371094 221.925781 195.515625 C 221.15625 195.804688 220.339844 196.046875 219.570312 196.191406 C 219.378906 196.238281 219.1875 196.285156 218.996094 196.335938 C 218.898438 196.335938 218.851562 196.382812 218.753906 196.382812 C 218.996094 196.335938 218.707031 196.382812 218.707031 196.382812 C 218.273438 196.429688 217.890625 196.527344 217.457031 196.527344 C 216.6875 196.621094 215.871094 196.621094 215.101562 196.574219 C 214.8125 196.574219 215.34375 196.621094 215.054688 196.574219 C 214.957031 196.574219 214.863281 196.574219 214.8125 196.574219 C 214.621094 196.574219 214.429688 196.527344 214.238281 196.527344 C 213.851562 196.476562 213.46875 196.429688 213.082031 196.335938 C 212.746094 196.285156 212.460938 196.191406 212.121094 196.09375 C 212.074219 196.09375 211.882812 195.996094 212.074219 196.09375 C 212.316406 196.140625 212.027344 196.09375 211.980469 196.046875 C 211.785156 195.996094 211.640625 195.902344 211.449219 195.851562 C 210.824219 195.613281 210.199219 195.371094 209.625 195.035156 C 209.480469 194.941406 209.335938 194.890625 209.191406 194.796875 C 209.527344 194.988281 209.09375 194.746094 209.046875 194.699219 C 208.757812 194.507812 208.46875 194.316406 208.183594 194.074219 C 207.125 193.257812 206.261719 192.390625 205.492188 191.238281 C 205.683594 191.476562 205.492188 191.238281 205.441406 191.140625 C 205.347656 190.996094 205.300781 190.851562 205.203125 190.707031 C 204.820312 190.035156 204.289062 189.363281 203.90625 188.738281 C 203.183594 187.582031 201.359375 188.402344 201.453125 189.652344 C 201.550781 190.613281 201.695312 191.621094 202.175781 192.441406 C 202.414062 192.824219 202.65625 193.257812 202.945312 193.640625 C 203.328125 194.21875 203.761719 194.746094 204.242188 195.226562 C 205.394531 196.382812 206.691406 197.34375 208.132812 198.113281 C 210.96875 199.652344 214.285156 200.179688 217.457031 199.941406 C 223.894531 199.410156 229.46875 195.757812 234.371094 191.863281 C 239.226562 187.96875 243.503906 183.449219 246.914062 178.257812 C 247.730469 176.957031 248.59375 175.613281 249.171875 174.21875 C 249.316406 173.929688 249.414062 173.59375 249.558594 173.257812 C 249.605469 173.113281 249.652344 172.917969 249.699219 172.777344 C 249.894531 172.535156 250.039062 172.292969 250.230469 172.054688 C 250.324219 171.910156 250.421875 171.765625 250.46875 171.574219 C 250.613281 171.285156 250.710938 170.996094 250.804688 170.660156 C 251.09375 169.84375 251.382812 169.074219 251.625 168.257812 C 252.488281 165.371094 252.921875 162.34375 252.824219 159.363281 C 252.679688 156.238281 251.960938 153.109375 250.613281 150.273438 C 249.078125 146.910156 246.867188 143.6875 243.839844 141.476562 C 242.972656 140.851562 242.109375 140.464844 241.097656 140.226562 C 240.617188 140.179688 240.28125 140.753906 240.617188 141.042969 Z M 240.617188 141.042969 " fill-opacity="1" fill-rule="nonzero"/><path fill="#8b5312" d="M 201.742188 190.035156 C 201.839844 190.132812 202.078125 190.46875 202.175781 190.660156 C 202.222656 190.757812 202.320312 190.804688 202.367188 190.902344 C 202.511719 191.09375 202.65625 191.332031 202.800781 191.574219 C 203.183594 192.199219 203.472656 192.921875 203.617188 193.640625 C 203.859375 194.699219 204.097656 195.710938 204.097656 196.765625 C 204.144531 198.785156 203.617188 200.851562 202.753906 202.679688 C 202.703125 202.777344 202.464844 203.257812 202.609375 202.96875 C 202.511719 203.160156 202.367188 203.402344 202.273438 203.59375 C 202.03125 203.980469 201.792969 204.410156 201.503906 204.746094 C 200.832031 205.613281 200.109375 206.382812 199.292969 207.105469 C 197.800781 208.402344 196.121094 209.460938 194.34375 210.277344 C 193.429688 210.710938 192.46875 211.09375 191.507812 211.429688 C 191.316406 211.527344 191.074219 211.574219 190.835938 211.671875 C 190.355469 211.816406 191.171875 211.574219 190.691406 211.71875 C 190.59375 211.765625 190.5 211.765625 190.402344 211.816406 C 189.921875 211.960938 189.441406 212.105469 188.960938 212.199219 C 186.652344 212.777344 184.25 213.113281 181.898438 213.257812 C 181.273438 213.304688 182.234375 213.257812 181.609375 213.257812 C 181.464844 213.257812 181.367188 213.257812 181.222656 213.257812 C 180.9375 213.257812 180.597656 213.257812 180.3125 213.257812 C 179.6875 213.257812 179.0625 213.257812 178.4375 213.257812 C 177.285156 213.210938 176.128906 213.160156 175.023438 212.96875 C 174.785156 212.921875 174.496094 212.875 174.257812 212.824219 C 173.726562 212.730469 174.449219 212.875 174.113281 212.777344 C 173.96875 212.730469 173.824219 212.730469 173.679688 212.679688 C 173.101562 212.535156 172.574219 212.34375 172.046875 212.152344 C 171.804688 212.054688 171.515625 211.960938 171.277344 211.816406 C 170.988281 211.671875 171.230469 211.816406 171.324219 211.816406 C 171.230469 211.765625 171.132812 211.71875 171.035156 211.671875 C 170.605469 211.429688 170.21875 211.191406 169.789062 210.902344 C 169.59375 210.757812 169.402344 210.613281 169.257812 210.46875 C 169.164062 210.421875 169.066406 210.324219 168.96875 210.277344 C 168.632812 209.988281 169.113281 210.421875 168.828125 210.179688 C 168.441406 209.84375 168.105469 209.507812 167.769531 209.121094 C 167.433594 208.738281 167.097656 208.355469 166.808594 207.96875 C 166.664062 207.777344 166.519531 207.585938 166.375 207.390625 C 166.085938 207.007812 166.519531 207.585938 166.328125 207.34375 C 166.230469 207.199219 166.136719 207.054688 166.039062 206.910156 C 165.367188 205.902344 164.789062 204.796875 164.164062 203.691406 C 163.925781 203.210938 163.683594 202.726562 163.347656 202.296875 C 162.964844 201.71875 162.484375 201.335938 162.148438 200.710938 C 161.953125 200.371094 161.808594 199.941406 161.523438 199.652344 C 161.234375 199.316406 160.945312 199.027344 160.609375 198.738281 C 160.417969 198.59375 160.128906 198.691406 160.082031 198.929688 C 160.03125 199.316406 159.984375 199.652344 159.984375 200.035156 C 160.03125 200.566406 160.175781 201.09375 160.273438 201.621094 C 160.464844 202.535156 160.417969 203.402344 160.753906 204.265625 C 160.847656 204.605469 161.042969 204.941406 161.136719 205.230469 C 161.570312 206.285156 162.097656 207.296875 162.722656 208.304688 C 163.925781 210.179688 165.269531 211.816406 167 213.210938 C 170.84375 216.335938 176.035156 216.816406 180.839844 216.625 C 185.742188 216.429688 190.785156 215.566406 195.257812 213.5 C 199.675781 211.429688 203.617188 208.257812 205.636719 203.738281 C 206.742188 201.191406 207.078125 198.351562 206.644531 195.613281 C 206.5 194.796875 206.308594 194.027344 206.066406 193.257812 C 205.730469 192.296875 205.15625 191.382812 204.578125 190.515625 C 204.097656 189.796875 203.519531 189.121094 202.800781 188.640625 C 202.414062 188.351562 201.886719 188.351562 201.550781 188.738281 C 201.359375 189.121094 201.359375 189.746094 201.742188 190.035156 Z M 201.742188 190.035156 " fill-opacity="1" fill-rule="nonzero"/><path fill="#8b5312" d="M 222.40625 197.296875 C 220.339844 199.410156 216.976562 199.460938 214.285156 200.660156 C 211.738281 201.816406 209.335938 201.140625 207.027344 203.113281 C 204.675781 205.085938 203.425781 208.066406 200.636719 209.605469 C 200.253906 209.796875 199.820312 209.988281 199.4375 209.890625 C 202.511719 205.230469 205.058594 200.566406 205.585938 194.941406 C 208.757812 197.296875 212.652344 198.738281 216.59375 199.027344 " fill-opacity="1" fill-rule="nonzero"/><path fill="#ffffff" d="M 170.316406 162.535156 C 169.929688 159.601562 167.863281 157.148438 165.558594 155.371094 C 158.925781 150.226562 149.507812 148.929688 141.722656 152.148438 C 138.648438 153.449219 135.621094 155.613281 134.613281 158.832031 C 133.507812 162.34375 135.1875 166.285156 137.878906 168.832031 C 142.589844 173.160156 149.269531 174.988281 155.5625 174.21875 C 159.40625 173.738281 171.230469 170.035156 168.683594 164.023438 " fill-opacity="1" fill-rule="nonzero"/><path fill="#8b5312" d="M 170.84375 162.101562 C 170.890625 162.054688 170.890625 162.003906 170.941406 161.910156 C 170.941406 161.8125 170.941406 161.71875 170.941406 161.621094 C 170.941406 161.476562 170.890625 161.378906 170.84375 161.238281 C 170.75 160.804688 170.605469 160.371094 170.460938 159.988281 C 170.269531 159.554688 170.074219 159.074219 169.835938 158.640625 C 169.257812 157.628906 168.585938 156.71875 167.769531 155.898438 C 166.472656 154.503906 164.886719 153.351562 163.253906 152.34375 C 159.9375 150.324219 156.140625 149.167969 152.296875 148.878906 C 148.933594 148.640625 145.472656 149.023438 142.300781 150.179688 C 138.984375 151.332031 135.8125 153.207031 133.9375 156.238281 C 132.066406 159.265625 132.257812 163.113281 133.84375 166.238281 C 135.429688 169.363281 138.265625 171.71875 141.339844 173.304688 C 146.578125 175.996094 152.824219 176.8125 158.542969 175.226562 C 160.898438 174.554688 163.203125 173.6875 165.367188 172.488281 C 167.335938 171.382812 169.5 169.699219 170.21875 167.4375 C 170.460938 166.71875 170.316406 166.140625 170.171875 165.417969 C 169.980469 164.648438 169.738281 164.023438 169.210938 163.449219 C 168.96875 163.160156 168.585938 163.113281 168.25 163.257812 C 167.914062 163.449219 167.816406 163.785156 167.816406 164.121094 C 167.816406 164.410156 167.816406 164.746094 167.769531 165.035156 C 167.625 165.371094 167.480469 165.757812 167.335938 166.09375 C 167.335938 166.140625 167.289062 166.1875 167.289062 166.238281 C 167.242188 166.332031 167.242188 166.429688 167.191406 166.523438 C 167.144531 166.621094 167.097656 166.71875 167.046875 166.8125 C 167.046875 166.863281 167 166.910156 166.953125 166.957031 C 166.953125 166.910156 167.144531 166.621094 167 166.8125 C 166.855469 167.007812 166.761719 167.199219 166.617188 167.390625 C 166.566406 167.488281 166.472656 167.582031 166.421875 167.632812 C 166.664062 167.390625 166.328125 167.726562 166.28125 167.773438 C 166.085938 167.96875 165.941406 168.113281 165.75 168.257812 C 165.65625 168.351562 165.558594 168.398438 165.460938 168.496094 C 165.367188 168.59375 165.511719 168.449219 165.511719 168.449219 C 165.460938 168.496094 165.367188 168.542969 165.316406 168.59375 C 164.886719 168.929688 164.40625 169.21875 163.925781 169.507812 C 163.828125 169.554688 163.734375 169.648438 163.589844 169.699219 C 163.347656 169.84375 163.636719 169.699219 163.445312 169.792969 C 163.203125 169.9375 162.964844 170.035156 162.675781 170.179688 C 162.195312 170.417969 161.714844 170.613281 161.234375 170.804688 C 160.753906 170.996094 160.222656 171.1875 159.695312 171.382812 C 159.457031 171.476562 159.214844 171.527344 158.976562 171.621094 C 158.878906 171.667969 158.734375 171.667969 158.640625 171.71875 C 158.351562 171.8125 158.78125 171.667969 158.496094 171.765625 C 157.679688 172.007812 156.8125 172.199219 155.996094 172.390625 C 155.660156 172.4375 155.273438 172.535156 154.9375 172.535156 C 154.746094 172.582031 154.507812 172.582031 154.3125 172.582031 C 154.21875 172.582031 154.121094 172.582031 154.027344 172.632812 C 154.074219 172.632812 154.265625 172.632812 154.074219 172.632812 C 153.640625 172.632812 153.257812 172.679688 152.824219 172.679688 C 152.054688 172.679688 151.285156 172.679688 150.519531 172.582031 C 150.132812 172.535156 149.75 172.488281 149.363281 172.4375 C 149.171875 172.390625 149.027344 172.390625 148.835938 172.34375 C 148.789062 172.34375 148.453125 172.292969 148.691406 172.292969 C 148.882812 172.34375 148.453125 172.246094 148.453125 172.246094 C 146.960938 171.957031 145.472656 171.476562 144.078125 170.898438 C 144.03125 170.851562 143.453125 170.613281 143.789062 170.757812 C 143.644531 170.660156 143.453125 170.613281 143.308594 170.515625 C 142.925781 170.324219 142.589844 170.132812 142.253906 169.9375 C 141.578125 169.554688 140.953125 169.167969 140.378906 168.6875 C 139.175781 167.824219 138.121094 166.8125 137.253906 165.5625 C 137.207031 165.46875 137.160156 165.417969 137.109375 165.324219 C 137.109375 165.371094 137.253906 165.515625 137.160156 165.371094 C 137.0625 165.179688 136.964844 165.035156 136.871094 164.84375 C 136.679688 164.507812 136.535156 164.167969 136.390625 163.832031 C 136.101562 163.160156 135.957031 162.488281 135.859375 161.8125 C 135.859375 161.667969 135.8125 161.476562 135.8125 161.332031 C 135.8125 161.238281 135.8125 161.140625 135.8125 161.042969 C 135.8125 161.042969 135.8125 160.804688 135.8125 160.996094 C 135.8125 161.1875 135.8125 160.898438 135.8125 160.851562 C 135.8125 160.753906 135.8125 160.660156 135.8125 160.5625 C 135.8125 160.371094 135.859375 160.179688 135.859375 159.988281 C 135.910156 159.84375 135.910156 159.648438 135.957031 159.503906 C 135.957031 159.410156 136.003906 159.3125 136.003906 159.21875 C 136.003906 159.265625 135.910156 159.503906 136.003906 159.21875 C 136.148438 158.878906 136.246094 158.496094 136.4375 158.207031 C 136.535156 158.0625 136.582031 157.917969 136.679688 157.773438 C 136.726562 157.679688 136.964844 157.34375 136.773438 157.628906 C 136.964844 157.34375 137.207031 157.054688 137.445312 156.765625 C 137.878906 156.285156 138.359375 155.804688 138.886719 155.417969 C 140.042969 154.554688 141.386719 153.832031 142.734375 153.304688 C 145.472656 152.246094 148.453125 151.765625 151.382812 151.859375 C 154.457031 151.910156 157.484375 152.628906 160.367188 153.785156 C 163.394531 155.035156 166.375 156.957031 168.203125 159.699219 C 168.828125 160.613281 169.164062 161.621094 169.546875 162.628906 C 169.691406 162.96875 170.171875 163.0625 170.460938 162.871094 C 170.988281 162.773438 170.890625 162.4375 170.84375 162.101562 Z M 170.84375 162.101562 " fill-opacity="1" fill-rule="nonzero"/><path fill="#ffffff" d="M 203.328125 142.199219 C 200.011719 133.785156 201.40625 123.6875 206.835938 116.425781 C 209.09375 113.398438 212.121094 110.800781 215.726562 109.601562 C 217.839844 108.878906 220.148438 108.6875 222.261719 109.40625 C 226.730469 110.945312 228.894531 116.1875 229.085938 120.898438 C 229.375 129.023438 225.097656 137.148438 218.273438 141.523438 C 216.253906 142.824219 213.996094 143.832031 211.640625 144.023438 C 209.238281 144.214844 206.742188 143.542969 205.058594 141.859375 " fill-opacity="1" fill-rule="nonzero"/><path fill="#8b5312" d="M 203.617188 142.148438 C 203.28125 139.890625 203.039062 137.582031 202.847656 135.273438 C 202.703125 133.589844 202.753906 131.957031 202.945312 130.273438 C 203.28125 127.195312 204.144531 124.167969 205.492188 121.378906 C 206.164062 119.984375 206.980469 118.6875 207.894531 117.4375 C 208.085938 117.148438 208.328125 116.90625 208.519531 116.621094 C 208.613281 116.476562 208.757812 116.332031 208.855469 116.1875 C 208.855469 116.1875 209.046875 115.945312 208.902344 116.140625 C 208.953125 116.042969 209.046875 115.996094 209.09375 115.898438 C 209.625 115.320312 210.152344 114.792969 210.730469 114.261719 C 210.875 114.121094 211.015625 114.023438 211.160156 113.878906 C 211.210938 113.832031 211.5 113.589844 211.355469 113.734375 C 211.691406 113.496094 211.980469 113.253906 212.316406 113.011719 C 212.941406 112.582031 213.5625 112.195312 214.238281 111.859375 C 215.679688 111.136719 216.976562 110.707031 218.464844 110.5625 C 219.28125 110.464844 219.8125 110.511719 220.675781 110.65625 C 221.300781 110.753906 221.828125 110.945312 222.503906 111.28125 C 222.550781 111.332031 222.933594 111.523438 222.789062 111.425781 C 222.597656 111.332031 222.789062 111.425781 222.839844 111.476562 C 222.886719 111.523438 222.984375 111.570312 223.03125 111.621094 C 223.269531 111.761719 223.511719 111.957031 223.703125 112.148438 C 224.183594 112.53125 224.472656 112.871094 224.855469 113.300781 C 226.394531 115.273438 227.164062 117.726562 227.402344 120.175781 C 227.933594 125.515625 226.058594 131.140625 222.789062 135.371094 C 221.925781 136.476562 220.964844 137.535156 219.90625 138.445312 C 219.332031 138.929688 218.753906 139.359375 218.175781 139.792969 C 218.035156 139.890625 217.890625 139.984375 217.746094 140.082031 C 217.9375 139.9375 217.554688 140.179688 217.503906 140.226562 C 217.121094 140.464844 216.785156 140.660156 216.398438 140.898438 C 215.054688 141.621094 213.757812 142.199219 212.171875 142.484375 C 212.363281 142.4375 212.074219 142.484375 212.074219 142.484375 C 211.980469 142.484375 211.929688 142.484375 211.835938 142.535156 C 211.640625 142.535156 211.449219 142.582031 211.257812 142.582031 C 210.96875 142.582031 210.679688 142.628906 210.34375 142.628906 C 209.433594 142.628906 208.46875 142.4375 207.605469 142.054688 C 207.367188 141.957031 207.078125 141.8125 206.835938 141.667969 C 206.691406 141.574219 206.546875 141.476562 206.40625 141.378906 C 206.019531 141.140625 205.585938 141.089844 205.15625 140.996094 C 204.53125 140.804688 203.570312 141.332031 203.808594 142.101562 C 204 142.773438 204.289062 143.449219 204.867188 143.878906 C 205.203125 144.121094 205.539062 144.3125 205.921875 144.503906 C 206.691406 144.890625 207.507812 145.179688 208.375 145.371094 C 210.25 145.753906 212.027344 145.753906 213.851562 145.273438 C 217.359375 144.359375 220.4375 142.101562 222.984375 139.554688 C 227.402344 135.128906 230.09375 128.925781 230.382812 122.726562 C 230.625 116.859375 228.316406 109.601562 221.972656 107.871094 C 218.273438 106.859375 214.285156 108.0625 211.160156 110.128906 C 208.230469 112.003906 205.921875 114.695312 204.097656 117.675781 C 202.175781 120.800781 201.023438 124.265625 200.398438 127.871094 C 200.109375 129.601562 200.0625 131.332031 200.109375 133.109375 C 200.207031 135.226562 200.398438 137.484375 201.214844 139.457031 C 201.648438 140.5625 202.222656 141.574219 202.847656 142.535156 C 203.234375 142.628906 203.664062 142.484375 203.617188 142.148438 Z M 203.617188 142.148438 " fill-opacity="1" fill-rule="nonzero"/><path fill="#8b5312" d="M 160.417969 152.535156 C 161.328125 153.734375 161.953125 155.179688 162.148438 156.71875 C 162.484375 159.410156 161.570312 162.101562 160.511719 164.601562 C 160.128906 165.46875 159.742188 166.332031 159.167969 167.054688 C 158.496094 167.871094 157.628906 168.449219 156.667969 168.929688 C 152.921875 170.707031 148.257812 170.132812 145.039062 167.488281 C 141.820312 164.84375 140.234375 160.226562 141.050781 156.09375 C 141.292969 154.9375 141.722656 153.785156 142.492188 152.917969 C 143.695312 151.621094 145.519531 151.234375 147.25 151.09375 C 151.863281 150.660156 156.574219 151.667969 160.847656 153.640625 " fill-opacity="1" fill-rule="nonzero"/><path fill="#8b5312" d="M 216.6875 109.886719 C 221.925781 113.109375 223.65625 119.40625 223.414062 125.082031 C 223.320312 127.582031 222.886719 130.082031 221.542969 132.292969 C 220.195312 134.457031 217.792969 136.234375 215.007812 136.476562 C 213.46875 136.621094 211.882812 136.285156 210.441406 135.804688 C 208.613281 135.226562 206.886719 134.410156 205.300781 133.398438 C 204.242188 132.726562 203.183594 131.957031 202.65625 130.851562 C 201.933594 129.457031 202.222656 127.820312 202.65625 126.332031 C 204 121.621094 206.644531 117.148438 210.296875 113.496094 C 211.882812 111.90625 213.949219 110.320312 216.304688 110.417969 " fill-opacity="1" fill-rule="nonzero"/><path fill="#ffffff" d="M 153.882812 160.273438 C 153.882812 160.652344 153.816406 161.011719 153.683594 161.359375 C 153.550781 161.707031 153.363281 162.015625 153.121094 162.28125 C 152.878906 162.546875 152.597656 162.75 152.28125 162.894531 C 151.960938 163.039062 151.628906 163.113281 151.285156 163.113281 C 150.941406 163.113281 150.613281 163.039062 150.292969 162.894531 C 149.976562 162.75 149.695312 162.546875 149.453125 162.28125 C 149.207031 162.015625 149.019531 161.707031 148.890625 161.359375 C 148.757812 161.011719 148.691406 160.652344 148.691406 160.273438 C 148.691406 159.898438 148.757812 159.535156 148.890625 159.1875 C 149.019531 158.84375 149.207031 158.535156 149.453125 158.269531 C 149.695312 158.003906 149.976562 157.796875 150.292969 157.652344 C 150.613281 157.511719 150.941406 157.4375 151.285156 157.4375 C 151.628906 157.4375 151.960938 157.511719 152.28125 157.652344 C 152.597656 157.796875 152.878906 158.003906 153.121094 158.269531 C 153.363281 158.535156 153.550781 158.84375 153.683594 159.1875 C 153.816406 159.535156 153.882812 159.898438 153.882812 160.273438 Z M 153.882812 160.273438 " fill-opacity="1" fill-rule="nonzero"/><path fill="#ffffff" d="M 215.535156 124.9375 C 215.535156 125.3125 215.46875 125.675781 215.335938 126.023438 C 215.207031 126.371094 215.019531 126.675781 214.773438 126.941406 C 214.53125 127.207031 214.25 127.414062 213.933594 127.558594 C 213.613281 127.703125 213.285156 127.773438 212.941406 127.773438 C 212.59375 127.773438 212.265625 127.703125 211.945312 127.558594 C 211.628906 127.414062 211.347656 127.207031 211.105469 126.941406 C 210.863281 126.675781 210.675781 126.371094 210.542969 126.023438 C 210.410156 125.675781 210.34375 125.3125 210.34375 124.9375 C 210.34375 124.5625 210.410156 124.199219 210.542969 123.851562 C 210.675781 123.503906 210.863281 123.199219 211.105469 122.929688 C 211.347656 122.664062 211.628906 122.460938 211.945312 122.316406 C 212.265625 122.171875 212.59375 122.101562 212.941406 122.101562 C 213.285156 122.101562 213.613281 122.171875 213.933594 122.316406 C 214.25 122.460938 214.53125 122.664062 214.773438 122.929688 C 215.019531 123.195312 215.207031 123.503906 215.335938 123.851562 C 215.46875 124.199219 215.535156 124.5625 215.535156 124.9375 Z M 215.535156 124.9375 " fill-opacity="1" fill-rule="nonzero"/><path fill="#8b5312" d="M 179.925781 191.574219 C 178.050781 191.910156 176.179688 192.34375 174.304688 192.679688 C 172.476562 193.015625 170.652344 193.257812 168.828125 193.496094 C 165.078125 193.929688 161.328125 194.171875 157.535156 194.171875 C 150.085938 194.21875 142.683594 193.257812 135.476562 191.527344 C 131.152344 190.46875 126.828125 189.316406 122.597656 187.921875 C 122.308594 187.824219 122.117188 188.207031 122.40625 188.351562 C 126.058594 190.179688 129.855469 191.71875 133.796875 192.777344 C 137.496094 193.738281 141.242188 194.460938 144.992188 194.941406 C 152.296875 195.902344 159.742188 195.949219 167.097656 195.035156 C 169.308594 194.746094 171.46875 194.410156 173.632812 193.976562 C 175.792969 193.546875 177.957031 193.066406 180.023438 192.296875 C 180.457031 192.199219 180.359375 191.527344 179.925781 191.574219 Z M 179.925781 191.574219 " fill-opacity="1" fill-rule="nonzero"/><path fill="#8b5312" d="M 181.609375 196.671875 C 179.832031 196.527344 177.957031 197.152344 176.273438 197.726562 C 174.542969 198.304688 172.910156 199.027344 171.230469 199.746094 C 168.058594 201.191406 164.980469 203.066406 162.050781 204.941406 C 156.378906 208.59375 151.046875 212.824219 146.191406 217.585938 C 144.800781 218.929688 143.453125 220.375 142.15625 221.816406 C 141.386719 222.679688 140.761719 223.691406 140.042969 224.605469 C 139.371094 225.46875 138.746094 226.429688 138.167969 227.34375 C 137.976562 227.632812 138.359375 228.113281 138.648438 227.824219 C 139.371094 227.105469 140.089844 226.382812 140.8125 225.660156 C 141.628906 224.84375 142.445312 224.125 143.261719 223.304688 C 144.464844 222.054688 145.664062 220.804688 146.867188 219.605469 C 149.171875 217.296875 151.574219 215.132812 154.074219 213.066406 C 159.167969 208.835938 164.597656 205.035156 170.410156 201.910156 C 172.238281 200.949219 174.0625 199.988281 175.984375 199.21875 C 176.851562 198.882812 177.765625 198.546875 178.675781 198.304688 C 179.636719 198.015625 180.695312 197.726562 181.609375 197.34375 C 181.847656 197.152344 181.945312 196.71875 181.609375 196.671875 Z M 181.609375 196.671875 " fill-opacity="1" fill-rule="nonzero"/><path fill="#8b5312" d="M 181.800781 200.757812 C 181.65625 200.902344 181.175781 201.046875 180.9375 201.140625 C 180.597656 201.335938 180.3125 201.527344 179.976562 201.765625 C 179.589844 202.007812 179.253906 202.296875 178.917969 202.535156 C 178.148438 203.160156 177.429688 203.835938 176.753906 204.554688 C 175.503906 205.949219 174.402344 207.488281 173.390625 209.121094 C 171.324219 212.441406 169.5 215.902344 167.625 219.363281 C 165.800781 222.777344 164.117188 226.289062 162.628906 229.84375 C 161.1875 233.355469 159.9375 236.960938 159.214844 240.664062 C 158.253906 245.519531 158.015625 250.664062 159.167969 255.519531 C 159.261719 255.953125 159.839844 255.855469 159.839844 255.421875 C 159.839844 253.019531 159.9375 250.664062 160.175781 248.308594 C 160.417969 246 160.898438 243.738281 161.425781 241.480469 C 162.289062 237.824219 163.492188 234.269531 164.886719 230.804688 C 166.328125 227.25 167.960938 223.835938 169.644531 220.421875 C 171.277344 217.105469 173.007812 213.738281 174.832031 210.515625 C 175.746094 208.882812 176.753906 207.296875 177.910156 205.804688 C 178.484375 205.035156 179.109375 204.316406 179.78125 203.640625 C 180.550781 202.871094 181.464844 202.246094 182.328125 201.527344 C 182.523438 201.382812 182.523438 201.09375 182.378906 200.902344 C 182.28125 200.851562 181.945312 200.613281 181.800781 200.757812 Z M 181.800781 200.757812 " fill-opacity="1" fill-rule="nonzero"/><path fill="#8b5312" d="M 228.269531 167.632812 C 232.066406 165.804688 235.140625 162.535156 237.929688 159.410156 C 240.761719 156.238281 243.550781 152.96875 246.097656 149.554688 C 251.09375 142.917969 255.417969 135.660156 257.679688 127.582031 C 258.351562 125.226562 258.78125 122.773438 259.070312 120.320312 C 259.359375 117.773438 259.214844 115.175781 258.832031 112.675781 C 258.78125 112.246094 258.109375 112.386719 258.109375 112.773438 C 258.109375 115.082031 257.820312 117.390625 257.582031 119.695312 C 257.339844 121.8125 256.910156 123.925781 256.332031 125.996094 C 255.273438 129.9375 253.785156 133.6875 251.910156 137.292969 C 248.113281 144.554688 243.070312 151.09375 237.734375 157.246094 C 236.292969 158.929688 234.804688 160.5625 233.265625 162.101562 C 231.585938 163.785156 229.710938 165.324219 227.789062 166.765625 C 227.355469 167.148438 227.789062 167.871094 228.269531 167.632812 Z M 228.269531 167.632812 " fill-opacity="1" fill-rule="nonzero"/><path fill="#8b5312" d="M 239.753906 175.996094 C 240.8125 175.851562 241.820312 175.46875 242.828125 175.132812 C 243.789062 174.84375 244.75 174.363281 245.710938 174.027344 C 247.441406 173.351562 249.21875 172.726562 250.949219 172.152344 C 254.265625 171.042969 257.628906 170.179688 261.042969 169.507812 C 267.722656 168.160156 274.542969 167.773438 281.367188 167.917969 C 282.472656 167.96875 283.578125 168.015625 284.683594 168.113281 C 285.835938 168.207031 287.039062 168.207031 288.191406 168.304688 C 290.402344 168.496094 292.613281 168.6875 294.777344 169.023438 C 295.0625 169.074219 295.160156 168.59375 294.871094 168.496094 C 291.027344 167.292969 286.992188 166.429688 282.953125 166.140625 C 279.300781 165.851562 275.699219 165.804688 272.046875 166.042969 C 264.933594 166.476562 257.964844 167.824219 251.191406 170.035156 C 249.269531 170.660156 247.394531 171.382812 245.519531 172.152344 C 243.40625 173.0625 241.195312 174.074219 239.511719 175.707031 C 239.464844 175.804688 239.5625 176.042969 239.753906 175.996094 Z M 239.753906 175.996094 " fill-opacity="1" fill-rule="nonzero"/><path fill="#8b5312" d="M 281.609375 132.917969 C 280.792969 132.4375 279.925781 132.726562 279.15625 133.207031 C 278.339844 133.6875 277.570312 134.265625 276.753906 134.792969 C 275.265625 135.804688 273.777344 136.859375 272.335938 137.964844 C 269.308594 140.226562 266.328125 142.582031 263.394531 145.035156 C 257.773438 149.746094 252.34375 154.699219 247.347656 160.082031 C 244.414062 163.257812 241.578125 166.574219 239.082031 170.132812 C 238.9375 170.371094 239.226562 170.660156 239.417969 170.46875 C 244.65625 165.132812 249.796875 159.699219 255.179688 154.457031 C 260.273438 149.503906 265.605469 144.890625 271.179688 140.464844 C 272.765625 139.214844 274.402344 137.964844 275.988281 136.765625 C 276.804688 136.140625 277.621094 135.515625 278.484375 134.890625 C 279.300781 134.3125 280.359375 133.207031 281.417969 133.304688 C 281.609375 133.253906 281.753906 133.015625 281.609375 132.917969 Z M 281.609375 132.917969 " fill-opacity="1" fill-rule="nonzero"/><path fill="#8b5312" d="M 225.867188 30.460938 C 226.492188 31.953125 226.730469 33.539062 226.875 35.125 C 226.921875 35.894531 226.972656 36.710938 226.921875 37.480469 C 226.921875 37.867188 226.875 38.203125 226.875 38.585938 C 226.828125 39.070312 226.875 39.5 226.875 39.980469 C 226.875 40.175781 227.117188 40.320312 227.261719 40.125 C 227.5 39.695312 227.691406 39.308594 227.789062 38.78125 C 227.882812 38.394531 227.933594 37.960938 227.933594 37.578125 C 227.980469 36.664062 227.882812 35.75 227.742188 34.835938 C 227.5 33.25 226.777344 31.761719 225.960938 30.414062 C 225.914062 30.367188 225.867188 30.414062 225.867188 30.460938 Z M 225.867188 30.460938 " fill-opacity="1" fill-rule="nonzero"/><path fill="#8b5312" d="M 185.355469 29.019531 C 185.117188 30.558594 185.019531 32.144531 185.019531 33.730469 C 185.019531 34.550781 185.070312 35.316406 185.164062 36.136719 C 185.210938 36.519531 185.261719 36.953125 185.355469 37.386719 C 185.5 37.914062 185.742188 38.300781 186.03125 38.78125 C 186.171875 38.972656 186.558594 38.972656 186.558594 38.683594 C 186.605469 38.105469 186.703125 37.578125 186.652344 37 C 186.605469 36.664062 186.558594 36.375 186.511719 36.039062 C 186.414062 35.367188 186.367188 34.691406 186.316406 34.019531 C 186.222656 32.433594 186.269531 30.800781 186.460938 29.210938 C 186.511719 28.441406 185.453125 28.347656 185.355469 29.019531 Z M 185.355469 29.019531 " fill-opacity="1" fill-rule="nonzero"/><path fill="#8b5312" d="M 116.785156 91.136719 C 116.398438 91.042969 116.542969 90.992188 116.304688 90.800781 C 116.109375 90.65625 115.773438 90.609375 115.582031 90.5625 C 115.054688 90.417969 114.574219 90.320312 114.042969 90.128906 C 113.324219 89.9375 112.554688 89.742188 111.835938 89.503906 C 110.730469 89.117188 109.625 88.589844 108.566406 88.011719 C 107.558594 87.4375 106.546875 86.714844 105.683594 85.992188 C 105.492188 85.847656 105.347656 85.703125 105.15625 85.5625 C 104.769531 85.222656 104.339844 85.03125 103.953125 84.695312 C 103.375 84.167969 102.753906 83.636719 102.175781 83.058594 C 102.03125 82.917969 101.695312 83.109375 101.792969 83.300781 C 102.078125 84.070312 102.367188 84.792969 102.847656 85.464844 C 103.136719 85.847656 103.328125 86.328125 103.617188 86.714844 C 103.90625 87.050781 104.242188 87.339844 104.53125 87.675781 C 105.492188 88.636719 106.644531 89.40625 107.847656 90.03125 C 109.046875 90.65625 110.296875 91.136719 111.59375 91.472656 C 112.265625 91.617188 112.941406 91.761719 113.613281 91.8125 C 114.140625 91.859375 114.71875 91.8125 115.246094 91.8125 C 115.535156 91.8125 115.871094 91.8125 116.109375 91.714844 C 116.304688 91.617188 116.351562 91.570312 116.589844 91.523438 C 116.929688 91.523438 117.023438 91.1875 116.785156 91.136719 Z M 116.785156 91.136719 " fill-opacity="1" fill-rule="nonzero"/><path fill="#8b5312" d="M 111.257812 133.6875 C 110.34375 134.023438 109.480469 134.457031 108.566406 134.746094 C 107.75 134.984375 106.933594 135.128906 106.117188 135.179688 C 105.492188 135.226562 104.820312 135.273438 104.195312 135.226562 C 103.375 135.179688 102.558594 135.226562 101.742188 135.128906 C 101.308594 135.082031 100.972656 135.804688 101.453125 136.042969 C 101.984375 136.285156 102.511719 136.570312 103.039062 136.765625 C 103.425781 136.910156 103.90625 136.957031 104.289062 136.957031 C 105.058594 137.003906 105.875 137.003906 106.644531 136.910156 C 108.46875 136.621094 110.441406 135.851562 111.785156 134.503906 C 112.074219 134.167969 111.738281 133.496094 111.257812 133.6875 Z M 111.257812 133.6875 " fill-opacity="1" fill-rule="nonzero"/></svg>