<svg xmlns="http://www.w3.org/2000/svg" xmlns:xlink="http://www.w3.org/1999/xlink" width="500" zoomAndPan="magnify" viewBox="0 0 375 374.999991" height="500" preserveAspectRatio="xMidYMid meet" version="1.0"><defs><clipPath id="02bdf79290"><path d="M 96.019531 106.238281 L 279 106.238281 L 279 356.738281 L 96.019531 356.738281 Z M 96.019531 106.238281 " clip-rule="nonzero"/></clipPath><clipPath id="a7227d84d4"><path d="M 96.019531 106.238281 L 279 106.238281 L 279 356.738281 L 96.019531 356.738281 Z M 96.019531 106.238281 " clip-rule="nonzero"/></clipPath></defs><g clip-path="url(#02bdf79290)"><path fill="#866255" d="M 278.351562 197.402344 L 278.234375 197.320312 C 278.15625 197.230469 278.0625 197.160156 277.957031 197.109375 C 277.804688 197.007812 277.636719 196.953125 277.453125 196.949219 C 277.292969 196.925781 277.136719 196.925781 276.976562 196.949219 C 275.863281 195.359375 274.476562 194.054688 272.816406 193.039062 C 271.160156 192.023438 269.367188 191.382812 267.441406 191.113281 C 265.03125 190.664062 262.605469 190.386719 260.15625 190.28125 C 257.058594 190.121094 253.933594 190.625 250.886719 190.398438 C 250.933594 190.296875 250.960938 190.183594 250.964844 190.070312 C 250.964844 185.226562 249.90625 180.476562 249.269531 175.699219 C 248.953125 173.316406 248.675781 170.933594 248.316406 168.550781 C 248.171875 166.902344 247.882812 165.273438 247.457031 163.667969 C 247.273438 162.96875 246.953125 162.339844 246.488281 161.78125 C 246.023438 161.222656 245.464844 160.789062 244.808594 160.480469 C 243.363281 159.996094 241.894531 159.90625 240.398438 160.203125 C 239.671875 160.21875 238.992188 160.40625 238.363281 160.769531 C 237.734375 161.132812 237.230469 161.621094 236.847656 162.242188 C 235.976562 163.972656 236.410156 166.210938 236.636719 168.078125 C 237.257812 172.972656 237.617188 177.894531 238.292969 182.792969 C 238.125 182.949219 238.011719 183.136719 237.953125 183.359375 C 237.894531 183.582031 237.894531 183.800781 237.960938 184.023438 C 238.199219 184.855469 238.386719 185.703125 238.519531 186.5625 C 238.597656 187.011719 238.710938 187.453125 238.847656 187.886719 C 238.925781 188.097656 239.015625 188.304688 239.113281 188.507812 C 236.808594 188.257812 234.503906 188.03125 232.199219 187.871094 C 230.664062 187.765625 229.128906 187.699219 227.578125 187.742188 C 226.03125 187.78125 224.308594 188.070312 222.679688 187.980469 C 221.050781 187.886719 219.578125 187.582031 218.03125 187.4375 C 216.527344 187.324219 215.035156 187.402344 213.554688 187.675781 C 211.535156 187.882812 209.519531 187.824219 207.515625 187.503906 C 207.484375 187.203125 207.367188 186.941406 207.15625 186.722656 L 207.039062 186.601562 C 206.972656 186.503906 206.917969 186.402344 206.867188 186.296875 C 206.761719 185.972656 206.683594 185.640625 206.628906 185.304688 C 206.628906 185.105469 206.628906 184.910156 206.628906 184.710938 L 206.628906 182.183594 C 206.628906 171.597656 206.097656 161.011719 206.125 150.421875 C 206.152344 139.835938 206.257812 129.394531 205.582031 118.929688 C 205.382812 115.542969 205.488281 110.023438 202.085938 108.078125 C 199.726562 106.753906 195.6875 106.292969 193.453125 108.078125 C 191.953125 109.269531 192.035156 111.070312 191.953125 112.828125 C 191.835938 115.476562 191.863281 118.203125 191.953125 120.886719 C 192.125 126.007812 192.234375 131.144531 192.191406 136.265625 C 192.191406 141.941406 191.953125 147.632812 191.464844 153.28125 C 191.464844 153.707031 191.464844 154.921875 191.148438 155.214844 C 190.828125 155.503906 190.085938 155.304688 189.824219 155.320312 C 188.988281 155.320312 188.152344 155.320312 187.320312 155.320312 C 184.765625 155.253906 182.222656 155.042969 179.691406 154.84375 C 180.289062 151.523438 180.273438 148.015625 180.617188 144.679688 C 181.070312 140.472656 181.652344 136.277344 181.941406 132.070312 C 182.3125 127.875 182.472656 123.671875 182.417969 119.457031 C 182.417969 115.738281 182.960938 112.074219 181.09375 108.6875 C 180.9375 108.433594 180.71875 108.25 180.4375 108.136719 C 180.160156 108.027344 179.875 108.007812 179.585938 108.078125 C 177.519531 108.460938 175.070312 108.371094 173.507812 110.011719 C 172.183594 111.425781 171.773438 113.914062 171.375 115.738281 C 170.332031 121.015625 169.597656 126.335938 169.175781 131.699219 C 167.972656 143.332031 167.535156 155.003906 166.605469 166.648438 C 166.078125 173.261719 165.457031 179.960938 164.925781 186.617188 C 164.925781 186.617188 164.925781 186.722656 164.925781 186.773438 C 162.8125 186.734375 160.707031 186.832031 158.609375 187.066406 C 157.15625 187.289062 155.695312 187.398438 154.226562 187.382812 C 152.582031 187.25 150.941406 187.050781 149.296875 186.921875 C 146.09375 186.65625 142.875 186.429688 139.671875 186.101562 C 138.914062 186.015625 138.15625 185.976562 137.394531 185.980469 C 138.804688 181.96875 139.796875 177.859375 140.371094 173.648438 C 140.664062 171.730469 140.902344 169.824219 141.300781 167.929688 C 141.714844 166.496094 141.78125 165.042969 141.5 163.578125 C 140.542969 160.203125 136.109375 161.023438 133.550781 161.777344 C 129.882812 162.875 129.578125 167.269531 128.730469 170.40625 C 127.25 175.554688 125.578125 180.632812 124.148438 185.769531 C 124.148438 185.769531 124.148438 185.769531 124.148438 185.863281 C 122.65625 186 121.160156 186.054688 119.660156 186.019531 C 117.011719 185.890625 114.484375 186.390625 112.085938 187.515625 C 109.4375 188.839844 108.191406 191.167969 106.789062 193.640625 C 106.703125 193.792969 106.644531 193.957031 106.621094 194.128906 C 106.59375 194.300781 106.601562 194.472656 106.636719 194.640625 C 106.675781 194.8125 106.742188 194.96875 106.839844 195.113281 C 106.9375 195.257812 107.054688 195.382812 107.199219 195.480469 L 105.464844 215.078125 C 104.867188 222.226562 104.019531 229.398438 103.953125 236.582031 C 103.886719 243.769531 103.210938 250.757812 102.628906 257.835938 C 102.339844 261.367188 102.058594 264.890625 102.035156 268.421875 C 102.035156 269.957031 102.035156 271.519531 102.035156 273.054688 C 102.261719 274.789062 102.363281 276.53125 102.339844 278.28125 C 102.179688 280.210938 101.941406 282.15625 101.875 284.089844 C 101.808594 286.023438 102.007812 287.914062 102.019531 289.820312 C 102.011719 291.730469 101.707031 293.589844 101.105469 295.402344 C 100.667969 297.332031 100.433594 299.289062 100.40625 301.265625 C 100.371094 301.695312 100.519531 302.050781 100.855469 302.324219 C 101.574219 303.761719 102.617188 304.902344 103.980469 305.753906 C 104.5625 306.164062 105.144531 306.546875 105.742188 306.890625 C 105.257812 310.519531 104.375 314.046875 103.09375 317.476562 C 101.941406 320.917969 100.933594 324.359375 100.113281 327.890625 C 99.292969 331.425781 98.390625 335.050781 97.609375 338.648438 C 96.839844 341.5 96.414062 344.402344 96.339844 347.355469 C 96.34375 347.96875 96.449219 348.566406 96.648438 349.144531 C 96.851562 349.722656 97.140625 350.257812 97.515625 350.742188 C 97.890625 351.226562 98.332031 351.636719 98.84375 351.980469 C 99.355469 352.320312 99.90625 352.570312 100.496094 352.730469 C 102.3125 353.324219 104.972656 354.050781 106.378906 352.304688 C 107.003906 351.429688 107.445312 350.464844 107.703125 349.421875 C 108.269531 347.714844 108.734375 345.980469 109.171875 344.246094 C 110.085938 340.632812 111.09375 337.074219 112.097656 333.5 C 113.25 329.398438 114.191406 325.230469 115.355469 321.128906 C 115.914062 319.195312 116.480469 317.25 117.117188 315.347656 C 117.449219 314.351562 117.847656 313.386719 118.203125 312.410156 C 118.398438 311.523438 118.714844 310.679688 119.144531 309.878906 C 119.242188 309.761719 119.3125 309.625 119.351562 309.476562 C 119.394531 309.328125 119.402344 309.175781 119.378906 309.023438 C 119.351562 308.871094 119.300781 308.730469 119.214844 308.601562 C 119.128906 308.46875 119.023438 308.363281 118.890625 308.28125 C 121.917969 307.71875 124.96875 307.503906 128.042969 307.632812 C 131.300781 307.910156 134.492188 308.476562 137.765625 308.609375 C 141.035156 308.742188 144.066406 308.609375 147.207031 308.609375 C 150.34375 308.609375 153.707031 308.347656 156.953125 308.359375 C 160.199219 308.371094 163.375 308.664062 166.59375 308.835938 C 169.8125 309.007812 172.753906 309.113281 175.863281 309.390625 C 177.386719 309.523438 178.898438 309.695312 180.394531 309.933594 C 181.890625 310.171875 183.1875 310.714844 184.617188 311.046875 C 187.460938 311.519531 190.3125 311.582031 193.171875 311.230469 C 196.25 311.136719 199.308594 311.324219 202.351562 311.800781 C 205.367188 312.167969 208.398438 312.292969 211.433594 312.171875 C 214.667969 312.0625 217.792969 312.515625 221.011719 312.671875 C 224.226562 312.832031 227.484375 312.488281 230.703125 312.433594 C 233.96875 312.402344 237.226562 312.546875 240.476562 312.871094 C 241.972656 313.015625 243.457031 313.148438 244.925781 313.230469 C 245.753906 316.261719 246.195312 319.347656 246.25 322.492188 C 246.253906 322.757812 246.328125 323 246.476562 323.21875 C 247.3125 329.253906 248.027344 335.316406 249.058594 341.320312 C 249.601562 344.5 250.226562 347.660156 251.019531 350.785156 C 251.601562 353.035156 252.34375 354.859375 254.714844 355.734375 C 256.800781 356.558594 258.945312 356.769531 261.148438 356.367188 C 263.164062 355.878906 263.800781 354.105469 263.800781 352.199219 C 263.667969 346.257812 262.25 340.289062 261.148438 334.519531 C 260.5 330.894531 260.0625 327.242188 259.519531 323.589844 C 259.242188 321.710938 258.953125 319.832031 258.609375 317.953125 C 258.191406 316.339844 257.898438 314.703125 257.734375 313.042969 L 260.648438 312.699219 C 263.09375 312.523438 265.46875 312.019531 267.773438 311.175781 C 269.414062 310.488281 271.507812 309.40625 271.664062 307.417969 C 271.679688 307.296875 271.679688 307.171875 271.664062 307.050781 C 271.714844 306.929688 271.75 306.804688 271.769531 306.679688 C 272.082031 303.121094 272.191406 299.554688 272.101562 295.984375 C 272.101562 294.304688 271.851562 292.652344 271.757812 290.984375 C 271.746094 289.105469 271.851562 287.238281 272.074219 285.375 C 272.542969 281.992188 272.785156 278.597656 272.804688 275.183594 C 272.488281 271.648438 272.550781 268.121094 273.003906 264.597656 C 273.253906 263.023438 273.730469 261.472656 274.035156 259.898438 C 274.347656 258.035156 274.554688 256.164062 274.660156 254.277344 L 275.570312 243.265625 C 276.179688 235.976562 276.699219 228.710938 277.425781 221.367188 C 277.785156 217.84375 278.472656 214.417969 278.089844 210.859375 C 277.84375 207.175781 277.972656 203.503906 278.472656 199.847656 L 278.605469 198.378906 C 278.65625 198.019531 278.570312 197.691406 278.351562 197.402344 Z M 184.804688 186.191406 C 182.15625 186.085938 179.613281 187.039062 177.015625 187.039062 C 177.292969 186.792969 177.4375 186.484375 177.453125 186.113281 C 177.640625 182.367188 177.890625 178.609375 178.328125 174.878906 C 178.511719 173.34375 178.726562 171.820312 179.015625 170.3125 C 179.148438 169.257812 179.476562 168.269531 180.007812 167.347656 C 180.296875 166.953125 180.664062 166.65625 181.113281 166.453125 C 181.558594 166.253906 182.023438 166.175781 182.511719 166.222656 C 184.351562 166.222656 186.140625 166.871094 187.980469 166.753906 C 188.550781 166.753906 189.042969 166.5 189.425781 166.964844 C 189.757812 167.488281 189.96875 168.058594 190.0625 168.671875 C 190.4375 170.195312 190.707031 171.742188 190.867188 173.304688 C 191.144531 177.40625 191.203125 181.511719 191.054688 185.625 C 191.035156 186.050781 191.203125 186.386719 191.558594 186.628906 C 189.304688 186.484375 187.054688 186.296875 184.804688 186.191406 Z M 184.804688 186.191406 " fill-opacity="1" fill-rule="nonzero"/></g><path fill="#deaf5f" d="M 196.90625 246.136719 L 196.828125 245.660156 C 196.75 245.183594 196.683594 244.722656 196.617188 244.257812 C 196.511719 243.082031 196.257812 241.9375 195.847656 240.832031 C 195.480469 239.9375 195.039062 239.082031 194.523438 238.265625 L 194.429688 238.117188 L 194.257812 238.027344 L 194.074219 237.90625 C 191.425781 235.960938 188.417969 234.160156 185.054688 234.160156 C 181.863281 234.160156 178.683594 235.867188 176.289062 237.351562 C 175.644531 237.710938 175.03125 238.121094 174.449219 238.578125 C 173.867188 239.035156 173.328125 239.53125 172.824219 240.074219 C 172.316406 240.613281 171.859375 241.1875 171.441406 241.800781 C 171.027344 242.410156 170.664062 243.050781 170.34375 243.71875 C 170.027344 244.382812 169.765625 245.070312 169.554688 245.78125 C 169.34375 246.488281 169.191406 247.207031 169.089844 247.941406 C 168.992188 248.671875 168.949219 249.40625 168.964844 250.144531 C 168.976562 250.882812 169.050781 251.617188 169.175781 252.34375 C 169.382812 253.542969 169.835938 254.644531 170.53125 255.648438 C 171.226562 256.648438 172.097656 257.457031 173.148438 258.074219 L 173.347656 258.191406 C 174.675781 259.164062 176.113281 259.941406 177.652344 260.523438 C 178.714844 260.800781 179.796875 260.949219 180.898438 260.957031 L 182.816406 260.957031 C 185.054688 260.972656 187.152344 260.433594 189.109375 259.34375 C 190.007812 258.851562 190.871094 258.296875 191.691406 257.675781 L 192.617188 256.960938 C 192.792969 256.828125 192.980469 256.703125 193.171875 256.589844 C 193.4375 256.417969 193.703125 256.246094 193.941406 256.0625 C 194.5 255.542969 194.902344 254.921875 195.144531 254.195312 L 195.265625 253.917969 C 195.46875 253.464844 195.691406 253.023438 195.941406 252.59375 C 196.582031 251.648438 196.988281 250.605469 197.15625 249.476562 C 197.320312 248.34375 197.234375 247.230469 196.894531 246.136719 Z M 179.492188 253.785156 C 179.132812 251.304688 179.160156 248.824219 179.574219 246.347656 C 179.691406 245.183594 179.835938 243.980469 179.890625 242.804688 C 179.886719 242.617188 179.949219 242.453125 180.078125 242.316406 C 180.207031 242.179688 180.363281 242.109375 180.550781 242.101562 C 180.628906 242.09375 180.703125 242.09375 180.777344 242.101562 L 181.214844 242.234375 L 181.492188 241.875 C 181.648438 241.679688 181.851562 241.566406 182.101562 241.546875 C 184.84375 241.253906 187.054688 243.53125 189.015625 245.515625 C 189.410156 245.925781 189.796875 246.324219 190.195312 246.707031 C 190.589844 247.089844 190.324219 247.382812 190.195312 247.554688 C 189.835938 248.125 189.359375 248.566406 188.761719 248.875 C 188.523438 249.019531 188.292969 249.179688 188.074219 249.351562 C 187.519531 249.789062 186.9375 250.171875 186.328125 250.582031 C 185.71875 250.992188 185.414062 251.179688 185.003906 251.496094 L 184.433594 251.933594 L 184.023438 252.265625 C 183.597656 252.625 183.15625 252.964844 182.699219 253.285156 C 181.949219 253.84375 181.105469 254.140625 180.167969 254.171875 C 179.851562 254.203125 179.625 254.078125 179.492188 253.785156 Z M 179.492188 253.785156 " fill-opacity="1" fill-rule="nonzero"/><path fill="#a48c7e" d="M 188.300781 246.734375 L 188.855469 247.316406 L 188.179688 247.753906 C 187.828125 247.976562 187.488281 248.21875 187.160156 248.480469 C 186.671875 248.863281 186.140625 249.195312 185.625 249.539062 L 184.460938 250.304688 L 183.597656 250.980469 C 183.199219 251.285156 182.804688 251.601562 182.378906 251.894531 C 182.109375 252.097656 181.820312 252.277344 181.519531 252.4375 L 180.632812 252.898438 L 180.550781 251.90625 C 180.46875 249.949219 180.578125 248.003906 180.882812 246.070312 C 180.988281 245.210938 181.09375 244.363281 181.160156 243.515625 L 181.160156 242.910156 L 181.917969 242.910156 C 182.632812 242.828125 183.324219 242.933594 183.980469 243.226562 C 184.679688 243.585938 185.320312 244.027344 185.902344 244.550781 C 186.742188 245.234375 187.542969 245.960938 188.300781 246.734375 Z M 138.980469 163.367188 C 138.128906 162.925781 137.246094 162.859375 136.332031 163.167969 L 135.644531 163.273438 C 134.460938 163.285156 133.4375 163.695312 132.574219 164.503906 C 131.78125 165.714844 131.300781 167.039062 131.128906 168.472656 C 131.0625 168.804688 130.996094 169.136719 130.917969 169.425781 C 130.597656 170.75 130.203125 171.992188 129.816406 173.25 L 129.445312 174.707031 C 128.351562 178.3125 127.28125 181.929688 126.230469 185.558594 L 125.992188 186.390625 L 126.796875 186.390625 C 127.605469 186.410156 128.410156 186.472656 129.207031 186.574219 C 130.183594 186.6875 131.164062 186.742188 132.148438 186.734375 C 132.941406 186.734375 133.710938 186.734375 134.480469 186.734375 L 134.917969 186.734375 L 135.074219 186.324219 C 136.613281 182.183594 137.6875 177.929688 138.292969 173.554688 C 138.398438 172.933594 138.480469 172.296875 138.570312 171.675781 C 138.71875 170.550781 138.875 169.375 139.113281 168.25 C 139.113281 168.011719 139.207031 167.757812 139.273438 167.507812 C 139.535156 166.554688 139.628906 165.582031 139.550781 164.597656 C 139.546875 164.113281 139.355469 163.722656 138.980469 163.417969 Z M 110.203125 307.882812 C 109.628906 307.785156 109.0625 307.640625 108.507812 307.445312 L 107.753906 307.179688 L 107.636719 307.976562 C 106.964844 311.933594 105.949219 315.800781 104.589844 319.582031 C 103.742188 322.226562 102.867188 324.875 102.230469 327.519531 C 101.953125 328.722656 101.648438 329.929688 101.359375 331.144531 C 100.085938 335.90625 99.109375 340.730469 98.429688 345.609375 C 98.253906 346.320312 98.234375 347.035156 98.375 347.75 C 98.519531 348.46875 98.804688 349.121094 99.238281 349.710938 C 100.242188 350.601562 101.410156 351.097656 102.75 351.195312 L 102.882812 351.195312 C 103.195312 351.261719 103.511719 351.300781 103.835938 351.3125 C 104.578125 351.3125 105 350.980469 105.410156 349.871094 C 105.925781 348.402344 106.367188 346.910156 106.734375 345.398438 C 107.226562 343.558594 107.726562 341.734375 108.21875 339.894531 C 109.410156 335.488281 110.640625 330.921875 111.792969 326.410156 C 112.722656 322.824219 113.59375 319.710938 114.441406 316.894531 C 114.878906 315.453125 115.394531 313.957031 116.070312 312.171875 C 116.203125 311.8125 116.308594 311.429688 116.414062 311.058594 C 116.585938 310.277344 116.878906 309.550781 117.304688 308.875 L 118.191406 307.671875 L 116.695312 307.828125 C 114.535156 308.140625 112.371094 308.160156 110.203125 307.882812 Z M 261.175781 345.808594 L 261.175781 345.359375 C 260.792969 342.710938 260.289062 339.933594 259.851562 337.300781 C 259.335938 334.453125 258.792969 331.53125 258.394531 328.617188 C 257.972656 325.441406 257.589844 322.78125 257.070312 320.125 C 256.9375 319.316406 256.742188 318.496094 256.554688 317.660156 C 256.160156 316.199219 255.917969 314.714844 255.828125 313.203125 L 255.828125 312.566406 L 255.191406 312.566406 C 254.648438 312.566406 254.117188 312.566406 253.589844 312.472656 C 252.542969 312.382812 251.496094 312.382812 250.449219 312.472656 C 249.515625 312.585938 248.582031 312.644531 247.640625 312.644531 L 246.808594 312.644531 L 247.007812 313.453125 C 247.664062 315.996094 248.070312 318.574219 248.226562 321.195312 L 248.226562 321.460938 C 248.542969 323.617188 248.820312 325.773438 249.113281 327.917969 C 249.640625 332.03125 250.210938 336.28125 250.914062 340.4375 C 251.429688 343.503906 251.972656 346.21875 252.570312 348.746094 C 252.636719 349.011719 252.6875 349.300781 252.753906 349.59375 C 252.890625 350.699219 253.242188 351.738281 253.800781 352.703125 C 254.484375 353.554688 255.367188 354.054688 256.449219 354.199219 C 257.394531 354.429688 258.351562 354.554688 259.324219 354.570312 L 259.8125 354.570312 C 261.269531 354.503906 261.8125 353.921875 261.839844 352.425781 C 261.800781 350.203125 261.585938 347.996094 261.191406 345.808594 Z M 204.933594 186.65625 C 204.894531 186.566406 204.863281 186.472656 204.839844 186.378906 C 204.839844 186.378906 204.839844 186.285156 204.839844 186.246094 L 204.839844 186.074219 L 204.746094 185.953125 C 204.675781 185.855469 204.636719 185.746094 204.628906 185.625 L 204.628906 182.183594 C 204.628906 176.558594 204.507812 170.828125 204.375 165.296875 C 204.246094 159.765625 204.113281 154.0625 204.136719 148.4375 L 204.136719 144.46875 C 204.136719 135.867188 204.246094 126.976562 203.636719 118.253906 C 203.636719 117.898438 203.636719 117.511719 203.636719 117.117188 C 203.699219 114.929688 203.257812 112.855469 202.3125 110.882812 C 201.53125 109.640625 199.96875 108.976562 197.6875 108.9375 C 196.757812 108.84375 195.875 109.011719 195.039062 109.441406 C 194.632812 109.796875 194.335938 110.226562 194.15625 110.738281 C 193.972656 111.246094 193.929688 111.765625 194.019531 112.300781 L 194.019531 112.816406 C 193.914062 114.933594 193.902344 117.167969 194.019531 119.628906 C 194.363281 131.367188 194.324219 140.40625 193.875 148.929688 L 193.875 150.171875 C 193.835938 151.808594 193.691406 153.4375 193.4375 155.054688 C 193.414062 155.476562 193.285156 155.867188 193.046875 156.21875 C 192.808594 156.570312 192.496094 156.832031 192.113281 157.011719 C 190.589844 157.480469 189.039062 157.582031 187.464844 157.316406 L 186.285156 157.238281 C 184.273438 157.160156 182.234375 157 180.246094 156.839844 L 178.921875 156.75 L 178.59375 156.65625 L 178.5 156.65625 C 178.222656 156.6875 177.984375 156.601562 177.785156 156.40625 C 177.644531 156.238281 177.609375 156.054688 177.679688 155.847656 C 178.171875 153.304688 178.429688 150.738281 178.445312 148.148438 C 178.527344 146.824219 178.605469 145.644531 178.726562 144.414062 C 178.898438 142.839844 179.082031 141.265625 179.269531 139.691406 C 179.53125 137.429688 179.8125 135.085938 180.035156 132.769531 C 180.355469 129.210938 180.5 125.386719 180.472656 120.730469 C 180.472656 120.160156 180.472656 119.578125 180.472656 119.007812 C 180.394531 117.765625 180.394531 116.519531 180.472656 115.277344 C 180.636719 113.628906 180.402344 112.042969 179.769531 110.511719 L 179.574219 110.078125 L 178.871094 110.140625 C 177.746094 110.175781 176.667969 110.417969 175.640625 110.871094 C 175.125 111.238281 174.710938 111.695312 174.394531 112.242188 C 174.082031 112.789062 173.894531 113.378906 173.839844 114.007812 C 173.839844 114.203125 173.746094 114.390625 173.691406 114.574219 C 172.902344 117.753906 172.339844 120.976562 172.011719 124.234375 C 171.175781 131.421875 170.539062 138.117188 170.0625 144.707031 C 169.042969 159.367188 167.851562 174.097656 166.925781 186.589844 L 166.605469 187.527344 L 167.414062 187.632812 C 168.632812 187.742188 169.847656 187.703125 171.058594 187.515625 L 171.984375 187.421875 C 172.976562 187.359375 173.964844 187.394531 174.949219 187.527344 L 176.273438 187.675781 L 175.492188 186.496094 C 175.417969 186.394531 175.386719 186.28125 175.402344 186.152344 C 175.625 181.773438 175.957031 176.625 176.726562 171.597656 L 176.726562 171.425781 C 177.109375 168.988281 177.53125 166.238281 179.625 164.914062 C 180.980469 164.222656 182.402344 164.039062 183.890625 164.371094 L 184.828125 164.503906 C 185.640625 164.652344 186.457031 164.742188 187.28125 164.769531 C 187.59375 164.789062 187.90625 164.789062 188.21875 164.769531 C 188.660156 164.695312 189.101562 164.695312 189.542969 164.769531 C 190.523438 165.046875 191.238281 166.089844 191.714844 167.757812 C 192.164062 169.472656 192.476562 171.210938 192.65625 172.972656 C 192.972656 176.179688 193.09375 179.394531 193.015625 182.621094 C 193.015625 183.625 193.015625 184.617188 193.015625 185.625 C 193.03125 185.863281 192.929688 186.035156 192.710938 186.140625 L 190.617188 187.304688 L 193.015625 187.382812 L 194.339844 187.382812 L 196.988281 187.449219 C 199.34375 187.449219 201.769531 187.570312 204.191406 187.6875 L 205.398438 188.003906 L 204.933594 186.894531 C 204.9375 186.8125 204.9375 186.734375 204.933594 186.65625 Z M 248.925781 190.8125 L 248.925781 190.015625 C 248.855469 186.5 248.488281 183.015625 247.828125 179.5625 C 247.589844 178.054688 247.351562 176.558594 247.152344 175.0625 C 246.953125 173.566406 246.769531 172.203125 246.570312 170.777344 C 246.425781 169.757812 246.292969 168.75 246.144531 167.730469 C 246.144531 167.46875 246.144531 167.175781 246.054688 166.871094 C 246.09375 165.332031 245.652344 163.949219 244.730469 162.71875 C 243.40625 161.5 240.753906 162.015625 239.855469 162.308594 C 237.789062 162.957031 238.304688 165.851562 238.53125 167.601562 C 238.53125 167.902344 238.636719 168.167969 238.664062 168.394531 C 238.875 170.234375 239.0625 172.074219 239.246094 173.925781 C 239.5625 177.035156 239.882812 180.25 240.34375 183.414062 C 240.375 183.605469 240.335938 183.78125 240.226562 183.941406 L 240.066406 184.179688 L 240.398438 185.847656 C 240.398438 186.007812 240.398438 186.179688 240.503906 186.335938 L 240.636719 186.894531 L 240.953125 187.011719 C 241.09375 187.070312 241.207031 187.160156 241.285156 187.289062 C 241.363281 187.421875 241.378906 187.554688 241.285156 187.898438 C 241.191406 188.242188 241.285156 188.335938 241.191406 188.5625 L 241.085938 189.328125 L 241.761719 189.40625 C 243.101562 189.585938 244.425781 189.839844 245.734375 190.175781 C 246.503906 190.347656 247.285156 190.53125 248.066406 190.679688 Z M 248.925781 190.8125 " fill-opacity="1" fill-rule="nonzero"/><path fill="#eae5d9" d="M 260.023438 201.875 C 258.664062 201.699219 257.339844 201.84375 256.050781 202.308594 C 255.191406 202.597656 254.308594 202.765625 253.402344 202.8125 C 251.847656 202.777344 250.296875 202.660156 248.753906 202.457031 C 247.921875 202.363281 247.085938 202.257812 246.265625 202.191406 L 240.835938 201.726562 C 237.457031 201.421875 233.960938 201.105469 230.519531 200.90625 C 226.546875 200.683594 222.1875 200.695312 216.929688 200.90625 C 214.496094 200.960938 212.070312 200.867188 209.648438 200.628906 C 207.609375 200.46875 205.460938 200.3125 203.371094 200.324219 C 200.90625 200.324219 198.417969 200.21875 196.007812 200.113281 C 193.941406 200.019531 191.808594 199.914062 189.703125 199.902344 C 186.617188 199.902344 183.503906 199.730469 180.433594 199.570312 L 176.011719 199.359375 C 173.355469 199.304688 170.707031 199.390625 168.0625 199.625 C 166.144531 199.742188 164.171875 199.886719 162.222656 199.902344 L 159.21875 199.902344 C 155.683594 199.902344 152.011719 199.996094 148.425781 199.902344 C 147.457031 199.902344 146.464844 199.757812 145.511719 199.636719 C 144.136719 199.441406 142.753906 199.367188 141.367188 199.410156 L 139.738281 199.53125 C 138.328125 199.675781 136.914062 199.707031 135.5 199.625 C 131.832031 199.347656 128.121094 199.292969 124.519531 199.238281 L 121.410156 199.238281 C 121.292969 199.246094 121.191406 199.210938 121.105469 199.132812 L 120.867188 198.949219 L 120.585938 198.949219 C 120.269531 198.949219 119.964844 199.042969 119.632812 199.066406 L 119.15625 199.066406 L 119.039062 199.519531 C 118.683594 200.96875 118.5625 202.4375 118.679688 203.925781 C 118.710938 205.433594 118.621094 206.941406 118.414062 208.4375 L 118.335938 209.21875 C 118.109375 211.28125 117.964844 213.386719 117.820312 215.425781 C 117.699219 216.972656 117.59375 218.507812 117.449219 220.054688 C 117.277344 222.015625 116.90625 224.023438 116.546875 225.90625 C 116.308594 227.226562 116.058594 228.457031 115.871094 229.753906 C 115.515625 232.230469 115.328125 234.757812 115.144531 237.207031 L 114.945312 239.851562 L 114.65625 243.464844 C 114.203125 248.851562 113.753906 254.40625 113.332031 259.886719 C 113.105469 263.167969 112.917969 266.503906 112.773438 269.8125 L 112.773438 271.214844 C 112.554688 274.175781 112.582031 277.136719 112.851562 280.09375 C 112.949219 281.015625 112.984375 281.945312 112.960938 282.871094 C 112.960938 283.46875 112.960938 284.078125 112.960938 284.671875 C 112.960938 285.664062 113.105469 286.65625 113.199219 287.621094 C 113.199219 288.285156 113.332031 288.945312 113.382812 289.582031 C 113.4375 290.214844 113.382812 290.585938 113.382812 291.089844 C 113.367188 292.132812 113.457031 293.164062 113.648438 294.1875 C 113.785156 294.722656 113.878906 295.265625 113.925781 295.8125 L 113.925781 296.410156 L 114.535156 296.410156 C 116.167969 296.425781 117.792969 296.558594 119.410156 296.804688 C 120.957031 297.003906 122.511719 297.042969 124.070312 296.925781 C 125.023438 296.925781 126.015625 296.847656 126.996094 296.925781 C 129.777344 297.042969 132.613281 297.296875 135.351562 297.546875 C 137.804688 297.773438 140.347656 297.996094 142.863281 298.128906 C 149.484375 298.472656 156.183594 298.449219 162.726562 298.421875 C 165.800781 298.421875 168.871094 298.421875 171.996094 298.421875 L 176.15625 298.488281 C 179.519531 298.554688 183.003906 298.632812 186.433594 298.488281 C 188.847656 298.402344 191.253906 298.519531 193.648438 298.832031 C 195.753906 298.96875 197.859375 298.96875 199.96875 298.832031 L 200.734375 298.832031 C 205.339844 298.621094 209.941406 298.699219 214.535156 299.070312 C 216.679688 299.253906 218.824219 299.480469 220.957031 299.71875 C 223.605469 300.007812 226.441406 300.3125 229.179688 300.511719 C 231.046875 300.644531 232.902344 300.722656 234.78125 300.722656 C 237.535156 300.71875 240.28125 300.574219 243.019531 300.285156 C 245.222656 300.039062 247.40625 299.660156 249.5625 299.148438 C 250.808594 298.796875 252.082031 298.621094 253.375 298.621094 L 254.210938 298.621094 L 254.914062 298.6875 L 254.914062 297.984375 C 254.9375 296.929688 254.902344 295.875 254.808594 294.820312 C 254.808594 294.238281 254.726562 293.644531 254.714844 293.0625 C 254.699219 292.480469 254.714844 291.566406 254.714844 290.824219 C 254.714844 290.085938 254.792969 289.199219 254.714844 288.363281 L 254.714844 287.730469 C 254.527344 284.539062 254.554688 281.347656 254.792969 278.160156 C 254.886719 277.011719 255.019531 275.859375 255.136719 274.722656 C 255.363281 272.710938 255.589844 270.632812 255.707031 268.582031 C 255.785156 267.070312 255.707031 265.550781 255.707031 264.082031 C 255.707031 262.613281 255.613281 261.089844 255.707031 259.59375 C 255.933594 255.941406 256.316406 252.210938 256.675781 248.613281 C 256.953125 245.964844 257.21875 243.320312 257.441406 240.671875 C 257.441406 239.785156 257.613281 238.898438 257.707031 238.027344 C 257.992188 235.945312 258.136719 233.855469 258.144531 231.753906 C 258.144531 231.144531 258.144531 230.535156 258.039062 229.925781 C 257.941406 228.976562 257.910156 228.023438 257.945312 227.070312 C 258.015625 226.085938 258.152344 225.109375 258.355469 224.144531 C 258.433594 223.695312 258.515625 223.246094 258.582031 222.820312 C 259.414062 217.222656 259.90625 211.492188 260.355469 205.949219 L 260.566406 203.527344 C 260.570312 203.351562 260.640625 203.210938 260.78125 203.105469 L 263.203125 201.183594 L 260.210938 201.941406 C 260.144531 201.929688 260.082031 201.90625 260.023438 201.875 Z M 233.378906 288.695312 C 233.160156 288.707031 232.964844 288.640625 232.796875 288.496094 C 232.679688 288.363281 232.621094 288.210938 232.621094 288.03125 C 232.621094 287.855469 232.679688 287.703125 232.796875 287.570312 L 232.96875 287.371094 L 233.152344 287.121094 C 233.21875 287.035156 233.277344 286.949219 233.328125 286.855469 C 233.523438 286.5625 233.699219 286.257812 233.855469 285.941406 C 234.03125 285.628906 234.183594 285.308594 234.320312 284.976562 L 234.453125 284.683594 C 234.453125 284.511719 234.597656 284.339844 234.636719 284.207031 C 234.847656 283.679688 235.046875 283.148438 235.246094 282.621094 C 235.539062 281.828125 235.84375 281.03125 236.1875 280.253906 C 236.230469 280.144531 236.3125 280.078125 236.425781 280.054688 C 236.519531 280.039062 236.609375 280.039062 236.703125 280.054688 C 236.832031 280.050781 236.957031 280.078125 237.074219 280.132812 C 237.457031 280.34375 237.367188 280.859375 237.285156 281.046875 L 237.179688 281.257812 C 237.175781 281.285156 237.175781 281.3125 237.179688 281.335938 C 237.109375 281.480469 237.050781 281.632812 237.007812 281.789062 C 236.863281 282.105469 236.742188 282.4375 236.625 282.765625 C 236.386719 283.441406 236.132812 284.089844 235.867188 284.738281 C 235.367188 286.128906 234.65625 287.402344 233.738281 288.5625 C 233.640625 288.664062 233.519531 288.707031 233.378906 288.695312 Z M 240.769531 284.40625 C 240.257812 285.253906 239.816406 286.136719 239.445312 287.054688 C 239.234375 287.503906 239.035156 287.941406 238.808594 288.378906 C 238.742188 288.492188 238.644531 288.574219 238.519531 288.617188 C 238.308594 288.695312 238.101562 288.695312 237.894531 288.617188 C 237.75 288.515625 237.664062 288.378906 237.628906 288.207031 C 237.628906 288.125 237.628906 287.96875 237.722656 287.675781 C 237.816406 287.382812 238.132812 286.800781 238.332031 286.351562 C 238.710938 285.472656 239.152344 284.625 239.65625 283.8125 C 239.792969 283.578125 239.996094 283.457031 240.265625 283.453125 C 240.394531 283.457031 240.511719 283.484375 240.625 283.546875 C 240.765625 283.644531 240.859375 283.777344 240.902344 283.945312 C 240.925781 284.117188 240.882812 284.273438 240.769531 284.40625 Z M 170.261719 241.054688 C 172.0625 238.574219 174.351562 236.679688 177.121094 235.367188 C 179.570312 233.890625 182.21875 233.058594 185.066406 232.863281 C 185.347656 232.863281 185.625 232.863281 185.890625 232.863281 C 188.824219 233.25 191.472656 234.332031 193.835938 236.121094 L 194.019531 236.253906 L 194.339844 236.253906 C 194.628906 236.210938 194.863281 236.308594 195.039062 236.542969 C 196.21875 238.109375 197.101562 239.824219 197.6875 241.691406 C 197.839844 242.285156 197.929688 242.890625 197.953125 243.503906 C 197.953125 243.875 197.953125 244.257812 198.058594 244.640625 C 198.164062 245.027344 198.207031 245.488281 198.273438 245.964844 C 198.382812 246.464844 198.464844 246.96875 198.523438 247.472656 C 198.75 249.191406 198.46875 250.816406 197.675781 252.355469 C 197.425781 252.808594 197.199219 253.308594 196.972656 253.824219 C 196.574219 254.941406 195.988281 255.945312 195.210938 256.84375 C 194.886719 257.136719 194.53125 257.390625 194.152344 257.609375 C 193.886719 257.78125 193.625 257.953125 193.371094 258.140625 C 193.121094 258.324219 192.789062 258.601562 192.496094 258.839844 C 192.207031 259.078125 191.757812 259.449219 191.34375 259.726562 C 190.265625 260.488281 189.109375 261.101562 187.875 261.566406 C 184.898438 262.472656 181.878906 262.652344 178.816406 262.097656 C 175.636719 261.46875 172.886719 260.019531 170.566406 257.757812 C 169.59375 256.765625 168.855469 255.625 168.351562 254.335938 C 167.84375 253.042969 167.613281 251.707031 167.652344 250.320312 C 167.59375 248.675781 167.785156 247.066406 168.230469 245.484375 C 168.675781 243.902344 169.355469 242.425781 170.261719 241.054688 Z M 268.089844 250.320312 L 268.089844 250.492188 C 268.097656 250.613281 268.097656 250.738281 268.089844 250.863281 C 268.101562 250.945312 268.101562 251.03125 268.089844 251.113281 L 267.957031 251.550781 L 267.796875 251.988281 C 267.796875 252.144531 267.679688 252.238281 267.625 252.34375 L 267.386719 252.753906 C 267.242188 252.953125 267.148438 253.085938 267.058594 253.191406 L 266.25 253.933594 L 266.035156 254.0625 C 265.902344 254.144531 265.761719 254.203125 265.613281 254.25 L 265.175781 254.34375 L 264.515625 254.34375 L 264.515625 254.15625 L 264.355469 254.15625 L 264.0625 253.867188 C 263.960938 253.71875 263.875 253.5625 263.800781 253.402344 L 263.652344 253.175781 L 263.652344 252.964844 C 263.570312 252.652344 263.507812 252.335938 263.46875 252.011719 C 263.46875 251.839844 263.46875 251.789062 263.46875 251.734375 C 263.46875 251.683594 263.46875 251.578125 263.46875 251.535156 L 263.46875 251.101562 C 263.476562 250.753906 263.507812 250.410156 263.5625 250.066406 C 263.578125 249.960938 263.605469 249.855469 263.640625 249.75 C 263.667969 249.628906 263.703125 249.511719 263.746094 249.394531 C 263.855469 249.082031 263.984375 248.777344 264.128906 248.480469 L 264.222656 248.292969 L 264.382812 248.015625 L 264.566406 247.710938 C 264.664062 247.570312 264.773438 247.433594 264.886719 247.300781 L 265.375 246.878906 L 265.625 246.878906 L 265.625 247.382812 L 265.746094 246.878906 C 265.898438 246.910156 266.054688 246.910156 266.210938 246.878906 L 266.777344 246.757812 L 266.976562 247.300781 C 267.140625 247.714844 267.34375 248.109375 267.585938 248.480469 C 267.679688 248.664062 267.785156 248.835938 267.863281 249.007812 C 267.929688 249.109375 267.976562 249.214844 268.011719 249.328125 L 268.011719 249.472656 C 268.070312 249.703125 268.109375 249.9375 268.128906 250.171875 Z M 268.089844 250.320312 " fill-opacity="1" fill-rule="nonzero"/><path fill="#e2d7d1" d="M 277.214844 199.265625 L 276.511719 198.882812 C 273.863281 193.257812 267.96875 192.265625 262.671875 191.789062 C 259.34375 191.519531 256.007812 191.488281 252.675781 191.695312 C 250.429688 191.722656 248.222656 191.441406 246.054688 190.851562 C 245.191406 190.664062 244.34375 190.480469 243.484375 190.320312 C 241.257812 189.941406 239.023438 189.675781 236.769531 189.527344 C 236.015625 189.527344 235.261719 189.40625 234.519531 189.328125 C 231.28125 188.976562 228.042969 188.921875 224.796875 189.167969 C 223.261719 189.253906 221.734375 189.179688 220.214844 188.945312 C 218.847656 188.730469 217.46875 188.625 216.082031 188.628906 C 215.339844 188.652344 214.601562 188.738281 213.871094 188.878906 C 213.234375 189.007812 212.589844 189.082031 211.9375 189.101562 C 210.972656 189.101562 209.964844 188.972656 208.878906 188.851562 L 207.808594 188.71875 C 204.191406 188.347656 200.550781 188.269531 197.011719 188.191406 C 194.457031 188.191406 191.808594 188.058594 189.226562 187.886719 L 188.101562 187.808594 C 185.441406 187.496094 182.792969 187.5625 180.15625 188.003906 C 178.976562 188.296875 177.78125 188.425781 176.566406 188.390625 C 176.101562 188.390625 175.625 188.308594 175.121094 188.242188 C 174.101562 188.070312 173.070312 188.023438 172.035156 188.097656 L 170.792969 188.242188 C 169.914062 188.394531 169.03125 188.453125 168.144531 188.414062 C 167.613281 188.414062 167.097656 188.296875 166.554688 188.21875 C 165.566406 188.03125 164.566406 187.957031 163.5625 187.992188 C 162.238281 188.058594 161.03125 188.230469 159.8125 188.375 C 158.59375 188.519531 157.046875 188.734375 155.695312 188.773438 C 153.753906 188.789062 151.820312 188.660156 149.894531 188.390625 L 149.75 188.390625 C 148.753906 188.28125 147.761719 188.164062 146.78125 188.085938 C 145.5625 187.992188 144.34375 187.871094 143.113281 187.753906 C 141.3125 187.582031 139.523438 187.410156 137.722656 187.277344 C 136.585938 187.226562 135.453125 187.269531 134.320312 187.410156 C 133.84375 187.410156 133.355469 187.503906 132.863281 187.527344 C 131.710938 187.5625 130.5625 187.492188 129.421875 187.316406 L 129.011719 187.316406 C 127.429688 187.15625 125.847656 187.15625 124.269531 187.316406 C 123.121094 187.429688 121.96875 187.46875 120.8125 187.4375 C 118.109375 187.1875 115.5 187.570312 112.984375 188.585938 C 111.152344 189.476562 109.753906 190.816406 108.789062 192.609375 L 108.628906 192.875 L 108.628906 193.363281 C 107.929688 201.515625 107.242188 209.660156 106.5625 217.792969 L 106.5625 218.535156 C 105.992188 225.386719 105.398438 232.496094 105.238281 239.546875 C 105.238281 244.707031 104.683594 249.976562 104.207031 255.097656 C 104.019531 257.015625 103.847656 258.921875 103.6875 260.839844 C 103.398438 264.253906 103.292969 267.8125 103.34375 271.425781 C 103.34375 272.40625 103.464844 273.359375 103.570312 274.324219 C 103.648438 275.023438 103.730469 275.648438 103.769531 276.429688 C 103.800781 277.621094 103.738281 278.804688 103.582031 279.988281 C 103.582031 280.34375 103.582031 280.6875 103.492188 281.03125 C 103.355469 282.976562 103.324219 284.921875 103.398438 286.867188 C 103.398438 288.378906 103.398438 289.925781 103.398438 291.433594 C 103.285156 292.738281 103.011719 294.011719 102.578125 295.246094 L 102.390625 295.894531 C 102.0625 297.195312 101.890625 298.519531 101.875 299.863281 L 101.875 300.472656 C 102.207031 303.4375 105.726562 305.449219 107.792969 306.386719 C 110.761719 307.710938 114.285156 307.484375 117.328125 307.089844 C 118.203125 306.984375 119.0625 306.835938 119.976562 306.691406 C 122.082031 306.304688 124.207031 306.101562 126.347656 306.082031 C 128.179688 306.15625 130.003906 306.328125 131.816406 306.597656 C 133.273438 306.796875 134.785156 306.996094 136.292969 307.089844 C 140.640625 307.3125 144.988281 307.3125 149.339844 307.089844 L 154.355469 306.941406 C 158.941406 306.851562 163.628906 307.140625 168.171875 307.433594 L 171.957031 307.65625 C 174.863281 307.78125 177.757812 308.066406 180.632812 308.519531 C 181.53125 308.664062 182.417969 308.886719 183.28125 309.113281 C 184.929688 309.574219 186.605469 309.863281 188.3125 309.972656 C 189.703125 309.972656 191.105469 309.972656 192.285156 309.855469 C 193.691406 309.746094 195.101562 309.714844 196.511719 309.761719 C 198.378906 309.855469 200.273438 310.09375 202.230469 310.34375 L 204.574219 310.621094 C 206.628906 310.800781 208.6875 310.835938 210.746094 310.726562 L 213.714844 310.726562 C 215.039062 310.726562 216.46875 310.875 217.832031 311.003906 C 219.328125 311.1875 220.828125 311.289062 222.335938 311.308594 C 223.949219 311.308594 225.59375 311.242188 227.246094 311.164062 C 228.652344 311.164062 230.042969 311.046875 231.445312 311.03125 C 234.457031 311.023438 237.457031 311.171875 240.453125 311.480469 L 242.144531 311.640625 C 243.785156 311.84375 245.433594 311.957031 247.085938 311.984375 C 247.914062 311.992188 248.742188 311.945312 249.5625 311.839844 C 250.976562 311.691406 252.394531 311.652344 253.8125 311.71875 C 255.246094 311.789062 256.675781 311.757812 258.105469 311.628906 L 259.824219 311.46875 C 261.640625 311.351562 263.433594 311.078125 265.203125 310.648438 C 267.664062 309.988281 269.96875 309.152344 270.300781 307.511719 L 270.488281 306.824219 L 270.394531 306.425781 C 270.808594 302.128906 270.878906 297.824219 270.605469 293.511719 C 270.414062 289.820312 270.519531 286.136719 270.921875 282.460938 C 270.988281 281.722656 271.070312 280.980469 271.136719 280.253906 C 271.242188 279.167969 271.359375 278.082031 271.425781 276.996094 C 271.464844 275.8125 271.417969 274.628906 271.28125 273.449219 C 271.28125 272.921875 271.203125 272.390625 271.175781 271.863281 C 271.046875 268.734375 271.339844 265.648438 272.050781 262.597656 C 273.171875 257.195312 273.828125 251.734375 274.023438 246.21875 C 274.140625 244.335938 274.261719 242.457031 274.40625 240.605469 C 274.59375 238.449219 274.765625 236.292969 274.921875 234.121094 L 274.921875 233.9375 C 275.292969 228.960938 275.679688 223.800781 276.339844 218.796875 C 276.621094 217.042969 276.792969 215.28125 276.855469 213.503906 C 276.855469 212.511719 276.792969 211.523438 276.671875 210.539062 C 276.671875 209.878906 276.539062 209.21875 276.527344 208.542969 C 276.503906 205.964844 276.652344 203.398438 276.976562 200.839844 Z M 268.289062 252.199219 C 267.679688 253.523438 266.515625 254.949219 265.042969 254.992188 C 263.574219 255.03125 262.953125 253.667969 262.738281 252.34375 C 262.503906 250.945312 262.671875 249.59375 263.242188 248.292969 C 264.128906 246.347656 264.976562 246.019531 265.535156 246.019531 C 265.652344 246.003906 265.773438 246.003906 265.890625 246.019531 L 266.539062 246.601562 L 267.269531 246.21875 L 267.441406 246.734375 C 267.480469 246.867188 267.535156 246.996094 267.601562 247.117188 C 267.71875 247.339844 267.851562 247.566406 268.035156 247.882812 C 268.308594 248.292969 268.503906 248.730469 268.621094 249.207031 C 268.878906 250.261719 268.769531 251.277344 268.289062 252.25 Z M 156.476562 199.265625 C 159.441406 199.265625 162.515625 199.265625 165.546875 199.265625 C 166.964844 199.265625 168.367188 199.148438 169.800781 199.066406 C 172.914062 198.828125 176.03125 198.804688 179.148438 198.988281 C 181.917969 199.214844 184.699219 199.238281 187.398438 199.28125 C 189.226562 199.28125 191.054688 199.28125 192.867188 199.398438 C 193.730469 199.398438 194.589844 199.492188 195.4375 199.558594 C 197.847656 199.703125 200.269531 199.769531 202.640625 199.757812 C 203.964844 199.757812 205.289062 199.757812 206.613281 199.757812 C 207.9375 199.757812 209.011719 199.941406 210.175781 200.085938 C 211.34375 200.234375 212.480469 200.363281 213.6875 200.417969 C 215.1875 200.4375 216.683594 200.378906 218.175781 200.246094 L 220.320312 200.152344 C 224.894531 200 229.457031 200.121094 234.015625 200.523438 L 242.34375 201.210938 L 248.238281 201.703125 C 248.78125 201.703125 249.335938 201.808594 249.984375 201.898438 C 251.699219 202.210938 253.414062 202.242188 255.136719 201.992188 C 255.695312 201.875 256.222656 201.714844 256.753906 201.570312 C 257.765625 201.160156 258.8125 201.035156 259.890625 201.183594 L 259.890625 201.316406 L 259.457031 201.527344 L 260.34375 203.300781 L 260.699219 203.832031 L 261.296875 203.539062 L 261.214844 204.46875 C 260.648438 211.296875 260.0625 218.347656 258.925781 225.214844 C 258.691406 226.976562 258.640625 228.738281 258.765625 230.507812 C 258.847656 231.761719 258.847656 233.015625 258.765625 234.269531 C 258.648438 235.710938 258.515625 237.140625 258.382812 238.582031 L 258.382812 238.804688 C 258.238281 240.339844 258.105469 241.863281 257.972656 243.398438 L 257.773438 245.859375 C 257.585938 248.226562 257.402344 250.675781 257.136719 253.070312 C 257.058594 253.824219 256.980469 254.582031 256.886719 255.335938 C 256.566406 257.617188 256.40625 259.910156 256.394531 262.214844 L 256.394531 263.539062 C 256.5 266.109375 256.453125 268.675781 256.25 271.242188 C 256.144531 272.457031 256.011719 273.664062 255.878906 274.894531 C 255.667969 276.839844 255.441406 278.863281 255.335938 280.835938 C 255.242188 282.628906 255.242188 284.425781 255.335938 286.21875 C 255.335938 287.382812 255.441406 288.601562 255.441406 289.765625 C 255.441406 290.269531 255.441406 290.773438 255.441406 291.328125 C 255.382812 292.484375 255.382812 293.640625 255.441406 294.796875 C 255.523438 295.867188 255.5625 296.847656 255.546875 297.863281 L 255.546875 298.421875 L 254.847656 298.644531 L 254.726562 299.375 L 253.402344 299.28125 C 251.746094 299.304688 250.128906 299.554688 248.542969 300.035156 L 247.390625 300.300781 C 245.125 300.75 242.839844 301.035156 240.53125 301.148438 L 240.210938 301.148438 C 235.203125 301.46875 230.199219 301.355469 225.207031 300.804688 C 223.804688 300.671875 222.414062 300.511719 221.011719 300.367188 C 217.820312 300.007812 214.507812 299.636719 211.183594 299.464844 C 209.953125 299.464844 208.640625 299.375 207.210938 299.375 C 205.210938 299.375 203.238281 299.375 201.160156 299.492188 C 199.636719 299.492188 198.097656 299.585938 196.578125 299.597656 C 195.246094 299.578125 193.921875 299.480469 192.605469 299.308594 C 191.558594 299.203125 190.484375 299.082031 189.398438 299.03125 C 188.074219 298.988281 186.75 299.019531 185.425781 299.121094 C 184.539062 299.121094 183.664062 299.226562 182.777344 299.226562 C 180.355469 299.226562 177.878906 299.226562 175.480469 299.136719 L 174.898438 299.136719 C 172.566406 299.136719 170.234375 299.03125 167.917969 299.03125 L 162.171875 299.03125 C 154.570312 299.03125 146.714844 299.03125 139.023438 298.527344 C 137.40625 298.421875 135.789062 298.25 134.09375 298.078125 C 131.070312 297.703125 128.03125 297.507812 124.984375 297.496094 C 124.375 297.496094 123.777344 297.574219 123.183594 297.640625 C 122.660156 297.71875 122.136719 297.757812 121.605469 297.757812 C 120.917969 297.726562 120.230469 297.644531 119.554688 297.507812 L 118.441406 297.335938 C 116.5 297.105469 114.554688 297.019531 112.601562 297.085938 L 113.382812 296.871094 L 113.382812 295.8125 C 113.339844 295.296875 113.25 294.789062 113.105469 294.292969 C 113.027344 294.046875 112.976562 293.792969 112.945312 293.539062 C 112.910156 293.097656 112.910156 292.65625 112.945312 292.214844 L 112.945312 291.632812 C 112.945312 290.414062 112.789062 289.222656 112.679688 288.046875 C 112.601562 287.34375 112.535156 286.628906 112.496094 285.929688 C 112.457031 285.226562 112.496094 284.378906 112.496094 283.558594 C 112.496094 282.738281 112.496094 281.640625 112.402344 280.664062 L 112.402344 279.933594 C 112.238281 278.53125 112.167969 277.125 112.191406 275.714844 C 112.574219 262.1875 113.78125 248.214844 114.839844 235.894531 C 115.117188 232.734375 115.59375 229.53125 116.058594 226.40625 C 116.5625 223.007812 117.089844 219.484375 117.382812 215.964844 C 117.527344 214.128906 117.699219 212.3125 117.871094 210.460938 C 117.992188 209.136719 118.109375 207.816406 118.21875 206.492188 C 118.277344 205.5625 118.277344 204.628906 118.21875 203.699219 C 118.21875 203.0625 118.152344 202.375 118.21875 201.808594 C 118.289062 200.902344 118.464844 200.023438 118.746094 199.160156 L 118.746094 198.960938 L 119.460938 198.828125 L 119.714844 198.40625 L 120.191406 198.40625 C 121.011719 198.277344 121.804688 198.058594 122.574219 197.746094 L 123.144531 197.464844 L 123.316406 198.578125 L 125.882812 198.578125 L 130.121094 198.65625 C 131.140625 198.65625 132.175781 198.761719 133.261719 198.855469 C 134.585938 198.960938 136.1875 199.066406 137.683594 199.066406 C 138.636719 199.066406 139.550781 198.988281 140.453125 198.921875 C 141.742188 198.785156 143.035156 198.757812 144.332031 198.84375 C 146.972656 199.121094 149.621094 199.253906 152.277344 199.238281 Z M 149.628906 188.945312 Z M 149.628906 188.945312 " fill-opacity="1" fill-rule="nonzero"/><g clip-path="url(#a7227d84d4)"><path fill="#866255" d="M 269.164062 247.339844 C 269.03125 247.136719 268.914062 246.925781 268.804688 246.707031 C 268.761719 246.628906 268.726562 246.550781 268.699219 246.46875 C 268.699219 246.46875 268.699219 246.070312 268.699219 246.46875 C 268.714844 246.292969 268.695312 246.121094 268.640625 245.953125 C 268.585938 245.785156 268.5 245.632812 268.386719 245.5 C 268.273438 245.367188 268.136719 245.257812 267.980469 245.179688 C 267.824219 245.097656 267.65625 245.050781 267.480469 245.039062 C 267.226562 245.035156 266.988281 245.097656 266.765625 245.222656 C 266.648438 245.109375 266.511719 245.027344 266.355469 244.984375 C 264.183594 244.402344 262.859375 246.191406 262.0625 247.9375 C 261.386719 249.480469 261.1875 251.082031 261.46875 252.742188 C 261.785156 254.59375 263.019531 256.5 265.109375 256.445312 C 265.605469 256.378906 266.085938 256.246094 266.542969 256.050781 C 267.003906 255.851562 267.429688 255.59375 267.816406 255.28125 C 268.207031 254.964844 268.546875 254.601562 268.835938 254.195312 C 269.125 253.785156 269.351562 253.34375 269.519531 252.875 C 270.101562 251.660156 270.238281 250.398438 269.929688 249.089844 C 269.78125 248.460938 269.523438 247.878906 269.164062 247.339844 Z M 267.414062 250.304688 C 267.421875 250.445312 267.421875 250.589844 267.414062 250.730469 C 267.425781 250.808594 267.425781 250.886719 267.414062 250.96875 C 267.414062 250.96875 267.414062 251.085938 267.414062 251.101562 C 267.414062 251.113281 267.28125 251.511719 267.1875 251.722656 C 267.152344 251.820312 267.105469 251.917969 267.058594 252.011719 L 267.058594 252.09375 L 266.882812 252.371094 C 266.796875 252.507812 266.699219 252.640625 266.59375 252.765625 L 266.460938 252.953125 L 266.101562 253.296875 L 265.929688 253.429688 L 265.8125 253.429688 C 265.707031 253.496094 265.597656 253.546875 265.480469 253.585938 L 265.253906 253.585938 C 265.253906 253.585938 265.1875 253.585938 265.136719 253.585938 L 265.042969 253.585938 L 264.871094 253.457031 L 264.738281 253.296875 C 264.738281 253.191406 264.621094 253.085938 264.566406 252.980469 L 264.566406 252.792969 C 264.484375 252.484375 264.425781 252.171875 264.382812 251.855469 C 264.382812 251.855469 264.382812 251.707031 264.382812 251.640625 C 264.382812 251.578125 264.382812 251.496094 264.382812 251.457031 L 264.382812 251.019531 C 264.394531 250.714844 264.421875 250.410156 264.472656 250.109375 C 264.46875 250.027344 264.46875 249.949219 264.472656 249.871094 C 264.5 249.757812 264.53125 249.648438 264.566406 249.539062 C 264.671875 249.246094 264.792969 248.96875 264.925781 248.691406 C 264.925781 248.691406 265.082031 248.386719 265.082031 248.375 C 265.082031 248.359375 265.242188 248.097656 265.320312 247.976562 C 265.402344 247.855469 265.492188 247.742188 265.585938 247.632812 L 265.8125 247.433594 C 265.878906 247.433594 265.878906 247.433594 265.8125 247.433594 C 266.050781 247.480469 266.289062 247.480469 266.527344 247.433594 C 266.703125 247.898438 266.925781 248.339844 267.1875 248.757812 C 267.28125 248.917969 267.375 249.074219 267.453125 249.234375 C 267.496094 249.3125 267.53125 249.390625 267.558594 249.472656 C 267.558594 249.507812 267.558594 249.542969 267.558594 249.578125 C 267.613281 249.796875 267.648438 250.015625 267.664062 250.238281 C 267.664062 250.238281 267.414062 250.265625 267.414062 250.304688 Z M 241.324219 284.710938 C 240.59375 285.996094 239.933594 287.320312 239.351562 288.679688 C 239.261719 288.832031 239.148438 288.960938 239.007812 289.070312 C 238.871094 289.175781 238.714844 289.25 238.542969 289.296875 C 238.375 289.339844 238.203125 289.351562 238.027344 289.328125 C 237.851562 289.304688 237.691406 289.246094 237.539062 289.15625 C 237.230469 288.972656 237.035156 288.707031 236.941406 288.363281 C 236.84375 288.003906 236.886719 287.667969 237.074219 287.34375 C 237.652344 285.984375 238.304688 284.660156 239.035156 283.375 C 239.121094 283.222656 239.238281 283.09375 239.378906 282.988281 C 239.515625 282.878906 239.671875 282.804688 239.84375 282.761719 C 240.011719 282.714844 240.183594 282.707031 240.359375 282.730469 C 240.535156 282.753906 240.695312 282.808594 240.847656 282.898438 C 241.011719 282.988281 241.148438 283.105469 241.257812 283.25 C 241.371094 283.394531 241.453125 283.554688 241.496094 283.734375 C 241.542969 283.914062 241.550781 284.09375 241.519531 284.273438 C 241.488281 284.457031 241.425781 284.625 241.324219 284.777344 Z M 237.234375 282.910156 C 236.996094 283.585938 236.742188 284.234375 236.476562 284.910156 C 235.933594 286.351562 235.183594 287.675781 234.226562 288.878906 C 234.101562 289.003906 233.957031 289.097656 233.796875 289.164062 C 233.632812 289.234375 233.464844 289.265625 233.289062 289.265625 C 233.113281 289.265625 232.941406 289.230469 232.78125 289.164062 C 232.617188 289.097656 232.472656 289 232.351562 288.875 C 232.226562 288.753906 232.128906 288.609375 232.0625 288.445312 C 231.996094 288.285156 231.960938 288.113281 231.960938 287.9375 C 231.960938 287.765625 231.992188 287.59375 232.058594 287.433594 C 232.128906 287.269531 232.222656 287.125 232.347656 287 L 232.503906 286.816406 C 232.597656 286.671875 232.703125 286.539062 232.785156 286.390625 C 232.964844 286.121094 233.128906 285.835938 233.273438 285.546875 C 233.441406 285.234375 233.589844 284.917969 233.722656 284.59375 L 233.84375 284.339844 C 233.84375 284.183594 233.976562 284.023438 234.027344 283.863281 C 234.558594 282.542969 235.007812 281.21875 235.578125 279.894531 C 235.667969 279.742188 235.78125 279.613281 235.921875 279.507812 C 236.0625 279.402344 236.214844 279.324219 236.386719 279.28125 C 236.554688 279.234375 236.726562 279.226562 236.902344 279.25 C 237.078125 279.273438 237.242188 279.328125 237.390625 279.417969 C 237.542969 279.507812 237.671875 279.621094 237.78125 279.761719 C 237.886719 279.902344 237.960938 280.054688 238.007812 280.226562 C 238.050781 280.394531 238.0625 280.566406 238.039062 280.742188 C 238.015625 280.917969 237.957031 281.078125 237.867188 281.230469 C 237.867188 281.230469 237.867188 281.230469 237.867188 281.296875 C 237.863281 281.351562 237.863281 281.402344 237.867188 281.457031 C 237.867188 281.613281 237.738281 281.773438 237.683594 281.933594 C 237.628906 282.089844 237.351562 282.660156 237.234375 282.976562 Z M 182.035156 240.921875 C 181.601562 240.972656 181.25 241.164062 180.976562 241.507812 C 180.839844 241.460938 180.699219 241.433594 180.550781 241.425781 C 180.375 241.425781 180.207031 241.460938 180.046875 241.527344 C 179.882812 241.59375 179.738281 241.691406 179.617188 241.8125 C 179.492188 241.9375 179.394531 242.082031 179.328125 242.242188 C 179.261719 242.40625 179.226562 242.574219 179.226562 242.75 C 179.054688 246.46875 178.128906 250.160156 178.84375 253.890625 C 178.925781 254.1875 179.089844 254.425781 179.339844 254.605469 C 179.585938 254.785156 179.863281 254.871094 180.167969 254.859375 C 181.238281 254.828125 182.207031 254.5 183.070312 253.867188 C 183.570312 253.539062 184.050781 253.1875 184.511719 252.808594 C 184.855469 252.542969 185.253906 252.210938 185.464844 252.066406 C 186.5 251.3125 187.597656 250.742188 188.589844 249.894531 C 189.238281 249.378906 190.472656 248.851562 190.910156 247.871094 C 191.058594 247.609375 191.113281 247.332031 191.074219 247.035156 C 191.035156 246.738281 190.910156 246.480469 190.695312 246.269531 C 188.3125 244.035156 185.675781 240.554688 182.035156 240.921875 Z M 186.75 247.964844 C 185.902344 248.625 184.949219 249.140625 184.101562 249.777344 C 183.253906 250.410156 182.777344 250.863281 182.035156 251.351562 C 181.785156 251.539062 181.519531 251.707031 181.242188 251.855469 C 181.226562 249.078125 181.429688 246.316406 181.851562 243.570312 C 181.921875 243.578125 181.992188 243.578125 182.0625 243.570312 C 182.664062 243.496094 183.242188 243.582031 183.796875 243.835938 C 184.433594 244.140625 185.015625 244.523438 185.546875 244.984375 C 186.34375 245.671875 187.105469 246.398438 187.824219 247.167969 C 187.449219 247.414062 187.09375 247.679688 186.75 247.964844 Z M 198.667969 244.574219 C 198.617188 243.546875 198.484375 242.527344 198.273438 241.519531 C 197.667969 239.597656 196.757812 237.832031 195.542969 236.226562 C 195.390625 236.019531 195.195312 235.867188 194.957031 235.769531 C 194.71875 235.667969 194.472656 235.636719 194.21875 235.671875 C 191.761719 233.824219 189.003906 232.699219 185.957031 232.296875 C 182.710938 232.019531 179.585938 233.367188 176.777344 234.835938 C 173.929688 236.210938 171.578125 238.179688 169.71875 240.738281 C 168.777344 242.164062 168.074219 243.699219 167.605469 245.34375 C 167.140625 246.988281 166.9375 248.664062 166.992188 250.371094 C 166.957031 251.851562 167.210938 253.28125 167.757812 254.660156 C 168.300781 256.035156 169.09375 257.253906 170.128906 258.3125 C 172.367188 260.324219 175.625 262.453125 178.644531 262.8125 C 181.816406 263.386719 184.941406 263.199219 188.023438 262.242188 C 189.328125 261.722656 190.550781 261.054688 191.691406 260.230469 C 192.40625 259.742188 193.015625 259.144531 193.730469 258.628906 C 194.390625 258.226562 195.027344 257.785156 195.636719 257.304688 C 196.839844 256.140625 197.4375 254.128906 198.285156 252.648438 C 199.152344 250.980469 199.460938 249.21875 199.210938 247.355469 C 198.988281 246.429688 198.761719 245.515625 198.628906 244.523438 Z M 196.445312 249.976562 C 195.96875 251.25 195.390625 252.476562 194.710938 253.652344 C 194.488281 254.378906 194.109375 255.011719 193.570312 255.546875 C 193.171875 255.878906 192.683594 256.113281 192.246094 256.433594 C 191.171875 257.3125 190.046875 258.121094 188.867188 258.855469 C 186.6875 260.085938 184.347656 260.601562 181.851562 260.402344 C 180.507812 260.398438 179.183594 260.242188 177.878906 259.941406 C 176.328125 259.339844 174.886719 258.550781 173.546875 257.570312 C 172.566406 257.003906 171.75 256.261719 171.101562 255.335938 C 170.449219 254.410156 170.023438 253.390625 169.824219 252.277344 C 169.699219 251.582031 169.625 250.878906 169.605469 250.171875 C 169.585938 249.464844 169.625 248.761719 169.714844 248.058594 C 169.804688 247.355469 169.953125 246.664062 170.148438 245.988281 C 170.347656 245.308594 170.597656 244.648438 170.902344 244.007812 C 171.203125 243.367188 171.550781 242.753906 171.949219 242.167969 C 172.34375 241.582031 172.785156 241.027344 173.269531 240.511719 C 173.75 239.992188 174.273438 239.515625 174.828125 239.078125 C 175.386719 238.644531 175.972656 238.253906 176.59375 237.90625 C 179.054688 236.386719 182.089844 234.796875 185.054688 234.808594 C 188.285156 234.808594 191.160156 236.609375 193.691406 238.4375 L 193.941406 238.582031 C 194.453125 239.363281 194.894531 240.183594 195.265625 241.042969 C 195.753906 242.574219 196.066406 244.140625 196.207031 245.742188 C 196.558594 247.140625 196.625 248.550781 196.40625 249.976562 Z M 262.660156 203.660156 C 262.675781 203.417969 262.625 203.1875 262.515625 202.972656 C 262.402344 202.757812 262.246094 202.585938 262.039062 202.457031 C 261.832031 202.332031 261.609375 202.265625 261.367188 202.257812 C 261.125 202.253906 260.898438 202.308594 260.6875 202.429688 C 260.917969 202.269531 261.085938 202.058594 261.191406 201.796875 C 261.292969 201.535156 261.316406 201.265625 261.257812 200.988281 C 261.203125 200.714844 261.074219 200.476562 260.871094 200.28125 C 260.671875 200.082031 260.433594 199.957031 260.15625 199.902344 C 258.222656 199.492188 256.699219 200.324219 254.859375 200.707031 C 252.742188 201.132812 250.449219 200.5625 248.332031 200.390625 C 243.589844 199.996094 238.847656 199.625 234.121094 199.214844 C 229.511719 198.820312 224.894531 198.695312 220.269531 198.84375 C 218.097656 198.84375 215.910156 199.132812 213.738281 199.042969 C 211.371094 198.9375 209.050781 198.460938 206.667969 198.378906 C 204.601562 198.378906 202.535156 198.378906 200.46875 198.378906 C 197.96875 198.378906 195.492188 198.128906 192.988281 198.007812 C 188.417969 197.8125 183.875 198.007812 179.308594 197.597656 C 174.71875 197.441406 170.136719 197.53125 165.5625 197.878906 C 161.058594 198.023438 156.542969 197.878906 152.039062 197.878906 C 149.445312 197.890625 146.859375 197.757812 144.28125 197.480469 C 141.988281 197.269531 139.777344 197.691406 137.5 197.703125 C 134.996094 197.703125 132.480469 197.375 129.976562 197.292969 C 128.070312 197.292969 126.164062 197.292969 124.269531 197.203125 C 124.246094 197.035156 124.191406 196.878906 124.097656 196.738281 C 124.007812 196.589844 123.894531 196.460938 123.753906 196.355469 C 123.617188 196.25 123.460938 196.175781 123.292969 196.128906 C 123.125 196.085938 122.953125 196.074219 122.78125 196.097656 C 122.609375 196.121094 122.445312 196.175781 122.296875 196.261719 L 121.820312 196.488281 C 121.167969 196.742188 120.496094 196.921875 119.804688 197.03125 L 119.515625 197.03125 C 119.148438 197.027344 118.835938 197.15625 118.574219 197.414062 C 118.523438 197.476562 118.476562 197.539062 118.441406 197.613281 C 118.175781 197.605469 117.9375 197.683594 117.726562 197.84375 C 117.515625 198.003906 117.378906 198.214844 117.316406 198.472656 C 116.960938 199.511719 116.734375 200.578125 116.640625 201.675781 C 116.640625 203.234375 116.8125 204.746094 116.640625 206.304688 C 116.375 209.46875 116.046875 212.617188 115.804688 215.78125 C 115.289062 222.492188 113.871094 229.015625 113.289062 235.628906 C 112.152344 248.863281 111.027344 262.214844 110.640625 275.527344 C 110.617188 277.285156 110.707031 279.035156 110.90625 280.78125 C 111.066406 282.515625 110.90625 284.273438 111.039062 286.074219 C 111.171875 287.875 111.4375 289.832031 111.488281 291.726562 C 111.46875 292.414062 111.496094 293.101562 111.570312 293.789062 C 111.660156 294.492188 111.964844 295.191406 111.992188 295.90625 C 111.730469 295.980469 111.53125 296.132812 111.386719 296.363281 C 111.246094 296.59375 111.199219 296.84375 111.25 297.109375 C 111.210938 297.277344 111.214844 297.445312 111.253906 297.613281 C 111.296875 297.78125 111.375 297.929688 111.488281 298.058594 C 111.597656 298.191406 111.734375 298.289062 111.894531 298.355469 C 112.050781 298.421875 112.21875 298.445312 112.390625 298.433594 C 114.347656 298.351562 116.296875 298.425781 118.242188 298.660156 C 119.34375 298.871094 120.449219 299.015625 121.566406 299.097656 C 122.71875 299.097656 123.832031 298.84375 124.972656 298.832031 C 129.621094 298.765625 134.242188 299.546875 138.902344 299.863281 C 148.542969 300.511719 158.199219 300.339844 167.851562 300.367188 C 172.804688 300.367188 177.769531 300.578125 182.722656 300.566406 C 184.921875 300.566406 187.121094 300.261719 189.347656 300.367188 C 191.796875 300.472656 194.207031 300.949219 196.644531 300.933594 C 201.503906 300.933594 206.335938 300.550781 211.210938 300.804688 C 216.082031 301.054688 220.480469 301.675781 225.167969 302.125 C 230.238281 302.679688 235.320312 302.792969 240.410156 302.46875 C 242.886719 302.351562 245.34375 302.050781 247.773438 301.570312 C 249.632812 301.011719 251.53125 300.679688 253.46875 300.578125 L 254.699219 300.671875 C 255.617188 300.15625 256.351562 299.449219 256.898438 298.554688 L 256.898438 298.050781 C 256.914062 297.957031 256.914062 297.863281 256.898438 297.773438 C 256.898438 296.742188 256.898438 295.707031 256.792969 294.664062 C 256.675781 293.007812 256.792969 291.40625 256.792969 289.753906 C 256.792969 286.789062 256.460938 283.863281 256.632812 280.886719 C 256.804688 277.683594 257.269531 274.507812 257.546875 271.332031 C 257.761719 268.28125 257.800781 265.230469 257.667969 262.175781 C 257.734375 259.167969 257.984375 256.171875 258.410156 253.191406 C 258.753906 249.976562 258.976562 246.71875 259.242188 243.492188 C 259.507812 240.261719 259.800781 237.402344 260.050781 234.359375 C 260.304688 231.316406 259.707031 228.40625 260.195312 225.441406 C 261.414062 218.203125 261.996094 210.925781 262.605469 203.648438 Z M 260.011719 203.433594 C 259.46875 209.851562 258.992188 216.296875 258.039062 222.675781 C 257.8125 224.117188 257.46875 225.558594 257.390625 227.015625 C 257.308594 228.472656 257.546875 230.179688 257.589844 231.753906 C 257.507812 234.726562 257.273438 237.683594 256.886719 240.632812 C 256.371094 246.945312 255.5625 253.257812 255.152344 259.570312 C 254.964844 262.574219 255.335938 265.550781 255.152344 268.554688 C 254.964844 271.558594 254.527344 274.933594 254.238281 278.109375 C 254.019531 281.539062 254.019531 284.972656 254.238281 288.402344 C 254.238281 289.964844 254.089844 291.527344 254.132812 293.089844 C 254.171875 294.648438 254.394531 296.34375 254.332031 297.972656 L 253.484375 297.972656 C 252.136719 297.988281 250.8125 298.167969 249.507812 298.511719 C 247.382812 299.027344 245.234375 299.402344 243.058594 299.636719 C 238.492188 300.125 233.921875 300.199219 229.339844 299.863281 C 224.453125 299.507812 219.59375 298.84375 214.773438 298.421875 C 210.148438 298.058594 205.515625 297.976562 200.878906 298.183594 C 198.550781 298.335938 196.21875 298.335938 193.886719 298.183594 C 191.460938 297.875 189.023438 297.761719 186.578125 297.839844 C 181.785156 298.089844 176.988281 297.839844 172.183594 297.839844 C 162.515625 297.757812 152.847656 298.050781 143.195312 297.546875 C 137.894531 297.269531 132.597656 296.570312 127.300781 296.34375 C 124.757812 296.238281 122.308594 296.675781 119.792969 296.34375 C 118.148438 296.089844 116.492188 295.953125 114.828125 295.933594 C 114.777344 295.347656 114.679688 294.769531 114.535156 294.199219 C 114.328125 292.710938 114.226562 291.214844 114.230469 289.714844 C 114.113281 288.085938 113.875 286.457031 113.808594 284.816406 C 113.742188 283.175781 113.886719 281.734375 113.6875 280.1875 C 113.410156 276.792969 113.410156 273.402344 113.6875 270.011719 C 113.832031 266.703125 114.019531 263.394531 114.242188 260.097656 C 114.695312 253.480469 115.261719 246.746094 115.804688 240.078125 C 116.085938 236.742188 116.257812 233.367188 116.734375 230.058594 C 117.210938 226.75 118.058594 223.613281 118.308594 220.320312 C 118.640625 216.707031 118.8125 213.09375 119.195312 209.496094 C 119.445312 207.707031 119.558594 205.914062 119.542969 204.109375 C 119.425781 202.6875 119.542969 201.285156 119.886719 199.902344 C 120.230469 199.902344 120.5625 199.820312 120.890625 199.769531 C 121.101562 199.9375 121.339844 200.023438 121.605469 200.019531 C 126.28125 200.113281 130.96875 200.101562 135.644531 200.457031 C 137.636719 200.523438 139.621094 200.457031 141.605469 200.257812 C 143.921875 200.140625 146.199219 200.722656 148.515625 200.773438 C 153.113281 200.90625 157.789062 200.773438 162.34375 200.773438 C 166.898438 200.773438 171.613281 200.046875 176.15625 200.234375 C 180.699219 200.417969 185.226562 200.75 189.808594 200.773438 C 194.390625 200.800781 198.90625 201.226562 203.488281 201.199219 C 208.070312 201.171875 212.507812 201.980469 217.0625 201.78125 C 221.621094 201.582031 226.082031 201.515625 230.585938 201.78125 C 235.882812 202.085938 241.074219 202.640625 246.316406 203.105469 C 248.703125 203.300781 251.125 203.726562 253.507812 203.726562 C 255.894531 203.726562 257.890625 202.308594 260.128906 202.773438 C 260.3125 202.8125 260.492188 202.8125 260.671875 202.773438 C 260.347656 202.886719 260.113281 203.105469 259.972656 203.421875 Z M 278.394531 197.414062 L 278.273438 197.335938 C 278.195312 197.246094 278.101562 197.175781 277.996094 197.121094 C 277.84375 197.019531 277.675781 196.96875 277.492188 196.964844 C 277.332031 196.9375 277.175781 196.9375 277.015625 196.964844 C 275.902344 195.371094 274.515625 194.066406 272.855469 193.050781 C 271.199219 192.039062 269.40625 191.394531 267.480469 191.128906 C 265.074219 190.675781 262.644531 190.398438 260.195312 190.292969 C 257.097656 190.136719 253.972656 190.636719 250.925781 190.414062 C 250.976562 190.308594 251 190.199219 251.007812 190.082031 C 251.007812 185.238281 249.945312 180.488281 249.3125 175.710938 C 248.992188 173.328125 248.714844 170.949219 248.355469 168.566406 C 248.210938 166.914062 247.921875 165.285156 247.496094 163.683594 C 247.3125 162.980469 246.992188 162.351562 246.527344 161.792969 C 246.0625 161.234375 245.503906 160.800781 244.847656 160.492188 C 243.402344 160.011719 241.933594 159.917969 240.4375 160.214844 C 239.710938 160.230469 239.035156 160.421875 238.402344 160.78125 C 237.773438 161.144531 237.269531 161.636719 236.890625 162.253906 C 236.015625 163.988281 236.453125 166.222656 236.675781 168.089844 C 237.300781 172.984375 237.65625 177.910156 238.332031 182.804688 C 238.164062 182.960938 238.050781 183.152344 237.992188 183.375 C 237.933594 183.59375 237.9375 183.816406 238 184.035156 C 238.238281 184.871094 238.425781 185.71875 238.558594 186.574219 C 238.640625 187.023438 238.75 187.464844 238.886719 187.898438 C 238.964844 188.109375 239.054688 188.316406 239.152344 188.519531 C 236.847656 188.269531 234.542969 188.042969 232.242188 187.886719 C 230.703125 187.78125 229.167969 187.714844 227.617188 187.753906 C 226.070312 187.792969 224.347656 188.085938 222.71875 187.992188 C 221.089844 187.898438 219.621094 187.59375 218.070312 187.449219 C 216.566406 187.335938 215.074219 187.414062 213.59375 187.6875 C 211.574219 187.894531 209.5625 187.835938 207.554688 187.515625 C 207.523438 187.214844 207.40625 186.953125 207.199219 186.734375 L 207.078125 186.617188 C 207.011719 186.519531 206.957031 186.417969 206.90625 186.3125 C 206.800781 185.988281 206.722656 185.65625 206.667969 185.320312 C 206.667969 185.121094 206.667969 184.921875 206.667969 184.722656 L 206.667969 182.183594 C 206.667969 171.597656 206.136719 161.011719 206.164062 150.421875 C 206.191406 139.835938 206.257812 129.394531 205.582031 118.929688 C 205.382812 115.542969 205.488281 110.023438 202.085938 108.078125 C 199.726562 106.753906 195.6875 106.292969 193.453125 108.078125 C 191.953125 109.269531 192.035156 111.070312 191.953125 112.828125 C 191.835938 115.476562 191.863281 118.203125 191.953125 120.886719 C 192.125 126.007812 192.234375 131.144531 192.191406 136.265625 C 192.191406 141.941406 191.953125 147.632812 191.464844 153.28125 C 191.464844 153.707031 191.464844 154.921875 191.148438 155.214844 C 190.828125 155.503906 190.085938 155.304688 189.824219 155.320312 C 188.988281 155.320312 188.152344 155.320312 187.320312 155.320312 C 184.765625 155.253906 182.222656 155.042969 179.691406 154.84375 C 180.289062 151.523438 180.273438 148.015625 180.617188 144.679688 C 181.070312 140.472656 181.652344 136.277344 181.941406 132.070312 C 182.3125 127.875 182.472656 123.671875 182.417969 119.457031 C 182.417969 115.738281 182.960938 112.074219 181.09375 108.6875 C 180.9375 108.433594 180.71875 108.25 180.4375 108.136719 C 180.160156 108.027344 179.875 108.007812 179.585938 108.078125 C 177.519531 108.460938 175.070312 108.371094 173.507812 110.011719 C 172.183594 111.425781 171.773438 113.914062 171.375 115.738281 C 170.332031 121.015625 169.597656 126.335938 169.175781 131.699219 C 167.972656 143.332031 167.535156 155.003906 166.605469 166.648438 C 166.078125 173.261719 165.457031 179.960938 164.925781 186.617188 C 164.925781 186.617188 164.925781 186.722656 164.925781 186.773438 C 162.8125 186.734375 160.707031 186.832031 158.609375 187.066406 C 157.15625 187.289062 155.695312 187.398438 154.226562 187.382812 C 152.582031 187.25 150.941406 187.050781 149.296875 186.921875 C 146.09375 186.65625 142.875 186.429688 139.671875 186.101562 C 138.914062 186.015625 138.15625 185.976562 137.394531 185.980469 C 138.804688 181.96875 139.796875 177.859375 140.371094 173.648438 C 140.664062 171.730469 140.902344 169.824219 141.300781 167.929688 C 141.714844 166.496094 141.78125 165.042969 141.5 163.578125 C 140.542969 160.203125 136.109375 161.023438 133.550781 161.777344 C 129.882812 162.875 129.578125 167.269531 128.730469 170.40625 C 127.25 175.554688 125.578125 180.632812 124.148438 185.769531 C 124.148438 185.769531 124.148438 185.769531 124.148438 185.863281 C 122.65625 186 121.160156 186.054688 119.660156 186.019531 C 117.011719 185.890625 114.484375 186.390625 112.085938 187.515625 C 109.4375 188.839844 108.191406 191.167969 106.789062 193.640625 C 106.703125 193.792969 106.644531 193.957031 106.621094 194.128906 C 106.59375 194.300781 106.601562 194.472656 106.636719 194.640625 C 106.675781 194.8125 106.742188 194.96875 106.839844 195.113281 C 106.9375 195.257812 107.054688 195.382812 107.199219 195.480469 L 105.464844 215.078125 C 104.867188 222.226562 104.019531 229.398438 103.953125 236.582031 C 103.886719 243.769531 103.210938 250.757812 102.628906 257.835938 C 102.339844 261.367188 102.058594 264.890625 102.035156 268.421875 C 102.035156 269.957031 102.035156 271.519531 102.035156 273.054688 C 102.261719 274.789062 102.363281 276.53125 102.339844 278.28125 C 102.179688 280.210938 101.941406 282.15625 101.875 284.089844 C 101.808594 286.023438 102.007812 287.914062 102.019531 289.820312 C 102.011719 291.730469 101.707031 293.589844 101.105469 295.402344 C 100.667969 297.332031 100.433594 299.289062 100.40625 301.265625 C 100.371094 301.695312 100.519531 302.050781 100.855469 302.324219 C 101.574219 303.761719 102.617188 304.902344 103.980469 305.753906 C 104.5625 306.164062 105.144531 306.546875 105.742188 306.890625 C 105.257812 310.519531 104.375 314.046875 103.09375 317.476562 C 101.941406 320.917969 100.933594 324.359375 100.113281 327.890625 C 99.292969 331.425781 98.390625 335.050781 97.609375 338.648438 C 96.839844 341.5 96.414062 344.402344 96.339844 347.355469 C 96.34375 347.96875 96.449219 348.566406 96.648438 349.144531 C 96.851562 349.722656 97.140625 350.257812 97.515625 350.742188 C 97.890625 351.226562 98.332031 351.636719 98.84375 351.980469 C 99.355469 352.320312 99.90625 352.570312 100.496094 352.730469 C 102.3125 353.324219 104.972656 354.050781 106.378906 352.304688 C 107.003906 351.429688 107.445312 350.464844 107.703125 349.421875 C 108.269531 347.714844 108.734375 345.980469 109.171875 344.246094 C 110.085938 340.632812 111.09375 337.074219 112.097656 333.5 C 113.25 329.398438 114.191406 325.230469 115.355469 321.128906 C 115.914062 319.195312 116.480469 317.25 117.117188 315.347656 C 117.449219 314.351562 117.847656 313.386719 118.203125 312.410156 C 118.398438 311.523438 118.714844 310.679688 119.144531 309.878906 C 119.242188 309.761719 119.3125 309.625 119.351562 309.476562 C 119.394531 309.328125 119.402344 309.175781 119.378906 309.023438 C 119.351562 308.871094 119.300781 308.730469 119.214844 308.601562 C 119.128906 308.46875 119.023438 308.363281 118.890625 308.28125 C 121.917969 307.71875 124.96875 307.503906 128.042969 307.632812 C 131.300781 307.910156 134.492188 308.476562 137.765625 308.609375 C 141.035156 308.742188 144.066406 308.609375 147.207031 308.609375 C 150.34375 308.609375 153.707031 308.347656 156.953125 308.359375 C 160.199219 308.371094 163.375 308.664062 166.59375 308.835938 C 169.8125 309.007812 172.753906 309.113281 175.863281 309.390625 C 177.386719 309.523438 178.898438 309.695312 180.394531 309.933594 C 181.890625 310.171875 183.1875 310.714844 184.617188 311.046875 C 187.460938 311.519531 190.3125 311.582031 193.171875 311.230469 C 196.25 311.136719 199.308594 311.324219 202.351562 311.800781 C 205.367188 312.167969 208.398438 312.292969 211.433594 312.171875 C 214.667969 312.0625 217.792969 312.515625 221.011719 312.671875 C 224.226562 312.832031 227.484375 312.488281 230.703125 312.433594 C 233.96875 312.402344 237.226562 312.546875 240.476562 312.871094 C 241.972656 313.015625 243.457031 313.148438 244.925781 313.230469 C 245.753906 316.261719 246.195312 319.347656 246.25 322.492188 C 246.253906 322.757812 246.328125 323 246.476562 323.21875 C 247.3125 329.253906 248.027344 335.316406 249.058594 341.320312 C 249.601562 344.5 250.226562 347.660156 251.019531 350.785156 C 251.601562 353.035156 252.34375 354.859375 254.714844 355.734375 C 256.800781 356.558594 258.945312 356.769531 261.148438 356.367188 C 263.164062 355.878906 263.800781 354.105469 263.800781 352.199219 C 263.667969 346.257812 262.25 340.289062 261.148438 334.519531 C 260.5 330.894531 260.0625 327.242188 259.519531 323.589844 C 259.242188 321.710938 258.953125 319.832031 258.609375 317.953125 C 258.191406 316.339844 257.898438 314.703125 257.734375 313.042969 L 260.648438 312.699219 C 263.09375 312.523438 265.46875 312.019531 267.773438 311.175781 C 269.414062 310.488281 271.507812 309.40625 271.664062 307.417969 C 271.679688 307.296875 271.679688 307.171875 271.664062 307.050781 C 271.714844 306.929688 271.75 306.804688 271.769531 306.679688 C 272.082031 303.121094 272.191406 299.554688 272.101562 295.984375 C 272.101562 294.304688 271.851562 292.652344 271.757812 290.984375 C 271.746094 289.105469 271.851562 287.238281 272.074219 285.375 C 272.542969 281.992188 272.785156 278.597656 272.804688 275.183594 C 272.488281 271.648438 272.550781 268.121094 273.003906 264.597656 C 273.253906 263.023438 273.730469 261.472656 274.035156 259.898438 C 274.347656 258.035156 274.554688 256.164062 274.660156 254.277344 L 275.570312 243.265625 C 276.179688 235.976562 276.699219 228.710938 277.425781 221.367188 C 277.785156 217.84375 278.472656 214.417969 278.089844 210.859375 C 277.84375 207.175781 277.972656 203.503906 278.472656 199.847656 L 278.605469 198.378906 C 278.65625 198.019531 278.570312 197.691406 278.351562 197.402344 Z M 239.988281 163.007812 C 241.101562 162.652344 243.296875 162.386719 244.210938 163.257812 C 245.125 164.132812 245.296875 166.488281 245.535156 167.890625 C 245.867188 170.339844 246.226562 172.773438 246.542969 175.207031 C 247.179688 180.15625 248.34375 185.082031 248.304688 190.082031 C 246.171875 189.671875 244.078125 189.050781 241.921875 188.757812 C 241.921875 188.496094 242 188.242188 242.027344 187.980469 C 242.113281 187.621094 242.070312 187.28125 241.894531 186.960938 C 241.738281 186.707031 241.523438 186.523438 241.246094 186.417969 C 241.246094 186.191406 241.125 185.96875 241.085938 185.742188 L 240.691406 184.3125 C 240.902344 184.007812 240.980469 183.675781 240.929688 183.308594 C 240.1875 178.320312 239.828125 173.304688 239.246094 168.300781 C 239.113281 166.898438 238.148438 163.511719 239.949219 162.941406 Z M 167.585938 186.617188 C 168.6875 172.65625 169.757812 158.707031 170.726562 144.746094 C 171.214844 137.917969 171.878906 131.117188 172.671875 124.316406 C 172.996094 121.085938 173.554688 117.894531 174.339844 114.746094 C 174.644531 113.636719 174.832031 112.101562 175.957031 111.453125 C 176.980469 111.023438 178.050781 110.796875 179.160156 110.777344 C 179.75 112.207031 179.953125 113.6875 179.769531 115.222656 C 179.625 117.035156 179.769531 118.929688 179.769531 120.742188 C 179.769531 124.710938 179.769531 128.683594 179.335938 132.652344 C 178.898438 136.621094 178.445312 140.417969 178.007812 144.296875 C 177.574219 148.175781 177.71875 152.039062 176.792969 155.675781 C 176.765625 155.785156 176.75 155.894531 176.753906 156.007812 C 176.753906 156.117188 176.769531 156.226562 176.796875 156.335938 C 176.828125 156.445312 176.867188 156.546875 176.921875 156.644531 C 176.976562 156.742188 177.042969 156.828125 177.121094 156.910156 C 177.199219 156.992188 177.285156 157.0625 177.378906 157.121094 C 177.472656 157.179688 177.574219 157.222656 177.683594 157.257812 C 177.789062 157.292969 177.898438 157.308594 178.007812 157.316406 C 178.121094 157.320312 178.230469 157.3125 178.339844 157.292969 C 178.421875 157.292969 178.472656 157.292969 178.566406 157.359375 C 181.054688 157.542969 183.558594 157.753906 186.0625 157.859375 C 187.929688 157.953125 190.433594 158.375 192.191406 157.582031 C 192.675781 157.351562 193.070312 157.019531 193.375 156.578125 C 193.679688 156.140625 193.855469 155.652344 193.902344 155.121094 C 194.191406 153.066406 194.355469 151.003906 194.390625 148.929688 C 194.90625 139.136719 194.828125 129.382812 194.539062 119.578125 C 194.539062 117.328125 194.539062 115.066406 194.539062 112.800781 C 194.539062 111.875 194.363281 110.527344 195.253906 109.957031 C 195.964844 109.617188 196.714844 109.484375 197.503906 109.558594 C 198.945312 109.558594 200.761719 109.890625 201.582031 111.199219 C 202.761719 113.09375 202.683594 116.109375 202.828125 118.253906 C 203.527344 128.273438 203.355469 138.355469 203.316406 148.386719 C 203.316406 159.632812 203.859375 170.882812 203.808594 182.128906 L 203.808594 185.570312 C 203.8125 185.828125 203.894531 186.0625 204.046875 186.273438 C 204.039062 186.359375 204.039062 186.449219 204.046875 186.535156 C 204.101562 186.71875 204.167969 186.894531 204.246094 187.066406 L 204.074219 187.066406 C 200.816406 186.878906 197.542969 186.839844 194.285156 186.746094 L 192.960938 186.746094 C 193.164062 186.640625 193.320312 186.488281 193.4375 186.289062 C 193.550781 186.089844 193.605469 185.878906 193.597656 185.648438 C 193.761719 181.40625 193.683594 177.167969 193.371094 172.933594 C 193.1875 171.144531 192.867188 169.378906 192.40625 167.640625 C 192.292969 166.875 192 166.183594 191.527344 165.570312 C 191.058594 164.957031 190.464844 164.496094 189.757812 164.1875 C 188.921875 164.070312 188.085938 164.070312 187.253906 164.1875 C 186.140625 164.121094 185.039062 163.988281 183.941406 163.789062 C 182.292969 163.429688 180.71875 163.644531 179.226562 164.4375 C 176.832031 165.945312 176.40625 169.003906 176.011719 171.570312 C 175.324219 176.398438 174.882812 181.25 174.6875 186.125 C 174.664062 186.402344 174.734375 186.65625 174.898438 186.878906 C 173.871094 186.746094 172.84375 186.710938 171.8125 186.773438 C 170.339844 187.011719 168.863281 187.082031 167.375 186.984375 C 167.46875 186.875 167.542969 186.753906 167.585938 186.617188 Z M 191.558594 186.617188 C 189.304688 186.46875 187.054688 186.273438 184.804688 186.179688 C 182.15625 186.074219 179.613281 187.027344 177.015625 187.027344 C 177.292969 186.777344 177.4375 186.46875 177.453125 186.101562 C 177.640625 182.355469 177.890625 178.597656 178.328125 174.863281 C 178.511719 173.328125 178.726562 171.808594 179.015625 170.300781 C 179.148438 169.246094 179.476562 168.257812 180.007812 167.335938 C 180.296875 166.941406 180.664062 166.640625 181.113281 166.441406 C 181.558594 166.242188 182.023438 166.164062 182.511719 166.210938 C 184.351562 166.210938 186.140625 166.859375 187.980469 166.738281 C 188.550781 166.738281 189.042969 166.488281 189.425781 166.953125 C 189.757812 167.476562 189.96875 168.042969 190.0625 168.660156 C 190.4375 170.183594 190.707031 171.726562 190.867188 173.289062 C 191.144531 177.394531 191.203125 181.5 191.054688 185.609375 C 191.03125 186.042969 191.199219 186.382812 191.558594 186.628906 Z M 130.082031 174.90625 C 130.613281 173.144531 131.183594 171.410156 131.632812 169.613281 C 131.976562 168.183594 132.214844 166.105469 133.15625 164.941406 C 133.832031 164.105469 135.3125 164.039062 136.292969 163.882812 C 137.273438 163.722656 138.796875 163.339844 138.941406 164.597656 C 138.976562 165.769531 138.828125 166.921875 138.503906 168.050781 C 138.148438 169.796875 137.960938 171.597656 137.683594 173.34375 C 137.089844 177.671875 136.03125 181.886719 134.507812 185.980469 C 132.777344 186.078125 131.050781 186.042969 129.328125 185.875 C 128.492188 185.78125 127.671875 185.703125 126.851562 185.6875 C 127.910156 182.097656 128.988281 178.503906 130.082031 174.90625 Z M 115.515625 312.011719 C 114.917969 313.585938 114.363281 315.160156 113.875 316.773438 C 112.894531 319.925781 112.019531 323.113281 111.222656 326.316406 C 109.609375 332.65625 107.859375 338.96875 106.164062 345.292969 C 105.796875 346.785156 105.355469 348.253906 104.839844 349.699219 C 104.417969 350.824219 104.230469 350.824219 103.039062 350.613281 C 101.808594 350.523438 100.714844 350.082031 99.769531 349.289062 C 99.402344 348.765625 99.164062 348.191406 99.054688 347.566406 C 98.941406 346.9375 98.96875 346.316406 99.132812 345.703125 C 100.050781 339.632812 101.316406 333.632812 102.921875 327.707031 C 104.484375 321.089844 107.410156 314.789062 108.335938 308.066406 C 108.925781 308.28125 109.53125 308.4375 110.152344 308.53125 C 112.398438 308.84375 114.644531 308.84375 116.890625 308.53125 C 116.269531 309.625 115.808594 310.785156 115.515625 312.011719 Z M 260.476562 345.464844 C 260.882812 347.761719 261.113281 350.078125 261.164062 352.410156 C 261.164062 353.535156 260.886719 353.855469 259.839844 353.90625 C 258.761719 353.945312 257.703125 353.828125 256.660156 353.5625 C 255.742188 353.449219 254.988281 353.039062 254.394531 352.332031 C 253.808594 351.152344 253.433594 349.90625 253.269531 348.601562 C 252.621094 345.859375 252.09375 343.109375 251.628906 340.34375 C 250.542969 333.976562 249.828125 327.574219 248.980469 321.183594 C 248.824219 318.496094 248.414062 315.847656 247.75 313.242188 C 248.710938 313.238281 249.667969 313.179688 250.621094 313.070312 C 252.175781 313.003906 253.722656 313.042969 255.269531 313.1875 C 255.515625 315.558594 255.9375 317.894531 256.527344 320.203125 C 257.003906 323.019531 257.402344 325.851562 257.851562 328.683594 C 258.410156 334.320312 259.667969 339.800781 260.476562 345.449219 Z M 275.613281 213.480469 C 275.550781 215.214844 275.382812 216.9375 275.109375 218.652344 C 274.15625 225.878906 273.785156 233.207031 273.160156 240.472656 C 272.539062 247.738281 272.511719 255.214844 270.832031 262.28125 C 270.085938 265.46875 269.78125 268.699219 269.917969 271.96875 C 270.085938 273.632812 270.171875 275.296875 270.167969 276.96875 C 270.0625 278.785156 269.824219 280.597656 269.679688 282.410156 C 269.261719 286.152344 269.15625 289.90625 269.359375 293.671875 C 269.632812 297.945312 269.554688 302.214844 269.136719 306.480469 C 269.121094 306.601562 269.121094 306.726562 269.136719 306.851562 C 269.085938 306.96875 269.050781 307.09375 269.03125 307.222656 C 268.9375 308.371094 265.667969 309.207031 264.777344 309.445312 C 262.535156 309.925781 260.265625 310.234375 257.972656 310.371094 C 255.097656 310.675781 252.277344 310.210938 249.402344 310.582031 C 246.449219 310.777344 243.511719 310.652344 240.582031 310.210938 C 237.546875 309.902344 234.5 309.753906 231.445312 309.761719 C 228.414062 309.761719 225.378906 310.039062 222.347656 310.039062 C 219.316406 310.039062 216.613281 309.46875 213.738281 309.457031 C 210.738281 309.609375 207.734375 309.609375 204.734375 309.457031 C 202.085938 309.152344 199.332031 308.730469 196.601562 308.582031 C 193.875 308.4375 191.09375 308.875 188.3125 308.796875 C 185.769531 308.492188 183.265625 308.011719 180.789062 307.351562 C 177.867188 306.894531 174.925781 306.605469 171.972656 306.480469 C 166.078125 306.148438 160.171875 305.644531 154.265625 305.765625 C 148.359375 305.882812 142.347656 306.335938 136.320312 305.9375 C 132.96875 305.726562 129.699219 305.011719 126.320312 304.933594 C 123.207031 305.039062 120.117188 305.378906 117.050781 305.949219 C 114.230469 306.320312 110.894531 306.546875 108.230469 305.355469 C 106.335938 304.496094 103.34375 302.707031 103.09375 300.5 C 103.089844 299.105469 103.25 297.726562 103.570312 296.371094 C 104.121094 294.828125 104.476562 293.238281 104.628906 291.605469 C 104.800781 288.125 104.457031 284.671875 104.75 281.179688 C 104.980469 279.554688 105.09375 277.921875 105.09375 276.28125 C 105 274.613281 104.707031 273 104.667969 271.332031 C 104.667969 267.851562 104.667969 264.371094 105.011719 260.890625 C 105.609375 253.785156 106.46875 246.707031 106.5625 239.5625 C 106.65625 232.414062 107.277344 225.136719 107.886719 217.898438 C 108.574219 209.710938 109.253906 201.511719 109.925781 193.296875 C 110.746094 191.714844 111.957031 190.527344 113.554688 189.738281 C 115.871094 188.808594 118.273438 188.464844 120.757812 188.707031 C 123.515625 188.839844 126.136719 188.21875 128.878906 188.535156 C 130.230469 188.742188 131.589844 188.832031 132.957031 188.800781 C 134.519531 188.617188 136.085938 188.53125 137.65625 188.546875 C 140.675781 188.757812 143.683594 189.101562 146.691406 189.355469 C 149.699219 189.757812 152.722656 189.996094 155.761719 190.070312 C 158.410156 189.988281 161.058594 189.433594 163.707031 189.289062 C 165.1875 189.332031 166.65625 189.472656 168.117188 189.710938 C 169.507812 189.726562 170.890625 189.621094 172.261719 189.394531 C 173.714844 189.371094 175.15625 189.46875 176.59375 189.6875 C 177.9375 189.730469 179.261719 189.59375 180.566406 189.277344 C 183.464844 188.839844 186.371094 188.808594 189.28125 189.183594 C 195.449219 189.59375 201.660156 189.382812 207.820312 190.015625 C 209.238281 190.164062 210.652344 190.386719 212.070312 190.398438 C 213.488281 190.414062 214.851562 189.949219 216.257812 189.925781 C 219.234375 189.859375 222.082031 190.757812 225.089844 190.492188 C 228.253906 190.253906 231.414062 190.308594 234.570312 190.652344 C 237.496094 190.929688 240.515625 191.074219 243.417969 191.617188 C 246.597656 192.199219 249.617188 193.191406 252.898438 193.019531 C 256.167969 192.8125 259.433594 192.84375 262.699219 193.113281 C 267.679688 193.5625 273.109375 194.4375 275.464844 199.453125 C 275.574219 199.675781 275.738281 199.847656 275.957031 199.96875 C 275.585938 202.824219 275.410156 205.691406 275.425781 208.570312 C 275.332031 210.210938 275.636719 211.824219 275.613281 213.464844 Z M 275.613281 213.480469 " fill-opacity="1" fill-rule="nonzero"/></g></svg>