<svg xmlns="http://www.w3.org/2000/svg" xmlns:xlink="http://www.w3.org/1999/xlink" width="900" zoomAndPan="magnify" viewBox="0 0 675 675.000002" height="900" preserveAspectRatio="xMidYMid meet" version="1.0"><path fill="#fafaca" d="M 23.027344 530.714844 C 41.382812 575.65625 84.375 596.875 111.851562 610.4375 C 220.164062 663.890625 384.820312 657.410156 503.460938 559.527344 C 531.230469 536.621094 670.300781 394.339844 638.671875 232.121094 C 610.714844 88.714844 482.265625 26.496094 347.890625 17.050781 C 248.980469 10.101562 120.15625 44.367188 74.472656 131.925781 C 45.746094 186.984375 80.15625 204.417969 56.566406 329.125 C 36.144531 437.066406 0.578125 475.742188 23.027344 530.714844 " fill-opacity="1" fill-rule="nonzero"/><path fill="#000000" d="M 138.691406 591.078125 C 129.871094 591.078125 115.867188 589.394531 99.183594 581.390625 C 82.992188 573.625 68.179688 561.765625 55.160156 546.152344 C 54.757812 545.667969 54.824219 544.953125 55.304688 544.550781 C 55.789062 544.152344 56.503906 544.214844 56.90625 544.695312 C 91.023438 585.617188 128.109375 588.804688 138.699219 588.804688 C 138.707031 588.804688 138.722656 588.808594 138.71875 588.804688 C 139.347656 588.804688 139.855469 589.3125 139.855469 589.941406 C 139.855469 590.566406 139.347656 591.078125 138.71875 591.078125 C 138.710938 591.078125 138.703125 591.078125 138.691406 591.078125 " fill-opacity="1" fill-rule="nonzero"/><path fill="#000000" d="M 141.605469 606.640625 C 138.0625 606.640625 124.175781 606.132812 105.695312 598.910156 C 86.324219 591.335938 58.148438 574.601562 33.941406 537.871094 C 33.59375 537.347656 33.738281 536.644531 34.261719 536.296875 C 34.785156 535.957031 35.492188 536.097656 35.835938 536.621094 C 59.714844 572.851562 87.457031 589.339844 106.523438 596.796875 C 127.128906 604.847656 142.234375 604.363281 142.378906 604.359375 C 143.039062 604.328125 143.53125 604.824219 143.558594 605.449219 C 143.582031 606.074219 143.09375 606.601562 142.464844 606.628906 C 142.390625 606.628906 142.097656 606.640625 141.605469 606.640625 " fill-opacity="1" fill-rule="nonzero"/><path fill="#000000" d="M 612.144531 326.273438 C 612.03125 326.273438 611.917969 326.261719 611.808594 326.226562 C 611.207031 326.039062 610.867188 325.40625 611.054688 324.808594 C 616.140625 308.164062 618.070312 291.535156 616.800781 275.371094 C 616.746094 274.75 617.214844 274.199219 617.84375 274.15625 C 618.433594 274.105469 619.011719 274.570312 619.058594 275.195312 C 620.355469 291.644531 618.390625 308.554688 613.222656 325.472656 C 613.078125 325.957031 612.625 326.273438 612.144531 326.273438 " fill-opacity="1" fill-rule="nonzero"/><path fill="#000000" d="M 622.347656 340.210938 C 622.214844 340.210938 622.082031 340.1875 621.949219 340.140625 C 621.363281 339.917969 621.0625 339.265625 621.285156 338.675781 C 632.523438 308.574219 634.472656 278.640625 627.070312 249.710938 C 626.910156 249.105469 627.277344 248.488281 627.886719 248.332031 C 628.496094 248.171875 629.113281 248.542969 629.273438 249.152344 C 636.789062 278.539062 634.816406 308.925781 623.410156 339.472656 C 623.242188 339.925781 622.808594 340.210938 622.347656 340.210938 " fill-opacity="1" fill-rule="nonzero"/><path fill="#000000" d="M 33.210938 520.308594 C 36.074219 520.972656 38.941406 519.179688 39.601562 516.3125 C 39.921875 514.925781 39.683594 513.5 38.929688 512.292969 C 38.171875 511.085938 36.992188 510.242188 35.605469 509.925781 C 32.742188 509.253906 29.875 511.050781 29.214844 513.914062 C 28.550781 516.78125 30.34375 519.648438 33.210938 520.308594 Z M 34.410156 522.714844 C 33.84375 522.714844 33.269531 522.652344 32.699219 522.519531 C 28.613281 521.578125 26.058594 517.488281 27 513.40625 C 27.941406 509.324219 32.039062 506.773438 36.117188 507.710938 C 38.09375 508.164062 39.777344 509.363281 40.851562 511.085938 C 41.929688 512.808594 42.269531 514.84375 41.816406 516.824219 C 41.003906 520.332031 37.867188 522.714844 34.410156 522.714844 " fill-opacity="1" fill-rule="nonzero"/><path fill="#000000" d="M 129.296875 241.441406 C 129.210938 241.441406 129.128906 241.433594 129.039062 241.410156 C 128.429688 241.265625 128.050781 240.65625 128.191406 240.046875 L 129.277344 235.414062 C 129.417969 234.800781 130.027344 234.425781 130.640625 234.5625 C 131.25 234.707031 131.628906 235.320312 131.488281 235.933594 L 130.402344 240.566406 C 130.28125 241.089844 129.816406 241.441406 129.296875 241.441406 " fill-opacity="1" fill-rule="nonzero"/><path fill="#000000" d="M 133.089844 225.222656 C 133.003906 225.222656 132.917969 225.214844 132.832031 225.195312 C 132.21875 225.050781 131.839844 224.441406 131.984375 223.828125 L 133.066406 219.191406 C 133.210938 218.582031 133.820312 218.210938 134.429688 218.347656 C 135.039062 218.492188 135.421875 219.101562 135.277344 219.710938 L 134.195312 224.34375 C 134.074219 224.871094 133.605469 225.222656 133.089844 225.222656 " fill-opacity="1" fill-rule="nonzero"/><path fill="#000000" d="M 142.179688 233.394531 C 142.097656 233.394531 142.011719 233.382812 141.925781 233.363281 L 137.285156 232.304688 C 136.671875 232.167969 136.289062 231.558594 136.429688 230.949219 C 136.566406 230.339844 137.171875 229.953125 137.789062 230.09375 L 142.429688 231.148438 C 143.042969 231.289062 143.425781 231.898438 143.285156 232.507812 C 143.164062 233.035156 142.695312 233.394531 142.179688 233.394531 " fill-opacity="1" fill-rule="nonzero"/><path fill="#000000" d="M 125.933594 229.691406 C 125.851562 229.691406 125.765625 229.683594 125.683594 229.664062 L 121.039062 228.609375 C 120.429688 228.46875 120.046875 227.859375 120.1875 227.25 C 120.324219 226.640625 120.933594 226.253906 121.542969 226.394531 L 126.183594 227.453125 C 126.796875 227.59375 127.179688 228.199219 127.039062 228.8125 C 126.921875 229.335938 126.453125 229.691406 125.933594 229.691406 " fill-opacity="1" fill-rule="nonzero"/><path fill="#ab3a3a" d="M 20.773438 132.273438 C 18.976562 115.785156 19.507812 92.183594 33.089844 72.074219 C 70.640625 16.464844 185.449219 20.867188 209.09375 64.550781 C 221.097656 86.730469 209.882812 119.519531 192.183594 137.929688 C 166.011719 165.152344 120.464844 166.328125 92.175781 151.339844 C 65.234375 137.0625 56.140625 109.300781 39.417969 112.433594 C 30.121094 114.171875 24.210938 124.386719 20.773438 132.273438 " fill-opacity="1" fill-rule="nonzero"/><path fill="#ffffff" d="M 74.210938 85.855469 C 73.601562 85.855469 73.097656 85.371094 73.078125 84.753906 C 73.058594 84.128906 73.550781 83.605469 74.179688 83.585938 L 170.636719 80.574219 C 171.246094 80.550781 171.789062 81.046875 171.804688 81.675781 C 171.828125 82.300781 171.332031 82.824219 170.707031 82.84375 L 74.246094 85.855469 C 74.238281 85.855469 74.222656 85.855469 74.210938 85.855469 " fill-opacity="1" fill-rule="nonzero"/><path fill="#ffffff" d="M 97.007812 102.113281 C 96.398438 102.113281 95.894531 101.632812 95.875 101.015625 C 95.855469 100.390625 96.347656 99.867188 96.972656 99.84375 L 145.503906 98.332031 C 146.117188 98.289062 146.65625 98.804688 146.675781 99.429688 C 146.695312 100.054688 146.203125 100.578125 145.574219 100.597656 L 97.042969 102.113281 C 97.03125 102.113281 97.019531 102.113281 97.007812 102.113281 " fill-opacity="1" fill-rule="nonzero"/><path fill="#b6e1e4" d="M 276.992188 229.878906 C 279.339844 226.355469 305.730469 185.203125 286.933594 139.796875 C 273.734375 107.921875 241.910156 82.75 205.863281 82.46875 C 199.785156 82.417969 161.429688 82.121094 141.828125 113.359375 C 128.628906 134.398438 128.011719 163.234375 142.121094 183.761719 C 158.890625 208.15625 189.542969 210.75 194.089844 211.0625 C 225.910156 213.265625 242.757812 192.367188 260.363281 201.65625 C 271.136719 207.332031 275.214844 220.632812 276.992188 229.878906 " fill-opacity="1" fill-rule="nonzero"/><path fill="#ffffff" d="M 166.007812 141.15625 L 256.691406 138.324219 L 166.007812 141.15625 " fill-opacity="1" fill-rule="nonzero"/><path fill="#000000" d="M 166.007812 142.289062 C 165.398438 142.289062 164.894531 141.804688 164.875 141.191406 C 164.855469 140.5625 165.347656 140.039062 165.972656 140.019531 L 256.652344 137.1875 C 257.285156 137.144531 257.804688 137.660156 257.824219 138.289062 C 257.84375 138.914062 257.351562 139.4375 256.726562 139.457031 L 166.042969 142.289062 C 166.035156 142.289062 166.019531 142.289062 166.007812 142.289062 " fill-opacity="1" fill-rule="nonzero"/><path fill="#ffffff" d="M 194.824219 152.082031 L 227.269531 151.070312 L 194.824219 152.082031 " fill-opacity="1" fill-rule="nonzero"/><path fill="#000000" d="M 194.824219 153.21875 C 194.210938 153.21875 193.707031 152.734375 193.6875 152.121094 C 193.667969 151.492188 194.160156 150.972656 194.789062 150.949219 L 227.234375 149.9375 C 227.839844 149.902344 228.382812 150.410156 228.402344 151.039062 C 228.421875 151.664062 227.929688 152.1875 227.304688 152.207031 L 194.859375 153.21875 C 194.847656 153.21875 194.835938 153.21875 194.824219 153.21875 " fill-opacity="1" fill-rule="nonzero"/><path fill="#ffffff" d="M 120.519531 297.914062 C 116.84375 288.363281 111.511719 267.804688 107.566406 261.378906 C 103.625 254.953125 98.871094 249.292969 91.089844 243.683594 C 87.097656 240.804688 78.921875 235.25 72.519531 233.085938 C 66.117188 230.925781 68.15625 243.6875 73.855469 246.316406 C 79.550781 248.941406 83.785156 253.351562 82.113281 254.351562 C 80.953125 255.050781 77.644531 258.199219 71.769531 256.382812 C 65.191406 254.351562 61.171875 247.773438 61.78125 240.914062 C 61.882812 239.726562 62.082031 238.527344 62.410156 237.371094 C 64.410156 230.300781 61.519531 222.628906 54.96875 219.300781 C 51.871094 217.726562 48.082031 216.792969 43.535156 217.246094 C 36.335938 217.96875 32.027344 258.40625 58.34375 273.214844 C 63.792969 276.28125 86.632812 282.527344 90.976562 289.402344 C 95.316406 296.28125 99.703125 309.648438 99.703125 309.648438 L 120.519531 297.914062 " fill-opacity="1" fill-rule="nonzero"/><path fill="#000000" d="M 45.800781 218.269531 C 45.09375 218.269531 44.375 218.304688 43.648438 218.378906 C 42.582031 218.484375 40.984375 220.734375 40.003906 225.417969 C 37.382812 237.929688 40.199219 261.703125 58.902344 272.226562 C 60.496094 273.121094 63.792969 274.359375 67.613281 275.792969 C 77.015625 279.320312 88.71875 283.703125 91.933594 288.796875 C 95.546875 294.515625 99.113281 304.417969 100.339844 307.980469 L 119.113281 297.402344 C 117.816406 293.90625 116.355469 289.253906 114.8125 284.351562 C 112.089844 275.699219 109.007812 265.894531 106.601562 261.972656 C 102.195312 254.796875 97.359375 249.601562 90.425781 244.605469 C 86.265625 241.601562 78.359375 236.257812 72.15625 234.164062 C 70.6875 233.667969 70.226562 234.25 69.972656 234.886719 C 68.960938 237.425781 70.769531 243.640625 74.332031 245.28125 C 78.6875 247.292969 83.476562 251.035156 83.613281 253.570312 C 83.65625 254.316406 83.320312 254.957031 82.699219 255.324219 C 82.574219 255.402344 82.421875 255.511719 82.242188 255.636719 C 80.707031 256.710938 77.117188 259.226562 71.433594 257.46875 C 64.519531 255.328125 59.980469 248.324219 60.648438 240.816406 C 60.769531 239.46875 60.992188 238.203125 61.316406 237.0625 C 63.21875 230.34375 60.332031 223.300781 54.453125 220.3125 C 51.777344 218.953125 48.875 218.269531 45.800781 218.269531 Z M 99.054688 311.3125 L 98.625 310 C 98.582031 309.867188 94.230469 296.683594 90.015625 290.007812 C 87.207031 285.566406 75.421875 281.144531 66.816406 277.917969 C 62.910156 276.449219 59.535156 275.1875 57.789062 274.207031 C 38.027344 263.085938 35.027344 238.09375 37.78125 224.953125 C 38.921875 219.507812 40.925781 216.371094 43.425781 216.121094 C 47.742188 215.6875 51.796875 216.414062 55.480469 218.289062 C 62.324219 221.765625 65.699219 229.921875 63.5 237.679688 C 63.214844 238.6875 63.019531 239.808594 62.910156 241.015625 C 62.339844 247.46875 66.207031 253.476562 72.105469 255.296875 C 76.726562 256.726562 79.464844 254.808594 80.9375 253.777344 C 81.074219 253.683594 81.199219 253.597656 81.308594 253.523438 C 80.953125 252.511719 78.15625 249.546875 73.378906 247.34375 C 68.847656 245.257812 66.351562 237.847656 67.863281 234.046875 C 68.683594 231.988281 70.5625 231.226562 72.882812 232.011719 C 79.367188 234.203125 87.488281 239.6875 91.753906 242.761719 C 98.847656 247.875 104.023438 253.433594 108.535156 260.785156 C 111.089844 264.945312 114.082031 274.464844 116.980469 283.671875 C 118.648438 288.976562 120.226562 293.996094 121.578125 297.507812 L 121.929688 298.421875 L 99.054688 311.3125 " fill-opacity="1" fill-rule="nonzero"/><path fill="#ab3a3a" d="M 85.441406 312.359375 L 128.917969 284.789062 C 128.917969 284.789062 204.238281 386.691406 228.964844 393.910156 C 253.6875 401.125 295.546875 404.296875 295.546875 404.296875 C 295.546875 404.296875 321.792969 469.609375 265.480469 498.257812 C 175.726562 543.929688 85.441406 312.359375 85.441406 312.359375 " fill-opacity="1" fill-rule="nonzero"/><path fill="#ab3a3a" d="M 297.71875 538.527344 L 523.839844 568.757812 C 513.613281 536.097656 510.503906 485.371094 519.0625 452.214844 C 539.859375 371.628906 547.417969 301.113281 503.890625 284.179688 C 492.738281 279.84375 480.171875 275.847656 466.066406 272.070312 C 421.066406 260.015625 337.363281 260.605469 291.953125 290.894531 C 219.851562 338.984375 201.679688 443.335938 201.679688 443.335938 L 294.855469 459.617188 L 297.71875 538.527344 " fill-opacity="1" fill-rule="nonzero"/><path fill="#ffffff" d="M 139.3125 544.578125 L 139.941406 555.175781 C 140.023438 556.605469 141.003906 557.820312 142.382812 558.210938 L 444.871094 643.136719 C 448.210938 644.074219 451.796875 643.347656 454.507812 641.1875 L 518.984375 587.121094 L 496.40625 562.9375 L 139.3125 544.578125 " fill-opacity="1" fill-rule="nonzero"/><path fill="#b6e1e4" d="M 140.523438 545.773438 L 141.074219 555.113281 C 141.128906 556.054688 141.777344 556.859375 142.6875 557.117188 L 445.179688 642.042969 C 448.15625 642.878906 451.378906 642.230469 453.796875 640.300781 L 517.332031 587.023438 L 495.890625 564.050781 Z M 447.773438 644.671875 C 446.699219 644.671875 445.617188 644.523438 444.566406 644.230469 L 142.074219 559.304688 C 140.234375 558.785156 138.917969 557.15625 138.808594 555.246094 L 138.179688 544.640625 C 138.160156 544.320312 138.28125 544.003906 138.507812 543.773438 C 138.734375 543.542969 139.039062 543.425781 139.371094 543.441406 L 496.46875 561.804688 C 496.761719 561.816406 497.035156 561.949219 497.238281 562.164062 L 519.8125 586.347656 C 520.023438 586.574219 520.132812 586.878906 520.117188 587.191406 C 520.097656 587.503906 519.949219 587.792969 519.707031 587.992188 L 455.234375 642.058594 C 453.085938 643.769531 450.445312 644.671875 447.773438 644.671875 " fill-opacity="1" fill-rule="nonzero"/><path fill="#b6e1e4" d="M 139.3125 544.578125 L 446.460938 627.746094 C 449.472656 628.558594 452.6875 627.859375 455.089844 625.863281 L 523.835938 568.757812 L 233.628906 493.789062 L 139.3125 544.578125 " fill-opacity="1" fill-rule="nonzero"/><path fill="#ffffff" d="M 554.511719 501.765625 L 526.402344 552.8125 C 523.835938 557.472656 518.019531 559.160156 513.390625 556.589844 L 495.691406 547.277344 C 493.6875 546.164062 491.011719 545.21875 488.25 544.65625 C 483.589844 543.703125 478.75 544.941406 475.046875 547.96875 L 447.703125 570.355469 C 433.960938 585.167969 464.117188 588.386719 470.152344 587.738281 C 480.527344 586.625 480.527344 586.625 480.527344 586.625 C 480.527344 586.625 491.964844 587.097656 501.121094 590.371094 C 510.277344 593.644531 523.210938 595.710938 536.457031 591.007812 L 537.496094 590.640625 C 545.417969 587.824219 552.210938 582.472656 556.847656 575.402344 L 590.574219 523.882812 L 554.511719 501.765625 " fill-opacity="1" fill-rule="nonzero"/><path fill="#000000" d="M 480.527344 585.484375 C 480.542969 585.484375 480.558594 585.484375 480.578125 585.488281 C 481.046875 585.507812 492.292969 586.007812 501.507812 589.300781 C 508.273438 591.722656 521.769531 595.015625 536.082031 589.9375 L 537.117188 589.566406 C 544.757812 586.851562 551.429688 581.597656 555.894531 574.78125 L 588.988281 524.238281 L 554.9375 503.355469 L 527.398438 553.359375 C 526.011719 555.886719 523.722656 557.714844 520.964844 558.511719 C 518.222656 559.296875 515.339844 558.96875 512.84375 557.582031 L 495.164062 548.28125 C 493.234375 547.210938 490.644531 546.300781 488.027344 545.765625 C 483.707031 544.886719 479.238281 546.007812 475.769531 548.847656 L 448.480469 571.183594 C 445.566406 574.347656 444.644531 577.070312 445.75 579.265625 C 448.753906 585.253906 465.320312 587.117188 470.035156 586.609375 L 480.40625 585.492188 C 480.445312 585.488281 480.488281 585.484375 480.527344 585.484375 Z M 520.246094 594.875 C 512.042969 594.875 505.074219 592.984375 500.742188 591.441406 C 492.257812 588.40625 481.601562 587.8125 480.558594 587.761719 L 470.273438 588.863281 C 466.695312 589.246094 447.675781 588.183594 443.71875 580.285156 C 442.140625 577.140625 443.203125 573.539062 446.871094 569.582031 C 446.90625 569.542969 446.945312 569.511719 446.984375 569.476562 L 474.332031 547.089844 C 478.332031 543.820312 483.488281 542.523438 488.480469 543.539062 C 491.355469 544.125 494.113281 545.101562 496.246094 546.285156 L 513.921875 555.585938 C 515.910156 556.6875 518.179688 556.949219 520.335938 556.328125 C 522.511719 555.703125 524.3125 554.257812 525.414062 552.265625 L 553.523438 501.214844 C 553.671875 500.945312 553.925781 500.746094 554.226562 500.667969 C 554.535156 500.585938 554.847656 500.632812 555.113281 500.796875 L 591.167969 522.917969 C 591.4375 523.078125 591.617188 523.335938 591.6875 523.636719 C 591.753906 523.933594 591.695312 524.25 591.527344 524.507812 L 557.796875 576.019531 C 553.058594 583.257812 545.988281 588.824219 537.878906 591.707031 L 536.839844 592.074219 C 531.058594 594.128906 525.410156 594.875 520.246094 594.875 " fill-opacity="1" fill-rule="nonzero"/><path fill="#ab3a3a" d="M 496.847656 412.289062 C 545.679688 419.914062 537.402344 464.800781 537.402344 464.800781 L 527.199219 532.71875 L 576.195312 564.59375 C 576.195312 564.59375 674.394531 458.988281 633.175781 374.132812 C 599.039062 303.851562 480.03125 276.152344 480.03125 276.152344 L 496.847656 412.289062 " fill-opacity="1" fill-rule="nonzero"/><path fill="#000000" d="M 352.3125 199.492188 C 346.894531 197.007812 344.085938 201.144531 336.023438 200.019531 C 327.449219 198.832031 318.015625 192.414062 314.476562 183.035156 C 310.203125 171.707031 316.367188 160.90625 320.246094 154.097656 C 324.113281 147.324219 329.027344 139.777344 337.554688 136.523438 C 348.675781 132.277344 353.328125 138.796875 366.058594 134.796875 C 376.410156 131.539062 375.648438 126.5 384.867188 123.855469 C 392.550781 121.648438 414.6875 122.90625 419.636719 134.796875 C 422.78125 142.339844 416.003906 146.933594 419.386719 158.105469 C 421.410156 164.820312 424.605469 165.644531 426.929688 170.824219 C 432.703125 183.679688 425.46875 206.257812 411.6875 213.828125 C 392.996094 224.09375 361.652344 203.773438 352.3125 199.492188 " fill-opacity="1" fill-rule="nonzero"/><path fill="#ffffff" d="M 369.503906 221.058594 L 365.15625 257.125 C 364.328125 263.988281 359.425781 269.644531 352.800781 271.390625 L 340.273438 275.429688 C 337.832031 276.21875 337.34375 279.542969 339.488281 280.960938 C 371.140625 301.910156 414.816406 301.539062 445.121094 278.316406 L 448.664062 275.597656 C 451.019531 273.792969 450.207031 270.027344 447.320312 269.375 L 431.820312 265.878906 C 425.265625 264.402344 420.230469 259.097656 419.042969 252.421875 L 409.558594 199.292969 L 369.503906 221.058594 " fill-opacity="1" fill-rule="nonzero"/><path fill="#000000" d="M 370.554688 221.777344 L 366.28125 257.261719 C 365.390625 264.640625 360.214844 270.617188 353.089844 272.496094 L 340.621094 276.519531 C 339.886719 276.753906 339.386719 277.359375 339.277344 278.136719 C 339.171875 278.902344 339.484375 279.605469 340.109375 280.015625 C 371.996094 301.121094 414.894531 300.050781 444.425781 277.417969 L 447.96875 274.703125 C 448.722656 274.128906 449.046875 273.222656 448.839844 272.289062 C 448.640625 271.367188 447.976562 270.695312 447.070312 270.492188 L 431.570312 266.992188 C 424.550781 265.410156 419.195312 259.769531 417.917969 252.625 L 408.71875 201.042969 Z M 390.832031 297.414062 C 372.742188 297.414062 354.503906 292.269531 338.859375 281.910156 C 337.507812 281.015625 336.808594 279.453125 337.027344 277.832031 C 337.253906 276.191406 338.363281 274.859375 339.921875 274.355469 L 352.453125 270.316406 C 358.730469 268.660156 363.25 263.4375 364.027344 256.992188 L 368.375 220.925781 C 368.417969 220.5625 368.640625 220.242188 368.960938 220.0625 L 409.015625 198.300781 C 409.335938 198.125 409.722656 198.113281 410.054688 198.273438 C 410.378906 198.429688 410.613281 198.738281 410.675781 199.097656 L 420.15625 252.226562 C 421.269531 258.464844 425.949219 263.394531 432.070312 264.773438 L 447.566406 268.273438 C 449.332031 268.671875 450.671875 270.023438 451.0625 271.800781 C 451.453125 273.589844 450.796875 275.390625 449.351562 276.503906 L 445.808594 279.21875 C 430.019531 291.316406 410.515625 297.414062 390.832031 297.414062 " fill-opacity="1" fill-rule="nonzero"/><path fill="#ffffff" d="M 405.003906 206.613281 C 405.003906 206.613281 419.121094 199.6875 414.15625 186.472656 C 409.621094 174.386719 399.894531 186.40625 399.894531 186.40625 C 399.894531 186.40625 391.890625 157.425781 375.070312 168.855469 C 358.25 180.289062 342.3125 184.4375 342.3125 184.4375 C 342.3125 184.4375 348.238281 213.605469 358.878906 233.011719 C 365.292969 244.714844 373.425781 252.871094 383.007812 248.9375 C 409.246094 238.171875 405.003906 206.613281 405.003906 206.613281 " fill-opacity="1" fill-rule="nonzero"/><path fill="#000000" d="M 343.640625 185.242188 C 344.804688 190.570312 350.550781 215.472656 359.867188 232.472656 C 367.21875 245.867188 374.855469 251.0625 382.574219 247.890625 C 407.707031 237.574219 403.921875 207.078125 403.878906 206.769531 C 403.8125 206.285156 404.0625 205.816406 404.503906 205.601562 C 405.039062 205.335938 417.625 198.953125 413.085938 186.875 C 412.042969 184.089844 410.664062 182.539062 408.992188 182.269531 C 405.882812 181.773438 402.007812 185.601562 400.777344 187.121094 C 400.507812 187.453125 400.078125 187.605469 399.664062 187.519531 C 399.246094 187.433594 398.914062 187.121094 398.800781 186.710938 C 398.757812 186.554688 394.371094 171.046875 385.75 167.882812 C 382.636719 166.742188 379.257812 167.386719 375.703125 169.800781 C 361.367188 179.542969 347.488281 184.09375 343.640625 185.242188 Z M 378.101562 251.09375 C 371.054688 251.09375 364.273438 245.222656 357.882812 233.558594 C 347.277344 214.226562 341.257812 184.964844 341.199219 184.667969 C 341.078125 184.078125 341.4375 183.496094 342.023438 183.34375 C 342.179688 183.304688 357.980469 179.097656 374.433594 167.921875 C 378.625 165.070312 382.699219 164.339844 386.535156 165.75 C 394.382812 168.636719 398.859375 179.691406 400.390625 184.195312 C 402.277344 182.328125 405.828125 179.457031 409.355469 180.023438 C 411.890625 180.4375 413.863281 182.472656 415.21875 186.074219 C 419.808594 198.304688 409.113281 205.550781 406.210938 207.25 C 406.636719 212.269531 407.832031 239.980469 383.4375 249.988281 C 381.644531 250.726562 379.863281 251.09375 378.101562 251.09375 " fill-opacity="1" fill-rule="nonzero"/><path fill="#000000" d="M 381.375 233.84375 L 380.550781 231.730469 L 403.203125 222.894531 C 413.332031 218.941406 419.074219 208.347656 416.847656 197.703125 L 414.601562 186.949219 L 416.828125 186.484375 L 419.074219 197.242188 C 421.523438 208.972656 415.195312 220.652344 404.027344 225.007812 L 381.375 233.84375 " fill-opacity="1" fill-rule="nonzero"/><path fill="#ab3a3a" d="M 411.859375 176.726562 C 411.371094 176.726562 410.914062 176.410156 410.773438 175.910156 C 410.691406 175.628906 402.222656 147.535156 383.398438 137.613281 C 375.894531 133.664062 367.675781 133.097656 358.957031 135.929688 C 358.359375 136.125 357.722656 135.796875 357.527344 135.203125 C 357.332031 134.609375 357.660156 133.964844 358.257812 133.773438 C 367.578125 130.742188 376.398438 131.359375 384.464844 135.609375 C 404.140625 145.980469 412.597656 174.082031 412.953125 175.273438 C 413.125 175.871094 412.785156 176.503906 412.179688 176.683594 C 412.074219 176.714844 411.96875 176.726562 411.859375 176.726562 " fill-opacity="1" fill-rule="nonzero"/><path fill="#ab3a3a" d="M 373.875 238.097656 C 371.40625 235.597656 371.460938 231.53125 374.003906 229.015625 C 376.550781 226.5 380.613281 226.484375 383.085938 228.984375 C 385.558594 231.480469 385.5 235.546875 382.957031 238.0625 C 380.414062 240.578125 376.347656 240.59375 373.875 238.097656 " fill-opacity="1" fill-rule="nonzero"/><path fill="#b6e1e4" d="M 399.757812 195.476562 C 396.003906 186.359375 399.734375 176.183594 408.089844 172.742188 C 409.007812 172.363281 412.5 171.316406 413.441406 171.128906 C 421.089844 169.597656 426.679688 174.894531 430.019531 183.007812 C 433.625 191.761719 432.472656 201.167969 424.804688 204.972656 C 424.484375 205.128906 422.140625 205.972656 421.792969 206.070312 C 412.316406 208.671875 403.515625 204.589844 399.757812 195.476562 " fill-opacity="1" fill-rule="nonzero"/><path fill="#ab3a3a" d="M 403.414062 194.152344 C 399.84375 184.964844 403.773438 174.863281 412.195312 171.585938 C 420.617188 168.304688 430.34375 173.09375 433.917969 182.28125 C 437.496094 191.46875 433.566406 201.570312 425.144531 204.851562 C 416.71875 208.128906 406.996094 203.339844 403.414062 194.152344 " fill-opacity="1" fill-rule="nonzero"/><path fill="#ffffff" d="M 355.769531 585.738281 L 116.714844 516.269531 C 113.003906 515.191406 110.453125 511.792969 110.453125 507.925781 L 110.453125 344.109375 C 110.453125 338.324219 116.007812 334.152344 121.5625 335.765625 L 360.617188 405.234375 C 364.332031 406.316406 366.332031 409.765625 366.332031 413.632812 L 365.96875 576.363281 C 365.96875 582.152344 361.328125 587.351562 355.769531 585.738281 " fill-opacity="1" fill-rule="nonzero"/><path fill="#000000" d="M 360.617188 405.234375 L 358.386719 404.589844 L 358.386719 586.023438 C 362.945312 585.921875 366.878906 582.269531 366.878906 577.394531 L 366.878906 413.574219 C 366.878906 409.714844 364.332031 406.316406 360.617188 405.234375 " fill-opacity="1" fill-rule="nonzero"/><path fill="#b6e1e4" d="M 252.273438 595.71875 L 252.273438 464.566406 C 252.273438 458.023438 247.976562 452.253906 241.703125 450.382812 L 206.726562 439.941406 C 200.613281 438.113281 194.46875 442.691406 194.46875 449.074219 L 194.46875 611.816406 C 194.46875 615.597656 196.949219 618.933594 200.574219 620.011719 L 249.324219 634.570312 C 251.230469 635.140625 253.277344 635.027344 255.105469 634.25 L 297.441406 616.320312 C 300.363281 615.085938 300.167969 610.875 297.140625 609.917969 L 252.273438 595.71875 " fill-opacity="1" fill-rule="nonzero"/><path fill="#fafaca" d="M 261.589844 408.480469 L 199.714844 389.949219 C 198.878906 389.695312 198.304688 388.921875 198.304688 388.046875 L 198.304688 382.644531 C 198.304688 381.296875 199.605469 380.324219 200.902344 380.714844 L 261.035156 398.726562 C 262.339844 399.117188 263.230469 400.320312 263.230469 401.683594 L 263.230469 407.257812 C 263.230469 408.109375 262.40625 408.726562 261.589844 408.480469 " fill-opacity="1" fill-rule="nonzero"/><path fill="#fafaca" d="M 253.554688 627.816406 C 252.925781 627.816406 252.417969 627.308594 252.417969 626.683594 L 252.417969 591.066406 C 252.417969 590.441406 252.925781 589.933594 253.554688 589.933594 C 254.179688 589.933594 254.6875 590.441406 254.6875 591.066406 L 254.6875 626.683594 C 254.6875 627.308594 254.179688 627.816406 253.554688 627.816406 " fill-opacity="1" fill-rule="nonzero"/><path fill="#000000" d="M 251.769531 636.0625 C 250.828125 636.0625 249.898438 635.925781 249 635.65625 L 200.246094 621.101562 C 196.175781 619.886719 193.332031 616.066406 193.332031 611.816406 L 193.332031 546.160156 C 193.332031 545.53125 193.839844 545.023438 194.46875 545.023438 C 195.09375 545.023438 195.601562 545.53125 195.601562 546.160156 L 195.601562 611.816406 C 195.601562 615.074219 197.78125 617.992188 200.898438 618.925781 L 249.652344 633.480469 C 250.5 633.734375 251.378906 633.832031 252.269531 633.777344 C 252.878906 633.738281 253.433594 634.203125 253.472656 634.832031 C 253.515625 635.457031 253.042969 636 252.417969 636.039062 C 252.199219 636.054688 251.984375 636.0625 251.769531 636.0625 " fill-opacity="1" fill-rule="nonzero"/><path fill="#000000" d="M 194.46875 547.292969 C 193.839844 547.292969 193.332031 546.78125 193.332031 546.160156 L 193.332031 449.074219 C 193.332031 445.667969 194.894531 442.550781 197.625 440.519531 C 200.355469 438.484375 203.789062 437.878906 207.050781 438.851562 L 242.03125 449.296875 C 248.730469 451.296875 253.410156 457.578125 253.410156 464.566406 L 252.597656 516.703125 C 252.585938 517.324219 252.113281 517.828125 251.441406 517.820312 C 250.820312 517.808594 250.320312 517.292969 250.324219 516.664062 L 251.136719 464.550781 C 251.136719 458.570312 247.125 453.183594 241.378906 451.472656 L 206.402344 441.027344 C 203.832031 440.261719 201.132812 440.738281 198.980469 442.339844 C 196.835938 443.941406 195.601562 446.394531 195.601562 449.074219 L 195.601562 546.160156 C 195.601562 546.78125 195.09375 547.292969 194.46875 547.292969 " fill-opacity="1" fill-rule="nonzero"/><path fill="#000000" d="M 252.253906 607.839844 C 251.625 607.839844 251.117188 607.332031 251.117188 606.703125 L 251.125 562.488281 C 251.125 561.859375 251.632812 561.347656 252.257812 561.347656 C 252.886719 561.347656 253.394531 561.859375 253.394531 562.488281 L 253.386719 606.703125 C 253.386719 607.332031 252.878906 607.839844 252.253906 607.839844 " fill-opacity="1" fill-rule="nonzero"/><path fill="#000000" d="M 357.8125 587.171875 C 357.03125 587.171875 356.238281 587.058594 355.453125 586.828125 L 266.964844 561.113281 C 266.363281 560.9375 266.015625 560.308594 266.191406 559.707031 C 266.363281 559.105469 266.992188 558.757812 267.597656 558.933594 L 356.085938 584.644531 C 358.46875 585.339844 360.304688 584.488281 361.421875 583.652344 C 363.523438 582.074219 364.832031 579.28125 364.832031 576.363281 L 365.195312 413.628906 C 365.195312 410.003906 363.324219 407.203125 360.300781 406.328125 L 121.246094 336.855469 C 118.945312 336.1875 116.523438 336.628906 114.605469 338.070312 C 112.6875 339.507812 111.585938 341.710938 111.585938 344.109375 L 111.585938 507.925781 C 111.585938 511.265625 113.828125 514.246094 117.03125 515.179688 L 186.035156 535.234375 C 186.636719 535.40625 186.984375 536.035156 186.808594 536.640625 C 186.632812 537.242188 186.007812 537.585938 185.402344 537.410156 L 116.398438 517.359375 C 112.230469 516.148438 109.316406 512.269531 109.316406 507.925781 L 109.316406 344.109375 C 109.316406 340.988281 110.746094 338.128906 113.242188 336.253906 C 115.734375 334.382812 118.882812 333.808594 121.878906 334.675781 L 360.933594 404.144531 C 364.902344 405.300781 367.46875 409.023438 367.46875 413.632812 L 367.101562 576.367188 C 367.101562 579.980469 365.445312 583.46875 362.785156 585.46875 C 361.285156 586.59375 359.574219 587.171875 357.8125 587.171875 " fill-opacity="1" fill-rule="nonzero"/><path fill="#ffffff" d="M 467.320312 81.578125 C 479.40625 62.289062 504.84375 56.445312 524.136719 68.53125 C 543.421875 80.613281 549.265625 106.046875 537.179688 125.335938 C 525.09375 144.628906 499.664062 150.472656 480.371094 138.382812 C 461.082031 126.304688 455.242188 100.867188 467.320312 81.578125 " fill-opacity="1" fill-rule="nonzero"/><path fill="#000000" d="M 467.324219 81.578125 L 467.332031 81.578125 Z M 502.328125 63.363281 C 499.320312 63.363281 496.289062 63.703125 493.277344 64.394531 C 482.847656 66.792969 473.96875 73.105469 468.285156 82.179688 C 456.554688 100.90625 462.246094 125.691406 480.972656 137.425781 C 499.703125 149.160156 524.484375 143.464844 536.214844 124.738281 C 541.898438 115.667969 543.714844 104.921875 541.316406 94.484375 C 538.917969 84.050781 532.601562 75.175781 523.535156 69.492188 C 517.074219 65.445312 509.765625 63.363281 502.328125 63.363281 Z M 502.183594 145.796875 C 494.503906 145.796875 486.742188 143.71875 479.769531 139.351562 C 459.976562 126.949219 453.964844 100.761719 466.363281 80.976562 C 472.363281 71.390625 481.75 64.710938 492.773438 62.183594 C 503.804688 59.652344 515.148438 61.5625 524.734375 67.566406 C 534.320312 73.574219 540.996094 82.953125 543.53125 93.976562 C 546.058594 105.003906 544.152344 116.355469 538.140625 125.941406 C 530.109375 138.757812 516.292969 145.796875 502.183594 145.796875 " fill-opacity="1" fill-rule="nonzero"/><path fill="#b6e1e4" d="M 511.304688 130.804688 L 473.886719 107.363281 C 473.074219 106.851562 472.832031 105.78125 473.339844 104.96875 L 490.214844 78.03125 C 490.722656 77.21875 491.796875 76.96875 492.609375 77.480469 L 530.027344 100.921875 C 530.839844 101.429688 531.085938 102.503906 530.574219 103.3125 L 513.699219 130.253906 C 513.191406 131.066406 512.117188 131.316406 511.304688 130.804688 " fill-opacity="1" fill-rule="nonzero"/><path fill="#000000" d="M 492.351562 79.144531 C 492.148438 79.144531 491.949219 79.167969 491.746094 79.210938 C 491.046875 79.375 490.441406 79.800781 490.0625 80.410156 L 475.414062 103.796875 C 475.027344 104.410156 474.910156 105.132812 475.070312 105.835938 C 475.226562 106.535156 475.65625 107.132812 476.265625 107.511719 L 510.132812 128.734375 C 510.742188 129.117188 511.464844 129.234375 512.164062 129.074219 C 512.867188 128.910156 513.464844 128.488281 513.847656 127.878906 L 528.5 104.492188 C 529.292969 103.226562 528.90625 101.5625 527.648438 100.773438 L 493.78125 79.554688 C 493.347656 79.285156 492.851562 79.144531 492.351562 79.144531 Z M 511.554688 131.414062 C 510.632812 131.414062 509.726562 131.160156 508.925781 130.65625 L 475.0625 109.4375 C 473.933594 108.734375 473.152344 107.632812 472.855469 106.339844 C 472.558594 105.046875 472.785156 103.71875 473.488281 102.59375 L 488.136719 79.203125 C 488.84375 78.078125 489.945312 77.296875 491.234375 77 C 492.53125 76.703125 493.863281 76.929688 494.988281 77.632812 L 528.851562 98.847656 C 531.175781 100.304688 531.878906 103.375 530.425781 105.699219 L 515.773438 129.082031 C 515.070312 130.210938 513.96875 130.992188 512.675781 131.289062 C 512.300781 131.371094 511.929688 131.414062 511.554688 131.414062 " fill-opacity="1" fill-rule="nonzero"/><path fill="#000000" d="M 501.28125 106.699219 C 500.855469 106.699219 500.445312 106.453125 500.25 106.039062 L 492.613281 89.421875 C 492.351562 88.855469 492.605469 88.179688 493.171875 87.914062 C 493.742188 87.65625 494.414062 87.90625 494.675781 88.476562 L 502.3125 105.09375 C 502.574219 105.660156 502.324219 106.335938 501.757812 106.597656 C 501.605469 106.667969 501.445312 106.699219 501.28125 106.699219 " fill-opacity="1" fill-rule="nonzero"/><path fill="#000000" d="M 501.371094 106.761719 C 500.757812 106.761719 500.25 106.265625 500.234375 105.648438 C 500.21875 105.019531 500.722656 104.503906 501.347656 104.488281 L 519.636719 104.109375 C 520.234375 104.121094 520.777344 104.597656 520.792969 105.222656 C 520.804688 105.847656 520.308594 106.367188 519.679688 106.378906 L 501.394531 106.761719 C 501.390625 106.761719 501.382812 106.761719 501.371094 106.761719 " fill-opacity="1" fill-rule="nonzero"/><path fill="#ffffff" d="M 345.253906 65.144531 C 343.125 42.480469 359.773438 22.386719 382.4375 20.261719 C 405.097656 18.136719 425.195312 34.785156 427.328125 57.449219 C 429.449219 80.113281 412.800781 100.207031 390.136719 102.332031 C 367.472656 104.457031 347.375 87.808594 345.253906 65.144531 " fill-opacity="1" fill-rule="nonzero"/><path fill="#000000" d="M 386.363281 21.210938 C 385.097656 21.210938 383.824219 21.269531 382.546875 21.386719 C 360.546875 23.453125 344.320312 43.035156 346.386719 65.039062 C 348.328125 85.773438 365.832031 101.371094 386.261719 101.378906 C 387.507812 101.378906 388.761719 101.320312 390.03125 101.199219 C 400.691406 100.203125 410.324219 95.105469 417.15625 86.863281 C 423.984375 78.621094 427.199219 68.210938 426.199219 57.550781 C 425.195312 46.894531 420.105469 37.257812 411.859375 30.429688 C 404.605469 24.417969 395.664062 21.210938 386.363281 21.210938 Z M 386.214844 103.648438 C 376.378906 103.648438 366.9375 100.261719 359.269531 93.90625 C 350.558594 86.691406 345.179688 76.511719 344.125 65.246094 C 343.066406 53.984375 346.460938 42.984375 353.675781 34.273438 C 360.894531 25.5625 371.074219 20.183594 382.339844 19.128906 C 393.597656 18.074219 404.601562 21.464844 413.3125 28.679688 C 422.019531 35.898438 427.398438 46.074219 428.457031 57.339844 C 429.515625 68.601562 426.121094 79.601562 418.90625 88.3125 C 411.683594 97.023438 401.507812 102.40625 390.246094 103.460938 C 388.898438 103.585938 387.550781 103.648438 386.214844 103.648438 " fill-opacity="1" fill-rule="nonzero"/><path fill="#ab3a3a" d="M 403.371094 77.617188 L 397.914062 70.847656 C 397.460938 70.28125 396.496094 69.835938 395.773438 69.84375 L 394.851562 69.863281 C 394.023438 69.875 393.21875 70.082031 392.453125 70.398438 C 390.296875 71.285156 386.820312 71.308594 382.265625 63.429688 C 377.746094 55.59375 379.464844 52.585938 381.296875 51.152344 C 382.09375 50.53125 382.742188 49.734375 383.261719 48.871094 L 383.46875 48.53125 C 383.84375 47.910156 383.933594 46.851562 383.671875 46.175781 L 380.539062 38.0625 C 380.285156 37.390625 379.484375 36.941406 378.773438 37.074219 L 376.753906 37.441406 C 375.058594 37.753906 373.492188 38.601562 372.363281 39.914062 C 367.59375 45.484375 368.390625 56.652344 374.800781 67.746094 C 381.21875 78.859375 390.519531 85.144531 397.730469 83.757812 C 399.394531 83.441406 400.886719 82.527344 401.988281 81.234375 L 403.351562 79.636719 C 403.820312 79.085938 403.828125 78.175781 403.371094 77.617188 " fill-opacity="1" fill-rule="nonzero"/><path fill="#ffffff" d="M 616.429688 193.8125 C 616.429688 215.03125 599.226562 232.238281 578.003906 232.238281 C 556.785156 232.238281 539.582031 215.03125 539.582031 193.8125 C 539.582031 172.589844 556.785156 155.386719 578.003906 155.386719 C 599.226562 155.386719 616.429688 172.589844 616.429688 193.8125 " fill-opacity="1" fill-rule="nonzero"/><path fill="#000000" d="M 578.007812 156.527344 C 557.445312 156.527344 540.714844 173.253906 540.714844 193.8125 C 540.714844 214.375 557.445312 231.101562 578.007812 231.101562 C 598.5625 231.101562 615.292969 214.375 615.292969 193.8125 C 615.292969 173.253906 598.5625 156.527344 578.007812 156.527344 Z M 578.007812 233.375 C 556.1875 233.375 538.445312 215.625 538.445312 193.8125 C 538.445312 172 556.1875 154.253906 578.007812 154.253906 C 599.816406 154.253906 617.5625 172 617.5625 193.8125 C 617.5625 215.625 599.816406 233.375 578.007812 233.375 " fill-opacity="1" fill-rule="nonzero"/><path fill="#ab3a3a" d="M 547.554688 204.601562 L 547.554688 203.394531 C 547.554688 198.328125 549.582031 197.378906 555.289062 193.859375 C 557.855469 192.273438 558.804688 191.480469 558.804688 190.023438 C 558.804688 188.3125 557.539062 187.457031 554.371094 187.457031 C 552.65625 187.457031 550.597656 187.773438 548.539062 188.246094 L 547.777344 184.570312 C 550.121094 183.84375 552.941406 183.496094 554.90625 183.496094 C 560.453125 183.496094 563.367188 185.996094 563.367188 189.835938 C 563.367188 192.78125 561.5625 194.492188 558.203125 196.679688 C 555.574219 198.390625 553.195312 199.660156 552.910156 200.644531 L 563.464844 200.644531 L 563.464844 204.601562 L 547.554688 204.601562 " fill-opacity="1" fill-rule="nonzero"/><path fill="#ab3a3a" d="M 575.660156 188.753906 L 569.320312 196.359375 L 575.660156 196.359375 Z M 580.039062 200.097656 L 580.039062 204.601562 L 575.660156 204.601562 L 575.660156 200.097656 L 564.980469 200.097656 L 564.980469 196.105469 L 575.121094 183.808594 L 580.039062 183.808594 L 580.039062 196.359375 L 583.046875 196.359375 L 583.046875 200.097656 L 580.039062 200.097656 " fill-opacity="1" fill-rule="nonzero"/><path fill="#ab3a3a" d="M 586.28125 205.433594 L 582.875 205.433594 L 589.953125 182.910156 L 593.375 182.910156 L 586.28125 205.433594 " fill-opacity="1" fill-rule="nonzero"/><path fill="#ab3a3a" d="M 609.21875 186.378906 L 601.46875 204.558594 L 596.398438 204.558594 L 604.160156 187.523438 L 594.273438 187.523438 L 594.273438 183.816406 L 609.21875 183.816406 L 609.21875 186.378906 " fill-opacity="1" fill-rule="nonzero"/></svg>