<svg xmlns="http://www.w3.org/2000/svg" xmlns:xlink="http://www.w3.org/1999/xlink" width="900" zoomAndPan="magnify" viewBox="0 0 675 675.000002" height="900" preserveAspectRatio="xMidYMid meet" version="1.0"><defs><clipPath id="afa78381fb"><path d="M 0.5 12 L 673 12 L 673 674 L 0.5 674 Z M 0.5 12 " clip-rule="nonzero"/></clipPath><clipPath id="3202f46c2e"><path d="M 0.5 1 L 605 1 L 605 661 L 0.5 661 Z M 0.5 1 " clip-rule="nonzero"/></clipPath><clipPath id="6c28063a40"><path d="M 0.5 44 L 527 44 L 527 673 L 0.5 673 Z M 0.5 44 " clip-rule="nonzero"/></clipPath></defs><path fill="#eae5d9" d="M 385.46875 51.011719 L 392.242188 53.757812 C 395.863281 55.226562 397.421875 59.5 395.589844 62.957031 L 392.167969 69.414062 C 389.265625 74.898438 394.851562 80.992188 400.566406 78.574219 L 407.28125 75.726562 C 410.882812 74.203125 415.011719 76.125 416.160156 79.863281 L 418.308594 86.84375 C 420.132812 92.769531 428.386719 93.128906 430.71875 87.382812 L 433.464844 80.617188 C 434.9375 76.996094 439.210938 75.441406 442.664062 77.269531 L 449.117188 80.6875 C 454.597656 83.59375 460.691406 78.007812 458.277344 72.296875 L 455.433594 65.570312 C 453.914062 61.972656 455.835938 57.847656 459.570312 56.699219 L 466.550781 54.550781 C 472.476562 52.726562 472.835938 44.472656 467.089844 42.136719 L 460.324219 39.390625 C 456.707031 37.921875 455.148438 33.648438 456.976562 30.195312 L 460.398438 23.738281 C 463.300781 18.257812 457.71875 12.164062 452.003906 14.578125 L 445.273438 17.425781 C 441.675781 18.945312 437.550781 17.023438 436.40625 13.289062 L 434.257812 6.300781 C 432.4375 0.367188 424.175781 0.0078125 421.847656 5.757812 L 419.101562 12.53125 C 417.636719 16.152344 413.359375 17.710938 409.910156 15.878906 L 403.4375 12.453125 C 397.957031 9.550781 391.867188 15.140625 394.285156 20.851562 L 397.136719 27.578125 C 398.660156 31.175781 396.734375 35.304688 393 36.453125 L 386.007812 38.597656 C 380.082031 40.421875 379.71875 48.683594 385.46875 51.011719 Z M 411.785156 39.046875 C 413.191406 35.980469 415.6875 33.484375 418.757812 32.078125 C 433.335938 25.398438 447.464844 39.523438 440.785156 54.105469 C 439.378906 57.171875 436.882812 59.667969 433.8125 61.078125 C 419.234375 67.757812 405.105469 53.628906 411.785156 39.046875 Z M 411.785156 39.046875 " fill-opacity="1" fill-rule="nonzero"/><g clip-path="url(#afa78381fb)"><path fill="#eae5d9" d="M 668.582031 270.710938 C 667.765625 269.839844 666.875 269.082031 665.925781 268.4375 L 664.695312 267.609375 L 604.699219 225.429688 C 603.316406 223.695312 601.328125 222.277344 599.113281 221.4375 C 590.296875 218.097656 582.371094 215.449219 574.246094 213.71875 L 571.328125 195.820312 C 571.324219 195.769531 571.332031 195.71875 571.332031 195.664062 L 568.523438 178.582031 C 568.992188 178.742188 569.496094 178.824219 570.03125 178.765625 C 575.0625 178.246094 578.890625 175.152344 579.710938 170.828125 C 580.066406 168.941406 579.992188 167.109375 579.585938 165.46875 C 581.300781 160.605469 581.757812 155.457031 581.015625 150.488281 C 590.542969 155.023438 602.140625 151.675781 607.703125 142.453125 C 613.625 132.628906 610.460938 119.867188 600.640625 113.945312 C 593.769531 109.796875 585.460938 110.117188 579.058594 114.039062 L 578.394531 111.925781 C 576.640625 106.359375 580.082031 100.496094 585.796875 99.316406 L 596.480469 97.109375 C 605.554688 95.234375 607.257812 83.007812 599.039062 78.726562 L 589.367188 73.6875 C 584.191406 70.992188 582.480469 64.414062 585.6875 59.539062 L 591.6875 50.417969 C 596.78125 42.675781 589.335938 32.824219 580.496094 35.613281 L 570.085938 38.894531 C 564.519531 40.648438 558.660156 37.207031 557.480469 31.488281 L 555.273438 20.792969 C 553.40625 11.714844 541.171875 10.011719 536.894531 18.234375 L 531.851562 27.921875 C 529.160156 33.097656 522.582031 34.808594 517.710938 31.605469 L 508.570312 25.59375 C 500.828125 20.503906 490.980469 27.949219 493.769531 36.785156 L 497.058594 47.195312 C 498.8125 52.761719 495.371094 58.628906 489.652344 59.804688 L 478.953125 62.011719 C 469.875 63.882812 468.175781 76.113281 476.394531 80.390625 L 486.078125 85.429688 C 490.386719 87.671875 492.285156 92.597656 490.960938 96.996094 C 490.445312 96.976562 489.925781 96.957031 489.402344 96.957031 L 287.582031 96.957031 L 287.679688 73.625 L 287.746094 73.625 L 287.746094 57.585938 C 287.746094 50.300781 281.84375 44.394531 274.558594 44.394531 L 157.605469 44.394531 C 152.597656 44.394531 148.238281 47.1875 146.007812 51.300781 C 145.886719 51.519531 145.785156 51.753906 145.679688 51.980469 C 145.605469 52.140625 145.519531 52.292969 145.449219 52.453125 C 144.78125 54.03125 144.414062 55.765625 144.414062 57.585938 L 144.394531 62.695312 C 131.382812 66.0625 121.839844 77.179688 121.839844 92.339844 C 121.839844 95.703125 122.105469 98.941406 122.546875 102.058594 C 120.609375 103.777344 119.253906 106.574219 119.066406 109.800781 C 119.039062 110.328125 119.058594 110.84375 119.117188 111.351562 C 119.148438 111.597656 119.214844 111.832031 119.265625 112.070312 C 119.316406 112.324219 119.355469 112.582031 119.429688 112.828125 C 119.527344 113.15625 119.671875 113.472656 119.808594 113.789062 C 119.871094 113.929688 119.914062 114.078125 119.984375 114.214844 C 120.167969 114.59375 120.394531 114.953125 120.632812 115.304688 C 120.675781 115.371094 120.710938 115.4375 120.757812 115.5 C 121.035156 115.894531 121.355469 116.269531 121.695312 116.628906 C 121.710938 116.640625 121.722656 116.660156 121.734375 116.671875 C 122.820312 117.800781 124.210938 118.730469 125.832031 119.398438 L 121.761719 154.554688 C 108.003906 155.9375 99.429688 157.621094 99.429688 157.621094 C 84.214844 162.085938 73.449219 167.660156 66.15625 170.691406 C 65.4375 170.992188 64.832031 171.460938 64.347656 172.019531 C 58.761719 175.910156 54.84375 182.117188 54.128906 189.421875 L 50.863281 252.839844 L 50.792969 252.839844 C 50.792969 252.839844 50.789062 252.839844 50.785156 252.839844 C 50.335938 252.839844 49.96875 253.203125 49.964844 253.652344 C 49.960938 253.847656 50.035156 254.019531 50.148438 254.160156 C 49.515625 254.5625 49.082031 255.25 49.039062 256.042969 L 47.175781 283.449219 L 63.796875 254.613281 L 46.675781 284.320312 C 43.097656 296.066406 49.71875 308.488281 61.460938 312.066406 C 66.457031 313.589844 71.570312 313.25 76.078125 311.46875 C 76.035156 311.929688 76.007812 312.410156 75.960938 312.863281 C 75.597656 316.320312 77.121094 319.605469 79.78125 321.582031 C 78.476562 341.089844 78.257812 362.472656 79.136719 380.609375 L 82.675781 447.371094 L 13.773438 447.371094 C 8.308594 447.371094 3.621094 450.691406 1.621094 455.425781 C 1.542969 455.609375 1.484375 455.800781 1.414062 455.988281 C 1.332031 456.203125 1.246094 456.417969 1.175781 456.636719 C 0.789062 457.875 0.582031 459.191406 0.582031 460.558594 L 0.582031 559.375 C 0.582031 566.660156 6.488281 573.886719 13.769531 573.886719 L 85.070312 573.230469 C 87.832031 591.492188 91.402344 613.078125 93.554688 625.890625 L 99.296875 625.890625 L 99.296875 632.148438 C 99.296875 632.148438 99.296875 632.148438 99.300781 632.148438 C 97.761719 633.078125 96.546875 634.316406 95.847656 635.941406 C 92.929688 642.726562 89.738281 647.449219 85.355469 654.316406 C 81.359375 660.578125 80.011719 665.691406 80.035156 669.871094 C 80.046875 671.929688 81.761719 673.574219 83.820312 673.574219 L 134.351562 673.574219 C 136.410156 673.574219 138.132812 671.929688 138.140625 669.871094 C 138.164062 658.421875 133.691406 647.617188 132.054688 640.460938 C 131.351562 637.40625 131.207031 634.777344 130.011719 633.960938 C 129.914062 633.890625 129.835938 633.871094 129.746094 633.820312 C 129.46875 630.808594 129.304688 628.183594 129.210938 625.890625 L 133.789062 625.890625 L 134.914062 572.769531 L 157.523438 572.5625 C 157.949219 572.5625 158.371094 572.539062 158.789062 572.5 C 162.882812 595.054688 168.117188 614.910156 171.421875 625.890625 L 176.148438 625.890625 C 176.371094 628.90625 176.566406 631.367188 176.738281 633.398438 C 176.234375 633.179688 175.679688 633.105469 174.972656 633.308594 C 170.328125 634.636719 170.183594 653.800781 170.1875 670.089844 C 170.1875 672.234375 171.921875 673.960938 174.066406 673.960938 L 246.488281 673.960938 C 248.804688 673.960938 250.617188 671.949219 250.34375 669.652344 C 249.777344 664.796875 247.601562 657.132812 239.753906 653.636719 C 227.796875 648.308594 219.851562 642.847656 216.3125 635.363281 C 214.53125 631.597656 210.539062 629.949219 206.566406 629.878906 C 206.566406 629.878906 206.570312 629.878906 206.570312 629.878906 C 206.335938 628.386719 206.144531 627.074219 205.988281 625.890625 L 210.148438 625.890625 L 207.179688 476.167969 L 195.585938 336.984375 C 199.414062 336.316406 200.175781 332.363281 200.800781 328.105469 L 209.804688 224.621094 C 209.976562 224.574219 210.121094 224.472656 210.226562 224.328125 L 224.75 238.5 C 224.277344 239.402344 224.410156 240.550781 225.195312 241.308594 L 244.847656 260.332031 C 245.457031 260.921875 246.292969 261.078125 247.058594 260.890625 L 247.058594 635.257812 C 247.058594 655.914062 263.804688 672.660156 284.457031 672.660156 L 382.503906 672.660156 C 382.53125 673.230469 382.601562 673.578125 382.601562 673.578125 L 452.890625 673.578125 C 452.949219 673.257812 452.988281 672.96875 453.039062 672.660156 L 489.40625 672.660156 C 510.0625 672.660156 526.804688 655.914062 526.804688 635.257812 L 526.804688 632.082031 L 566.59375 633.136719 L 536.941406 632.351562 C 536.484375 633.722656 536.1875 635.175781 536.109375 636.691406 L 535.96875 639.332031 C 534.765625 653.320312 535.003906 663.449219 535.003906 673.578125 L 592.636719 673.578125 C 592.878906 662.242188 569.003906 654.921875 569.003906 643.875 L 569.003906 637.5625 C 569.003906 636.042969 568.78125 634.582031 568.398438 633.1875 L 595.664062 633.910156 C 595.6875 633.910156 598.449219 618.820312 599.390625 613.773438 L 599.621094 613.773438 C 600.074219 613.773438 600.445312 613.40625 600.445312 612.953125 C 600.445312 612.523438 600.117188 612.183594 599.699219 612.144531 C 606.027344 546.039062 619.996094 398.28125 619.996094 382.226562 C 619.996094 367.855469 619.269531 353.835938 615.21875 340.324219 C 618.050781 338.988281 621.390625 337.371094 622.464844 336.210938 C 623.214844 335.402344 623.648438 334.523438 623.867188 333.605469 L 667.828125 292.90625 C 674.164062 286.984375 674.5 277.046875 668.582031 270.710938 Z M 109.820312 629.898438 C 109.613281 629.894531 109.402344 629.898438 109.195312 629.898438 C 109.402344 629.898438 109.613281 629.894531 109.820312 629.898438 Z M 101.949219 630.945312 C 101.832031 630.984375 101.722656 631.03125 101.613281 631.070312 C 101.722656 631.03125 101.832031 630.984375 101.949219 630.945312 Z M 106.554688 630.019531 C 106.507812 630.023438 106.464844 630.023438 106.417969 630.027344 C 106.464844 630.023438 106.507812 630.023438 106.554688 630.019531 Z M 105.210938 630.1875 C 105.035156 630.214844 104.859375 630.238281 104.6875 630.269531 C 104.859375 630.238281 105.035156 630.214844 105.210938 630.1875 Z M 103.550781 630.5 C 103.382812 630.539062 103.21875 630.582031 103.050781 630.628906 C 103.214844 630.582031 103.382812 630.539062 103.550781 630.5 Z M 121.695312 632.320312 C 122.160156 632.523438 122.597656 632.734375 123.003906 632.957031 C 122.601562 632.734375 122.160156 632.523438 121.695312 632.320312 Z M 110.902344 629.941406 C 111.175781 629.953125 111.445312 629.972656 111.71875 629.992188 C 111.449219 629.972656 111.175781 629.957031 110.902344 629.941406 Z M 112.714844 630.078125 C 113.027344 630.113281 113.339844 630.152344 113.652344 630.191406 C 113.339844 630.152344 113.027344 630.113281 112.714844 630.078125 Z M 114.53125 630.3125 C 115.003906 630.386719 115.472656 630.472656 115.933594 630.5625 C 115.472656 630.472656 115.003906 630.386719 114.53125 630.3125 Z M 116.660156 630.71875 C 117.105469 630.816406 117.550781 630.921875 117.980469 631.039062 C 117.550781 630.921875 117.109375 630.816406 116.660156 630.71875 Z M 118.589844 631.210938 C 118.953125 631.3125 119.304688 631.421875 119.648438 631.535156 C 119.304688 631.421875 118.953125 631.316406 118.589844 631.210938 Z M 120.222656 631.738281 C 120.574219 631.863281 120.910156 631.996094 121.242188 632.132812 C 120.914062 631.996094 120.574219 631.863281 120.222656 631.738281 Z M 129.289062 633.632812 C 129.132812 633.597656 128.984375 633.574219 128.835938 633.597656 C 128.984375 633.574219 129.132812 633.589844 129.289062 633.632812 Z M 198.332031 632.433594 C 198.242188 632.511719 198.132812 632.578125 198.046875 632.65625 C 198.136719 632.578125 198.242188 632.511719 198.332031 632.433594 Z M 182.527344 636.421875 C 182.9375 636.476562 183.371094 636.515625 183.855469 636.515625 C 183.371094 636.515625 182.9375 636.476562 182.527344 636.421875 Z M 178.765625 634.84375 C 178.859375 634.914062 178.953125 634.984375 179.054688 635.054688 C 178.953125 634.984375 178.859375 634.914062 178.765625 634.84375 Z M 179.351562 635.261719 C 179.558594 635.398438 179.78125 635.527344 180.019531 635.652344 C 179.785156 635.53125 179.558594 635.398438 179.351562 635.261719 Z M 180.269531 635.773438 C 180.511719 635.886719 180.765625 635.992188 181.042969 636.085938 C 180.765625 635.992188 180.511719 635.886719 180.269531 635.773438 Z M 181.175781 636.136719 C 181.496094 636.238281 181.855469 636.316406 182.234375 636.378906 C 181.855469 636.3125 181.496094 636.238281 181.175781 636.136719 Z M 197.402344 633.351562 C 197.328125 633.441406 197.234375 633.523438 197.164062 633.613281 C 197.234375 633.523438 197.328125 633.441406 197.402344 633.351562 Z M 201.835938 630.566406 C 201.863281 630.558594 201.890625 630.550781 201.917969 630.542969 C 201.890625 630.550781 201.863281 630.558594 201.835938 630.566406 Z M 199.140625 631.824219 C 199.21875 631.769531 199.308594 631.726562 199.394531 631.675781 C 199.308594 631.726562 199.21875 631.769531 199.140625 631.824219 Z M 200.414062 631.121094 C 200.46875 631.097656 200.53125 631.074219 200.59375 631.046875 C 200.535156 631.074219 200.46875 631.09375 200.414062 631.121094 Z M 540.652344 483.515625 C 540.617188 483.425781 540.597656 483.328125 540.601562 483.226562 C 540.597656 483.328125 540.617188 483.425781 540.652344 483.515625 Z M 540.960938 483.914062 C 540.949219 483.90625 540.9375 483.894531 540.925781 483.886719 C 540.9375 483.898438 540.949219 483.90625 540.960938 483.914062 Z M 540.78125 483.746094 C 540.753906 483.714844 540.734375 483.679688 540.714844 483.640625 C 540.734375 483.679688 540.757812 483.714844 540.78125 483.746094 Z M 146.679688 144.308594 C 147.035156 144.515625 147.390625 144.722656 147.761719 144.90625 C 147.394531 144.722656 147.039062 144.515625 146.679688 144.308594 Z M 160.695312 147.253906 C 160.167969 147.3125 159.636719 147.351562 159.097656 147.371094 C 159.636719 147.351562 160.167969 147.308594 160.695312 147.253906 Z M 129.734375 119.003906 C 129.753906 118.988281 129.769531 118.976562 129.785156 118.964844 C 129.816406 118.933594 129.855469 118.910156 129.886719 118.878906 C 129.835938 118.925781 129.777344 118.96875 129.722656 119.011719 C 129.726562 119.011719 129.734375 119.007812 129.734375 119.003906 Z M 130.542969 118.019531 C 130.582031 117.945312 130.613281 117.867188 130.644531 117.792969 C 130.671875 117.730469 130.703125 117.671875 130.726562 117.609375 C 130.667969 117.757812 130.609375 117.898438 130.535156 118.035156 C 130.539062 118.027344 130.539062 118.023438 130.542969 118.019531 Z M 130.933594 116.730469 C 130.9375 116.691406 130.949219 116.65625 130.953125 116.617188 C 130.949219 116.65625 130.9375 116.691406 130.933594 116.730469 Z M 130.886719 116.96875 C 130.902344 116.890625 130.925781 116.8125 130.933594 116.730469 C 130.914062 116.953125 130.875 117.164062 130.816406 117.371094 C 130.851562 117.242188 130.867188 117.105469 130.886719 116.96875 Z M 130.367188 118.308594 C 130.300781 118.40625 130.226562 118.5 130.152344 118.59375 C 130.226562 118.5 130.300781 118.40625 130.367188 118.308594 Z M 85.953125 303.796875 C 85.800781 304.011719 85.640625 304.21875 85.480469 304.425781 C 85.640625 304.21875 85.800781 304.011719 85.953125 303.796875 Z M 88.351562 299.585938 C 88.253906 299.816406 88.132812 300.035156 88.027344 300.261719 C 88.136719 300.035156 88.253906 299.816406 88.351562 299.585938 Z M 87.265625 301.761719 C 87.128906 302 86.980469 302.230469 86.835938 302.464844 C 86.980469 302.230469 87.128906 302 87.265625 301.761719 Z M 83.957031 306.191406 C 84.109375 306.03125 84.257812 305.863281 84.40625 305.699219 C 84.257812 305.863281 84.109375 306.03125 83.957031 306.191406 Z M 161.546875 147.144531 C 161.765625 147.113281 161.980469 147.085938 162.195312 147.046875 C 161.980469 147.085938 161.765625 147.113281 161.546875 147.144531 Z M 163.316406 146.828125 C 163.40625 146.808594 163.5 146.785156 163.589844 146.765625 C 163.5 146.785156 163.40625 146.804688 163.316406 146.828125 Z M 577.539062 161.457031 C 577.511719 161.425781 577.484375 161.390625 577.453125 161.359375 C 577.484375 161.390625 577.511719 161.425781 577.539062 161.457031 Z M 259.695312 132.101562 C 259.714844 131.867188 259.746094 131.632812 259.773438 131.402344 C 259.746094 131.636719 259.714844 131.867188 259.695312 132.101562 Z M 260.007812 129.859375 C 260.054688 129.609375 260.09375 129.355469 260.144531 129.109375 C 260.09375 129.355469 260.054688 129.609375 260.007812 129.859375 Z M 260.636719 127.203125 C 260.738281 126.863281 260.863281 126.53125 260.980469 126.195312 C 260.863281 126.527344 260.742188 126.863281 260.636719 127.203125 Z M 261.316406 125.285156 C 261.46875 124.894531 261.628906 124.507812 261.800781 124.125 C 261.628906 124.507812 261.46875 124.894531 261.316406 125.285156 Z M 514.066406 131.269531 C 514.097656 131.53125 514.136719 131.792969 514.160156 132.058594 C 514.136719 131.792969 514.097656 131.53125 514.066406 131.269531 Z M 562.429688 155.734375 C 562.429688 155.855469 562.4375 155.984375 562.4375 156.109375 C 562.4375 155.980469 562.429688 155.855469 562.429688 155.734375 Z M 560.183594 154.421875 C 560.246094 154.425781 560.304688 154.425781 560.367188 154.425781 C 561.089844 154.4375 561.792969 154.441406 562.464844 154.445312 C 561.734375 154.441406 560.972656 154.4375 560.183594 154.421875 Z M 550.960938 153.882812 C 551.492188 153.941406 552.027344 154 552.554688 154.046875 C 552.660156 154.058594 552.765625 154.066406 552.875 154.074219 C 553.65625 154.140625 554.425781 154.195312 555.1875 154.242188 C 555.296875 154.25 555.402344 154.253906 555.507812 154.261719 C 555.941406 154.285156 556.363281 154.300781 556.789062 154.316406 C 554.917969 154.238281 552.960938 154.101562 550.960938 153.882812 Z M 549.882812 153.765625 C 549.976562 153.777344 550.070312 153.789062 550.164062 153.800781 C 550.070312 153.789062 549.976562 153.777344 549.882812 153.765625 Z M 547.207031 153.382812 C 547.277344 153.394531 547.34375 153.40625 547.410156 153.414062 C 547.6875 153.460938 547.960938 153.492188 548.234375 153.53125 C 547.894531 153.480469 547.554688 153.4375 547.207031 153.382812 Z M 539.347656 151.425781 C 539.386719 151.441406 539.425781 151.453125 539.464844 151.464844 C 541.125 152.042969 542.847656 152.511719 544.59375 152.886719 C 544.613281 152.890625 544.632812 152.894531 544.652344 152.902344 C 545 152.976562 545.351562 153.03125 545.699219 153.097656 C 543.535156 152.679688 541.394531 152.144531 539.347656 151.425781 Z M 542.964844 207.925781 C 542.941406 207.890625 542.914062 207.851562 542.886719 207.816406 C 542.914062 207.855469 542.941406 207.890625 542.964844 207.925781 Z M 541.363281 204.9375 C 541.335938 204.867188 541.308594 204.796875 541.285156 204.726562 C 541.308594 204.796875 541.335938 204.867188 541.363281 204.9375 Z M 540.800781 203.117188 C 540.773438 203.019531 540.75 202.914062 540.726562 202.8125 C 540.75 202.914062 540.773438 203.015625 540.800781 203.117188 Z M 547.054688 210.941406 C 547.035156 210.929688 547.019531 210.925781 547 210.917969 C 547.019531 210.925781 547.035156 210.933594 547.054688 210.941406 Z M 544.078125 209.140625 C 544.0625 209.128906 544.050781 209.117188 544.035156 209.101562 C 544.050781 209.117188 544.066406 209.128906 544.078125 209.140625 Z M 557.183594 211.101562 C 556.773438 211.230469 556.371094 211.335938 555.96875 211.433594 C 556.371094 211.335938 556.773438 211.230469 557.183594 211.101562 Z M 560.171875 209.914062 C 559.917969 210.035156 559.664062 210.148438 559.410156 210.257812 C 559.664062 210.148438 559.917969 210.035156 560.171875 209.914062 Z M 558.675781 210.566406 C 558.398438 210.679688 558.121094 210.773438 557.84375 210.867188 C 558.125 210.773438 558.398438 210.679688 558.675781 210.566406 Z M 557.75 154.363281 C 557.839844 154.367188 557.929688 154.367188 558.019531 154.371094 C 558.648438 154.390625 559.257812 154.40625 559.859375 154.417969 C 559.171875 154.402344 558.472656 154.386719 557.75 154.363281 Z M 563.082031 208.28125 C 562.859375 208.425781 562.640625 208.570312 562.410156 208.707031 C 562.636719 208.570312 562.859375 208.425781 563.082031 208.28125 Z M 561.648438 209.144531 C 561.40625 209.28125 561.167969 209.410156 560.925781 209.535156 C 561.167969 209.410156 561.40625 209.28125 561.648438 209.144531 Z M 562.511719 157.378906 C 562.519531 157.480469 562.523438 157.585938 562.535156 157.691406 C 562.648438 158.828125 562.855469 160.070312 563.171875 161.351562 C 562.824219 159.949219 562.613281 158.597656 562.511719 157.378906 Z M 563.226562 161.582031 C 563.402344 162.265625 563.613281 162.957031 563.863281 163.644531 C 563.601562 162.917969 563.382812 162.191406 563.195312 161.472656 C 563.207031 161.507812 563.214844 161.542969 563.226562 161.582031 Z M 537.019531 150.507812 C 536.007812 150.0625 535.035156 149.558594 534.101562 149.007812 C 534.21875 149.074219 534.320312 149.152344 534.4375 149.21875 C 534.511719 149.261719 534.585938 149.304688 534.664062 149.34375 C 535.359375 149.730469 536.082031 150.089844 536.820312 150.421875 C 536.886719 150.449219 536.953125 150.476562 537.019531 150.507812 Z M 530.253906 146.1875 C 530.308594 146.238281 530.359375 146.289062 530.417969 146.339844 C 530.992188 146.863281 531.601562 147.351562 532.238281 147.8125 C 532.308594 147.863281 532.375 147.914062 532.445312 147.960938 C 531.664062 147.410156 530.921875 146.808594 530.226562 146.160156 C 530.234375 146.167969 530.242188 146.179688 530.253906 146.1875 Z M 526.804688 193.285156 C 529.070312 196.054688 532.039062 198.316406 535.59375 199.738281 C 537.125 200.347656 538.683594 200.75 540.246094 201.003906 L 541.121094 211.941406 C 536.667969 212.324219 531.921875 212.9375 526.804688 213.789062 Z M 537.359375 330.726562 C 536.984375 330.527344 536.613281 330.316406 536.25 330.101562 C 536.613281 330.320312 536.988281 330.527344 537.359375 330.726562 Z M 542.984375 332.917969 C 542.390625 332.765625 541.808594 332.597656 541.234375 332.40625 C 541.808594 332.597656 542.390625 332.765625 542.984375 332.917969 Z M 540.074219 331.972656 C 539.667969 331.816406 539.269531 331.644531 538.871094 331.464844 C 539.269531 331.644531 539.667969 331.816406 540.074219 331.972656 Z M 544.355469 333.242188 C 544.289062 333.226562 544.222656 333.207031 544.152344 333.191406 C 544.21875 333.207031 544.289062 333.214844 544.355469 333.226562 C 544.355469 333.234375 544.355469 333.238281 544.355469 333.242188 Z M 533.710938 328.40625 C 534.117188 328.714844 534.535156 329.007812 534.960938 329.289062 C 534.535156 329.007812 534.117188 328.714844 533.710938 328.40625 Z M 546.015625 333.511719 C 546.042969 333.515625 546.074219 333.523438 546.101562 333.527344 C 546.074219 333.523438 546.042969 333.523438 546.015625 333.515625 C 546.015625 333.515625 546.015625 333.515625 546.015625 333.511719 Z M 549.644531 333.777344 C 548.785156 333.777344 547.949219 333.714844 547.128906 333.636719 C 547.953125 333.710938 548.785156 333.777344 549.644531 333.777344 Z M 553.636719 333.53125 C 553.328125 333.566406 553.027344 333.609375 552.714844 333.636719 C 553.027344 333.609375 553.332031 333.566406 553.636719 333.53125 Z M 565.402344 329.871094 C 565.167969 330 564.933594 330.132812 564.695312 330.253906 C 564.933594 330.132812 565.167969 329.996094 565.402344 329.871094 Z M 559.488281 332.351562 C 559.214844 332.433594 558.9375 332.5 558.660156 332.578125 C 558.9375 332.5 559.214844 332.433594 559.488281 332.351562 Z M 556.683594 333.054688 C 556.355469 333.121094 556.027344 333.183594 555.695312 333.242188 C 556.027344 333.183594 556.355469 333.121094 556.683594 333.054688 Z M 563.847656 207.777344 C 564.050781 207.636719 564.246094 207.484375 564.441406 207.335938 C 564.242188 207.484375 564.050781 207.632812 563.847656 207.777344 Z M 565.21875 206.75 C 565.289062 206.695312 565.351562 206.632812 565.417969 206.578125 C 565.351562 206.632812 565.289062 206.695312 565.21875 206.75 Z M 567.179688 204.964844 C 567.300781 204.835938 567.433594 204.714844 567.550781 204.585938 C 567.433594 204.714844 567.300781 204.835938 567.179688 204.964844 Z M 567.90625 328.375 C 567.660156 328.539062 567.410156 328.699219 567.15625 328.855469 C 567.410156 328.695312 567.660156 328.535156 567.90625 328.375 Z M 563.917969 163.773438 C 564.15625 164.417969 564.417969 165.054688 564.722656 165.679688 C 564.417969 165.054688 564.15625 164.417969 563.917969 163.773438 Z M 565.066406 166.28125 C 565.3125 166.738281 565.546875 167.191406 565.835938 167.625 C 565.546875 167.191406 565.3125 166.734375 565.066406 166.28125 Z M 510.554688 121.320312 C 510.246094 120.824219 509.925781 120.335938 509.585938 119.859375 C 509.925781 120.335938 510.246094 120.820312 510.554688 121.320312 Z M 513.847656 129.839844 C 513.789062 129.519531 513.722656 129.199219 513.652344 128.878906 C 513.722656 129.199219 513.789062 129.519531 513.847656 129.839844 Z M 513.359375 127.738281 C 513.257812 127.378906 513.167969 127.019531 513.050781 126.667969 C 513.164062 127.019531 513.257812 127.378906 513.359375 127.738281 Z M 512.835938 126.078125 C 512.492188 125.113281 512.097656 124.171875 511.644531 123.269531 C 512.097656 124.175781 512.492188 125.113281 512.835938 126.078125 Z M 511.539062 123.050781 C 511.277344 122.546875 511 122.058594 510.710938 121.574219 C 511 122.058594 511.28125 122.546875 511.539062 123.050781 Z M 263.542969 120.925781 C 263 121.769531 262.515625 122.652344 262.074219 123.5625 C 262.515625 122.652344 263 121.769531 263.542969 120.925781 Z M 500.125 613.769531 L 499.710938 613.769531 C 500.109375 612.777344 500.359375 612.171875 500.371094 612.175781 C 500.703125 612.28125 500.949219 612.582031 500.949219 612.949219 C 500.949219 613.402344 500.578125 613.769531 500.125 613.769531 Z M 532.777344 327.691406 C 532.273438 327.285156 531.777344 326.859375 531.292969 326.414062 C 531.777344 326.859375 532.273438 327.28125 532.777344 327.691406 Z M 530.445312 325.609375 C 530 325.175781 529.558594 324.730469 529.128906 324.261719 C 529.558594 324.726562 530 325.175781 530.445312 325.609375 Z M 528.277344 323.304688 C 527.921875 322.898438 527.574219 322.476562 527.230469 322.050781 C 527.574219 322.476562 527.921875 322.898438 528.277344 323.304688 Z M 569.621094 327.164062 C 569.816406 327.015625 570.015625 326.878906 570.210938 326.726562 C 570.015625 326.878906 569.816406 327.015625 569.621094 327.164062 Z M 574.511719 322.824219 C 574.675781 322.652344 574.835938 322.472656 575 322.296875 C 574.835938 322.472656 574.675781 322.652344 574.511719 322.824219 Z M 598.550781 339.9375 C 598.53125 339.910156 598.519531 339.878906 598.5 339.851562 C 598.515625 339.878906 598.53125 339.910156 598.550781 339.9375 Z M 598.316406 336.910156 C 598.316406 336.910156 598.316406 336.90625 598.320312 336.90625 C 598.316406 336.90625 598.316406 336.910156 598.316406 336.910156 Z M 594.398438 330.269531 C 594.460938 330.203125 594.515625 330.144531 594.574219 330.082031 C 594.515625 330.144531 594.460938 330.203125 594.398438 330.269531 Z M 594.972656 329.664062 C 595.027344 329.605469 595.078125 329.550781 595.132812 329.492188 C 595.078125 329.550781 595.03125 329.605469 594.972656 329.664062 Z M 595.464844 329.128906 C 595.507812 329.078125 595.550781 329.03125 595.59375 328.980469 C 595.550781 329.03125 595.507812 329.074219 595.464844 329.128906 Z M 596.253906 328.195312 C 596.269531 328.179688 596.28125 328.164062 596.292969 328.148438 C 596.28125 328.164062 596.269531 328.179688 596.253906 328.195312 Z M 595.882812 328.648438 C 595.917969 328.609375 595.945312 328.574219 595.976562 328.535156 C 595.945312 328.574219 595.917969 328.605469 595.882812 328.648438 Z M 592.613281 326.484375 C 592.6875 326.449219 592.761719 326.417969 592.835938 326.378906 C 592.761719 326.414062 592.6875 326.449219 592.613281 326.484375 Z M 593.636719 326.003906 C 593.652344 325.996094 593.667969 325.988281 593.6875 325.980469 C 593.671875 325.988281 593.652344 325.996094 593.636719 326.003906 Z M 598.761719 340.214844 C 598.796875 340.253906 598.828125 340.296875 598.863281 340.335938 C 598.828125 340.296875 598.796875 340.253906 598.761719 340.214844 Z M 599.238281 340.671875 C 599.1875 340.632812 599.136719 340.589844 599.085938 340.546875 C 599.136719 340.589844 599.183594 340.632812 599.238281 340.671875 Z M 607.417969 341.394531 C 607.335938 341.257812 607.261719 341.113281 607.203125 340.964844 C 607.261719 341.113281 607.335938 341.257812 607.417969 341.394531 Z M 615.015625 318.113281 C 615.078125 318.15625 615.136719 318.199219 615.195312 318.246094 C 615.136719 318.199219 615.074219 318.15625 615.015625 318.113281 Z M 610.835938 315.410156 C 610.871094 315.429688 610.902344 315.449219 610.9375 315.464844 C 610.902344 315.449219 610.867188 315.429688 610.835938 315.410156 Z M 613.71875 317.175781 C 613.785156 317.222656 613.847656 317.269531 613.914062 317.3125 C 613.851562 317.269531 613.785156 317.222656 613.71875 317.175781 Z M 585.785156 305.863281 C 585.851562 305.726562 585.921875 305.59375 585.984375 305.457031 C 585.917969 305.59375 585.851562 305.726562 585.785156 305.863281 Z M 576.53125 320.570312 C 576.707031 320.363281 576.878906 320.152344 577.054688 319.941406 C 576.878906 320.152344 576.707031 320.363281 576.53125 320.570312 Z M 578.570312 317.996094 C 578.6875 317.835938 578.8125 317.679688 578.929688 317.519531 C 578.8125 317.679688 578.6875 317.835938 578.570312 317.996094 Z M 582.472656 312.09375 C 582.574219 311.917969 582.675781 311.738281 582.777344 311.5625 C 582.675781 311.738281 582.574219 311.917969 582.472656 312.09375 Z M 584.117188 309.152344 C 584.230469 308.9375 584.347656 308.71875 584.460938 308.503906 C 584.34375 308.71875 584.230469 308.9375 584.117188 309.152344 Z M 568.597656 203.359375 C 568.476562 203.515625 568.34375 203.667969 568.214844 203.824219 C 568.34375 203.667969 568.472656 203.515625 568.597656 203.359375 Z M 571.144531 198.164062 C 571.121094 198.28125 571.109375 198.402344 571.078125 198.519531 C 571.109375 198.402344 571.121094 198.28125 571.144531 198.164062 Z M 570.792969 199.429688 C 570.738281 199.589844 570.6875 199.75 570.625 199.910156 C 570.6875 199.75 570.738281 199.589844 570.792969 199.429688 Z M 570.238281 200.765625 C 570.15625 200.933594 570.074219 201.101562 569.984375 201.265625 C 570.074219 201.097656 570.15625 200.933594 570.238281 200.765625 Z M 569.496094 202.082031 C 569.390625 202.25 569.28125 202.410156 569.167969 202.574219 C 569.28125 202.410156 569.390625 202.25 569.496094 202.082031 Z M 575.921875 160.101562 C 575.847656 160.054688 575.773438 160.015625 575.699219 159.976562 C 575.773438 160.015625 575.847656 160.054688 575.921875 160.101562 Z M 575.046875 159.664062 C 574.960938 159.628906 574.878906 159.59375 574.792969 159.5625 C 574.878906 159.59375 574.960938 159.628906 575.046875 159.664062 Z M 578.132812 162.210938 C 578.152344 162.238281 578.171875 162.265625 578.191406 162.296875 C 578.171875 162.265625 578.152344 162.238281 578.132812 162.210938 Z M 517.226562 66.320312 C 519.75 61.957031 523.816406 58.597656 528.578125 56.9375 C 551.203125 49.0625 570.21875 72.070312 558.226562 92.808594 C 555.703125 97.175781 551.636719 100.535156 546.875 102.191406 C 524.246094 110.070312 505.230469 87.058594 517.226562 66.320312 Z M 339.757812 116.453125 C 339.84375 116.890625 340.007812 117.292969 340.203125 117.675781 C 340.007812 117.292969 339.84375 116.890625 339.757812 116.453125 Z M 340.832031 118.621094 C 341.035156 118.863281 341.257812 119.085938 341.503906 119.28125 C 341.257812 119.085938 341.03125 118.863281 340.832031 118.621094 Z M 342.128906 119.714844 C 342.859375 120.140625 343.691406 120.402344 344.59375 120.402344 C 345.5 120.402344 346.335938 120.140625 347.0625 119.714844 C 346.332031 120.140625 345.5 120.402344 344.59375 120.402344 C 343.691406 120.402344 342.859375 120.140625 342.128906 119.714844 Z M 359.5 113.289062 L 432.121094 113.289062 C 432.910156 113.289062 433.582031 113.765625 433.871094 114.449219 C 433.582031 113.765625 432.90625 113.289062 432.121094 113.289062 L 359.5 113.289062 C 358.714844 113.289062 358.039062 113.765625 357.753906 114.449219 C 358.039062 113.765625 358.714844 113.289062 359.5 113.289062 Z M 349.539062 115.457031 C 349.539062 115.800781 349.503906 116.132812 349.4375 116.453125 C 349.304688 117.097656 349.050781 117.695312 348.695312 118.222656 C 348.417969 118.628906 348.070312 118.976562 347.691406 119.28125 C 348.070312 118.976562 348.417969 118.628906 348.695312 118.222656 C 349.050781 117.695312 349.304688 117.097656 349.4375 116.453125 C 349.503906 116.132812 349.539062 115.800781 349.539062 115.457031 C 349.539062 115.117188 349.503906 114.785156 349.4375 114.464844 C 349.328125 113.933594 349.117188 113.445312 348.855469 112.992188 C 349.117188 113.445312 349.332031 113.933594 349.4375 114.464844 C 349.503906 114.785156 349.539062 115.117188 349.539062 115.457031 Z M 124.84375 100.652344 C 124.808594 100.664062 124.777344 100.679688 124.742188 100.691406 C 124.777344 100.679688 124.808594 100.664062 124.84375 100.652344 Z M 126.160156 100.320312 C 126.097656 100.328125 126.035156 100.332031 125.972656 100.34375 C 126.035156 100.332031 126.097656 100.328125 126.160156 100.320312 Z M 71.328125 227.25 C 71.289062 227.316406 71.25 227.382812 71.214844 227.449219 C 71.25 227.382812 71.289062 227.316406 71.328125 227.25 Z M 70.816406 228.324219 Z M 70.589844 229.253906 C 70.574219 229.332031 70.5625 229.410156 70.550781 229.488281 C 70.5625 229.410156 70.574219 229.332031 70.589844 229.253906 Z M 63.957031 254.339844 L 64.027344 254.214844 L 66.753906 249.488281 Z M 82.582031 307.496094 C 82.480469 307.585938 82.378906 307.683594 82.273438 307.773438 C 82.378906 307.683594 82.480469 307.585938 82.582031 307.496094 Z M 82.773438 323.070312 C 82.222656 322.910156 81.695312 322.699219 81.195312 322.449219 C 81.695312 322.699219 82.222656 322.910156 82.773438 323.070312 Z M 138.792969 389.996094 C 138.796875 389.996094 138.800781 389.996094 138.804688 389.996094 C 139.253906 389.996094 139.621094 389.628906 139.628906 389.179688 L 139.996094 356.164062 L 139.773438 376.261719 L 149.621094 447.371094 L 137.578125 447.371094 Z M 208.269531 159.453125 C 201.164062 156.867188 192.972656 155.085938 181.140625 153.703125 C 175.519531 153.261719 170.011719 152.996094 164.667969 152.871094 L 164.871094 146.433594 C 165.234375 146.324219 165.601562 146.222656 165.957031 146.101562 C 169.570312 144.851562 172.804688 142.742188 175.390625 140 C 175.792969 139.578125 176.171875 139.128906 176.535156 138.671875 C 177.121094 137.953125 177.675781 137.210938 178.175781 136.425781 C 180.207031 133.21875 181.492188 129.476562 181.765625 125.421875 C 181.761719 125.449219 181.757812 125.476562 181.753906 125.507812 C 181.757812 125.476562 181.765625 125.453125 181.765625 125.421875 L 182.066406 120.921875 L 249.554688 120.921875 C 247.949219 125.09375 247.058594 129.621094 247.058594 134.359375 L 247.058594 196.132812 L 218.773438 165.425781 C 215.726562 162.464844 212.097656 160.484375 208.269531 159.453125 Z M 526.804688 529.171875 L 541.179688 484.023438 C 541.242188 484.042969 541.308594 484.066406 541.378906 484.066406 L 526.804688 628.804688 Z M 599.46875 340.832031 C 599.53125 340.871094 599.597656 340.914062 599.664062 340.945312 C 599.597656 340.910156 599.53125 340.871094 599.46875 340.832031 Z M 599.898438 341.058594 C 599.976562 341.089844 600.058594 341.117188 600.136719 341.144531 C 600.054688 341.117188 599.976562 341.089844 599.898438 341.058594 Z M 600.375 341.210938 C 600.464844 341.234375 600.558594 341.246094 600.648438 341.257812 C 600.558594 341.246094 600.464844 341.230469 600.375 341.210938 Z M 600.886719 341.285156 C 600.988281 341.289062 601.089844 341.285156 601.195312 341.28125 C 601.089844 341.285156 600.988281 341.289062 600.886719 341.285156 Z M 602.558594 340.929688 C 602.75 340.835938 602.941406 340.722656 603.136719 340.59375 C 602.941406 340.722656 602.75 340.835938 602.558594 340.929688 Z M 601.425781 341.265625 C 601.539062 341.253906 601.652344 341.226562 601.765625 341.199219 C 601.652344 341.226562 601.539062 341.253906 601.425781 341.265625 Z M 601.988281 341.152344 C 602.113281 341.113281 602.242188 341.058594 602.371094 341.003906 C 602.242188 341.058594 602.113281 341.113281 601.988281 341.152344 Z M 607.261719 338.78125 C 607.1875 338.953125 607.132812 339.125 607.09375 339.300781 C 607.132812 339.125 607.1875 338.953125 607.261719 338.78125 Z M 607.0625 339.46875 C 607.042969 339.585938 607.027344 339.703125 607.023438 339.820312 C 607.027344 339.703125 607.042969 339.585938 607.0625 339.46875 Z M 607.023438 340.003906 C 607.023438 340.113281 607.03125 340.226562 607.046875 340.335938 C 607.03125 340.226562 607.023438 340.117188 607.023438 340.003906 Z M 607.175781 340.875 C 607.132812 340.753906 607.097656 340.628906 607.070312 340.5 C 607.097656 340.628906 607.132812 340.753906 607.175781 340.875 Z M 607.488281 341.496094 C 607.550781 341.589844 607.621094 341.683594 607.699219 341.773438 C 607.621094 341.6875 607.550781 341.59375 607.488281 341.496094 Z M 607.808594 341.894531 C 607.882812 341.96875 607.960938 342.042969 608.042969 342.109375 C 607.960938 342.042969 607.882812 341.96875 607.808594 341.894531 Z M 608.171875 342.210938 C 608.265625 342.277344 608.367188 342.339844 608.46875 342.394531 C 608.367188 342.335938 608.265625 342.277344 608.171875 342.210938 Z M 608.578125 342.457031 C 608.722656 342.523438 608.871094 342.582031 609.027344 342.625 C 608.871094 342.582031 608.722656 342.523438 608.578125 342.457031 Z M 609.113281 342.640625 C 609.242188 342.667969 609.375 342.691406 609.507812 342.703125 C 609.375 342.691406 609.242188 342.667969 609.113281 342.640625 Z M 609.675781 342.707031 C 609.789062 342.707031 609.90625 342.703125 610.023438 342.6875 C 609.90625 342.703125 609.789062 342.707031 609.675781 342.707031 Z M 610.746094 342.511719 C 610.925781 342.445312 611.105469 342.363281 611.289062 342.253906 C 611.457031 342.152344 611.671875 342.035156 611.910156 341.914062 C 611.671875 342.035156 611.457031 342.152344 611.289062 342.253906 C 611.105469 342.363281 610.925781 342.445312 610.746094 342.511719 Z M 610.210938 342.660156 C 610.332031 342.640625 610.453125 342.605469 610.578125 342.566406 C 610.453125 342.605469 610.332031 342.640625 610.210938 342.660156 Z M 614.410156 340.699219 C 614.457031 340.679688 614.503906 340.65625 614.546875 340.636719 C 614.503906 340.65625 614.457031 340.679688 614.410156 340.699219 Z M 612.101562 341.816406 C 612.335938 341.695312 612.585938 341.570312 612.867188 341.433594 C 612.585938 341.570312 612.335938 341.695312 612.101562 341.816406 Z M 612.914062 341.410156 C 613.21875 341.261719 613.554688 341.101562 613.902344 340.941406 C 613.554688 341.105469 613.21875 341.261719 612.914062 341.410156 Z M 616.3125 319.15625 C 616.375 319.210938 616.4375 319.265625 616.5 319.324219 C 616.4375 319.265625 616.378906 319.210938 616.3125 319.15625 Z M 617.300781 320.0625 C 617.382812 320.144531 617.464844 320.222656 617.542969 320.304688 C 617.460938 320.222656 617.378906 320.144531 617.300781 320.0625 Z M 624.019531 332.042969 C 624.019531 331.980469 624.015625 331.917969 624.011719 331.855469 C 624.015625 331.917969 624.019531 331.980469 624.019531 332.042969 Z M 618.347656 321.179688 C 618.515625 321.382812 618.695312 321.597656 618.878906 321.820312 C 618.695312 321.597656 618.515625 321.382812 618.347656 321.179688 Z M 619.089844 322.082031 C 619.203125 322.222656 619.316406 322.367188 619.433594 322.511719 C 619.316406 322.367188 619.203125 322.222656 619.089844 322.082031 Z M 619.71875 322.878906 C 619.8125 323 619.910156 323.125 620.007812 323.25 C 619.910156 323.125 619.8125 323 619.71875 322.878906 Z M 620.335938 323.691406 C 620.410156 323.792969 620.484375 323.894531 620.5625 323.996094 C 620.484375 323.894531 620.410156 323.789062 620.335938 323.691406 Z M 621.898438 326.003906 C 621.921875 326.035156 621.941406 326.070312 621.964844 326.105469 C 621.941406 326.070312 621.921875 326.035156 621.898438 326.003906 Z M 622.351562 326.78125 C 622.386719 326.84375 622.421875 326.910156 622.457031 326.976562 C 622.421875 326.910156 622.386719 326.847656 622.351562 326.78125 Z M 624 332.726562 C 623.996094 332.789062 623.984375 332.847656 623.980469 332.910156 C 623.984375 332.851562 623.996094 332.789062 624 332.726562 Z M 622.808594 327.660156 C 622.839844 327.71875 622.867188 327.78125 622.894531 327.839844 C 622.867188 327.78125 622.839844 327.71875 622.808594 327.660156 Z M 623.222656 328.574219 C 623.226562 328.582031 623.226562 328.585938 623.230469 328.59375 C 623.226562 328.585938 623.226562 328.582031 623.222656 328.574219 Z M 623.933594 331.054688 C 623.9375 331.082031 623.945312 331.113281 623.949219 331.140625 C 623.945312 331.113281 623.9375 331.082031 623.933594 331.054688 Z M 607.890625 314.015625 C 606.226562 313.351562 604.640625 312.941406 603.332031 312.945312 C 602.46875 312.949219 601.707031 313.058594 601.003906 313.207031 C 597.148438 308.832031 592.585938 305.09375 587.480469 302.191406 C 592.214844 291.375 595.765625 278.757812 598.828125 265.980469 C 599.042969 265.941406 599.25 265.835938 599.378906 265.636719 L 630.769531 285.769531 Z M 607.890625 314.015625 " fill-opacity="1" fill-rule="nonzero"/></g><path fill="#ab3a3a" d="M 271.128906 160.183594 L 499.886719 160.183594 L 499.886719 562.773438 L 271.128906 562.773438 Z M 271.128906 160.183594 " fill-opacity="1" fill-rule="evenodd"/><g clip-path="url(#3202f46c2e)"><path fill="#eae5d9" d="M 599.039062 78.734375 L 589.367188 73.691406 C 584.191406 70.996094 582.480469 64.417969 585.6875 59.542969 L 591.6875 50.421875 C 596.78125 42.679688 589.335938 32.828125 580.496094 35.617188 L 570.089844 38.898438 C 564.523438 40.652344 558.660156 37.210938 557.480469 31.496094 L 555.277344 20.796875 C 553.40625 11.71875 541.175781 10.019531 536.894531 18.238281 L 531.855469 27.925781 C 529.164062 33.101562 522.585938 34.8125 517.710938 31.609375 L 508.570312 25.597656 C 500.828125 20.507812 490.980469 27.957031 493.769531 36.792969 L 497.058594 47.199219 C 498.816406 52.765625 495.375 58.632812 489.65625 59.8125 L 478.953125 62.015625 C 469.878906 63.886719 468.175781 76.117188 476.398438 80.394531 L 486.082031 85.433594 C 491.261719 88.128906 492.972656 94.710938 489.765625 99.589844 L 483.761719 108.710938 C 483.59375 108.96875 483.476562 109.230469 483.335938 109.488281 L 459.457031 109.488281 C 458.25 109.488281 457.273438 110.464844 457.273438 111.671875 L 457.273438 114.988281 C 457.273438 123.523438 450.351562 130.441406 441.816406 130.441406 L 332.046875 130.441406 C 323.511719 130.441406 316.589844 123.523438 316.589844 114.984375 L 316.589844 111.671875 C 316.589844 110.464844 315.613281 109.488281 314.402344 109.488281 L 287.410156 109.488281 C 287.488281 108.914062 287.539062 108.332031 287.539062 107.738281 L 287.746094 57.589844 C 287.746094 50.308594 281.84375 44.402344 274.558594 44.402344 L 157.605469 44.402344 C 150.320312 44.402344 144.414062 50.308594 144.414062 57.589844 L 144.207031 107.738281 C 144.207031 115.019531 150.113281 120.925781 157.394531 120.925781 L 263.542969 120.925781 C 261.046875 124.800781 259.582031 129.40625 259.582031 134.359375 L 259.582031 635.257812 C 259.582031 648.996094 270.71875 660.136719 284.457031 660.136719 L 489.402344 660.136719 C 503.140625 660.136719 514.277344 648.996094 514.277344 635.257812 L 514.277344 134.359375 C 514.277344 128.945312 512.527344 123.945312 509.585938 119.859375 C 513.605469 120.386719 517.085938 123.378906 517.964844 127.636719 L 520.175781 138.324219 C 522.050781 147.394531 534.277344 149.09375 538.558594 140.878906 L 543.597656 131.203125 C 546.292969 126.03125 552.871094 124.320312 557.746094 127.527344 L 566.863281 133.523438 C 574.605469 138.617188 584.457031 131.175781 581.671875 122.335938 L 578.394531 111.933594 C 576.640625 106.367188 580.082031 100.503906 585.796875 99.324219 L 596.480469 97.113281 C 605.554688 95.242188 607.257812 83.011719 599.039062 78.734375 Z M 490.460938 174.144531 L 490.5 282.175781 L 280.179688 282.253906 L 280.140625 174.226562 Z M 340.574219 612.480469 C 335.503906 612.480469 331.390625 608.367188 331.390625 603.292969 C 331.390625 598.222656 335.503906 594.109375 340.574219 594.109375 C 345.648438 594.109375 349.761719 598.222656 349.761719 603.292969 C 349.761719 608.367188 345.648438 612.480469 340.574219 612.480469 Z M 391.773438 617.1875 C 384.097656 617.1875 377.878906 610.96875 377.878906 603.292969 C 377.878906 595.621094 384.097656 589.402344 391.773438 589.402344 C 399.445312 589.402344 405.664062 595.621094 405.664062 603.292969 C 405.664062 610.96875 399.445312 617.1875 391.773438 617.1875 Z M 424.183594 518.125 L 278.554688 518.125 L 278.554688 365.34375 L 424.183594 365.34375 Z M 442.96875 612.480469 C 437.894531 612.480469 433.785156 608.367188 433.785156 603.292969 C 433.785156 598.222656 437.894531 594.109375 442.96875 594.109375 C 448.039062 594.109375 452.152344 598.222656 452.152344 603.292969 C 452.152344 608.367188 448.039062 612.480469 442.96875 612.480469 Z M 478.914062 518.125 L 441.535156 518.125 L 441.535156 365.34375 L 478.914062 365.34375 Z M 280.179688 346.285156 L 280.175781 332.921875 L 490.496094 332.84375 L 490.5 346.207031 Z M 280.179688 314.269531 L 280.175781 300.90625 L 490.496094 300.828125 L 490.5 314.191406 Z M 558.226562 92.808594 C 555.703125 97.175781 551.636719 100.535156 546.875 102.191406 C 524.246094 110.070312 505.230469 87.058594 517.222656 66.320312 C 519.75 61.957031 523.816406 58.597656 528.578125 56.9375 C 551.203125 49.0625 570.21875 72.070312 558.226562 92.808594 Z M 385.46875 51.011719 L 392.242188 53.757812 C 395.863281 55.226562 397.421875 59.5 395.589844 62.957031 L 392.167969 69.414062 C 389.265625 74.898438 394.851562 80.992188 400.566406 78.574219 L 407.28125 75.726562 C 410.882812 74.203125 415.011719 76.125 416.160156 79.863281 L 418.308594 86.84375 C 420.132812 92.769531 428.386719 93.128906 430.71875 87.382812 L 433.464844 80.617188 C 434.9375 76.996094 439.210938 75.441406 442.664062 77.269531 L 449.117188 80.6875 C 454.597656 83.59375 460.691406 78.007812 458.277344 72.296875 L 455.433594 65.570312 C 453.914062 61.972656 455.835938 57.847656 459.570312 56.699219 L 466.550781 54.550781 C 472.476562 52.726562 472.835938 44.472656 467.089844 42.136719 L 460.324219 39.390625 C 456.707031 37.921875 455.148438 33.648438 456.976562 30.195312 L 460.398438 23.738281 C 463.300781 18.257812 457.71875 12.164062 452.003906 14.578125 L 445.273438 17.425781 C 441.675781 18.945312 437.550781 17.023438 436.40625 13.289062 L 434.257812 6.300781 C 432.4375 0.367188 424.175781 0.0078125 421.847656 5.757812 L 419.101562 12.53125 C 417.636719 16.152344 413.359375 17.710938 409.910156 15.878906 L 403.4375 12.453125 C 397.957031 9.550781 391.867188 15.140625 394.285156 20.851562 L 397.136719 27.578125 C 398.660156 31.175781 396.734375 35.304688 393 36.453125 L 386.007812 38.597656 C 380.082031 40.421875 379.71875 48.683594 385.46875 51.011719 Z M 411.785156 39.046875 C 413.191406 35.980469 415.6875 33.484375 418.757812 32.078125 C 433.335938 25.398438 447.464844 39.523438 440.785156 54.105469 C 439.378906 57.171875 436.882812 59.667969 433.8125 61.078125 C 419.234375 67.757812 405.105469 53.628906 411.785156 39.046875 Z M 170.710938 460.558594 L 170.710938 559.375 C 170.710938 566.660156 164.808594 572.566406 157.523438 572.566406 L 13.773438 573.886719 C 6.488281 573.886719 0.582031 566.660156 0.582031 559.375 L 0.582031 460.558594 C 0.582031 453.273438 6.488281 447.371094 13.773438 447.371094 L 157.523438 447.371094 C 164.808594 447.371094 170.710938 453.273438 170.710938 460.558594 Z M 541.425781 484.074219 C 541.417969 484.074219 541.410156 484.074219 541.398438 484.074219 C 540.945312 484.058594 540.585938 483.679688 540.601562 483.222656 L 544.132812 369.449219 L 531.628906 354.859375 C 531.332031 354.515625 531.375 353.996094 531.71875 353.699219 C 532.0625 353.40625 532.582031 353.449219 532.878906 353.792969 L 545.589844 368.621094 C 545.726562 368.777344 545.796875 368.976562 545.789062 369.183594 L 542.25 483.277344 C 542.234375 483.722656 541.867188 484.074219 541.425781 484.074219 Z M 600.441406 612.949219 C 600.441406 612.492188 600.074219 612.125 599.617188 612.125 L 533.808594 612.125 C 533.355469 612.125 532.988281 612.492188 532.988281 612.949219 C 532.988281 613.402344 533.355469 613.769531 533.808594 613.769531 L 599.617188 613.769531 C 600.074219 613.769531 600.441406 613.402344 600.441406 612.949219 Z M 500.949219 612.949219 C 500.949219 612.492188 500.578125 612.125 500.125 612.125 L 425.5625 612.125 C 425.109375 612.125 424.738281 612.492188 424.738281 612.949219 C 424.738281 613.402344 425.109375 613.769531 425.5625 613.769531 L 500.125 613.769531 C 500.578125 613.769531 500.949219 613.402344 500.949219 612.949219 Z M 139.628906 389.179688 L 139.996094 356.164062 L 153.414062 352.582031 C 153.851562 352.46875 154.113281 352.015625 153.996094 351.578125 C 153.878906 351.140625 153.433594 350.878906 152.988281 350.996094 L 138.964844 354.734375 C 138.609375 354.832031 138.359375 355.152344 138.355469 355.519531 L 137.980469 389.160156 C 137.976562 389.617188 138.34375 389.988281 138.792969 389.996094 C 138.796875 389.996094 138.800781 389.996094 138.804688 389.996094 C 139.253906 389.996094 139.621094 389.632812 139.628906 389.179688 Z M 139.628906 389.179688 " fill-opacity="1" fill-rule="evenodd"/></g><path fill="#eae5d9" d="M 379.582031 491 L 297.097656 491 C 295.738281 491 294.632812 492.105469 294.632812 493.46875 C 294.632812 494.832031 295.738281 495.9375 297.097656 495.9375 L 379.582031 495.9375 C 380.945312 495.9375 382.050781 494.832031 382.050781 493.46875 C 382.050781 492.105469 380.945312 491 379.582031 491 Z M 379.582031 491 " fill-opacity="1" fill-rule="evenodd"/><path fill="#eae5d9" d="M 349.539062 115.457031 C 349.539062 115.785156 349.507812 116.105469 349.445312 116.421875 C 349.378906 116.742188 349.285156 117.050781 349.164062 117.351562 C 349.039062 117.648438 348.886719 117.933594 348.707031 118.203125 C 348.527344 118.472656 348.320312 118.722656 348.089844 118.953125 C 347.863281 119.183594 347.613281 119.386719 347.34375 119.566406 C 347.074219 119.746094 346.789062 119.898438 346.488281 120.023438 C 346.1875 120.148438 345.878906 120.242188 345.5625 120.304688 C 345.242188 120.367188 344.921875 120.402344 344.597656 120.402344 C 344.273438 120.402344 343.953125 120.367188 343.632812 120.304688 C 343.316406 120.242188 343.003906 120.148438 342.707031 120.023438 C 342.40625 119.898438 342.121094 119.746094 341.851562 119.566406 C 341.582031 119.386719 341.332031 119.183594 341.101562 118.953125 C 340.875 118.722656 340.667969 118.472656 340.488281 118.203125 C 340.308594 117.933594 340.15625 117.648438 340.03125 117.351562 C 339.90625 117.050781 339.8125 116.742188 339.75 116.421875 C 339.6875 116.105469 339.65625 115.785156 339.65625 115.457031 C 339.65625 115.132812 339.6875 114.8125 339.75 114.496094 C 339.8125 114.175781 339.90625 113.867188 340.03125 113.566406 C 340.15625 113.269531 340.308594 112.984375 340.488281 112.714844 C 340.667969 112.445312 340.875 112.195312 341.101562 111.964844 C 341.332031 111.734375 341.582031 111.53125 341.851562 111.351562 C 342.121094 111.171875 342.40625 111.019531 342.707031 110.894531 C 343.003906 110.769531 343.316406 110.675781 343.632812 110.613281 C 343.953125 110.550781 344.273438 110.515625 344.597656 110.515625 C 344.921875 110.515625 345.242188 110.550781 345.5625 110.613281 C 345.878906 110.675781 346.1875 110.769531 346.488281 110.894531 C 346.789062 111.019531 347.074219 111.171875 347.34375 111.351562 C 347.613281 111.53125 347.863281 111.734375 348.089844 111.964844 C 348.320312 112.195312 348.527344 112.445312 348.707031 112.714844 C 348.886719 112.984375 349.039062 113.269531 349.164062 113.566406 C 349.285156 113.867188 349.378906 114.175781 349.445312 114.496094 C 349.507812 114.8125 349.539062 115.132812 349.539062 115.457031 Z M 349.539062 115.457031 " fill-opacity="1" fill-rule="nonzero"/><path fill="#eae5d9" d="M 432.121094 117.085938 L 359.5 117.085938 C 358.453125 117.085938 357.601562 116.234375 357.601562 115.1875 C 357.601562 114.140625 358.453125 113.289062 359.5 113.289062 L 432.121094 113.289062 C 433.171875 113.289062 434.019531 114.140625 434.019531 115.1875 C 434.019531 116.234375 433.171875 117.085938 432.121094 117.085938 Z M 432.121094 117.085938 " fill-opacity="1" fill-rule="nonzero"/><g clip-path="url(#6c28063a40)"><path fill="#ab3a3a" d="M 489.402344 96.964844 L 284.457031 96.964844 C 263.800781 96.964844 247.054688 113.707031 247.054688 134.363281 L 247.054688 635.261719 C 247.054688 655.914062 263.800781 672.660156 284.457031 672.660156 L 489.402344 672.660156 C 510.058594 672.660156 526.804688 655.914062 526.804688 635.261719 L 526.804688 134.359375 C 526.804688 113.707031 510.058594 96.964844 489.402344 96.964844 Z M 359.5 113.289062 L 432.121094 113.289062 C 433.171875 113.289062 434.019531 114.140625 434.019531 115.1875 C 434.019531 116.234375 433.171875 117.085938 432.121094 117.085938 L 359.5 117.085938 C 358.453125 117.085938 357.601562 116.234375 357.601562 115.1875 C 357.601562 114.140625 358.453125 113.289062 359.5 113.289062 Z M 344.597656 110.515625 C 347.324219 110.515625 349.539062 112.730469 349.539062 115.457031 C 349.539062 118.1875 347.328125 120.402344 344.597656 120.402344 C 341.867188 120.402344 339.65625 118.1875 339.65625 115.457031 C 339.65625 112.730469 341.867188 110.515625 344.597656 110.515625 Z M 514.277344 635.257812 C 514.277344 648.996094 503.140625 660.132812 489.402344 660.132812 L 284.457031 660.132812 C 270.71875 660.132812 259.582031 648.996094 259.582031 635.257812 L 259.582031 134.359375 C 259.582031 120.621094 270.71875 109.488281 284.457031 109.488281 L 314.402344 109.488281 C 315.609375 109.488281 316.589844 110.464844 316.589844 111.671875 L 316.589844 114.984375 C 316.589844 123.523438 323.511719 130.441406 332.046875 130.441406 L 441.816406 130.441406 C 450.351562 130.441406 457.273438 123.523438 457.273438 114.988281 L 457.273438 111.671875 C 457.273438 110.464844 458.25 109.488281 459.457031 109.488281 L 489.402344 109.488281 C 503.140625 109.488281 514.277344 120.621094 514.277344 134.359375 Z M 274.558594 44.398438 L 157.605469 44.398438 C 150.320312 44.398438 144.414062 50.304688 144.414062 57.589844 L 144.414062 73.628906 L 287.746094 73.628906 L 287.746094 57.589844 C 287.746094 50.304688 281.839844 44.398438 274.558594 44.398438 Z M 271.296875 63.429688 C 268.863281 63.429688 266.886719 61.453125 266.886719 59.015625 C 266.886719 56.578125 268.863281 54.605469 271.296875 54.605469 C 273.734375 54.605469 275.710938 56.578125 275.710938 59.015625 C 275.710938 61.453125 273.734375 63.429688 271.296875 63.429688 Z M 247.695312 96.039062 L 182.894531 96.039062 C 181.433594 96.039062 180.253906 94.859375 180.253906 93.402344 C 180.253906 91.941406 181.433594 90.761719 182.894531 90.761719 L 247.695312 90.761719 C 249.152344 90.761719 250.335938 91.941406 250.335938 93.402344 C 250.335938 94.859375 249.152344 96.039062 247.695312 96.039062 Z M 349.761719 603.292969 C 349.761719 608.367188 345.648438 612.480469 340.574219 612.480469 C 335.503906 612.480469 331.390625 608.367188 331.390625 603.292969 C 331.390625 598.222656 335.503906 594.109375 340.574219 594.109375 C 345.648438 594.109375 349.761719 598.222656 349.761719 603.292969 Z M 405.664062 603.292969 C 405.664062 610.96875 399.445312 617.1875 391.773438 617.1875 C 384.097656 617.1875 377.878906 610.96875 377.878906 603.292969 C 377.878906 595.621094 384.097656 589.398438 391.773438 589.398438 C 399.445312 589.402344 405.664062 595.621094 405.664062 603.292969 Z M 452.152344 603.292969 C 452.152344 608.367188 448.039062 612.480469 442.96875 612.480469 C 437.894531 612.480469 433.785156 608.367188 433.785156 603.292969 C 433.785156 598.222656 437.894531 594.109375 442.96875 594.109375 C 448.039062 594.109375 452.152344 598.222656 452.152344 603.292969 Z M 150.605469 528.628906 L 20.6875 528.628906 C 19.230469 528.628906 18.046875 527.449219 18.046875 525.988281 C 18.046875 524.53125 19.230469 523.351562 20.6875 523.351562 L 150.605469 523.351562 C 152.0625 523.351562 153.242188 524.53125 153.242188 525.988281 C 153.242188 527.449219 152.0625 528.628906 150.605469 528.628906 Z M 150.605469 502.570312 L 20.6875 502.570312 C 19.230469 502.570312 18.046875 501.386719 18.046875 499.929688 C 18.046875 498.472656 19.230469 497.289062 20.6875 497.289062 L 150.605469 497.289062 C 152.0625 497.289062 153.242188 498.472656 153.242188 499.929688 C 153.242188 501.386719 152.0625 502.570312 150.605469 502.570312 Z M 157.523438 447.367188 L 13.773438 447.367188 C 6.488281 447.367188 0.582031 453.273438 0.582031 460.558594 L 0.582031 476.597656 L 170.710938 476.597656 L 170.710938 460.558594 C 170.710938 453.273438 164.808594 447.367188 157.523438 447.367188 Z M 16.277344 466.398438 C 13.839844 466.398438 11.863281 464.421875 11.863281 461.984375 C 11.863281 459.546875 13.839844 457.574219 16.277344 457.574219 C 18.710938 457.574219 20.6875 459.546875 20.6875 461.984375 C 20.6875 464.421875 18.710938 466.398438 16.277344 466.398438 Z M 16.277344 466.398438 " fill-opacity="1" fill-rule="evenodd"/></g><path fill="#eae5d9" d="M 292.898438 188.234375 L 381.242188 188.265625 L 381.214844 268.203125 L 292.867188 268.167969 Z M 473.511719 210.273438 L 398.199219 210.273438 C 396.835938 210.273438 395.730469 211.378906 395.730469 212.742188 C 395.730469 214.105469 396.835938 215.210938 398.199219 215.210938 L 473.511719 215.210938 C 474.875 215.210938 475.980469 214.105469 475.980469 212.742188 C 475.980469 211.378906 474.875 210.273438 473.511719 210.273438 Z M 473.511719 191.296875 L 398.199219 191.296875 C 396.835938 191.296875 395.730469 192.402344 395.730469 193.765625 C 395.730469 195.125 396.835938 196.230469 398.199219 196.230469 L 473.511719 196.230469 C 474.875 196.230469 475.980469 195.125 475.980469 193.765625 C 475.980469 192.402344 474.875 191.296875 473.511719 191.296875 Z M 457.648438 259.558594 L 398.472656 259.558594 C 397.109375 259.558594 396.003906 260.664062 396.003906 262.027344 C 396.003906 263.390625 397.109375 264.496094 398.472656 264.496094 L 457.648438 264.496094 C 459.007812 264.496094 460.117188 263.390625 460.117188 262.027344 C 460.117188 260.664062 459.007812 259.558594 457.648438 259.558594 Z M 398.203125 234.1875 L 457.375 234.1875 C 458.738281 234.1875 459.84375 233.082031 459.84375 231.71875 C 459.84375 230.355469 458.738281 229.25 457.375 229.25 L 398.203125 229.25 C 396.839844 229.25 395.734375 230.355469 395.734375 231.71875 C 395.734375 233.082031 396.835938 234.1875 398.203125 234.1875 Z M 410.738281 437.464844 L 410.738281 378.449219 L 293.804688 378.449219 L 293.804688 437.464844 Z M 404.546875 455.515625 C 404.546875 454.15625 403.441406 453.046875 402.078125 453.046875 L 297.097656 453.046875 C 295.738281 453.046875 294.632812 454.15625 294.632812 455.515625 C 294.632812 456.878906 295.738281 457.984375 297.097656 457.984375 L 402.078125 457.984375 C 403.441406 457.984375 404.546875 456.878906 404.546875 455.515625 Z M 404.546875 474.492188 C 404.546875 473.128906 403.441406 472.023438 402.078125 472.023438 L 297.097656 472.023438 C 295.738281 472.023438 294.632812 473.128906 294.632812 474.492188 C 294.632812 475.855469 295.738281 476.960938 297.097656 476.960938 L 402.078125 476.960938 C 403.441406 476.960938 404.546875 475.855469 404.546875 474.492188 Z M 382.050781 493.46875 C 382.050781 492.105469 380.945312 491 379.582031 491 L 297.097656 491 C 295.738281 491 294.632812 492.105469 294.632812 493.46875 C 294.632812 494.832031 295.738281 495.9375 297.097656 495.9375 L 379.582031 495.9375 C 380.945312 495.9375 382.050781 494.832031 382.050781 493.46875 Z M 382.050781 493.46875 " fill-opacity="1" fill-rule="evenodd"/><path fill="#ab3a3a" d="M 351.261719 209.4375 C 350.003906 202.777344 355.738281 197.046875 362.398438 198.3125 C 366.121094 199.019531 369.121094 202.023438 369.824219 205.746094 C 371.085938 212.40625 365.351562 218.140625 358.6875 216.875 C 354.96875 216.164062 351.96875 213.160156 351.261719 209.4375 Z M 381.21875 251.019531 L 355.023438 222.996094 L 344.226562 234.527344 L 324.628906 207.9375 L 292.871094 250.945312 L 328.847656 250.960938 L 328.808594 251 Z M 346.46875 387.980469 L 332.675781 387.980469 L 330.011719 393.789062 L 329.996094 393.789062 L 329.996094 425.652344 L 376.460938 425.652344 L 376.460938 393.789062 L 349.132812 393.789062 Z M 346.46875 387.980469 " fill-opacity="1" fill-rule="nonzero"/><path fill="#f5c0a2" d="M 156.691406 147.328125 C 156.046875 147.285156 155.414062 147.21875 154.789062 147.125 C 154.164062 147.03125 153.550781 146.914062 152.941406 146.773438 C 151.121094 146.351562 149.390625 145.722656 147.765625 144.90625 C 147.394531 144.722656 147.039062 144.515625 146.679688 144.308594 C 145.796875 143.804688 144.949219 143.25 144.144531 142.640625 C 144.800781 143.136719 145.472656 143.605469 146.179688 144.035156 C 144.609375 143.089844 143.160156 141.964844 141.859375 140.695312 C 136.953125 136.230469 131.496094 129.050781 127.515625 119.8125 C 128.34375 119.816406 129.125 119.523438 129.734375 119.003906 C 129.769531 118.976562 129.800781 118.953125 129.832031 118.925781 C 129.953125 118.816406 130.0625 118.699219 130.164062 118.574219 C 130.210938 118.519531 130.253906 118.460938 130.300781 118.402344 C 130.386719 118.277344 130.472656 118.15625 130.546875 118.019531 C 130.582031 117.945312 130.613281 117.871094 130.644531 117.792969 C 130.757812 117.539062 130.84375 117.261719 130.890625 116.972656 C 130.902344 116.890625 130.925781 116.816406 130.9375 116.730469 L 130.933594 116.730469 C 130.9375 116.691406 130.953125 116.660156 130.953125 116.617188 C 130.953125 116.617188 131.007812 115.253906 130.980469 113.316406 C 130.976562 113.035156 130.972656 112.742188 130.964844 112.4375 C 130.964844 112.421875 130.964844 112.40625 130.964844 112.386719 C 130.945312 111.78125 130.921875 111.132812 130.886719 110.464844 C 130.882812 110.433594 130.882812 110.402344 130.882812 110.371094 C 130.84375 109.699219 130.792969 109.011719 130.726562 108.324219 C 130.726562 108.304688 130.726562 108.289062 130.722656 108.273438 C 130.691406 107.9375 130.652344 107.601562 130.613281 107.269531 C 130.613281 107.257812 130.609375 107.242188 130.609375 107.230469 C 130.523438 106.539062 130.421875 105.863281 130.296875 105.214844 C 130.292969 105.199219 130.292969 105.1875 130.289062 105.171875 C 129.972656 103.539062 129.519531 102.117188 128.867188 101.230469 C 128.867188 101.226562 128.867188 101.226562 128.867188 101.222656 C 128.445312 100.652344 127.949219 100.296875 127.351562 100.261719 C 123.101562 100.015625 119.390625 104.289062 119.070312 109.804688 C 118.832031 113.929688 121.507812 117.613281 125.835938 119.398438 L 121.273438 158.808594 C 120.011719 170.246094 127.851562 180.726562 140.019531 182.039062 C 152.1875 183.351562 163.074219 175.140625 164.332031 163.703125 L 164.871094 146.4375 C 163.023438 146.980469 161.09375 147.308594 159.101562 147.375 C 158.300781 147.398438 157.5 147.386719 156.691406 147.328125 Z M 156.691406 147.328125 " fill-opacity="1" fill-rule="nonzero"/><path fill="#f5c0a2" d="M 99.296875 625.890625 L 99.296875 632.148438 C 105.558594 628.351562 117.339844 629.839844 123.003906 632.957031 C 124.792969 633.941406 126.828125 633.957031 128.835938 633.597656 C 129.117188 633.546875 129.414062 633.644531 129.746094 633.824219 C 129.46875 630.808594 129.304688 628.183594 129.210938 625.890625 Z M 99.296875 625.890625 " fill-opacity="1" fill-rule="nonzero"/><path fill="#f5c0a2" d="M 104.910156 244.296875 C 106.390625 243.457031 107.613281 242.738281 108.066406 242.417969 C 109.558594 241.359375 111.902344 239.761719 111.042969 237.003906 C 110.59375 235.554688 109.414062 234.9375 108.128906 234.753906 C 110.480469 233.101562 110.566406 230.5625 110.089844 229.585938 C 109.222656 227.808594 108.179688 227.640625 106.074219 227.898438 C 103.96875 228.15625 92.515625 229.488281 92.484375 229.496094 C 92.128906 229.519531 91.773438 229.570312 91.421875 229.664062 L 90.191406 230.039062 C 89.582031 229.617188 88.925781 229.257812 88.246094 228.953125 L 90.640625 227.269531 C 93.605469 227.066406 98.507812 226.710938 101.316406 226.421875 C 105.527344 225.992188 106.816406 223.179688 106.84375 221.902344 C 106.875 219.921875 105.355469 219.742188 103.355469 219.148438 L 90.191406 217.414062 C 88.90625 217.273438 87.648438 217.484375 86.585938 217.984375 C 86.554688 218 86.523438 218.015625 86.492188 218.03125 C 86.253906 218.152344 86.023438 218.285156 85.808594 218.433594 L 72.96875 225.472656 C 71.347656 226.617188 70.421875 228.484375 70.5 230.464844 C 70.5 230.46875 70.5 230.46875 70.5 230.46875 L 66.753906 249.484375 L 46.675781 284.320312 C 43.097656 296.0625 49.71875 308.484375 61.464844 312.066406 C 73.207031 315.640625 85.628906 309.023438 89.207031 297.277344 L 93.238281 259.511719 C 94.789062 258.84375 96.375 258.160156 96.378906 258.160156 C 96.65625 258.0625 96.929688 257.941406 97.1875 257.792969 L 105.523438 251.578125 C 110.917969 247.4375 107.445312 243.65625 104.910156 244.296875 Z M 104.910156 244.296875 " fill-opacity="1" fill-rule="nonzero"/><path fill="#f5c0a2" d="M 165.496094 126.226562 C 164.910156 126.265625 164.324219 126.296875 163.757812 126.296875 C 158.769531 126.296875 152.589844 124.265625 152.589844 128.917969 C 152.589844 130.949219 153.523438 132.8125 155.082031 134.265625 C 157.574219 136.601562 161.855469 134.820312 161.886719 131.40625 C 161.890625 131.382812 161.890625 131.363281 161.890625 131.34375 C 161.890625 131.339844 161.949219 131.339844 162.039062 131.335938 C 162.066406 131.335938 162.101562 131.335938 162.132812 131.335938 C 162.21875 131.332031 162.320312 131.332031 162.445312 131.328125 C 162.476562 131.328125 162.511719 131.328125 162.546875 131.328125 C 162.6875 131.328125 162.839844 131.324219 163.007812 131.320312 C 163.054688 131.320312 163.097656 131.320312 163.144531 131.320312 C 163.332031 131.320312 163.523438 131.316406 163.71875 131.3125 C 163.738281 131.3125 163.753906 131.3125 163.773438 131.3125 C 164.703125 131.304688 165.628906 131.296875 165.628906 131.296875 C 165.628906 131.3125 165.625 131.328125 165.625 131.34375 L 165.625 131.40625 C 165.652344 134.824219 169.9375 136.601562 172.433594 134.269531 C 173.992188 132.8125 174.921875 130.953125 174.921875 128.921875 C 174.921875 124.792969 170.070312 125.917969 165.496094 126.226562 Z M 165.496094 126.226562 " fill-opacity="1" fill-rule="nonzero"/><path fill="#f5c0a2" d="M 164.84375 121.15625 C 175.984375 121.15625 180.316406 118.882812 182.765625 110.5 L 181.761719 125.421875 C 181.757812 125.449219 181.753906 125.476562 181.753906 125.507812 C 181.753906 125.476562 181.761719 125.453125 181.761719 125.421875 L 183.769531 95.640625 C 183.828125 94.679688 183.824219 93.695312 183.789062 92.707031 C 183.789062 92.707031 183.789062 92.707031 183.789062 92.710938 C 183.757812 91.847656 183.679688 90.976562 183.574219 90.105469 C 183.527344 89.746094 183.480469 89.386719 183.421875 89.027344 C 183.378906 88.75 183.332031 88.472656 183.277344 88.195312 C 183.144531 87.515625 183 86.839844 182.816406 86.171875 C 182.582031 85.316406 182.300781 84.492188 182 83.683594 C 181.863281 83.320312 181.710938 82.96875 181.558594 82.617188 C 181.390625 82.207031 181.210938 81.804688 181.023438 81.40625 C 180.804688 80.949219 180.574219 80.5 180.332031 80.0625 C 180.207031 79.824219 180.070312 79.59375 179.933594 79.359375 C 179.632812 78.847656 179.332031 78.335938 179.003906 77.847656 C 175.851562 79.894531 171.886719 80.664062 164.046875 81.464844 C 157.945312 82.089844 147.746094 82.058594 142.265625 80.230469 C 136.566406 87.941406 142.347656 96.992188 135.929688 101.691406 C 138.921875 118.050781 148.703125 121.15625 164.84375 121.15625 Z M 164.84375 121.15625 " fill-opacity="1" fill-rule="nonzero"/><path fill="#f5c0a2" d="M 618.347656 321.179688 C 615.320312 317.546875 607.742188 312.933594 603.332031 312.949219 C 598.925781 312.964844 596.550781 315.324219 596.550781 315.324219 C 593.867188 317.269531 589.277344 320.929688 588.332031 321.589844 C 583.753906 324.78125 587.578125 329.207031 591.550781 327.035156 C 594.578125 325.382812 596.347656 325.082031 600.734375 322.847656 C 596.515625 327.144531 597.710938 326.996094 593.722656 330.945312 C 589.503906 335.128906 593.957031 339.992188 597.714844 336.964844 C 598.011719 336.722656 598.351562 336.453125 598.691406 336.179688 C 596.601562 339.414062 599.960938 342.792969 603.136719 340.589844 C 605.046875 339.269531 607.890625 337.390625 610.777344 335.488281 C 610.785156 335.492188 610.792969 335.5 610.800781 335.503906 C 610.15625 335.992188 610.574219 335.667969 608.621094 337.136719 C 605.027344 339.851562 608.148438 344.128906 611.289062 342.253906 C 613.292969 341.058594 620.75 338.058594 622.464844 336.203125 C 626.703125 331.621094 621.375 324.8125 618.347656 321.179688 Z M 618.347656 321.179688 " fill-opacity="1" fill-rule="nonzero"/><path fill="#f5c0a2" d="M 573.863281 159.300781 C 569.578125 158.488281 568.519531 162.527344 567.992188 165.308594 L 567.214844 169.394531 C 563.125 164.941406 562.203125 157.835938 562.464844 154.445312 C 551.019531 154.410156 531.46875 153.464844 525.863281 139.90625 C 524.246094 143.140625 523.25 146.742188 523.078125 150.585938 L 521.8125 178.367188 C 521.417969 187.425781 526.699219 196.183594 535.59375 199.738281 C 537.164062 200.363281 538.765625 200.777344 540.367188 201.027344 C 541.441406 207.660156 544.414062 211.859375 552.757812 211.859375 C 560.207031 211.859375 572.035156 203.90625 571.332031 195.667969 L 568.523438 178.585938 C 568.992188 178.746094 569.496094 178.824219 570.03125 178.769531 C 575.0625 178.25 578.890625 175.15625 579.710938 170.828125 C 580.765625 165.273438 578.144531 160.113281 573.863281 159.300781 Z M 573.863281 159.300781 " fill-opacity="1" fill-rule="nonzero"/><path fill="#f5c0a2" d="M 373.835938 176.460938 C 375.257812 174.699219 373.417969 172 368.300781 171.21875 C 362.0625 170.269531 357.722656 169.832031 342.636719 169.933594 C 343.394531 169.699219 344.097656 169.484375 344.707031 169.3125 C 349.582031 167.9375 344.621094 161.164062 336.472656 162.566406 C 330.070312 163.664062 319.738281 165.367188 319.738281 165.367188 C 312.253906 165.117188 301.882812 167.738281 298.238281 178.679688 L 267.578125 218.464844 C 267.476562 218.824219 267.320312 219.171875 267.042969 219.457031 L 248.859375 258.867188 C 253.175781 263.289062 256.648438 266.6875 257.769531 267.371094 C 267.742188 273.4375 280.746094 270.273438 286.816406 260.300781 L 322.558594 195.625 C 323.144531 195.613281 323.730469 195.601562 324.308594 195.574219 L 324.359375 195.570312 C 326.875 195.4375 343.664062 194.039062 343.664062 194.039062 C 344.542969 193.96875 345.410156 193.839844 346.269531 193.65625 C 349.484375 192.957031 357.835938 191.105469 362.199219 189.792969 C 363.191406 189.492188 363.898438 188.949219 364.359375 188.3125 C 366.269531 188.105469 367.882812 187.933594 368.957031 187.808594 C 371.433594 187.527344 372.054688 185.738281 371.207031 184.039062 C 372.347656 183.929688 373.351562 183.816406 374.15625 183.695312 C 378.921875 182.984375 378.425781 178.167969 373.835938 176.460938 Z M 373.835938 176.460938 " fill-opacity="1" fill-rule="nonzero"/><path fill="#f5c0a2" d="M 176.148438 625.890625 C 176.371094 628.90625 176.566406 631.371094 176.738281 633.398438 C 178.398438 634.125 179.519531 636.515625 183.855469 636.515625 C 189.507812 636.515625 191.796875 631.644531 196.515625 634.6875 C 197.921875 631.613281 202.234375 629.808594 206.566406 629.882812 C 206.332031 628.390625 206.144531 627.078125 205.984375 625.894531 L 176.148438 625.894531 Z M 176.148438 625.890625 " fill-opacity="1" fill-rule="nonzero"/><path fill="#f5c0a2" d="M 173.507812 141.769531 C 174.164062 141.210938 174.796875 140.628906 175.390625 140.003906 C 176.128906 139.21875 176.796875 138.371094 177.425781 137.488281 C 176.292969 139.074219 174.984375 140.515625 173.507812 141.769531 Z M 173.507812 141.769531 " fill-opacity="1" fill-rule="nonzero"/><path fill="#fafaca" d="M 267.042969 219.460938 L 248.214844 260.269531 C 247.304688 261.222656 245.792969 261.25 244.847656 260.335938 L 225.191406 241.3125 C 224.410156 240.554688 224.273438 239.40625 224.746094 238.503906 L 209.859375 223.972656 L 200.796875 328.105469 C 200.128906 332.683594 199.304688 336.914062 194.679688 337.082031 C 156.621094 338.484375 119.320312 333.8125 82.773438 323.070312 C 78.332031 321.765625 75.472656 317.464844 75.957031 312.859375 C 76.003906 312.40625 76.03125 311.929688 76.078125 311.46875 C 82.164062 309.066406 87.148438 304.027344 89.207031 297.277344 L 93.234375 259.507812 C 94.785156 258.839844 96.375 258.160156 96.375 258.15625 C 96.652344 258.0625 96.925781 257.941406 97.183594 257.789062 L 105.519531 251.574219 C 110.914062 247.4375 107.445312 243.65625 104.910156 244.296875 C 106.386719 243.457031 107.609375 242.738281 108.0625 242.417969 C 109.554688 241.359375 111.898438 239.761719 111.042969 237.003906 C 110.589844 235.554688 109.414062 234.9375 108.128906 234.753906 C 110.480469 233.101562 110.566406 230.5625 110.085938 229.585938 C 109.21875 227.808594 108.179688 227.640625 106.074219 227.898438 C 104.1875 228.128906 94.804688 229.222656 92.859375 229.453125 C 92.632812 229.476562 92.484375 229.496094 92.480469 229.496094 C 92.125 229.519531 91.773438 229.570312 91.421875 229.664062 L 90.1875 230.039062 C 89.582031 229.617188 88.925781 229.257812 88.246094 228.953125 L 90.636719 227.269531 C 90.964844 227.25 91.328125 227.222656 91.699219 227.199219 C 91.800781 227.191406 91.910156 227.183594 92.015625 227.175781 C 92.328125 227.152344 92.648438 227.128906 92.980469 227.105469 C 93.066406 227.097656 93.152344 227.09375 93.242188 227.085938 C 93.625 227.058594 94.019531 227.03125 94.417969 227 C 94.570312 226.988281 94.726562 226.980469 94.882812 226.96875 C 95.1875 226.945312 95.496094 226.921875 95.800781 226.898438 C 95.976562 226.882812 96.15625 226.871094 96.332031 226.855469 C 96.578125 226.835938 96.824219 226.820312 97.070312 226.800781 C 97.265625 226.78125 97.460938 226.769531 97.65625 226.75 C 99.019531 226.640625 100.304688 226.527344 101.316406 226.425781 C 105.523438 225.992188 106.816406 223.179688 106.839844 221.902344 C 106.875 219.925781 105.351562 219.742188 103.355469 219.152344 L 99.570312 218.652344 L 90.191406 217.417969 C 88.90625 217.277344 87.648438 217.488281 86.585938 217.984375 C 86.554688 218 86.523438 218.019531 86.492188 218.035156 C 86.253906 218.152344 86.023438 218.285156 85.808594 218.433594 L 72.96875 225.472656 C 72.558594 225.761719 72.195312 226.097656 71.878906 226.464844 C 70.945312 227.566406 70.441406 228.984375 70.5 230.46875 L 66.753906 249.488281 L 47.179688 283.449219 L 49.042969 256.042969 C 49.097656 254.988281 49.835938 254.125 50.8125 253.867188 L 54.132812 189.417969 C 54.84375 182.117188 58.765625 175.90625 64.351562 172.019531 C 64.832031 171.457031 65.4375 170.992188 66.160156 170.691406 C 73.453125 167.65625 84.214844 162.085938 99.429688 157.621094 C 99.429688 157.621094 108.003906 155.9375 121.761719 154.554688 L 121.269531 158.804688 C 120.011719 170.242188 127.847656 180.722656 140.019531 182.035156 C 152.1875 183.347656 163.074219 175.136719 164.332031 163.699219 L 164.667969 152.871094 C 170.011719 152.996094 175.523438 153.261719 181.140625 153.703125 C 192.972656 155.089844 201.167969 156.871094 208.269531 159.453125 C 212.097656 160.484375 215.726562 162.464844 218.769531 165.425781 L 258.847656 208.933594 C 259.746094 208.546875 260.828125 208.742188 261.53125 209.488281 L 267.0625 216.195312 C 267.921875 217.113281 267.917969 218.546875 267.042969 219.460938 Z M 569.003906 643.871094 L 569.003906 637.558594 C 569.003906 636.042969 568.78125 634.578125 568.394531 633.183594 L 536.9375 632.351562 C 536.480469 633.722656 536.1875 635.175781 536.105469 636.691406 L 535.964844 639.332031 C 534.761719 653.320312 535.003906 663.449219 535.003906 673.578125 L 592.636719 673.578125 C 592.875 662.242188 569.003906 654.921875 569.003906 643.871094 Z M 130.011719 633.960938 C 129.558594 633.652344 129.191406 633.535156 128.835938 633.597656 C 126.828125 633.960938 124.792969 633.941406 123.003906 632.957031 C 115.949219 629.074219 99.394531 627.703125 95.851562 635.941406 C 92.929688 642.726562 89.742188 647.449219 85.359375 654.320312 C 81.363281 660.578125 80.015625 665.691406 80.035156 669.871094 C 80.046875 671.933594 81.761719 673.578125 83.824219 673.578125 L 134.355469 673.578125 C 136.414062 673.578125 138.136719 671.929688 138.140625 669.871094 C 138.164062 658.425781 133.695312 647.617188 132.054688 640.460938 C 131.355469 637.40625 131.207031 634.78125 130.011719 633.960938 Z M 239.753906 653.636719 C 227.796875 648.308594 219.851562 642.847656 216.3125 635.363281 C 212.589844 627.488281 199.210938 628.796875 196.515625 634.6875 C 191.796875 631.644531 189.507812 636.511719 183.855469 636.511719 C 178.203125 636.511719 178.015625 632.4375 174.972656 633.308594 C 170.328125 634.636719 170.183594 653.800781 170.1875 670.089844 C 170.1875 672.234375 171.925781 673.960938 174.066406 673.960938 L 246.488281 673.960938 C 248.804688 673.960938 250.617188 671.949219 250.347656 669.652344 C 249.78125 664.796875 247.601562 657.132812 239.753906 653.636719 Z M 424.53125 627.851562 C 422.933594 629.917969 421.609375 632.367188 420.699219 635.234375 C 420.699219 635.234375 419.242188 639.097656 416.53125 643.871094 C 412.820312 651.410156 398.445312 657.273438 390.601562 661.0625 C 380.914062 665.742188 382.597656 673.578125 382.597656 673.578125 L 452.886719 673.578125 C 455.503906 659.0625 452.433594 653.496094 454.257812 636.921875 C 454.890625 634.332031 454.984375 632.03125 454.671875 630.003906 Z M 609.839844 336.105469 C 609.871094 336.121094 609.898438 336.136719 609.929688 336.152344 C 610.398438 335.800781 610.378906 335.824219 610.796875 335.503906 C 610.792969 335.5 610.785156 335.496094 610.777344 335.492188 C 610.460938 335.699219 610.152344 335.902344 609.839844 336.105469 Z M 668.582031 270.710938 C 667.765625 269.839844 666.875 269.082031 665.925781 268.4375 L 664.695312 267.609375 L 604.699219 225.429688 C 603.316406 223.695312 601.328125 222.277344 599.113281 221.4375 C 590.296875 218.097656 582.371094 215.449219 574.246094 213.71875 L 571.328125 195.816406 C 571.804688 202.960938 562.9375 209.851562 555.753906 211.488281 C 553.542969 211.421875 551.273438 211.417969 548.929688 211.484375 C 543.457031 210.335938 541.253906 206.519531 540.367188 201.027344 C 540.324219 201.019531 540.285156 201.003906 540.242188 201 L 541.117188 211.9375 C 533.589844 212.585938 525.238281 213.875 515.625 215.898438 C 515.082031 216.015625 514.5625 216.160156 514.0625 216.324219 C 506.320312 218.34375 500.507812 225.269531 500.277344 233.671875 C 500.097656 240.078125 500.335938 298.039062 500.589844 310.601562 C 500.589844 310.601562 496.011719 355.597656 493.839844 378.019531 C 499.921875 357.441406 508.273438 333.359375 521.738281 316.503906 C 520.757812 314.640625 517.933594 308.78125 515.730469 299.496094 C 522.242188 318.835938 532.675781 333.769531 549.640625 333.769531 C 578.917969 333.769531 590.699219 300.085938 598.972656 265.375 L 630.769531 285.765625 L 607.890625 314.011719 C 611.835938 315.585938 616.21875 318.621094 618.347656 321.175781 C 620.839844 324.167969 624.882812 329.3125 623.863281 333.597656 L 667.824219 292.898438 C 674.164062 286.984375 674.5 277.046875 668.582031 270.710938 Z M 668.582031 270.710938 " fill-opacity="1" fill-rule="evenodd"/><path fill="#293237" d="M 607.699219 142.457031 C 602.140625 151.679688 590.542969 155.027344 581.015625 150.492188 C 581.757812 155.464844 581.300781 160.609375 579.585938 165.472656 C 578.789062 162.28125 576.691406 159.839844 573.863281 159.300781 C 569.578125 158.492188 568.519531 162.527344 567.992188 165.3125 L 567.214844 169.394531 C 565.183594 167.1875 563.9375 164.320312 563.226562 161.582031 C 563.214844 161.542969 563.207031 161.507812 563.195312 161.472656 C 562.859375 160.148438 562.648438 158.863281 562.535156 157.691406 C 562.523438 157.585938 562.519531 157.480469 562.507812 157.375 C 562.472656 156.933594 562.449219 156.511719 562.4375 156.113281 C 562.433594 155.984375 562.429688 155.855469 562.429688 155.734375 C 562.425781 155.269531 562.433594 154.828125 562.464844 154.445312 C 561.792969 154.445312 561.089844 154.4375 560.367188 154.425781 C 560.304688 154.425781 560.246094 154.425781 560.183594 154.425781 C 559.484375 154.414062 558.761719 154.394531 558.023438 154.371094 C 557.929688 154.367188 557.839844 154.367188 557.746094 154.363281 C 557.019531 154.339844 556.269531 154.304688 555.511719 154.261719 C 555.402344 154.253906 555.296875 154.25 555.1875 154.242188 C 554.429688 154.199219 553.65625 154.144531 552.875 154.078125 C 552.769531 154.070312 552.660156 154.058594 552.554688 154.050781 C 551.765625 153.980469 550.96875 153.898438 550.164062 153.800781 C 550.070312 153.792969 549.976562 153.777344 549.878906 153.765625 C 549.058594 153.664062 548.234375 153.550781 547.414062 153.417969 C 547.34375 153.40625 547.277344 153.394531 547.210938 153.382812 C 546.355469 153.238281 545.503906 153.082031 544.65625 152.902344 C 544.636719 152.894531 544.617188 152.890625 544.597656 152.886719 C 542.851562 152.511719 541.128906 152.042969 539.464844 151.464844 C 539.429688 151.453125 539.390625 151.441406 539.351562 151.425781 C 538.558594 151.148438 537.78125 150.839844 537.023438 150.507812 C 536.957031 150.480469 536.886719 150.449219 536.824219 150.421875 C 536.082031 150.09375 535.363281 149.730469 534.664062 149.34375 C 534.589844 149.304688 534.515625 149.261719 534.441406 149.21875 C 533.75 148.832031 533.089844 148.410156 532.449219 147.960938 C 532.378906 147.910156 532.308594 147.859375 532.238281 147.808594 C 531.601562 147.351562 530.992188 146.863281 530.417969 146.339844 C 530.363281 146.289062 530.308594 146.238281 530.253906 146.1875 C 529.675781 145.644531 529.121094 145.070312 528.613281 144.460938 C 528.582031 144.421875 528.554688 144.382812 528.523438 144.347656 C 527.457031 143.042969 526.554688 141.570312 525.867188 139.90625 C 525.480469 138.972656 525.15625 137.980469 524.910156 136.921875 C 534.6875 123.308594 553.394531 119.960938 567.277344 129.070312 L 572.136719 121.007812 C 578.0625 111.1875 590.824219 108.027344 600.648438 113.949219 C 610.464844 119.871094 613.625 132.636719 607.699219 142.457031 Z M 86.5625 242.25 C 86.625 242.25 86.691406 242.242188 86.753906 242.226562 L 94.59375 240.351562 L 105.265625 236.136719 C 105.691406 235.96875 105.898438 235.492188 105.730469 235.070312 C 105.5625 234.648438 105.082031 234.4375 104.664062 234.609375 L 94.101562 238.789062 L 86.375 240.625 C 85.929688 240.730469 85.65625 241.175781 85.761719 241.617188 C 85.851562 241.996094 86.1875 242.25 86.5625 242.25 Z M 50.796875 252.835938 L 64.742188 252.976562 L 63.796875 254.613281 L 50.78125 254.480469 C 50.328125 254.476562 49.960938 254.105469 49.964844 253.652344 C 49.972656 253.199219 50.339844 252.835938 50.789062 252.835938 C 50.792969 252.835938 50.792969 252.835938 50.796875 252.835938 Z M 85.144531 250.425781 L 92.875 248.585938 L 103.4375 244.40625 C 103.863281 244.234375 104.339844 244.445312 104.503906 244.867188 C 104.671875 245.292969 104.464844 245.769531 104.042969 245.933594 L 93.371094 250.152344 L 85.527344 252.027344 C 85.464844 252.042969 85.398438 252.050781 85.335938 252.050781 C 84.964844 252.050781 84.625 251.796875 84.539062 251.417969 C 84.429688 250.972656 84.703125 250.527344 85.144531 250.425781 Z M 585.554688 256.773438 C 585.800781 256.386719 586.3125 256.277344 586.691406 256.523438 L 599.132812 264.503906 C 599.511719 264.746094 599.625 265.257812 599.378906 265.636719 C 599.222656 265.882812 598.957031 266.015625 598.6875 266.015625 C 598.535156 266.015625 598.378906 265.976562 598.242188 265.886719 L 585.800781 257.90625 C 585.421875 257.664062 585.308594 257.15625 585.554688 256.773438 Z M 70.378906 198.363281 L 72.847656 225.570312 C 72.230469 226.027344 71.726562 226.589844 71.34375 227.222656 L 68.738281 198.511719 C 68.699219 198.0625 69.03125 197.660156 69.484375 197.621094 C 69.886719 197.582031 70.335938 197.914062 70.378906 198.363281 Z M 83.695312 192.5625 C 83.492188 191.109375 84.507812 189.921875 85.960938 189.902344 L 154.230469 189.085938 C 155.6875 189.070312 157.027344 190.234375 157.230469 191.683594 L 169.777344 281.417969 C 169.980469 282.871094 168.964844 284.0625 167.511719 284.078125 L 99.242188 284.894531 C 97.789062 284.910156 96.445312 283.75 96.242188 282.296875 L 93.15625 260.226562 L 93.234375 259.507812 C 94.785156 258.839844 96.375 258.15625 96.375 258.15625 C 96.652344 258.0625 96.925781 257.9375 97.183594 257.789062 L 105.519531 251.574219 C 110.914062 247.4375 107.445312 243.65625 104.910156 244.296875 C 106.386719 243.453125 107.609375 242.734375 108.0625 242.414062 C 109.554688 241.359375 111.902344 239.761719 111.042969 237 C 110.589844 235.554688 109.414062 234.933594 108.128906 234.75 C 110.480469 233.101562 110.566406 230.558594 110.085938 229.582031 C 109.21875 227.804688 108.179688 227.640625 106.074219 227.898438 C 103.96875 228.15625 92.515625 229.488281 92.480469 229.496094 C 92.125 229.519531 91.773438 229.566406 91.421875 229.664062 L 90.1875 230.039062 C 89.757812 229.738281 89.296875 229.480469 88.824219 229.238281 L 88.734375 228.605469 L 90.636719 227.269531 C 93.605469 227.0625 98.507812 226.707031 101.316406 226.421875 C 105.523438 225.988281 106.816406 223.175781 106.839844 221.898438 C 106.875 219.921875 105.351562 219.738281 103.355469 219.148438 L 90.191406 217.414062 C 89.148438 217.300781 88.132812 217.425781 87.214844 217.738281 Z M 127.351562 100.257812 C 131.601562 100.507812 130.949219 116.617188 130.949219 116.617188 C 130.84375 118.492188 129.265625 119.820312 127.515625 119.8125 C 131.492188 129.050781 136.949219 136.230469 141.855469 140.695312 C 143.160156 141.964844 144.605469 143.089844 146.179688 144.035156 C 146.691406 144.34375 147.222656 144.632812 147.761719 144.90625 C 149.386719 145.722656 151.121094 146.351562 152.941406 146.773438 C 153.546875 146.914062 154.164062 147.03125 154.789062 147.125 C 155.414062 147.21875 156.046875 147.289062 156.6875 147.328125 C 157.496094 147.382812 158.300781 147.398438 159.097656 147.371094 C 161.480469 147.289062 163.785156 146.847656 165.953125 146.101562 C 169.566406 144.851562 172.800781 142.742188 175.386719 140 C 176.421875 138.90625 177.355469 137.710938 178.167969 136.425781 C 180.199219 133.21875 181.484375 129.476562 181.757812 125.421875 L 182.761719 110.5 C 180.3125 118.882812 175.980469 121.15625 164.839844 121.15625 C 148.703125 121.15625 138.917969 118.050781 135.929688 101.691406 C 142.347656 96.992188 136.5625 87.941406 142.261719 80.230469 C 147.742188 82.054688 157.945312 82.085938 164.046875 81.460938 C 171.882812 80.660156 175.847656 79.890625 179 77.84375 C 180.667969 80.335938 181.980469 83.121094 182.816406 86.171875 C 183.40625 88.320312 183.707031 90.535156 183.789062 92.710938 C 183.796875 92.589844 183.816406 92.460938 183.824219 92.339844 C 185.160156 73.84375 169.949219 61.609375 152.832031 61.609375 C 135.714844 61.609375 121.839844 74.050781 121.839844 92.339844 C 121.839844 95.703125 122.105469 98.941406 122.546875 102.058594 C 123.917969 100.839844 125.585938 100.15625 127.351562 100.257812 Z M 163.753906 126.296875 C 168.742188 126.296875 174.921875 124.265625 174.921875 128.917969 C 174.921875 130.949219 173.992188 132.8125 172.433594 134.265625 C 169.9375 136.601562 165.65625 134.820312 165.625 131.40625 L 165.625 131.34375 C 165.625 131.328125 165.628906 131.3125 165.628906 131.296875 C 165.628906 131.296875 161.890625 131.324219 161.890625 131.34375 C 161.890625 131.363281 161.890625 131.382812 161.886719 131.40625 C 161.859375 134.820312 157.574219 136.601562 155.082031 134.265625 C 153.523438 132.8125 152.589844 130.949219 152.589844 128.917969 C 152.589844 124.265625 158.769531 126.296875 163.753906 126.296875 Z M 342.632812 170.757812 L 341.339844 170.761719 C 340.832031 170.765625 340.339844 170.765625 339.863281 170.765625 C 335.242188 170.765625 331.722656 170.582031 325.40625 168.476562 C 324.976562 168.332031 324.742188 167.863281 324.886719 167.433594 C 325.035156 167.003906 325.5 166.773438 325.929688 166.914062 C 332.640625 169.152344 335.898438 169.140625 341.335938 169.117188 L 342.632812 169.113281 C 343.085938 169.113281 343.457031 169.480469 343.457031 169.933594 C 343.457031 170.386719 343.089844 170.757812 342.632812 170.757812 Z M 321.839844 195.785156 C 321.839844 196.238281 321.46875 196.605469 321.015625 196.605469 L 310.671875 196.605469 C 310.21875 196.605469 309.851562 196.238281 309.851562 195.785156 C 309.851562 195.332031 310.21875 194.960938 310.671875 194.960938 L 321.015625 194.960938 C 321.472656 194.960938 321.839844 195.332031 321.839844 195.785156 Z M 369 175.503906 C 368.960938 175.929688 368.601562 176.25 368.183594 176.25 C 368.15625 176.25 368.128906 176.246094 368.101562 176.246094 C 360.71875 175.550781 347.203125 174.792969 343.652344 174.597656 C 343.726562 175.726562 343.796875 177.121094 343.828125 178.605469 L 365.054688 179.925781 C 365.507812 179.957031 365.855469 180.347656 365.824219 180.800781 C 365.796875 181.234375 365.4375 181.570312 365.007812 181.570312 C 364.988281 181.570312 364.972656 181.570312 364.953125 181.570312 L 343.84375 180.253906 C 343.839844 181.371094 343.800781 182.484375 343.71875 183.539062 C 346.859375 183.882812 354.539062 183.398438 359.835938 182.515625 C 360.277344 182.433594 360.707031 182.746094 360.78125 183.191406 C 360.855469 183.640625 360.554688 184.0625 360.105469 184.136719 C 355.835938 184.847656 350.21875 185.292969 346.359375 185.292969 C 345.246094 185.292969 344.292969 185.253906 343.546875 185.175781 C 343.441406 185.90625 343.304688 186.578125 343.132812 187.148438 C 343.023438 187.5 342.695312 187.730469 342.34375 187.730469 C 342.261719 187.730469 342.179688 187.71875 342.101562 187.695312 C 341.667969 187.5625 341.425781 187.101562 341.554688 186.667969 C 342.828125 182.523438 341.820312 172.246094 341.808594 172.144531 C 341.761719 171.691406 342.09375 171.289062 342.546875 171.242188 C 342.972656 171.183594 343.402344 171.527344 343.445312 171.980469 C 343.453125 172.050781 343.488281 172.410156 343.53125 172.941406 C 346.714844 173.113281 360.683594 173.894531 368.257812 174.605469 C 368.710938 174.648438 369.042969 175.050781 369 175.503906 Z M 619.992188 382.222656 C 619.992188 398.277344 606.023438 546.035156 599.695312 612.140625 C 599.667969 612.136719 595.6875 633.910156 595.660156 633.910156 L 526.472656 632.070312 L 541.378906 484.070312 C 541.386719 484.070312 541.390625 484.074219 541.398438 484.074219 C 541.410156 484.074219 541.417969 484.074219 541.425781 484.074219 C 541.871094 484.074219 542.234375 483.722656 542.246094 483.277344 L 545.789062 369.183594 C 545.792969 368.976562 545.722656 368.777344 545.589844 368.621094 L 532.878906 353.792969 C 532.582031 353.449219 532.058594 353.410156 531.71875 353.703125 C 531.371094 354 531.332031 354.519531 531.628906 354.863281 L 544.132812 369.449219 L 540.601562 483.226562 C 540.589844 483.601562 540.835938 483.914062 541.179688 484.023438 L 500.371094 612.175781 C 500.292969 612.152344 492.273438 632.683594 492.183594 632.683594 L 415.035156 627.171875 C 433.1875 565.007812 483.109375 415.761719 491.019531 387.785156 C 497.320312 365.511719 506.074219 336.117188 521.734375 316.507812 C 520.699219 314.535156 517.585938 308.070312 515.335938 297.789062 C 512.875 286.53125 511.074219 268.429688 516.488281 246.140625 C 516.59375 245.699219 517.035156 245.4375 517.480469 245.535156 C 517.925781 245.640625 518.195312 246.085938 518.085938 246.527344 C 512.753906 268.476562 514.511719 286.285156 516.925781 297.359375 C 519.542969 309.363281 523.472656 316.265625 523.507812 316.332031 C 523.609375 316.507812 523.628906 316.703125 523.597656 316.886719 C 528.859375 325.433594 535.628906 331.496094 544.355469 333.242188 C 543.585938 329.167969 542.816406 325.308594 542.078125 321.625 C 537.746094 299.898438 534.617188 284.203125 538.429688 260.808594 C 541.292969 243.238281 548.613281 231.222656 549.757812 229.425781 L 548.992188 211.894531 C 548.972656 211.441406 549.324219 211.054688 549.78125 211.035156 C 550.234375 211.027344 550.621094 211.371094 550.636719 211.824219 L 551.414062 229.617188 C 551.421875 229.789062 551.375 229.964844 551.273438 230.113281 C 551.191406 230.230469 543.089844 242.460938 540.054688 261.074219 C 536.289062 284.175781 539.394531 299.75 543.695312 321.300781 C 544.449219 325.074219 545.234375 329.011719 546.019531 333.1875 C 546.039062 333.300781 546.035156 333.414062 546.011719 333.519531 C 547.1875 333.675781 548.394531 333.777344 549.640625 333.777344 C 567.964844 333.777344 579.429688 320.578125 587.476562 302.195312 C 592.582031 305.097656 597.144531 308.835938 601 313.210938 C 598.109375 313.816406 596.546875 315.328125 596.546875 315.328125 C 593.867188 317.269531 589.273438 320.933594 588.328125 321.59375 C 583.753906 324.785156 587.574219 329.210938 591.546875 327.039062 C 594.394531 325.484375 596.15625 325.105469 600.003906 323.210938 C 599.847656 322.890625 599.898438 322.492188 600.179688 322.242188 L 602.96875 319.71875 C 603.304688 319.414062 603.828125 319.441406 604.128906 319.777344 C 604.433594 320.117188 604.410156 320.636719 604.070312 320.941406 L 601.28125 323.460938 C 601.121094 323.601562 600.925781 323.671875 600.730469 323.671875 C 600.523438 323.671875 600.324219 323.589844 600.164062 323.433594 C 596.625 327.132812 597.515625 327.1875 593.71875 330.949219 C 589.5 335.132812 593.953125 339.992188 597.710938 336.964844 C 597.8125 336.882812 597.9375 336.78125 598.050781 336.691406 C 597.789062 336.359375 597.808594 335.882812 598.121094 335.585938 L 608.894531 325.367188 C 609.222656 325.058594 609.746094 325.070312 610.058594 325.402344 C 610.367188 325.730469 610.355469 326.253906 610.023438 326.566406 L 599.25 336.78125 C 599.089844 336.933594 598.886719 337.007812 598.683594 337.007812 C 598.554688 337.007812 598.429688 336.96875 598.3125 336.910156 C 597.105469 339.886719 600.195312 342.628906 603.128906 340.59375 C 604.082031 339.933594 605.269531 339.136719 606.578125 338.265625 C 606.449219 337.933594 606.539062 337.546875 606.835938 337.320312 L 614.632812 331.410156 C 614.992188 331.136719 615.511719 331.207031 615.785156 331.570312 C 616.0625 331.933594 615.988281 332.449219 615.625 332.722656 L 607.828125 338.632812 C 607.683594 338.742188 607.507812 338.800781 607.332031 338.800781 C 607.304688 338.800781 607.285156 338.785156 607.257812 338.78125 C 606.191406 341.246094 608.730469 343.785156 611.285156 342.257812 C 612.027344 341.8125 613.53125 341.117188 615.214844 340.324219 C 619.265625 353.835938 619.992188 367.851562 619.992188 382.222656 Z M 258.605469 210.136719 C 258.898438 210.484375 258.847656 211.003906 258.5 211.292969 L 225.824219 238.433594 C 225.671875 238.5625 225.484375 238.625 225.300781 238.625 C 225.0625 238.625 224.828125 238.523438 224.664062 238.324219 C 224.375 237.976562 224.421875 237.457031 224.773438 237.167969 L 257.445312 210.027344 C 257.792969 209.738281 258.316406 209.785156 258.605469 210.136719 Z M 207.179688 476.171875 L 210.148438 625.890625 L 171.421875 625.890625 C 163.910156 600.949219 146.457031 530.207031 154.976562 486.023438 L 139.769531 376.257812 L 139.992188 356.160156 L 153.410156 352.582031 C 153.851562 352.464844 154.113281 352.011719 153.996094 351.574219 C 153.878906 351.136719 153.429688 350.878906 152.988281 350.992188 L 138.964844 354.734375 C 138.605469 354.828125 138.359375 355.148438 138.355469 355.519531 L 137.980469 389.160156 C 137.976562 389.617188 138.34375 389.988281 138.792969 389.996094 L 133.789062 625.890625 L 93.558594 625.890625 C 90.671875 608.714844 85.230469 575.757812 82.621094 556.195312 C 78.976562 528.847656 84.375 479.425781 84.375 479.425781 L 79.132812 380.609375 C 78.253906 362.472656 78.476562 341.089844 79.78125 321.578125 C 80.660156 322.234375 81.667969 322.746094 82.773438 323.070312 C 119.320312 333.8125 156.621094 338.484375 194.679688 337.082031 C 195 337.070312 195.296875 337.035156 195.585938 336.984375 Z M 82.089844 270.234375 C 78.859375 269.582031 75.765625 267.65625 74.570312 265.550781 C 74.347656 265.15625 74.484375 264.652344 74.882812 264.425781 C 75.273438 264.199219 75.777344 264.339844 76.003906 264.738281 C 76.828125 266.191406 79.296875 267.992188 82.417969 268.621094 C 84.429688 269.027344 87.386719 269.070312 90.097656 266.980469 C 90.453125 266.703125 90.972656 266.769531 91.25 267.132812 C 91.527344 267.492188 91.457031 268.007812 91.097656 268.285156 C 88.902344 269.976562 86.578125 270.488281 84.578125 270.488281 C 83.667969 270.488281 82.824219 270.382812 82.089844 270.234375 Z M 213.515625 194.921875 L 210.398438 223.929688 C 210.351562 224.351562 209.996094 224.664062 209.582031 224.664062 C 209.550781 224.664062 209.523438 224.664062 209.492188 224.660156 C 209.039062 224.613281 208.710938 224.207031 208.761719 223.753906 L 211.882812 194.742188 C 211.929688 194.289062 212.332031 193.976562 212.789062 194.015625 C 213.238281 194.0625 213.566406 194.46875 213.515625 194.921875 Z M 213.515625 194.921875 " fill-opacity="1" fill-rule="evenodd"/></svg>