<svg xmlns="http://www.w3.org/2000/svg" xmlns:xlink="http://www.w3.org/1999/xlink" width="900" zoomAndPan="magnify" viewBox="0 0 675 675.000002" height="900" preserveAspectRatio="xMidYMid meet" version="1.0"><defs><clipPath id="ea32c70cc1"><path d="M 466 393 L 611 393 L 611 606.320312 L 466 606.320312 Z M 466 393 " clip-rule="nonzero"/></clipPath><clipPath id="8bfe23203e"><path d="M 480 410 L 596 410 L 596 606.320312 L 480 606.320312 Z M 480 410 " clip-rule="nonzero"/></clipPath><clipPath id="39c20e8ee0"><path d="M 189 31.171875 L 537 31.171875 L 537 606.320312 L 189 606.320312 Z M 189 31.171875 " clip-rule="nonzero"/></clipPath><clipPath id="6bc455eeca"><path d="M 559 113 L 674.5 113 L 674.5 210 L 559 210 Z M 559 113 " clip-rule="nonzero"/></clipPath><clipPath id="4a58303f74"><path d="M 561 142 L 674.5 142 L 674.5 210 L 561 210 Z M 561 142 " clip-rule="nonzero"/></clipPath><clipPath id="3d590b28c6"><path d="M 561 113 L 674.5 113 L 674.5 184 L 561 184 Z M 561 113 " clip-rule="nonzero"/></clipPath></defs><path fill="#fafaca" d="M 201.421875 571.609375 L 541.414062 571.609375 C 603.554688 571.609375 639.609375 501.3125 603.328125 450.886719 C 581.460938 420.492188 584.914062 378.722656 611.480469 352.328125 L 626.628906 337.277344 C 674.542969 289.671875 657 208.464844 593.703125 184.859375 L 359.644531 97.582031 C 323.140625 83.972656 283.617188 108.515625 279.660156 147.253906 C 276.40625 179.046875 248.597656 202.589844 216.6875 200.554688 L 201.191406 199.570312 C 157.617188 196.796875 120.753906 231.371094 120.753906 275.007812 L 120.753906 310.703125 C 120.753906 331.957031 113.4375 352.566406 100.03125 369.066406 L 86.496094 385.726562 C 54.257812 425.417969 60.300781 483.714844 99.996094 515.953125 L 143.007812 550.878906 C 159.519531 564.289062 180.144531 571.609375 201.421875 571.609375 Z M 201.421875 571.609375 " fill-opacity="1" fill-rule="nonzero"/><path fill="#032068" d="M 579.917969 507.304688 C 553.726562 504.476562 520.339844 569.800781 507.363281 601.933594 L 526.828125 601.933594 C 555.144531 572.160156 606.109375 510.132812 579.917969 507.304688 Z M 579.917969 507.304688 " fill-opacity="1" fill-rule="nonzero"/><path fill="#ffffff" d="M 575.492188 410.90625 C 523.820312 415.152344 492.617188 538.847656 483.472656 600.164062 L 517.097656 600.164062 C 558.09375 535.308594 627.167969 406.660156 575.492188 410.90625 Z M 575.492188 410.90625 " fill-opacity="1" fill-rule="nonzero"/><g clip-path="url(#ea32c70cc1)"><path stroke-linecap="butt" transform="matrix(1.494129, 0, 0, 1.493399, -11.902008, -63.115705)" fill="none" stroke-linejoin="miter" d="M 393.134952 317.411356 C 358.551669 320.254596 337.667841 403.08261 331.547531 444.140885 L 354.052286 444.140885 C 381.490415 400.712807 427.72085 314.568116 393.134952 317.411356 Z M 393.134952 317.411356 " stroke="#032068" stroke-width="2" stroke-opacity="1" stroke-miterlimit="4"/></g><g clip-path="url(#8bfe23203e)"><path stroke-linecap="butt" transform="matrix(1.494129, 0, 0, 1.493399, -11.902008, -63.115705)" fill="none" stroke-linejoin="miter" d="M 341.022116 444.734643 C 341.905784 443.675294 346.990792 432.474967 353.850977 416.901229 M 391.953244 328.663997 C 389.098319 335.354897 385.717899 343.264703 382.07604 351.757805 M 382.07604 351.757805 L 395.506213 345.835913 M 382.07604 351.757805 C 378.983205 358.966609 375.704747 366.596538 372.397531 374.263086 M 372.397531 374.263086 L 364.711195 358.273455 M 372.397531 374.263086 C 368.496846 383.308095 364.55956 392.400187 360.849726 400.911598 M 360.849726 400.911598 L 375.963573 394.989707 M 360.849726 400.911598 C 358.39219 406.558844 356.031387 411.949753 353.850977 416.901229 M 353.850977 416.901229 L 348.721524 400.911598 " stroke="#032068" stroke-width="2" stroke-opacity="1" stroke-miterlimit="4"/></g><path fill="#ffffff" d="M 224.488281 32.703125 L 501.660156 32.703125 C 502.246094 32.703125 502.832031 32.734375 503.414062 32.789062 C 504 32.847656 504.582031 32.933594 505.15625 33.046875 C 505.730469 33.164062 506.300781 33.304688 506.863281 33.476562 C 507.425781 33.644531 507.976562 33.84375 508.519531 34.066406 C 509.0625 34.292969 509.59375 34.542969 510.109375 34.820312 C 510.628906 35.097656 511.132812 35.398438 511.621094 35.722656 C 512.109375 36.050781 512.578125 36.398438 513.03125 36.773438 C 513.488281 37.144531 513.921875 37.539062 514.335938 37.953125 C 514.75 38.367188 515.144531 38.800781 515.519531 39.253906 C 515.890625 39.710938 516.238281 40.179688 516.566406 40.667969 C 516.890625 41.15625 517.195312 41.660156 517.472656 42.175781 C 517.746094 42.695312 518 43.222656 518.222656 43.765625 C 518.449219 44.308594 518.644531 44.859375 518.816406 45.421875 C 518.988281 45.984375 519.128906 46.554688 519.242188 47.128906 C 519.359375 47.703125 519.445312 48.285156 519.5 48.867188 C 519.558594 49.453125 519.589844 50.039062 519.589844 50.625 L 519.589844 581.875 C 519.589844 582.460938 519.558594 583.046875 519.5 583.632812 C 519.445312 584.214844 519.359375 584.796875 519.242188 585.371094 C 519.128906 585.945312 518.988281 586.515625 518.816406 587.078125 C 518.644531 587.636719 518.449219 588.191406 518.222656 588.734375 C 518 589.273438 517.746094 589.804688 517.472656 590.324219 C 517.195312 590.839844 516.890625 591.34375 516.566406 591.832031 C 516.238281 592.320312 515.890625 592.789062 515.519531 593.242188 C 515.144531 593.695312 514.75 594.132812 514.335938 594.546875 C 513.921875 594.960938 513.488281 595.355469 513.03125 595.726562 C 512.578125 596.101562 512.109375 596.449219 511.621094 596.773438 C 511.132812 597.101562 510.628906 597.402344 510.109375 597.679688 C 509.59375 597.957031 509.0625 598.207031 508.519531 598.429688 C 507.976562 598.65625 507.425781 598.851562 506.863281 599.023438 C 506.300781 599.195312 505.730469 599.335938 505.15625 599.449219 C 504.582031 599.566406 504 599.652344 503.414062 599.710938 C 502.832031 599.765625 502.246094 599.796875 501.660156 599.796875 L 224.488281 599.796875 C 223.898438 599.796875 223.3125 599.765625 222.730469 599.710938 C 222.144531 599.652344 221.566406 599.566406 220.988281 599.449219 C 220.414062 599.335938 219.84375 599.195312 219.28125 599.023438 C 218.71875 598.851562 218.167969 598.65625 217.625 598.429688 C 217.082031 598.207031 216.554688 597.957031 216.035156 597.679688 C 215.515625 597.402344 215.015625 597.101562 214.527344 596.773438 C 214.039062 596.449219 213.566406 596.101562 213.113281 595.726562 C 212.660156 595.355469 212.222656 594.960938 211.808594 594.546875 C 211.394531 594.132812 211 593.695312 210.628906 593.242188 C 210.253906 592.789062 209.90625 592.320312 209.578125 591.832031 C 209.253906 591.34375 208.953125 590.839844 208.675781 590.324219 C 208.398438 589.804688 208.148438 589.273438 207.921875 588.734375 C 207.699219 588.191406 207.5 587.636719 207.328125 587.078125 C 207.160156 586.515625 207.015625 585.945312 206.902344 585.371094 C 206.789062 584.796875 206.703125 584.214844 206.644531 583.632812 C 206.585938 583.046875 206.558594 582.460938 206.558594 581.875 L 206.558594 50.625 C 206.558594 50.039062 206.585938 49.453125 206.644531 48.867188 C 206.703125 48.285156 206.789062 47.703125 206.902344 47.128906 C 207.015625 46.554688 207.160156 45.984375 207.328125 45.421875 C 207.5 44.859375 207.699219 44.308594 207.921875 43.765625 C 208.148438 43.222656 208.398438 42.695312 208.675781 42.175781 C 208.953125 41.660156 209.253906 41.15625 209.578125 40.667969 C 209.90625 40.179688 210.253906 39.710938 210.628906 39.253906 C 211 38.800781 211.394531 38.367188 211.808594 37.953125 C 212.222656 37.539062 212.660156 37.144531 213.113281 36.773438 C 213.566406 36.398438 214.039062 36.050781 214.527344 35.722656 C 215.015625 35.398438 215.515625 35.097656 216.035156 34.820312 C 216.554688 34.542969 217.082031 34.292969 217.625 34.066406 C 218.167969 33.84375 218.71875 33.644531 219.28125 33.476562 C 219.84375 33.304688 220.414062 33.164062 220.988281 33.046875 C 221.566406 32.933594 222.144531 32.847656 222.730469 32.789062 C 223.3125 32.734375 223.898438 32.703125 224.488281 32.703125 Z M 224.488281 32.703125 " fill-opacity="1" fill-rule="nonzero"/><g clip-path="url(#39c20e8ee0)"><path stroke-linecap="butt" transform="matrix(1.494129, 0, 0, 1.493399, -11.902008, -63.115705)" fill="none" stroke-linejoin="miter" d="M 158.212808 64.161553 L 343.720177 64.161553 C 344.112337 64.161553 344.504497 64.182478 344.894043 64.219098 C 345.286203 64.258333 345.675748 64.315878 346.060065 64.391732 C 346.444382 64.470203 346.826084 64.564367 347.202558 64.679457 C 347.579032 64.791931 347.947662 64.92533 348.311064 65.074424 C 348.674465 65.226133 349.030024 65.393536 349.375124 65.57925 C 349.72284 65.764963 350.060097 65.96637 350.386897 66.183471 C 350.713697 66.403188 351.027425 66.635983 351.330696 66.887088 C 351.636581 67.135577 351.926779 67.39976 352.203905 67.677022 C 352.481032 67.954284 352.745086 68.244624 352.996069 68.548042 C 353.244437 68.854077 353.477118 69.167958 353.696728 69.494917 C 353.913723 69.821877 354.117646 70.159299 354.303269 70.504568 C 354.486277 70.852453 354.656213 71.20557 354.805233 71.569149 C 354.956869 71.932728 355.087589 72.301538 355.202622 72.678196 C 355.317656 73.054853 355.411774 73.436742 355.487592 73.821246 C 355.566024 74.205751 355.623541 74.595487 355.660142 74.985222 C 355.699358 75.377574 355.720273 75.769925 355.720273 76.162277 L 355.720273 431.894287 C 355.720273 432.286639 355.699358 432.67899 355.660142 433.071342 C 355.623541 433.461077 355.566024 433.850813 355.487592 434.235318 C 355.411774 434.619822 355.317656 435.001711 355.202622 435.378368 C 355.087589 435.75241 354.956869 436.123836 354.805233 436.487415 C 354.656213 436.848378 354.486277 437.20411 354.303269 437.551995 C 354.117646 437.897265 353.913723 438.234687 353.696728 438.561647 C 353.477118 438.888606 353.244437 439.202487 352.996069 439.505906 C 352.745086 439.809324 352.481032 440.10228 352.203905 440.379542 C 351.926779 440.656804 351.636581 440.920987 351.330696 441.169476 C 351.027425 441.420581 350.713697 441.653376 350.386897 441.870477 C 350.060097 442.090194 349.72284 442.291601 349.375124 442.477314 C 349.030024 442.663027 348.674465 442.830431 348.311064 442.979524 C 347.947662 443.131234 347.579032 443.262017 347.202558 443.377107 C 346.826084 443.492197 346.444382 443.586361 346.060065 443.662216 C 345.675748 443.740686 345.286203 443.798231 344.894043 443.837466 C 344.504497 443.874086 344.112337 443.895011 343.720177 443.895011 L 158.212808 443.895011 C 157.818034 443.895011 157.425874 443.874086 157.036328 443.837466 C 156.644168 443.798231 156.257237 443.740686 155.870306 443.662216 C 155.485989 443.586361 155.104286 443.492197 154.727813 443.377107 C 154.351339 443.262017 153.982709 443.131234 153.619307 442.979524 C 153.255906 442.830431 152.902962 442.663027 152.555246 442.477314 C 152.207531 442.291601 151.872888 442.090194 151.546088 441.870477 C 151.219288 441.653376 150.902946 441.420581 150.599675 441.169476 C 150.296405 440.920987 150.003592 440.656804 149.726466 440.379542 C 149.449339 440.10228 149.185285 439.809324 148.936917 439.505906 C 148.685934 439.202487 148.453253 438.888606 148.233643 438.561647 C 148.016648 438.234687 147.815339 437.897265 147.629717 437.551995 C 147.444094 437.20411 147.276773 436.848378 147.125138 436.487415 C 146.976117 436.123836 146.842782 435.75241 146.727749 435.378368 C 146.61533 435.001711 146.518597 434.619822 146.442779 434.235318 C 146.366962 433.850813 146.309445 433.461077 146.270229 433.071342 C 146.231013 432.67899 146.212712 432.286639 146.212712 431.894287 L 146.212712 76.162277 C 146.212712 75.769925 146.231013 75.377574 146.270229 74.985222 C 146.309445 74.595487 146.366962 74.205751 146.442779 73.821246 C 146.518597 73.436742 146.61533 73.054853 146.727749 72.678196 C 146.842782 72.301538 146.976117 71.932728 147.125138 71.569149 C 147.276773 71.20557 147.444094 70.852453 147.629717 70.504568 C 147.815339 70.159299 148.016648 69.821877 148.233643 69.494917 C 148.453253 69.167958 148.685934 68.854077 148.936917 68.548042 C 149.185285 68.244624 149.449339 67.954284 149.726466 67.677022 C 150.003592 67.39976 150.296405 67.135577 150.599675 66.887088 C 150.902946 66.635983 151.219288 66.403188 151.546088 66.183471 C 151.872888 65.96637 152.207531 65.764963 152.555246 65.57925 C 152.902962 65.393536 153.255906 65.226133 153.619307 65.074424 C 153.982709 64.92533 154.351339 64.791931 154.727813 64.679457 C 155.104286 64.564367 155.485989 64.470203 155.870306 64.391732 C 156.257237 64.315878 156.644168 64.258333 157.036328 64.219098 C 157.425874 64.182478 157.818034 64.161553 158.212808 64.161553 Z M 158.212808 64.161553 " stroke="#032068" stroke-width="2" stroke-opacity="1" stroke-miterlimit="4"/></g><path fill="#032068" d="M 302.117188 54.128906 L 290.683594 32.703125 L 435.460938 32.703125 L 422.207031 54.785156 C 419.503906 59.28125 414.640625 62.035156 409.394531 62.035156 L 315.300781 62.035156 C 309.78125 62.035156 304.710938 58.996094 302.117188 54.128906 Z M 302.117188 54.128906 " fill-opacity="1" fill-rule="nonzero"/><path fill="#032068" d="M 515.746094 44.4375 L 208.398438 44.4375 C 218.574219 34.265625 228.292969 32.378906 231.878906 32.703125 L 492.269531 32.703125 C 504.792969 32.703125 513.140625 40.523438 515.746094 44.4375 Z M 515.746094 44.4375 " fill-opacity="1" fill-rule="nonzero"/><path fill="#032068" d="M 515.601562 588.675781 L 210.546875 588.675781 C 221.117188 599.007812 227.230469 600.929688 230.957031 600.597656 L 495.191406 600.597656 C 508.203125 600.597656 512.890625 592.648438 515.601562 588.675781 Z M 515.601562 588.675781 " fill-opacity="1" fill-rule="nonzero"/><path fill="#fafaca" d="M 241.660156 152.910156 C 241.660156 150.4375 243.664062 148.429688 246.140625 148.429688 L 468.667969 148.429688 C 473.101562 148.429688 474.84375 154.179688 471.152344 156.636719 L 456.214844 166.589844 C 454.96875 167.421875 454.21875 168.820312 454.21875 170.320312 L 454.21875 221.914062 C 454.21875 224.390625 452.214844 226.394531 449.738281 226.394531 L 246.140625 226.394531 C 243.664062 226.394531 241.660156 224.390625 241.660156 221.914062 Z M 241.660156 152.910156 " fill-opacity="1" fill-rule="nonzero"/><path fill="#ffffff" d="M 267.984375 171.820312 L 427.894531 171.820312 C 428.28125 171.820312 428.652344 171.894531 429.011719 172.042969 C 429.371094 172.191406 429.6875 172.402344 429.960938 172.675781 C 430.234375 172.949219 430.449219 173.265625 430.597656 173.625 C 430.746094 173.984375 430.820312 174.355469 430.820312 174.742188 C 430.820312 175.132812 430.746094 175.503906 430.597656 175.863281 C 430.449219 176.222656 430.234375 176.539062 429.960938 176.8125 C 429.6875 177.085938 429.371094 177.296875 429.011719 177.445312 C 428.652344 177.59375 428.28125 177.667969 427.894531 177.667969 L 267.984375 177.667969 C 267.597656 177.667969 267.222656 177.59375 266.867188 177.445312 C 266.507812 177.296875 266.191406 177.085938 265.917969 176.8125 C 265.644531 176.539062 265.429688 176.222656 265.28125 175.863281 C 265.132812 175.503906 265.058594 175.132812 265.058594 174.742188 C 265.058594 174.355469 265.132812 173.984375 265.28125 173.625 C 265.429688 173.265625 265.644531 172.949219 265.917969 172.675781 C 266.191406 172.402344 266.507812 172.191406 266.867188 172.042969 C 267.222656 171.894531 267.597656 171.820312 267.984375 171.820312 Z M 267.984375 171.820312 " fill-opacity="1" fill-rule="nonzero"/><path fill="#ffffff" d="M 267.984375 197.160156 L 344.039062 197.160156 C 344.425781 197.160156 344.800781 197.234375 345.15625 197.382812 C 345.515625 197.53125 345.832031 197.742188 346.105469 198.015625 C 346.382812 198.289062 346.59375 198.605469 346.742188 198.964844 C 346.890625 199.320312 346.964844 199.695312 346.964844 200.082031 C 346.964844 200.46875 346.890625 200.84375 346.742188 201.203125 C 346.59375 201.558594 346.382812 201.875 346.105469 202.148438 C 345.832031 202.425781 345.515625 202.636719 345.15625 202.785156 C 344.800781 202.933594 344.425781 203.007812 344.039062 203.007812 L 267.984375 203.007812 C 267.597656 203.007812 267.222656 202.933594 266.867188 202.785156 C 266.507812 202.636719 266.191406 202.425781 265.917969 202.148438 C 265.644531 201.875 265.429688 201.558594 265.28125 201.203125 C 265.132812 200.84375 265.058594 200.46875 265.058594 200.082031 C 265.058594 199.695312 265.132812 199.320312 265.28125 198.964844 C 265.429688 198.605469 265.644531 198.289062 265.917969 198.015625 C 266.191406 197.742188 266.507812 197.53125 266.867188 197.382812 C 267.222656 197.234375 267.597656 197.160156 267.984375 197.160156 Z M 267.984375 197.160156 " fill-opacity="1" fill-rule="nonzero"/><path fill="#fafaca" d="M 268.960938 257.582031 L 480.9375 257.582031 C 483.414062 257.582031 485.421875 259.589844 485.421875 262.0625 L 485.421875 331.070312 C 485.421875 333.542969 483.414062 335.546875 480.9375 335.546875 L 273.445312 335.546875 C 270.96875 335.546875 268.960938 333.542969 268.960938 331.070312 L 268.960938 279.378906 C 268.960938 277.933594 268.261719 276.574219 267.082031 275.734375 L 253.042969 265.707031 C 249.492188 263.175781 251.285156 257.582031 255.644531 257.582031 Z M 268.960938 257.582031 " fill-opacity="1" fill-rule="nonzero"/><path fill="#ffffff" d="M 299.1875 282.921875 L 459.09375 282.921875 C 459.484375 282.921875 459.855469 282.996094 460.214844 283.144531 C 460.574219 283.292969 460.890625 283.503906 461.164062 283.777344 C 461.4375 284.050781 461.648438 284.367188 461.796875 284.726562 C 461.945312 285.085938 462.019531 285.457031 462.019531 285.84375 C 462.019531 286.234375 461.945312 286.605469 461.796875 286.964844 C 461.648438 287.324219 461.4375 287.640625 461.164062 287.914062 C 460.890625 288.1875 460.574219 288.398438 460.214844 288.546875 C 459.855469 288.695312 459.484375 288.769531 459.09375 288.769531 L 299.1875 288.769531 C 298.800781 288.769531 298.425781 288.695312 298.066406 288.546875 C 297.710938 288.398438 297.394531 288.1875 297.117188 287.914062 C 296.84375 287.640625 296.632812 287.324219 296.484375 286.964844 C 296.335938 286.605469 296.261719 286.234375 296.261719 285.84375 C 296.261719 285.457031 296.335938 285.085938 296.484375 284.726562 C 296.632812 284.367188 296.84375 284.050781 297.117188 283.777344 C 297.394531 283.503906 297.710938 283.292969 298.066406 283.144531 C 298.425781 282.996094 298.800781 282.921875 299.1875 282.921875 Z M 299.1875 282.921875 " fill-opacity="1" fill-rule="nonzero"/><path fill="#fafaca" d="M 241.660156 371.214844 C 241.660156 368.742188 243.664062 366.734375 246.140625 366.734375 L 468.667969 366.734375 C 473.101562 366.734375 474.84375 372.484375 471.152344 374.941406 L 456.214844 384.898438 C 454.96875 385.726562 454.21875 387.125 454.21875 388.625 L 454.21875 440.222656 C 454.21875 442.695312 452.214844 444.703125 449.738281 444.703125 L 246.140625 444.703125 C 243.664062 444.703125 241.660156 442.695312 241.660156 440.222656 Z M 241.660156 371.214844 " fill-opacity="1" fill-rule="nonzero"/><path fill="#ffffff" d="M 271.886719 392.074219 L 431.792969 392.074219 C 432.183594 392.074219 432.554688 392.148438 432.914062 392.296875 C 433.273438 392.445312 433.589844 392.65625 433.863281 392.929688 C 434.136719 393.203125 434.347656 393.519531 434.496094 393.878906 C 434.644531 394.238281 434.71875 394.609375 434.71875 394.996094 C 434.71875 395.386719 434.644531 395.757812 434.496094 396.117188 C 434.347656 396.476562 434.136719 396.792969 433.863281 397.066406 C 433.589844 397.339844 433.273438 397.550781 432.914062 397.699219 C 432.554688 397.847656 432.183594 397.921875 431.792969 397.921875 L 271.886719 397.921875 C 271.5 397.921875 271.125 397.847656 270.765625 397.699219 C 270.410156 397.550781 270.09375 397.339844 269.816406 397.066406 C 269.542969 396.792969 269.332031 396.476562 269.183594 396.117188 C 269.035156 395.757812 268.960938 395.386719 268.960938 394.996094 C 268.960938 394.609375 269.035156 394.238281 269.183594 393.878906 C 269.332031 393.519531 269.542969 393.203125 269.816406 392.929688 C 270.09375 392.65625 270.410156 392.445312 270.765625 392.296875 C 271.125 392.148438 271.5 392.074219 271.886719 392.074219 Z M 271.886719 392.074219 " fill-opacity="1" fill-rule="nonzero"/><path fill="#ffffff" d="M 299.1875 308.261719 L 375.238281 308.261719 C 375.628906 308.261719 376 308.335938 376.359375 308.484375 C 376.71875 308.628906 377.035156 308.84375 377.308594 309.117188 C 377.582031 309.390625 377.792969 309.707031 377.941406 310.066406 C 378.089844 310.421875 378.164062 310.796875 378.164062 311.183594 C 378.164062 311.570312 378.089844 311.945312 377.941406 312.304688 C 377.792969 312.660156 377.582031 312.976562 377.308594 313.25 C 377.035156 313.527344 376.71875 313.738281 376.359375 313.886719 C 376 314.035156 375.628906 314.109375 375.238281 314.109375 L 299.1875 314.109375 C 298.800781 314.109375 298.425781 314.035156 298.066406 313.886719 C 297.710938 313.738281 297.394531 313.527344 297.117188 313.25 C 296.84375 312.976562 296.632812 312.660156 296.484375 312.304688 C 296.335938 311.945312 296.261719 311.570312 296.261719 311.183594 C 296.261719 310.796875 296.335938 310.421875 296.484375 310.066406 C 296.632812 309.707031 296.84375 309.390625 297.117188 309.117188 C 297.394531 308.84375 297.710938 308.628906 298.066406 308.484375 C 298.425781 308.335938 298.800781 308.261719 299.1875 308.261719 Z M 299.1875 308.261719 " fill-opacity="1" fill-rule="nonzero"/><path fill="#fafaca" d="M 268.960938 475.886719 L 480.941406 475.886719 C 483.417969 475.886719 485.421875 477.890625 485.421875 480.367188 L 485.421875 549.371094 C 485.421875 551.847656 483.417969 553.851562 480.941406 553.851562 L 273.445312 553.851562 C 270.96875 553.851562 268.960938 551.847656 268.960938 549.371094 L 268.960938 497.585938 C 268.960938 496.195312 268.3125 494.882812 267.210938 494.03125 L 254.054688 483.917969 C 250.664062 481.308594 252.507812 475.886719 256.789062 475.886719 Z M 268.960938 475.886719 " fill-opacity="1" fill-rule="nonzero"/><path fill="#ffffff" d="M 297.238281 499.277344 L 457.144531 499.277344 C 457.535156 499.277344 457.90625 499.351562 458.265625 499.5 C 458.625 499.648438 458.941406 499.859375 459.214844 500.132812 C 459.488281 500.40625 459.699219 500.722656 459.847656 501.082031 C 459.996094 501.441406 460.070312 501.8125 460.070312 502.203125 C 460.070312 502.589844 459.996094 502.960938 459.847656 503.320312 C 459.699219 503.679688 459.488281 503.996094 459.214844 504.269531 C 458.941406 504.542969 458.625 504.753906 458.265625 504.902344 C 457.90625 505.050781 457.535156 505.125 457.144531 505.125 L 297.238281 505.125 C 296.851562 505.125 296.476562 505.050781 296.117188 504.902344 C 295.757812 504.753906 295.441406 504.542969 295.167969 504.269531 C 294.894531 503.996094 294.683594 503.679688 294.535156 503.320312 C 294.386719 502.960938 294.3125 502.589844 294.3125 502.203125 C 294.3125 501.8125 294.386719 501.441406 294.535156 501.082031 C 294.683594 500.722656 294.894531 500.40625 295.167969 500.132812 C 295.441406 499.859375 295.757812 499.648438 296.117188 499.5 C 296.476562 499.351562 296.851562 499.277344 297.238281 499.277344 Z M 297.238281 499.277344 " fill-opacity="1" fill-rule="nonzero"/><path fill="#ffffff" d="M 271.886719 417.414062 L 390.84375 417.414062 C 391.230469 417.414062 391.601562 417.488281 391.960938 417.636719 C 392.320312 417.785156 392.636719 417.996094 392.910156 418.269531 C 393.183594 418.542969 393.394531 418.859375 393.542969 419.21875 C 393.691406 419.574219 393.765625 419.949219 393.765625 420.335938 C 393.765625 420.722656 393.691406 421.097656 393.542969 421.457031 C 393.394531 421.8125 393.183594 422.128906 392.910156 422.402344 C 392.636719 422.679688 392.320312 422.890625 391.960938 423.039062 C 391.601562 423.1875 391.230469 423.261719 390.84375 423.261719 L 271.886719 423.261719 C 271.5 423.261719 271.125 423.1875 270.765625 423.039062 C 270.410156 422.890625 270.09375 422.679688 269.816406 422.402344 C 269.542969 422.128906 269.332031 421.8125 269.183594 421.457031 C 269.035156 421.097656 268.960938 420.722656 268.960938 420.335938 C 268.960938 419.949219 269.035156 419.574219 269.183594 419.21875 C 269.332031 418.859375 269.542969 418.542969 269.816406 418.269531 C 270.09375 417.996094 270.410156 417.785156 270.765625 417.636719 C 271.125 417.488281 271.5 417.414062 271.886719 417.414062 Z M 271.886719 417.414062 " fill-opacity="1" fill-rule="nonzero"/><path fill="#ab3a3a" d="M 246.925781 104.414062 L 349.617188 104.414062 C 349.910156 104.414062 350.203125 104.441406 350.492188 104.5 C 350.78125 104.554688 351.0625 104.640625 351.332031 104.753906 C 351.605469 104.867188 351.863281 105.003906 352.109375 105.167969 C 352.351562 105.332031 352.578125 105.515625 352.785156 105.722656 C 352.996094 105.933594 353.179688 106.160156 353.34375 106.402344 C 353.507812 106.648438 353.644531 106.90625 353.757812 107.179688 C 353.871094 107.449219 353.957031 107.730469 354.011719 108.019531 C 354.070312 108.308594 354.101562 108.597656 354.101562 108.890625 L 354.101562 111.890625 C 354.101562 112.183594 354.070312 112.476562 354.011719 112.765625 C 353.957031 113.050781 353.871094 113.332031 353.757812 113.605469 C 353.644531 113.875 353.507812 114.132812 353.34375 114.378906 C 353.179688 114.625 352.996094 114.851562 352.785156 115.058594 C 352.578125 115.265625 352.351562 115.453125 352.109375 115.613281 C 351.863281 115.777344 351.605469 115.917969 351.332031 116.027344 C 351.0625 116.140625 350.78125 116.226562 350.492188 116.285156 C 350.203125 116.339844 349.910156 116.371094 349.617188 116.371094 L 246.925781 116.371094 C 246.632812 116.371094 246.339844 116.339844 246.054688 116.285156 C 245.765625 116.226562 245.484375 116.140625 245.210938 116.027344 C 244.941406 115.917969 244.683594 115.777344 244.4375 115.613281 C 244.191406 115.453125 243.964844 115.265625 243.757812 115.058594 C 243.550781 114.851562 243.363281 114.625 243.199219 114.378906 C 243.035156 114.132812 242.898438 113.875 242.785156 113.605469 C 242.671875 113.332031 242.589844 113.050781 242.53125 112.765625 C 242.472656 112.476562 242.445312 112.183594 242.445312 111.890625 L 242.445312 108.890625 C 242.445312 108.597656 242.472656 108.308594 242.53125 108.019531 C 242.589844 107.730469 242.671875 107.449219 242.785156 107.179688 C 242.898438 106.90625 243.035156 106.648438 243.199219 106.402344 C 243.363281 106.160156 243.550781 105.933594 243.757812 105.722656 C 243.964844 105.515625 244.191406 105.332031 244.4375 105.167969 C 244.683594 105.003906 244.941406 104.867188 245.210938 104.753906 C 245.484375 104.640625 245.765625 104.554688 246.054688 104.5 C 246.339844 104.441406 246.632812 104.414062 246.925781 104.414062 Z M 246.925781 104.414062 " fill-opacity="1" fill-rule="nonzero"/><path stroke-linecap="butt" transform="matrix(1.494129, 0, 0, 1.493399, -11.902008, -63.115705)" fill="none" stroke-linejoin="miter" d="M 339.707073 93.496365 L 339.707073 82.821789 " stroke="#032068" stroke-width="2" stroke-opacity="1" stroke-miterlimit="4"/><path stroke-linecap="butt" transform="matrix(1.494129, 0, 0, 1.493399, -11.902008, -63.115705)" fill="none" stroke-linejoin="miter" d="M 333.035124 93.496365 L 333.035124 84.155784 " stroke="#032068" stroke-width="2" stroke-opacity="1" stroke-miterlimit="4"/><path stroke-linecap="butt" transform="matrix(1.494129, 0, 0, 1.493399, -11.902008, -63.115705)" fill="none" stroke-linejoin="miter" d="M 326.363175 93.496365 L 326.363175 86.823774 " stroke="#032068" stroke-width="2" stroke-opacity="1" stroke-miterlimit="4"/><path stroke-linecap="butt" transform="matrix(1.494129, 0, 0, 1.493399, -11.902008, -63.115705)" fill="none" stroke-linejoin="miter" d="M 319.688612 93.496365 L 319.688612 89.49438 " stroke="#032068" stroke-width="2" stroke-opacity="1" stroke-miterlimit="4"/><path fill="#ffffff" d="M 297.238281 524.617188 L 314.789062 524.617188 C 315.175781 524.617188 315.546875 524.691406 315.90625 524.839844 C 316.265625 524.988281 316.582031 525.199219 316.855469 525.472656 C 317.128906 525.746094 317.34375 526.0625 317.492188 526.421875 C 317.640625 526.78125 317.714844 527.152344 317.714844 527.539062 C 317.714844 527.929688 317.640625 528.300781 317.492188 528.660156 C 317.34375 529.015625 317.128906 529.332031 316.855469 529.609375 C 316.582031 529.882812 316.265625 530.09375 315.90625 530.242188 C 315.546875 530.390625 315.175781 530.464844 314.789062 530.464844 L 297.238281 530.464844 C 296.851562 530.464844 296.476562 530.390625 296.117188 530.242188 C 295.757812 530.09375 295.441406 529.882812 295.167969 529.609375 C 294.894531 529.332031 294.683594 529.015625 294.535156 528.660156 C 294.386719 528.300781 294.3125 527.929688 294.3125 527.539062 C 294.3125 527.152344 294.386719 526.78125 294.535156 526.421875 C 294.683594 526.0625 294.894531 525.746094 295.167969 525.472656 C 295.441406 525.199219 295.757812 524.988281 296.117188 524.839844 C 296.476562 524.691406 296.851562 524.617188 297.238281 524.617188 Z M 297.238281 524.617188 " fill-opacity="1" fill-rule="nonzero"/><path fill="#ab3a3a" d="M 101.140625 198.289062 C 102.742188 197.199219 104.816406 198.746094 104.222656 200.589844 L 102.957031 204.523438 C 102.777344 205.085938 102.851562 205.703125 103.160156 206.207031 L 105.433594 209.914062 C 106.394531 211.480469 104.945312 213.417969 103.171875 212.9375 L 98.96875 211.808594 C 98.398438 211.65625 97.789062 211.757812 97.296875 212.09375 L 93.878906 214.417969 C 92.28125 215.507812 90.207031 213.960938 90.800781 212.117188 L 92.0625 208.183594 C 92.246094 207.621094 92.171875 207.003906 91.863281 206.5 L 89.589844 202.792969 C 88.628906 201.226562 90.078125 199.289062 91.851562 199.765625 L 96.050781 200.894531 C 96.625 201.050781 97.234375 200.945312 97.726562 200.613281 Z M 101.140625 198.289062 " fill-opacity="1" fill-rule="nonzero"/><path fill="#ab3a3a" d="M 116.355469 104.617188 C 116.609375 100.453125 121.980469 98.964844 124.339844 102.402344 L 129.382812 109.738281 C 130.105469 110.789062 131.25 111.476562 132.519531 111.613281 L 141.832031 112.628906 C 145.769531 113.058594 147.160156 118.074219 144.007812 120.464844 L 136.546875 126.132812 C 135.53125 126.90625 134.902344 128.082031 134.828125 129.355469 L 134.289062 138.242188 C 134.039062 142.398438 128.664062 143.890625 126.304688 140.457031 L 121.265625 133.117188 C 120.542969 132.0625 119.398438 131.378906 118.128906 131.242188 L 108.816406 130.226562 C 104.878906 129.796875 103.484375 124.785156 106.636719 122.386719 L 114.097656 116.722656 C 115.113281 115.949219 115.742188 114.773438 115.820312 113.5 Z M 116.355469 104.617188 " fill-opacity="1" fill-rule="nonzero"/><path fill="#efcb96" d="M 159.269531 267.886719 C 132.757812 286.625 143.902344 319.941406 148.898438 332.851562 L 146.707031 359.195312 C 148.976562 367.492188 157.199219 384.078125 171.953125 384.078125 C 186.707031 384.078125 193.46875 369.917969 195.007812 362.839844 L 192.699219 342.847656 C 209.992188 336.601562 211.144531 311.613281 209.992188 291.625 C 208.621094 267.886719 182.625 251.378906 159.269531 267.886719 Z M 159.269531 267.886719 " fill-opacity="1" fill-rule="nonzero"/><path fill="#ab3a3a" d="M 170.546875 374.636719 C 187.859375 374.636719 195.984375 364.011719 197.882812 358.699219 C 230.914062 358.699219 258.25 381.46875 270.78125 397.40625 C 283.308594 413.347656 330.007812 497.589844 318.617188 531.746094 C 309.507812 559.070312 287.484375 563.242188 275.335938 561.347656 L 277.351562 597.601562 C 277.492188 600.171875 275.449219 602.332031 272.875 602.332031 L 105.621094 602.332031 C 88.15625 603.46875 50.039062 603.925781 37.28125 596.636719 C 21.335938 587.53125 6.527344 540.855469 37.28125 448.636719 C 61.882812 374.867188 119.667969 357.941406 145.488281 358.699219 C 146.625 364.011719 153.230469 374.636719 170.546875 374.636719 Z M 170.546875 374.636719 " fill-opacity="1" fill-rule="nonzero"/><path fill="#032068" d="M 87.597656 602.398438 C 60.140625 568.945312 31.105469 557.011719 20.023438 555.222656 C 20.023438 565.945312 25.386719 586.316406 35.039062 595.964844 C 42.761719 603.683594 73.296875 603.46875 87.597656 602.398438 Z M 87.597656 602.398438 " fill-opacity="1" fill-rule="nonzero"/><path fill="#032068" d="M 299.980469 557.367188 C 318.003906 550.503906 321.078125 525.917969 320.363281 514.484375 C 304.058594 522.203125 282.105469 548.433594 273.164062 560.585938 C 274.59375 562.371094 281.960938 564.230469 299.980469 557.367188 Z M 299.980469 557.367188 " fill-opacity="1" fill-rule="nonzero"/><path fill="#032068" d="M 168.269531 479.375 C 160.296875 482.792969 101.066406 510.496094 73.730469 523.777344 C 77.148438 518.085938 90.816406 508.976562 94.234375 505.5625 C 97.648438 502.144531 110.179688 462.300781 110.179688 467.992188 C 110.179688 473.683594 103.34375 499.867188 106.761719 499.867188 C 110.179688 499.867188 158.019531 479.375 168.269531 479.375 Z M 168.269531 479.375 " fill-opacity="1" fill-rule="nonzero"/><path fill="#032068" d="M 192.1875 512.394531 C 143.894531 577.058594 104.484375 600.054688 90.816406 603.46875 L 114.734375 603.46875 C 155.738281 571.59375 183.457031 529.46875 192.1875 512.394531 Z M 192.1875 512.394531 " fill-opacity="1" fill-rule="nonzero"/><path fill="#032068" d="M 251.414062 501.007812 C 253.238281 522.867188 268.878906 550.339844 276.476562 561.347656 L 276.476562 571.59375 C 259.160156 552.464844 252.554688 516.566406 251.414062 501.007812 Z M 251.414062 501.007812 " fill-opacity="1" fill-rule="nonzero"/><path fill="#032068" d="M 273.058594 470.269531 C 279.4375 473.914062 290.902344 482.414062 295.835938 486.207031 L 277.613281 464.578125 C 276.703125 468.21875 274.195312 469.890625 273.058594 470.269531 Z M 273.058594 470.269531 " fill-opacity="1" fill-rule="nonzero"/><path stroke-linecap="butt" transform="matrix(1.494129, 0, 0, 1.493399, -11.902008, -63.115705)" fill-opacity="1" fill="#ffffff" fill-rule="nonzero" stroke-linejoin="miter" d="M 145.655845 329.030191 L 139.778673 386.334433 C 139.710699 386.996199 140.29371 387.537644 140.949925 387.419939 L 168.667794 382.444922 C 169.088712 382.369067 169.415512 382.034261 169.478258 381.607905 L 177.575055 327.139057 C 177.669173 326.506063 177.154136 325.948924 176.516223 325.996006 L 146.578728 328.133014 C 146.095064 328.167018 145.705518 328.546291 145.655845 329.030191 Z M 145.655845 329.030191 " stroke="#032068" stroke-width="2" stroke-opacity="1" stroke-miterlimit="4"/><path fill="#efcb96" d="M 265.085938 470.269531 L 251.414062 490.761719 C 233.191406 491.898438 229.773438 481.652344 233.191406 465.714844 C 235.925781 452.964844 246.101562 452.8125 250.277344 454.332031 L 252.554688 445.222656 C 265.085938 455.46875 265.085938 465.335938 265.085938 470.269531 Z M 265.085938 470.269531 " fill-opacity="1" fill-rule="nonzero"/><path fill="#032068" d="M 149.726562 326.320312 L 147.429688 348.972656 C 146.664062 347.296875 144.902344 342.429688 143.988281 336.390625 C 142.835938 328.839844 124.460938 299.890625 130.203125 278.496094 C 134.796875 261.382812 147.433594 262.136719 153.171875 264.652344 C 156.621094 258.359375 177.289062 236.964844 207.148438 239.484375 C 237.007812 242 240.453125 284.792969 216.335938 291.082031 C 197.042969 296.117188 175.375 293.179688 166.953125 291.082031 C 166.1875 292.761719 163.96875 298.382812 161.210938 307.445312 C 157.765625 318.769531 157.765625 321.285156 156.621094 313.734375 C 155.46875 306.1875 150.875 292.339844 145.132812 306.1875 C 140.539062 317.261719 146.28125 324.222656 149.726562 326.320312 Z M 149.726562 326.320312 " fill-opacity="1" fill-rule="nonzero"/><path fill="#032068" d="M 166.410156 342.394531 C 174.3125 347.042969 186.53125 344.332031 191.652344 342.394531 L 192.75 350.53125 C 181.335938 353.324219 170.433594 346.269531 166.410156 342.394531 Z M 166.410156 342.394531 " fill-opacity="1" fill-rule="nonzero"/><path fill="#efcb96" d="M 185.351562 467.992188 C 182.617188 475.277344 177.378906 480.136719 175.101562 481.652344 L 189.90625 504.421875 C 194.464844 499.867188 200.15625 499.867188 212.6875 494.175781 C 225.21875 488.484375 228.636719 467.992188 225.21875 456.609375 C 222.484375 447.5 206.613281 454.332031 200.15625 458.882812 L 201.296875 446.363281 C 193.324219 449.777344 188.769531 458.882812 185.351562 467.992188 Z M 185.351562 467.992188 " fill-opacity="1" fill-rule="nonzero"/><path fill="#032068" d="M 433.121094 190.449219 C 430.195312 192.996094 427.417969 195.660156 424.785156 198.417969 L 420.550781 194.386719 C 423.304688 191.496094 426.214844 188.707031 429.277344 186.042969 Z M 417.214844 207.125 C 414.808594 210.160156 412.558594 213.285156 410.46875 216.484375 L 405.574219 213.285156 C 407.761719 209.941406 410.113281 206.671875 412.628906 203.492188 Z M 451.828125 176.996094 C 448.46875 178.964844 445.25 181.070312 442.160156 183.289062 L 438.742188 178.542969 C 441.976562 176.214844 445.351562 174.015625 448.863281 171.953125 Z M 404.601562 226.414062 C 402.78125 229.839844 401.128906 233.320312 399.644531 236.839844 L 394.253906 234.574219 C 395.804688 230.890625 397.53125 227.25 399.433594 223.671875 Z M 472.699219 167.171875 C 469.023438 168.515625 465.46875 170 462.035156 171.613281 L 459.546875 166.324219 C 463.136719 164.636719 466.855469 163.082031 470.691406 161.679688 Z M 395.65625 247.667969 C 394.484375 251.363281 393.492188 255.085938 392.679688 258.808594 L 386.964844 257.566406 C 387.8125 253.664062 388.851562 249.769531 390.078125 245.898438 Z M 494.980469 161.128906 C 491.117188 161.839844 487.359375 162.695312 483.707031 163.683594 L 482.179688 158.039062 C 485.984375 157.011719 489.898438 156.117188 493.921875 155.378906 Z M 390.773438 270.164062 C 390.550781 272.082031 390.371094 273.992188 390.242188 275.894531 C 390.09375 278.105469 390 280.226562 389.953125 282.257812 L 384.105469 282.125 C 384.152344 280.003906 384.25 277.796875 384.40625 275.5 C 384.542969 273.5 384.726562 271.492188 384.964844 269.480469 Z M 512.238281 158.972656 C 510.285156 159.105469 508.355469 159.273438 506.449219 159.472656 L 505.835938 153.660156 C 507.816406 153.449219 509.816406 153.277344 511.84375 153.140625 Z M 390.378906 294.820312 C 390.84375 299.535156 391.648438 303.558594 392.6875 306.976562 L 387.089844 308.675781 C 385.921875 304.839844 385.054688 300.4375 384.554688 295.394531 Z M 393.707031 318.429688 C 391.023438 319.941406 388.292969 321.925781 385.605469 324.488281 L 381.566406 320.257812 C 384.597656 317.371094 387.714844 315.089844 390.835938 313.335938 Z M 378.910156 332.300781 C 377.941406 333.664062 376.988281 335.121094 376.054688 336.679688 C 375.203125 338.105469 374.429688 339.546875 373.730469 341.007812 L 368.457031 338.476562 C 369.230469 336.859375 370.089844 335.257812 371.035156 333.679688 C 372.042969 331.996094 373.078125 330.40625 374.136719 328.914062 Z M 370.28125 350.203125 C 369.386719 353.40625 368.777344 356.648438 368.410156 359.898438 L 362.597656 359.242188 C 362.996094 355.707031 363.664062 352.15625 364.644531 348.632812 Z M 412.667969 314.699219 C 409.890625 314.1875 406.578125 314.160156 402.980469 314.902344 L 401.796875 309.175781 C 406.113281 308.285156 410.183594 308.292969 413.730469 308.945312 Z M 397.859375 317.609375 C 400.597656 321.199219 403.710938 323.191406 406.703125 324.132812 L 404.9375 329.710938 C 400.75 328.386719 396.640625 325.660156 393.207031 321.152344 Z M 367.992188 369.828125 C 368.078125 373.203125 368.378906 376.539062 368.851562 379.789062 L 363.0625 380.628906 C 362.5625 377.167969 362.234375 373.605469 362.144531 369.976562 Z M 420.566406 320.621094 C 420.851562 320.042969 420.867188 319.40625 420.222656 318.507812 L 424.972656 315.09375 C 426.644531 317.414062 427.222656 320.359375 425.804688 323.21875 C 424.601562 325.640625 422.335938 327.546875 419.730469 328.804688 L 417.1875 323.539062 C 418.996094 322.667969 420.101562 321.550781 420.566406 320.621094 Z M 370.824219 389.628906 C 371.691406 393.035156 372.703125 396.261719 373.785156 399.246094 L 368.285156 401.238281 C 367.140625 398.085938 366.070312 394.675781 365.15625 391.070312 Z M 377.6875 408.484375 C 378.488281 410.117188 379.277344 411.585938 380.019531 412.859375 L 374.96875 415.808594 C 374.144531 414.398438 373.292969 412.804688 372.433594 411.054688 Z M 377.6875 408.484375 " fill-opacity="1" fill-rule="evenodd"/><path fill="#032068" d="M 524.371094 136.683594 L 543.15625 156.28125 L 527.757812 173.589844 L 523.382812 169.707031 L 533.035156 158.855469 C 529.570312 158.667969 526.171875 158.585938 522.832031 158.597656 L 522.808594 152.75 C 525.78125 152.738281 528.792969 152.804688 531.855469 152.941406 L 520.148438 140.730469 Z M 524.371094 136.683594 " fill-opacity="1" fill-rule="evenodd"/><path stroke-linecap="butt" transform="matrix(1.494129, 0, 0, 1.493399, -11.902008, -63.115705)" fill-opacity="1" fill="#ffffff" fill-rule="nonzero" stroke-linejoin="miter" d="M 391.976773 233.811718 L 426.43718 233.811718 C 426.63326 233.811718 426.82934 233.830028 427.022806 233.869263 C 427.216271 233.908498 427.401894 233.966043 427.584902 234.039282 C 427.76791 234.115136 427.94046 234.209301 428.102553 234.316544 C 428.26726 234.426402 428.418895 234.551954 428.557458 234.690585 C 428.698636 234.829216 428.821513 234.980925 428.931318 235.145713 C 429.041122 235.307885 429.132626 235.483135 429.208444 235.663617 C 429.284262 235.846714 429.341778 236.032427 429.37838 236.225987 C 429.417596 236.419547 429.435897 236.615723 429.435897 236.811899 L 429.435897 259.332874 C 429.435897 259.52905 429.417596 259.725225 429.37838 259.918786 C 429.341778 260.112346 429.284262 260.298059 429.208444 260.481156 C 429.132626 260.664253 429.041122 260.836888 428.931318 260.99906 C 428.821513 261.163848 428.698636 261.315557 428.557458 261.454188 C 428.418895 261.592819 428.26726 261.718371 428.102553 261.828229 C 427.94046 261.938088 427.76791 262.029637 427.584902 262.105491 C 427.401894 262.17873 427.216271 262.236275 427.022806 262.27551 C 426.82934 262.314745 426.63326 262.333055 426.43718 262.333055 L 391.976773 262.333055 C 391.778079 262.333055 391.584613 262.314745 391.391148 262.27551 C 391.197682 262.236275 391.009445 262.17873 390.829051 262.105491 C 390.646043 262.029637 390.473493 261.938088 390.308786 261.828229 C 390.146693 261.718371 389.995058 261.592819 389.85388 261.454188 C 389.715317 261.315557 389.589826 261.163848 389.482635 260.99906 C 389.372831 260.836888 389.278712 260.664253 389.205509 260.481156 C 389.129691 260.298059 389.072175 260.112346 389.032959 259.918786 C 388.996357 259.725225 388.975442 259.52905 388.975442 259.332874 L 388.975442 236.811899 C 388.975442 236.615723 388.996357 236.419547 389.032959 236.225987 C 389.072175 236.032427 389.129691 235.846714 389.205509 235.663617 C 389.278712 235.483135 389.372831 235.307885 389.482635 235.145713 C 389.589826 234.980925 389.715317 234.829216 389.85388 234.690585 C 389.995058 234.551954 390.146693 234.426402 390.308786 234.316544 C 390.473493 234.209301 390.646043 234.115136 390.829051 234.039282 C 391.009445 233.966043 391.197682 233.908498 391.391148 233.869263 C 391.584613 233.830028 391.778079 233.811718 391.976773 233.811718 Z M 391.976773 233.811718 " stroke="#032068" stroke-width="2" stroke-opacity="1" stroke-miterlimit="4"/><path stroke-linecap="butt" transform="matrix(1.494129, 0, 0, 1.493399, -11.902008, -63.115705)" fill-opacity="1" fill="#ffffff" fill-rule="nonzero" stroke-linejoin="miter" d="M 391.864354 262.333055 L 426.546985 262.333055 C 427.496012 262.333055 427.911702 261.135075 427.166598 260.549164 L 411.061893 247.873595 C 409.971689 247.018269 408.43965 247.018269 407.35206 247.873595 L 391.244741 260.549164 C 390.499637 261.135075 390.912712 262.333055 391.864354 262.333055 Z M 391.864354 262.333055 " stroke="#032068" stroke-width="2" stroke-opacity="1" stroke-miterlimit="4"/><path stroke-linecap="butt" transform="matrix(1.494129, 0, 0, 1.493399, -11.902008, -63.115705)" fill-opacity="1" fill="#ab3a3a" fill-rule="nonzero" stroke-linejoin="miter" d="M 426.72215 233.811718 L 391.689189 233.811718 C 390.761077 233.811718 390.33493 234.970463 391.040818 235.572068 L 407.260556 249.398534 C 408.382133 250.353256 410.03182 250.353256 411.150783 249.398534 L 427.370521 235.572068 C 428.079023 234.970463 427.650262 233.811718 426.72215 233.811718 Z M 426.72215 233.811718 " stroke="#032068" stroke-width="2" stroke-opacity="1" stroke-miterlimit="4"/><path fill="#ffffff" d="M 580.476562 130.128906 L 660.351562 130.128906 C 660.644531 130.128906 660.9375 130.15625 661.226562 130.214844 C 661.515625 130.269531 661.792969 130.355469 662.066406 130.46875 C 662.339844 130.582031 662.597656 130.71875 662.839844 130.882812 C 663.085938 131.046875 663.3125 131.230469 663.519531 131.4375 C 663.730469 131.648438 663.914062 131.875 664.078125 132.117188 C 664.242188 132.363281 664.378906 132.621094 664.492188 132.894531 C 664.605469 133.164062 664.691406 133.445312 664.746094 133.734375 C 664.804688 134.023438 664.832031 134.3125 664.832031 134.605469 L 664.832031 188.242188 C 664.832031 188.535156 664.804688 188.828125 664.746094 189.117188 C 664.691406 189.402344 664.605469 189.683594 664.492188 189.957031 C 664.378906 190.226562 664.242188 190.484375 664.078125 190.730469 C 663.914062 190.976562 663.730469 191.203125 663.519531 191.410156 C 663.3125 191.617188 663.085938 191.804688 662.839844 191.964844 C 662.597656 192.128906 662.339844 192.269531 662.066406 192.378906 C 661.792969 192.492188 661.515625 192.578125 661.226562 192.636719 C 660.9375 192.691406 660.644531 192.722656 660.351562 192.722656 L 580.476562 192.722656 C 580.179688 192.722656 579.890625 192.691406 579.601562 192.636719 C 579.3125 192.578125 579.03125 192.492188 578.761719 192.378906 C 578.488281 192.269531 578.230469 192.128906 577.984375 191.964844 C 577.738281 191.804688 577.515625 191.617188 577.304688 191.410156 C 577.097656 191.203125 576.910156 190.976562 576.75 190.730469 C 576.585938 190.484375 576.445312 190.226562 576.332031 189.957031 C 576.222656 189.683594 576.136719 189.402344 576.078125 189.117188 C 576.019531 188.828125 575.992188 188.535156 575.992188 188.242188 L 575.992188 134.605469 C 575.992188 134.3125 576.023438 134.023438 576.078125 133.734375 C 576.136719 133.445312 576.222656 133.164062 576.332031 132.894531 C 576.445312 132.621094 576.585938 132.363281 576.75 132.117188 C 576.910156 131.875 577.097656 131.648438 577.304688 131.4375 C 577.515625 131.230469 577.738281 131.046875 577.984375 130.882812 C 578.230469 130.71875 578.488281 130.582031 578.761719 130.46875 C 579.03125 130.355469 579.3125 130.269531 579.601562 130.214844 C 579.890625 130.15625 580.179688 130.128906 580.476562 130.128906 Z M 580.476562 130.128906 " fill-opacity="1" fill-rule="nonzero"/><g clip-path="url(#6bc455eeca)"><path stroke-linecap="butt" transform="matrix(1.494129, 0, 0, 1.493399, -11.902008, -63.115705)" fill="none" stroke-linejoin="miter" d="M 396.470927 129.399142 L 449.930179 129.399142 C 450.126259 129.399142 450.322339 129.417451 450.515804 129.456686 C 450.70927 129.493306 450.894892 129.550851 451.0779 129.626705 C 451.260908 129.70256 451.433459 129.794109 451.595552 129.903967 C 451.760259 130.013826 451.911894 130.136762 452.050457 130.275393 C 452.191635 130.41664 452.314512 130.568349 452.424316 130.730521 C 452.534121 130.895309 452.625625 131.067943 452.701443 131.251041 C 452.77726 131.431522 452.834777 131.619851 452.871379 131.813411 C 452.910595 132.006971 452.928896 132.200531 452.928896 132.396707 L 452.928896 168.312562 C 452.928896 168.508737 452.910595 168.704913 452.871379 168.898473 C 452.834777 169.089417 452.77726 169.277746 452.701443 169.460844 C 452.625625 169.641325 452.534121 169.81396 452.424316 169.978748 C 452.314512 170.143535 452.191635 170.295244 452.050457 170.433875 C 451.911894 170.572506 451.760259 170.698059 451.595552 170.805301 C 451.433459 170.91516 451.260908 171.009324 451.0779 171.082563 C 450.894892 171.158418 450.70927 171.215963 450.515804 171.255198 C 450.322339 171.291817 450.126259 171.312743 449.930179 171.312743 L 396.470927 171.312743 C 396.272232 171.312743 396.078767 171.291817 395.885301 171.255198 C 395.691836 171.215963 395.503599 171.158418 395.323205 171.082563 C 395.140197 171.009324 394.967647 170.91516 394.80294 170.805301 C 394.638232 170.698059 394.489212 170.572506 394.348034 170.433875 C 394.209471 170.295244 394.08398 170.143535 393.976789 169.978748 C 393.866984 169.81396 393.772866 169.641325 393.697048 169.460844 C 393.623845 169.277746 393.566328 169.089417 393.527112 168.898473 C 393.487896 168.704913 393.469596 168.508737 393.469596 168.312562 L 393.469596 132.396707 C 393.469596 132.200531 393.490511 132.006971 393.527112 131.813411 C 393.566328 131.619851 393.623845 131.431522 393.697048 131.251041 C 393.772866 131.067943 393.866984 130.895309 393.976789 130.730521 C 394.08398 130.568349 394.209471 130.41664 394.348034 130.275393 C 394.489212 130.136762 394.638232 130.013826 394.80294 129.903967 C 394.967647 129.794109 395.140197 129.70256 395.323205 129.626705 C 395.503599 129.550851 395.691836 129.493306 395.885301 129.456686 C 396.078767 129.417451 396.272232 129.399142 396.470927 129.399142 Z M 396.470927 129.399142 " stroke="#032068" stroke-width="2" stroke-opacity="1" stroke-miterlimit="4"/></g><path fill="#ffffff" d="M 580.308594 192.722656 L 660.519531 192.722656 C 661.9375 192.722656 662.558594 190.929688 661.441406 190.054688 L 623.183594 159.964844 C 621.558594 158.683594 619.265625 158.683594 617.640625 159.964844 L 579.382812 190.054688 C 578.269531 190.929688 578.886719 192.722656 580.308594 192.722656 Z M 580.308594 192.722656 " fill-opacity="1" fill-rule="nonzero"/><g clip-path="url(#4a58303f74)"><path stroke-linecap="butt" transform="matrix(1.494129, 0, 0, 1.493399, -11.902008, -63.115705)" fill="none" stroke-linejoin="miter" d="M 396.358508 171.312743 L 450.042598 171.312743 C 450.991625 171.312743 451.407315 170.112147 450.659596 169.526235 L 425.054162 149.377679 C 423.966572 148.519737 422.431919 148.519737 421.344329 149.377679 L 395.738895 169.526235 C 394.993791 170.112147 395.406866 171.312743 396.358508 171.312743 Z M 396.358508 171.312743 " stroke="#032068" stroke-width="2" stroke-opacity="1" stroke-miterlimit="4"/></g><path fill="#ab3a3a" d="M 660.777344 130.128906 L 580.046875 130.128906 C 578.660156 130.128906 578.023438 131.855469 579.078125 132.757812 L 617.503906 165.496094 C 619.179688 166.925781 621.644531 166.925781 623.320312 165.496094 L 661.746094 132.757812 C 662.804688 131.855469 662.167969 130.128906 660.777344 130.128906 Z M 660.777344 130.128906 " fill-opacity="1" fill-rule="nonzero"/><g clip-path="url(#3d590b28c6)"><path stroke-linecap="butt" transform="matrix(1.494129, 0, 0, 1.493399, -11.902008, -63.115705)" fill="none" stroke-linejoin="miter" d="M 450.215148 129.399142 L 396.183343 129.399142 C 395.255231 129.399142 394.829084 130.555271 395.534972 131.159492 L 421.252825 153.081477 C 422.374402 154.038815 424.024089 154.038815 425.145666 153.081477 L 450.86352 131.159492 C 451.572022 130.555271 451.145875 129.399142 450.215148 129.399142 Z M 450.215148 129.399142 " stroke="#032068" stroke-width="2" stroke-opacity="1" stroke-miterlimit="4"/></g><path stroke-linecap="butt" transform="matrix(1.494129, 0, 0, 1.493399, -11.902008, -63.115705)" fill="none" stroke-linejoin="miter" d="M 388.975442 168.553204 L 380.274719 168.553204 M 388.975442 157.687683 L 375.924357 157.687683 M 388.975442 141.392019 L 380.274719 141.392019 M 388.975442 132.006971 L 375.924357 132.006971 " stroke="#032068" stroke-width="2" stroke-opacity="1" stroke-miterlimit="4"/><path fill="#032068" d="M 580.230469 501.457031 C 554.039062 498.625 520.652344 563.953125 507.671875 596.085938 L 527.140625 596.085938 C 555.453125 566.3125 606.417969 504.289062 580.230469 501.457031 Z M 580.230469 501.457031 " fill-opacity="1" fill-rule="nonzero"/><path fill="#ffffff" d="M 575.804688 405.058594 C 524.132812 409.304688 492.925781 533 483.785156 594.316406 L 517.40625 594.316406 C 558.402344 529.460938 627.480469 400.816406 575.804688 405.058594 Z M 575.804688 405.058594 " fill-opacity="1" fill-rule="nonzero"/><path fill="#032068" d="M 588.378906 410.632812 C 585.9375 407.972656 582.042969 406.503906 575.964844 407.003906 C 563.832031 408 552.636719 416.035156 542.445312 429.003906 C 532.277344 441.941406 523.328125 459.523438 515.660156 479 C 500.699219 517 490.757812 561.820312 486.050781 592.367188 L 516.332031 592.367188 C 536.742188 559.992188 563.824219 512.261719 579.546875 473.050781 C 587.507812 453.203125 592.441406 435.804688 592.296875 423.742188 C 592.222656 417.71875 590.886719 413.359375 588.378906 410.632812 Z M 583.167969 474.5 C 567.171875 514.398438 539.582031 562.890625 519.054688 595.359375 L 518.480469 596.265625 L 481.523438 596.265625 L 481.855469 594.03125 C 486.441406 563.277344 496.558594 516.871094 512.03125 477.574219 C 519.765625 457.929688 528.878906 439.957031 539.378906 426.59375 C 549.859375 413.261719 561.941406 404.242188 575.644531 403.117188 C 582.488281 402.554688 587.738281 404.171875 591.25 407.992188 C 594.695312 411.742188 596.117188 417.242188 596.195312 423.695312 C 596.351562 436.589844 591.144531 454.609375 583.167969 474.5 Z M 583.167969 474.5 " fill-opacity="1" fill-rule="evenodd"/><path fill="#032068" d="M 563.023438 452.574219 C 567.722656 441.613281 572.082031 431.417969 575.828125 422.628906 L 572.242188 421.097656 C 567.980469 431.089844 562.929688 442.898438 557.488281 455.585938 C 553.398438 465.117188 549.085938 475.140625 544.722656 485.261719 L 535.09375 465.238281 L 531.578125 466.925781 L 542.675781 490.003906 C 536.964844 503.238281 531.207031 516.527344 525.78125 528.976562 C 522.871094 535.652344 520.058594 542.089844 517.394531 548.144531 L 511.300781 529.160156 L 507.589844 530.351562 L 515.027344 553.527344 C 510.027344 564.863281 505.679688 574.601562 502.40625 581.734375 C 500.734375 585.371094 499.347656 588.320312 498.300781 590.449219 C 497.777344 591.515625 497.347656 592.367188 497.007812 592.988281 C 496.839844 593.300781 496.703125 593.539062 496.59375 593.71875 C 496.507812 593.863281 496.457031 593.933594 496.445312 593.953125 C 496.441406 593.957031 496.441406 593.957031 496.445312 593.953125 L 499.441406 596.449219 C 499.75 596.078125 500.101562 595.46875 500.4375 594.84375 C 500.8125 594.15625 501.269531 593.253906 501.804688 592.167969 C 502.875 589.992188 504.273438 587.007812 505.949219 583.359375 C 509.300781 576.058594 513.769531 566.054688 518.894531 554.421875 C 522.054688 547.242188 525.472656 539.445312 529.03125 531.277344 L 550.859375 522.726562 L 549.433594 519.097656 L 531.230469 526.230469 C 536.214844 514.777344 541.433594 502.726562 546.609375 490.730469 C 551.441406 479.53125 556.238281 468.382812 560.769531 457.828125 L 580.132812 449.292969 L 578.558594 445.726562 Z M 563.023438 452.574219 " fill-opacity="1" fill-rule="evenodd"/><path fill="#ffffff" d="M 206.558594 58.007812 C 206.558594 45.089844 217.035156 34.617188 229.960938 34.617188 L 496.1875 34.617188 C 509.113281 34.617188 519.589844 45.089844 519.589844 58.007812 L 519.589844 578.320312 C 519.589844 591.238281 509.113281 601.710938 496.1875 601.710938 L 229.960938 601.710938 C 217.035156 601.710938 206.558594 591.238281 206.558594 578.320312 Z M 206.558594 58.007812 " fill-opacity="1" fill-rule="nonzero"/><path fill="#032068" d="M 204.609375 58.007812 C 204.609375 44.015625 215.957031 32.667969 229.960938 32.667969 L 496.1875 32.667969 C 510.1875 32.667969 521.539062 44.015625 521.539062 58.007812 L 521.539062 578.320312 C 521.539062 592.316406 510.1875 603.660156 496.1875 603.660156 L 229.960938 603.660156 C 215.957031 603.660156 204.609375 592.316406 204.609375 578.320312 Z M 229.960938 36.566406 C 218.113281 36.566406 208.507812 46.167969 208.507812 58.007812 L 208.507812 578.320312 C 208.507812 590.160156 218.113281 599.761719 229.960938 599.761719 L 496.1875 599.761719 C 508.035156 599.761719 517.640625 590.160156 517.640625 578.320312 L 517.640625 58.007812 C 517.640625 46.167969 508.035156 36.566406 496.1875 36.566406 Z M 229.960938 36.566406 " fill-opacity="1" fill-rule="evenodd"/><path fill="#032068" d="M 300.828125 53.628906 L 290.683594 34.617188 L 435.460938 34.617188 L 423.535156 54.488281 C 420.007812 60.355469 413.660156 63.949219 406.8125 63.949219 L 318.035156 63.949219 C 310.835938 63.949219 304.21875 59.980469 300.828125 53.628906 Z M 300.828125 53.628906 " fill-opacity="1" fill-rule="nonzero"/><path fill="#032068" d="M 515.75 46.351562 L 208.402344 46.351562 C 218.574219 36.183594 228.292969 34.292969 231.878906 34.617188 L 492.273438 34.617188 C 504.792969 34.617188 513.140625 42.441406 515.75 46.351562 Z M 515.75 46.351562 " fill-opacity="1" fill-rule="nonzero"/><path fill="#032068" d="M 515.601562 590.589844 L 210.546875 590.589844 C 221.117188 600.921875 227.230469 602.84375 230.957031 602.511719 L 495.191406 602.511719 C 508.203125 602.511719 512.890625 594.5625 515.601562 590.589844 Z M 515.601562 590.589844 " fill-opacity="1" fill-rule="nonzero"/><path fill="#fafaca" d="M 241.660156 156.191406 C 241.660156 152.960938 244.28125 150.34375 247.511719 150.34375 L 464.152344 150.34375 C 469.941406 150.34375 472.210938 157.847656 467.398438 161.058594 L 456.828125 168.101562 C 455.199219 169.183594 454.222656 171.011719 454.222656 172.964844 L 454.222656 222.460938 C 454.222656 225.691406 451.601562 228.3125 448.371094 228.3125 L 247.511719 228.3125 C 244.28125 228.3125 241.660156 225.691406 241.660156 222.460938 Z M 241.660156 156.191406 " fill-opacity="1" fill-rule="nonzero"/><path fill="#ffffff" d="M 265.0625 176.65625 C 265.0625 175.042969 266.371094 173.734375 267.988281 173.734375 L 427.894531 173.734375 C 429.511719 173.734375 430.820312 175.042969 430.820312 176.65625 C 430.820312 178.273438 429.511719 179.582031 427.894531 179.582031 L 267.988281 179.582031 C 266.371094 179.582031 265.0625 178.273438 265.0625 176.65625 Z M 265.0625 176.65625 " fill-opacity="1" fill-rule="nonzero"/><path fill="#ffffff" d="M 265.0625 201.996094 C 265.0625 200.382812 266.371094 199.074219 267.988281 199.074219 L 344.042969 199.074219 C 345.65625 199.074219 346.964844 200.382812 346.964844 201.996094 C 346.964844 203.613281 345.65625 204.917969 344.042969 204.917969 L 267.988281 204.917969 C 266.371094 204.917969 265.0625 203.613281 265.0625 201.996094 Z M 265.0625 201.996094 " fill-opacity="1" fill-rule="nonzero"/><path fill="#fafaca" d="M 268.960938 259.496094 L 479.570312 259.496094 C 482.804688 259.496094 485.421875 262.117188 485.421875 265.34375 L 485.421875 331.613281 C 485.421875 334.84375 482.804688 337.464844 479.570312 337.464844 L 274.8125 337.464844 C 271.582031 337.464844 268.960938 334.84375 268.960938 331.613281 L 268.960938 281.996094 C 268.960938 280.109375 268.046875 278.335938 266.511719 277.238281 L 256.515625 270.101562 C 251.882812 266.796875 254.226562 259.496094 259.914062 259.496094 Z M 268.960938 259.496094 " fill-opacity="1" fill-rule="nonzero"/><path fill="#ffffff" d="M 296.261719 287.761719 C 296.261719 286.144531 297.574219 284.835938 299.1875 284.835938 L 459.097656 284.835938 C 460.714844 284.835938 462.023438 286.144531 462.023438 287.761719 C 462.023438 289.375 460.714844 290.683594 459.097656 290.683594 L 299.1875 290.683594 C 297.574219 290.683594 296.261719 289.375 296.261719 287.761719 Z M 296.261719 287.761719 " fill-opacity="1" fill-rule="nonzero"/><path fill="#fafaca" d="M 241.660156 374.496094 C 241.660156 371.269531 244.28125 368.648438 247.511719 368.648438 L 464.152344 368.648438 C 469.941406 368.648438 472.210938 376.152344 467.398438 379.363281 L 456.828125 386.40625 C 455.199219 387.488281 454.222656 389.316406 454.222656 391.269531 L 454.222656 440.769531 C 454.222656 443.996094 451.601562 446.617188 448.371094 446.617188 L 247.511719 446.617188 C 244.28125 446.617188 241.660156 443.996094 241.660156 440.769531 Z M 241.660156 374.496094 " fill-opacity="1" fill-rule="nonzero"/><path fill="#ffffff" d="M 268.960938 396.914062 C 268.960938 395.296875 270.273438 393.988281 271.886719 393.988281 L 431.796875 393.988281 C 433.410156 393.988281 434.722656 395.296875 434.722656 396.914062 C 434.722656 398.527344 433.410156 399.835938 431.796875 399.835938 L 271.886719 399.835938 C 270.273438 399.835938 268.960938 398.527344 268.960938 396.914062 Z M 268.960938 396.914062 " fill-opacity="1" fill-rule="nonzero"/><path fill="#ffffff" d="M 296.261719 313.097656 C 296.261719 311.484375 297.574219 310.175781 299.1875 310.175781 L 375.242188 310.175781 C 376.859375 310.175781 378.167969 311.484375 378.167969 313.097656 C 378.167969 314.710938 376.859375 316.023438 375.242188 316.023438 L 299.1875 316.023438 C 297.574219 316.023438 296.261719 314.710938 296.261719 313.097656 Z M 296.261719 313.097656 " fill-opacity="1" fill-rule="nonzero"/><path fill="#fafaca" d="M 268.960938 477.800781 L 479.570312 477.800781 C 482.804688 477.800781 485.421875 480.417969 485.421875 483.648438 L 485.421875 549.921875 C 485.421875 553.148438 482.804688 555.765625 479.570312 555.765625 L 274.8125 555.765625 C 271.582031 555.765625 268.960938 553.148438 268.960938 549.921875 L 268.960938 500.171875 C 268.960938 498.355469 268.117188 496.644531 266.679688 495.539062 L 257.242188 488.285156 C 252.816406 484.878906 255.222656 477.800781 260.8125 477.800781 Z M 268.960938 477.800781 " fill-opacity="1" fill-rule="nonzero"/><path fill="#ffffff" d="M 294.3125 504.113281 C 294.3125 502.5 295.621094 501.191406 297.238281 501.191406 L 457.148438 501.191406 C 458.761719 501.191406 460.070312 502.5 460.070312 504.113281 C 460.070312 505.730469 458.761719 507.039062 457.148438 507.039062 L 297.238281 507.039062 C 295.621094 507.039062 294.3125 505.730469 294.3125 504.113281 Z M 294.3125 504.113281 " fill-opacity="1" fill-rule="nonzero"/><path fill="#ffffff" d="M 268.960938 422.25 C 268.960938 420.636719 270.273438 419.328125 271.886719 419.328125 L 390.84375 419.328125 C 392.457031 419.328125 393.769531 420.636719 393.769531 422.25 C 393.769531 423.867188 392.457031 425.175781 390.84375 425.175781 L 271.886719 425.175781 C 270.273438 425.175781 268.960938 423.867188 268.960938 422.25 Z M 268.960938 422.25 " fill-opacity="1" fill-rule="nonzero"/><path fill="#ab3a3a" d="M 242.445312 112.171875 C 242.445312 108.945312 245.066406 106.328125 248.296875 106.328125 L 348.25 106.328125 C 351.480469 106.328125 354.101562 108.945312 354.101562 112.171875 L 354.101562 112.4375 C 354.101562 115.664062 351.480469 118.28125 348.25 118.28125 L 248.296875 118.28125 C 245.066406 118.28125 242.445312 115.664062 242.445312 112.4375 Z M 242.445312 112.171875 " fill-opacity="1" fill-rule="nonzero"/><path fill="#032068" d="M 493.710938 62.484375 L 497.613281 62.484375 L 497.613281 78.425781 L 493.710938 78.425781 Z M 493.710938 62.484375 " fill-opacity="1" fill-rule="evenodd"/><path fill="#032068" d="M 483.742188 64.476562 L 487.644531 64.476562 L 487.644531 78.425781 L 483.742188 78.425781 Z M 483.742188 64.476562 " fill-opacity="1" fill-rule="evenodd"/><path fill="#032068" d="M 473.773438 68.460938 L 477.675781 68.460938 L 477.675781 78.425781 L 473.773438 78.425781 Z M 473.773438 68.460938 " fill-opacity="1" fill-rule="evenodd"/><path fill="#032068" d="M 463.804688 72.449219 L 467.707031 72.449219 L 467.707031 78.425781 L 463.804688 78.425781 Z M 463.804688 72.449219 " fill-opacity="1" fill-rule="evenodd"/><path fill="#ffffff" d="M 294.3125 529.453125 C 294.3125 527.839844 295.621094 526.53125 297.238281 526.53125 L 314.789062 526.53125 C 316.40625 526.53125 317.714844 527.839844 317.714844 529.453125 C 317.714844 531.070312 316.40625 532.378906 314.789062 532.378906 L 297.238281 532.378906 C 295.621094 532.378906 294.3125 531.070312 294.3125 529.453125 Z M 294.3125 529.453125 " fill-opacity="1" fill-rule="nonzero"/><path fill="#efcb96" d="M 154.863281 266.265625 C 128.078125 285.222656 139.335938 318.925781 144.382812 331.984375 L 142.171875 358.628906 C 144.460938 367.019531 152.769531 383.800781 167.675781 383.800781 C 182.582031 383.800781 189.414062 369.476562 190.96875 362.3125 L 188.636719 342.09375 C 206.109375 335.773438 207.273438 310.5 206.109375 290.277344 C 204.722656 266.265625 178.457031 249.570312 154.863281 266.265625 Z M 154.863281 266.265625 " fill-opacity="1" fill-rule="nonzero"/><path fill="#ab3a3a" d="M 166.257812 374.25 C 183.75 374.25 191.957031 363.503906 193.875 358.128906 C 227.246094 358.128906 254.867188 381.160156 267.523438 397.28125 C 280.183594 413.402344 327.367188 498.621094 315.859375 533.167969 C 306.652344 560.808594 284.402344 565.03125 272.128906 563.113281 L 274.125 599.089844 C 274.289062 602.066406 271.925781 604.566406 268.949219 604.566406 L 100.664062 604.566406 C 83.015625 605.71875 44.503906 606.179688 31.617188 598.808594 C 15.503906 589.597656 0.546875 542.382812 31.617188 449.105469 C 56.472656 374.480469 114.855469 357.359375 140.941406 358.128906 C 142.089844 363.503906 148.765625 374.25 166.257812 374.25 Z M 166.257812 374.25 " fill-opacity="1" fill-rule="nonzero"/><path fill="#032068" d="M 82.453125 604.636719 C 54.710938 570.800781 25.378906 558.726562 14.179688 556.917969 C 14.179688 567.761719 19.597656 588.367188 29.351562 598.128906 C 37.152344 605.9375 68.003906 605.71875 82.453125 604.636719 Z M 82.453125 604.636719 " fill-opacity="1" fill-rule="nonzero"/><path fill="#032068" d="M 297.027344 559.085938 C 315.234375 552.148438 318.34375 527.277344 317.617188 515.707031 C 301.148438 523.515625 278.96875 550.050781 269.9375 562.339844 C 271.382812 564.148438 278.824219 566.027344 297.027344 559.085938 Z M 297.027344 559.085938 " fill-opacity="1" fill-rule="nonzero"/><path fill="#032068" d="M 163.957031 480.195312 C 155.898438 483.652344 96.058594 511.671875 68.441406 525.109375 C 71.894531 519.351562 85.703125 510.136719 89.15625 506.683594 C 92.605469 503.226562 105.265625 462.921875 105.265625 468.679688 C 105.265625 474.4375 98.359375 500.925781 101.8125 500.925781 C 105.265625 500.925781 153.597656 480.195312 163.957031 480.195312 Z M 163.957031 480.195312 " fill-opacity="1" fill-rule="nonzero"/><path fill="#032068" d="M 188.121094 513.59375 C 139.328125 579.003906 99.511719 602.265625 85.703125 605.71875 L 109.867188 605.71875 C 151.296875 573.476562 179.296875 530.867188 188.121094 513.59375 Z M 188.121094 513.59375 " fill-opacity="1" fill-rule="nonzero"/><path fill="#032068" d="M 247.960938 502.078125 C 249.800781 524.1875 265.605469 551.980469 273.277344 563.113281 L 273.277344 573.476562 C 255.785156 554.128906 249.113281 517.816406 247.960938 502.078125 Z M 247.960938 502.078125 " fill-opacity="1" fill-rule="nonzero"/><path fill="#032068" d="M 269.828125 470.984375 C 276.269531 474.667969 287.855469 483.269531 292.84375 487.105469 L 274.429688 465.226562 C 273.507812 468.910156 270.976562 470.601562 269.828125 470.984375 Z M 269.828125 470.984375 " fill-opacity="1" fill-rule="nonzero"/><path fill="#ffffff" d="M 201.78125 428.667969 L 192.957031 514.761719 C 192.839844 515.90625 193.851562 516.84375 194.984375 516.640625 L 236.382812 509.207031 C 237.113281 509.074219 237.675781 508.492188 237.785156 507.757812 L 249.945312 425.902344 C 250.109375 424.808594 249.214844 423.84375 248.113281 423.921875 L 203.378906 427.121094 C 202.539062 427.179688 201.867188 427.832031 201.78125 428.667969 Z M 201.78125 428.667969 " fill-opacity="1" fill-rule="nonzero"/><path fill="#032068" d="M 247.988281 422.199219 C 250.195312 422.039062 251.980469 423.96875 251.65625 426.15625 L 239.496094 508.011719 C 239.277344 509.480469 238.144531 510.648438 236.6875 510.910156 L 195.289062 518.34375 C 193.023438 518.75 191.003906 516.875 191.238281 514.585938 L 200.0625 428.492188 C 200.234375 426.820312 201.578125 425.515625 203.253906 425.394531 Z M 248.234375 425.648438 L 203.5 428.847656 L 194.675781 514.9375 L 236.074219 507.503906 Z M 248.234375 425.648438 " fill-opacity="1" fill-rule="evenodd"/><path fill="#efcb96" d="M 261.773438 470.984375 L 247.960938 491.710938 C 229.550781 492.863281 226.097656 482.5 229.550781 466.378906 C 232.3125 453.480469 242.589844 453.324219 246.8125 454.859375 L 249.113281 445.648438 C 261.773438 456.015625 261.773438 465.996094 261.773438 470.984375 Z M 261.773438 470.984375 " fill-opacity="1" fill-rule="nonzero"/><path fill="#032068" d="M 145.226562 325.375 L 142.90625 348.289062 C 142.128906 346.59375 140.351562 341.671875 139.421875 335.5625 C 138.265625 327.921875 119.699219 298.640625 125.5 277 C 130.140625 259.6875 142.90625 260.453125 148.707031 262.996094 C 152.1875 256.632812 173.070312 234.992188 203.238281 237.535156 C 233.40625 240.082031 236.886719 283.367188 212.519531 289.730469 C 193.027344 294.824219 171.136719 291.851562 162.628906 289.730469 C 161.855469 291.429688 159.613281 297.113281 156.828125 306.28125 C 153.347656 317.738281 153.347656 320.285156 152.1875 312.644531 C 151.027344 305.007812 146.382812 291.003906 140.585938 305.007812 C 135.941406 316.210938 141.742188 323.253906 145.226562 325.375 Z M 145.226562 325.375 " fill-opacity="1" fill-rule="nonzero"/><path fill="#032068" d="M 162.078125 341.632812 C 170.0625 346.335938 183.765625 343.9375 188.941406 341.980469 L 189.804688 349.761719 C 178.273438 352.585938 166.144531 345.554688 162.078125 341.632812 Z M 162.078125 341.632812 " fill-opacity="1" fill-rule="nonzero"/><path fill="#efcb96" d="M 181.214844 468.679688 C 178.453125 476.050781 173.160156 480.964844 170.859375 482.5 L 185.820312 505.53125 C 190.421875 500.925781 196.175781 500.925781 208.835938 495.167969 C 221.492188 489.410156 224.945312 468.679688 221.492188 457.164062 C 218.730469 447.953125 202.695312 454.859375 196.175781 459.46875 L 197.328125 446.800781 C 189.269531 450.253906 184.667969 459.46875 181.214844 468.679688 Z M 181.214844 468.679688 " fill-opacity="1" fill-rule="nonzero"/><path fill="#ffffff" d="M 576.089844 134.015625 C 576.089844 132.40625 577.386719 131.097656 578.984375 131.097656 L 660.972656 131.097656 C 662.570312 131.097656 663.867188 132.40625 663.867188 134.015625 L 663.867188 190.558594 C 663.867188 192.171875 662.570312 193.476562 660.972656 193.476562 L 578.984375 193.476562 C 577.386719 193.476562 576.089844 192.171875 576.089844 190.558594 Z M 576.089844 134.015625 " fill-opacity="1" fill-rule="nonzero"/><path fill="#032068" d="M 575.128906 134.015625 C 575.128906 131.867188 576.855469 130.128906 578.984375 130.128906 L 660.972656 130.128906 C 663.105469 130.128906 664.832031 131.867188 664.832031 134.015625 L 664.832031 190.558594 C 664.832031 192.707031 663.105469 194.449219 660.972656 194.449219 L 578.984375 194.449219 C 576.855469 194.449219 575.128906 192.707031 575.128906 190.558594 Z M 578.984375 132.070312 C 577.921875 132.070312 577.054688 132.941406 577.054688 134.015625 L 577.054688 190.558594 C 577.054688 191.632812 577.921875 192.503906 578.984375 192.503906 L 660.972656 192.503906 C 662.039062 192.503906 662.902344 191.632812 662.902344 190.558594 L 662.902344 134.015625 C 662.902344 132.941406 662.039062 132.070312 660.972656 132.070312 Z M 578.984375 132.070312 " fill-opacity="1" fill-rule="evenodd"/><path fill="#ffffff" d="M 578.878906 193.476562 L 661.082031 193.476562 C 661.996094 193.476562 662.398438 192.3125 661.679688 191.738281 L 621.769531 160.082031 C 620.71875 159.246094 619.242188 159.246094 618.191406 160.082031 L 578.28125 191.738281 C 577.5625 192.3125 577.960938 193.476562 578.878906 193.476562 Z M 578.878906 193.476562 " fill-opacity="1" fill-rule="nonzero"/><path fill="#032068" d="M 621.171875 160.84375 C 620.472656 160.289062 619.484375 160.289062 618.785156 160.84375 L 578.875 192.503906 L 661.082031 192.503906 Z M 617.59375 159.316406 C 618.992188 158.207031 620.964844 158.207031 622.363281 159.316406 L 662.273438 190.976562 C 663.714844 192.117188 662.914062 194.449219 661.082031 194.449219 L 578.875 194.449219 C 577.042969 194.449219 576.242188 192.117188 577.683594 190.976562 Z M 617.59375 159.316406 " fill-opacity="1" fill-rule="evenodd"/><path fill="#ab3a3a" d="M 661.25 131.097656 L 578.710938 131.097656 C 577.8125 131.097656 577.402344 132.226562 578.085938 132.8125 L 618.101562 167.203125 C 619.183594 168.132812 620.773438 168.132812 621.855469 167.203125 L 661.875 132.8125 C 662.558594 132.226562 662.144531 131.097656 661.25 131.097656 Z M 661.25 131.097656 " fill-opacity="1" fill-rule="nonzero"/><path fill="#032068" d="M 577.457031 133.550781 C 576.09375 132.378906 576.917969 130.128906 578.710938 130.128906 L 661.25 130.128906 C 663.042969 130.128906 663.867188 132.378906 662.5 133.550781 L 622.484375 167.941406 C 621.039062 169.179688 618.917969 169.179688 617.476562 167.941406 Z M 661.25 132.070312 L 578.710938 132.070312 L 618.726562 166.460938 C 619.449219 167.082031 620.511719 167.082031 621.230469 166.460938 Z M 661.25 132.070312 " fill-opacity="1" fill-rule="evenodd"/><path fill="#ffffff" d="M 569.992188 286.9375 C 569.992188 285.769531 570.949219 284.816406 572.128906 284.816406 L 632.730469 284.816406 C 633.910156 284.816406 634.867188 285.769531 634.867188 286.9375 L 634.867188 328.0625 C 634.867188 329.234375 633.910156 330.183594 632.730469 330.183594 L 572.128906 330.183594 C 570.949219 330.183594 569.992188 329.234375 569.992188 328.0625 Z M 569.992188 286.9375 " fill-opacity="1" fill-rule="nonzero"/><path fill="#032068" d="M 569.277344 286.9375 C 569.277344 285.375 570.554688 284.109375 572.128906 284.109375 L 632.730469 284.109375 C 634.304688 284.109375 635.582031 285.375 635.582031 286.9375 L 635.582031 328.0625 C 635.582031 329.621094 634.304688 330.890625 632.730469 330.890625 L 572.128906 330.890625 C 570.554688 330.890625 569.277344 329.621094 569.277344 328.0625 Z M 572.128906 285.523438 C 571.339844 285.523438 570.703125 286.15625 570.703125 286.9375 L 570.703125 328.0625 C 570.703125 328.84375 571.339844 329.476562 572.128906 329.476562 L 632.730469 329.476562 C 633.515625 329.476562 634.15625 328.84375 634.15625 328.0625 L 634.15625 286.9375 C 634.15625 286.15625 633.515625 285.523438 632.730469 285.523438 Z M 572.128906 285.523438 " fill-opacity="1" fill-rule="evenodd"/><path fill="#ffffff" d="M 572.050781 330.183594 L 632.808594 330.183594 C 633.484375 330.183594 633.78125 329.335938 633.25 328.917969 L 603.753906 305.894531 C 602.976562 305.289062 601.882812 305.289062 601.105469 305.894531 L 571.609375 328.917969 C 571.078125 329.335938 571.371094 330.183594 572.050781 330.183594 Z M 572.050781 330.183594 " fill-opacity="1" fill-rule="nonzero"/><path fill="#032068" d="M 603.3125 306.449219 C 602.792969 306.046875 602.066406 306.046875 601.546875 306.449219 L 572.050781 329.476562 L 632.808594 329.476562 Z M 600.667969 305.339844 C 601.699219 304.53125 603.160156 304.53125 604.191406 305.339844 L 633.691406 328.363281 C 634.753906 329.195312 634.164062 330.890625 632.808594 330.890625 L 572.050781 330.890625 C 570.695312 330.890625 570.105469 329.195312 571.167969 328.363281 Z M 600.667969 305.339844 " fill-opacity="1" fill-rule="evenodd"/><path fill="#ab3a3a" d="M 632.933594 284.816406 L 571.925781 284.816406 C 571.261719 284.816406 570.957031 285.636719 571.460938 286.0625 L 601.042969 311.074219 C 601.839844 311.75 603.015625 311.75 603.816406 311.074219 L 633.394531 286.0625 C 633.898438 285.636719 633.59375 284.816406 632.933594 284.816406 Z M 632.933594 284.816406 " fill-opacity="1" fill-rule="nonzero"/><path fill="#032068" d="M 571 286.601562 C 569.992188 285.746094 570.601562 284.109375 571.925781 284.109375 L 632.933594 284.109375 C 634.257812 284.109375 634.867188 285.746094 633.855469 286.601562 L 604.28125 311.613281 C 603.214844 312.511719 601.644531 312.511719 600.582031 311.613281 Z M 632.933594 285.523438 L 571.925781 285.523438 L 601.503906 310.535156 C 602.035156 310.988281 602.820312 310.988281 603.355469 310.535156 Z M 632.933594 285.523438 " fill-opacity="1" fill-rule="evenodd"/><path fill="#ab3a3a" d="M 120.539062 104.308594 L 117.636719 122.648438 C 117.457031 123.765625 116.675781 124.691406 115.601562 125.046875 L 101.957031 129.578125 C 99.023438 130.554688 99.269531 134.78125 102.300781 135.40625 L 116.636719 138.367188 C 117.683594 138.582031 118.539062 139.335938 118.886719 140.347656 L 124.074219 155.449219 C 125.050781 158.289062 129.121094 158.125 129.867188 155.214844 L 133.984375 139.121094 C 134.226562 138.175781 134.910156 137.40625 135.820312 137.050781 L 148.238281 132.226562 C 151.039062 131.140625 150.714844 127.082031 147.777344 126.453125 L 135.035156 123.71875 C 134.011719 123.5 133.175781 122.765625 132.824219 121.78125 L 126.371094 103.761719 C 125.316406 100.816406 121.027344 101.214844 120.539062 104.308594 Z M 120.539062 104.308594 " fill-opacity="1" fill-rule="nonzero"/><path fill="#ab3a3a" d="M 87.035156 200.304688 L 90.195312 204.558594 C 90.871094 205.46875 90.984375 206.675781 90.488281 207.691406 L 89.179688 210.359375 C 87.820312 213.148438 91.039062 215.933594 93.601562 214.183594 L 96.226562 212.398438 C 97.109375 211.796875 98.246094 211.707031 99.210938 212.160156 L 103.3125 214.082031 C 106.023438 215.347656 108.734375 212.335938 107.183594 209.777344 L 104.601562 205.515625 C 104.097656 204.679688 104.027344 203.652344 104.410156 202.757812 L 105.578125 200.039062 C 106.765625 197.269531 103.617188 194.660156 101.113281 196.335938 L 98.839844 197.859375 C 97.972656 198.441406 96.863281 198.53125 95.910156 198.101562 L 90.710938 195.75 C 87.867188 194.460938 85.171875 197.800781 87.035156 200.304688 Z M 87.035156 200.304688 " fill-opacity="1" fill-rule="nonzero"/><path fill="#032068" d="M 430.332031 198.769531 C 428.222656 200.605469 426.21875 202.523438 424.324219 204.511719 L 421.269531 201.605469 C 423.257812 199.523438 425.355469 197.515625 427.5625 195.589844 Z M 418.867188 210.789062 C 417.132812 212.976562 415.511719 215.230469 414.003906 217.535156 L 410.476562 215.230469 C 412.050781 212.816406 413.746094 210.460938 415.5625 208.171875 Z M 443.816406 189.070312 C 441.398438 190.492188 439.074219 192.007812 436.847656 193.605469 L 434.386719 190.1875 C 436.714844 188.507812 439.148438 186.921875 441.679688 185.433594 Z M 409.773438 224.695312 C 408.460938 227.160156 407.269531 229.667969 406.203125 232.207031 L 402.316406 230.574219 C 403.433594 227.917969 404.675781 225.296875 406.050781 222.714844 Z M 458.863281 181.988281 C 456.214844 182.957031 453.652344 184.027344 451.175781 185.191406 L 449.378906 181.378906 C 451.96875 180.160156 454.648438 179.042969 457.414062 178.03125 Z M 403.328125 240.011719 C 402.480469 242.675781 401.765625 245.359375 401.179688 248.042969 L 397.058594 247.144531 C 397.671875 244.335938 398.421875 241.527344 399.308594 238.738281 Z M 474.921875 177.632812 C 472.136719 178.144531 469.429688 178.761719 466.796875 179.476562 L 465.691406 175.40625 C 468.4375 174.664062 471.257812 174.023438 474.15625 173.488281 Z M 399.808594 256.226562 C 399.644531 257.609375 399.515625 258.988281 399.425781 260.359375 C 399.316406 261.953125 399.25 263.480469 399.214844 264.945312 L 395 264.851562 C 395.035156 263.320312 395.105469 261.730469 395.214844 260.074219 C 395.316406 258.632812 395.449219 257.183594 395.621094 255.734375 Z M 487.363281 176.082031 C 485.957031 176.175781 484.5625 176.296875 483.191406 176.441406 L 482.746094 172.25 C 484.175781 172.097656 485.617188 171.972656 487.074219 171.875 Z M 399.519531 274 C 399.855469 277.398438 400.4375 280.300781 401.1875 282.761719 L 397.152344 283.988281 C 396.308594 281.226562 395.683594 278.046875 395.324219 274.414062 Z M 401.921875 291.019531 C 399.988281 292.105469 398.019531 293.539062 396.082031 295.386719 L 393.171875 292.335938 C 395.355469 290.253906 397.601562 288.609375 399.851562 287.347656 Z M 391.253906 301.015625 C 390.554688 302 389.871094 303.050781 389.199219 304.175781 C 388.585938 305.199219 388.027344 306.242188 387.523438 307.292969 L 383.722656 305.46875 C 384.28125 304.300781 384.898438 303.148438 385.578125 302.011719 C 386.304688 300.796875 387.050781 299.652344 387.816406 298.578125 Z M 385.035156 313.921875 C 384.390625 316.230469 383.953125 318.570312 383.6875 320.910156 L 379.496094 320.4375 C 379.785156 317.886719 380.265625 315.328125 380.972656 312.789062 Z M 415.589844 288.328125 C 413.585938 287.957031 411.199219 287.9375 408.605469 288.476562 L 407.753906 284.347656 C 410.863281 283.707031 413.800781 283.710938 416.355469 284.183594 Z M 404.917969 290.425781 C 406.890625 293.015625 409.132812 294.449219 411.289062 295.132812 L 410.015625 299.148438 C 406.996094 298.195312 404.039062 296.230469 401.5625 292.980469 Z M 383.386719 328.066406 C 383.449219 330.5 383.664062 332.902344 384.007812 335.246094 L 379.832031 335.851562 C 379.472656 333.359375 379.234375 330.789062 379.167969 328.175781 Z M 421.28125 292.597656 C 421.488281 292.183594 421.5 291.722656 421.035156 291.074219 L 424.457031 288.613281 C 425.664062 290.289062 426.082031 292.410156 425.058594 294.46875 C 424.191406 296.214844 422.558594 297.59375 420.679688 298.5 L 418.847656 294.703125 C 420.152344 294.074219 420.945312 293.269531 421.28125 292.597656 Z M 385.425781 342.339844 C 386.054688 344.796875 386.78125 347.121094 387.5625 349.273438 L 383.597656 350.710938 C 382.773438 348.4375 382.003906 345.976562 381.339844 343.382812 Z M 390.375 355.933594 C 390.953125 357.109375 391.519531 358.167969 392.054688 359.085938 L 388.414062 361.210938 C 387.820312 360.195312 387.207031 359.046875 386.589844 357.785156 Z M 390.375 355.933594 " fill-opacity="1" fill-rule="evenodd"/><path fill="#032068" d="M 511.707031 157.472656 L 525.25 171.601562 L 514.148438 184.078125 L 510.996094 181.277344 L 517.953125 173.457031 C 515.457031 173.324219 513.003906 173.261719 510.597656 173.269531 L 510.582031 169.054688 C 512.722656 169.046875 514.894531 169.09375 517.101562 169.195312 L 508.660156 160.390625 Z M 511.707031 157.472656 " fill-opacity="1" fill-rule="evenodd"/></svg>