<svg xmlns="http://www.w3.org/2000/svg" xmlns:xlink="http://www.w3.org/1999/xlink" width="900" zoomAndPan="magnify" viewBox="0 0 675 675.000002" height="900" preserveAspectRatio="xMidYMid meet" version="1.0"><defs><clipPath id="3706674796"><path d="M 0.5 0 L 66 0 L 66 66 L 0.5 66 Z M 0.5 0 " clip-rule="nonzero"/></clipPath><clipPath id="5652983860"><path d="M 0.5 21 L 674.5 21 L 674.5 674 L 0.5 674 Z M 0.5 21 " clip-rule="nonzero"/></clipPath></defs><g clip-path="url(#3706674796)"><path fill="#ab3a3a" d="M 22.242188 21.742188 L 43.984375 21.742188 L 43.984375 43.484375 L 22.242188 43.484375 Z M 22.242188 65.226562 L 43.984375 65.226562 C 55.957031 65.226562 65.726562 55.460938 65.726562 43.484375 L 65.726562 21.742188 C 65.726562 9.765625 55.957031 0 43.984375 0 L 22.242188 0 C 10.265625 0 0.5 9.765625 0.5 21.742188 L 0.5 43.484375 C 0.5 55.460938 10.265625 65.226562 22.242188 65.226562 " fill-opacity="1" fill-rule="nonzero"/></g><path fill="#ab3a3a" d="M 109.210938 21.742188 L 130.949219 21.742188 L 130.949219 43.484375 L 109.210938 43.484375 Z M 109.210938 65.226562 L 130.949219 65.226562 C 142.925781 65.226562 152.691406 55.460938 152.691406 43.484375 L 152.691406 21.742188 C 152.691406 9.765625 142.925781 0 130.949219 0 L 109.210938 0 C 97.234375 0 87.46875 9.765625 87.46875 21.742188 L 87.46875 43.484375 C 87.46875 55.460938 97.234375 65.226562 109.210938 65.226562 " fill-opacity="1" fill-rule="nonzero"/><path fill="#ab3a3a" d="M 196.175781 21.742188 L 217.917969 21.742188 L 217.917969 43.484375 L 196.175781 43.484375 Z M 196.175781 65.226562 L 217.917969 65.226562 C 229.894531 65.226562 239.660156 55.460938 239.660156 43.484375 L 239.660156 21.742188 C 239.660156 9.765625 229.894531 0 217.917969 0 L 196.175781 0 C 184.203125 0 174.433594 9.765625 174.433594 21.742188 L 174.433594 43.484375 C 174.433594 55.460938 184.203125 65.226562 196.175781 65.226562 " fill-opacity="1" fill-rule="nonzero"/><path fill="#ab3a3a" d="M 283.144531 21.742188 L 304.886719 21.742188 L 304.886719 43.484375 L 283.144531 43.484375 Z M 283.144531 65.226562 L 304.886719 65.226562 C 316.863281 65.226562 326.628906 55.460938 326.628906 43.484375 L 326.628906 21.742188 C 326.628906 9.765625 316.863281 0 304.886719 0 L 283.144531 0 C 271.171875 0 261.402344 9.765625 261.402344 21.742188 L 261.402344 43.484375 C 261.402344 55.460938 271.171875 65.226562 283.144531 65.226562 " fill-opacity="1" fill-rule="nonzero"/><path fill="#ab3a3a" d="M 236.476562 447.027344 L 242.847656 453.398438 L 258.21875 438.023438 L 251.847656 431.65625 C 240.042969 419.847656 223.738281 413.097656 207.046875 413.097656 C 190.359375 413.097656 174.054688 419.847656 162.246094 431.65625 L 155.878906 438.023438 L 171.25 453.398438 L 177.621094 447.027344 C 185.390625 439.296875 196.09375 434.839844 207.046875 434.839844 C 218.003906 434.839844 228.707031 439.296875 236.476562 447.027344 " fill-opacity="1" fill-rule="nonzero"/><g clip-path="url(#5652983860)"><path fill="#ab3a3a" d="M 652.632812 423.796875 L 619 608.777344 L 589.910156 608.777344 L 627.578125 420.402344 C 628.46875 416.15625 632.164062 413.097656 636.496094 413.097656 L 643.671875 413.097656 C 648.683594 413.097656 652.757812 417.175781 652.757812 422.183594 C 652.757812 422.738281 652.714844 423.246094 652.632812 423.796875 Z M 602.011719 652.257812 L 413.597656 652.257812 L 413.597656 630.515625 L 615.050781 630.515625 L 612.714844 643.34375 C 611.738281 648.523438 607.277344 652.257812 602.011719 652.257812 Z M 174.433594 554.421875 L 174.433594 531.914062 C 174.433594 514.375 188.746094 500.066406 206.285156 500.066406 C 220.933594 500.066406 233.671875 510.003906 237.199219 524.1875 L 249.386719 572.808594 L 231.976562 590.21875 L 247.347656 605.589844 L 265.90625 587.035156 L 391.855469 587.035156 L 391.855469 652.257812 L 272.273438 652.257812 C 218.300781 652.257812 174.433594 608.351562 174.433594 554.421875 Z M 174.433594 652.257812 L 174.433594 622.957031 C 182.417969 634.339844 192.355469 644.277344 203.734375 652.257812 Z M 88.019531 369.613281 L 174.433594 369.613281 C 186.410156 369.613281 196.175781 359.847656 196.175781 347.871094 L 196.175781 304.386719 L 217.917969 304.386719 L 217.917969 347.871094 C 217.917969 359.847656 227.6875 369.613281 239.660156 369.613281 L 326.078125 369.613281 C 320.554688 430.464844 269.300781 478.324219 207.046875 478.324219 C 144.792969 478.324219 93.539062 430.464844 88.019531 369.613281 Z M 43.984375 369.613281 C 32.007812 369.613281 22.242188 359.847656 22.242188 347.871094 C 22.242188 335.898438 32.007812 326.128906 43.984375 326.128906 L 65.726562 326.128906 L 65.726562 358.742188 C 65.726562 362.394531 65.980469 366.003906 66.277344 369.613281 Z M 57.570312 124.039062 L 61.308594 112.828125 C 88.273438 124.378906 117.617188 130.453125 146.960938 130.453125 L 262.464844 130.453125 C 321.832031 130.453125 370.113281 178.734375 370.113281 238.101562 C 370.113281 251.816406 367.523438 265.277344 362.425781 278.058594 L 351.894531 304.386719 L 348.371094 304.386719 L 348.371094 260.902344 C 348.371094 236.910156 328.878906 217.417969 304.886719 217.417969 L 164.878906 217.417969 C 143.519531 217.417969 124.964844 202.9375 119.742188 182.175781 L 98.679688 187.441406 C 101.3125 198.097656 106.363281 207.609375 113.199219 215.507812 L 95.449219 221.410156 C 77.699219 227.355469 65.726562 243.917969 65.726562 262.644531 L 65.726562 304.386719 L 62.328125 304.386719 C 50.183594 273.515625 43.984375 241.03125 43.984375 207.824219 C 43.984375 179.285156 48.570312 151.132812 57.570312 124.039062 Z M 239.660156 304.386719 L 326.628906 304.386719 L 326.628906 347.871094 L 239.660156 347.871094 Z M 370.113281 326.128906 C 382.089844 326.128906 391.855469 335.898438 391.855469 347.871094 C 391.855469 359.847656 382.089844 369.613281 370.113281 369.613281 L 347.820312 369.613281 C 348.074219 366.003906 348.371094 362.394531 348.371094 358.742188 L 348.371094 326.128906 Z M 87.46875 282.644531 L 87.46875 262.644531 C 87.46875 253.300781 93.453125 245.023438 102.328125 242.050781 L 133.625 231.601562 C 143.054688 236.445312 153.710938 239.160156 164.878906 239.160156 L 304.886719 239.160156 C 316.863281 239.160156 326.628906 248.929688 326.628906 260.902344 L 326.628906 282.644531 Z M 87.46875 304.386719 L 174.433594 304.386719 L 174.433594 347.871094 L 87.46875 347.871094 Z M 258.304688 518.921875 C 256.859375 513.230469 254.523438 508.007812 251.507812 503.25 C 281.320312 511.445312 305.097656 534.972656 313.335938 565.292969 L 269.894531 565.292969 Z M 413.597656 587.035156 C 425.570312 587.035156 435.339844 596.800781 435.339844 608.777344 L 413.597656 608.777344 Z M 457.082031 608.777344 C 457.082031 584.78125 437.589844 565.292969 413.597656 565.292969 L 335.757812 565.292969 C 327.859375 528.644531 301.957031 499.175781 268.238281 485.925781 C 306.035156 467.664062 334.484375 433.097656 344.421875 391.355469 L 370.113281 391.355469 C 370.113281 403.332031 379.878906 413.097656 391.855469 413.097656 L 607.152344 413.097656 C 606.855469 414.117188 606.472656 415.09375 606.261719 416.113281 L 567.746094 608.777344 Z M 391.855469 43.484375 L 652.757812 43.484375 L 652.757812 391.355469 L 391.855469 391.355469 L 391.855469 385.324219 C 404.808594 377.765625 413.597656 363.882812 413.597656 347.871094 C 413.597656 325.621094 396.695312 307.402344 375.125 304.898438 L 382.597656 286.128906 C 388.753906 270.753906 391.855469 254.617188 391.855469 238.101562 Z M 674.5 43.484375 C 674.5 31.507812 664.734375 21.742188 652.757812 21.742188 L 391.855469 21.742188 C 379.878906 21.742188 370.113281 31.507812 370.113281 43.484375 L 370.113281 166.417969 C 346.882812 131.683594 307.308594 108.710938 262.464844 108.710938 L 146.960938 108.710938 C 116.851562 108.710938 86.660156 101.574219 59.738281 88.113281 L 48.527344 82.507812 L 36.976562 117.203125 C 27.210938 146.460938 22.242188 176.949219 22.242188 207.824219 C 22.242188 241.113281 28.015625 273.6875 39.226562 304.855469 C 17.527344 307.273438 0.5 325.535156 0.5 347.871094 C 0.5 371.863281 19.992188 391.355469 43.984375 391.355469 L 69.675781 391.355469 C 81.480469 440.953125 119.359375 480.445312 168.066406 494.460938 C 158.597656 504.140625 152.691406 517.347656 152.691406 531.914062 L 152.691406 674 L 602.011719 674 C 617.769531 674 631.273438 662.75 634.074219 647.207031 L 674.035156 427.664062 C 674.332031 425.878906 674.5 424.011719 674.5 422.183594 C 674.5 415.898438 672.589844 410.082031 669.363281 405.199219 C 672.546875 401.417969 674.5 396.664062 674.5 391.355469 L 674.5 43.484375 " fill-opacity="1" fill-rule="nonzero"/></g><path fill="#ab3a3a" d="M 457.082031 173.9375 L 478.824219 173.9375 L 478.824219 152.195312 L 457.082031 152.195312 C 445.105469 152.195312 435.339844 142.425781 435.339844 130.453125 C 435.339844 118.476562 445.105469 108.710938 457.082031 108.710938 L 478.824219 108.710938 L 478.824219 86.96875 L 457.082031 86.96875 C 433.089844 86.96875 413.597656 106.460938 413.597656 130.453125 C 413.597656 154.445312 433.089844 173.9375 457.082031 173.9375 " fill-opacity="1" fill-rule="nonzero"/><path fill="#ab3a3a" d="M 554.917969 152.195312 L 554.917969 147.140625 C 554.917969 139.835938 551.308594 133.085938 545.238281 129.050781 L 522.308594 113.761719 L 522.308594 108.710938 L 554.917969 108.710938 L 554.917969 86.96875 L 522.308594 86.96875 C 510.332031 86.96875 500.566406 96.734375 500.566406 108.710938 L 500.566406 113.761719 C 500.566406 121.066406 504.175781 127.820312 510.246094 131.851562 L 533.179688 147.140625 L 533.179688 152.195312 L 500.566406 152.195312 L 500.566406 173.9375 L 533.179688 173.9375 C 545.152344 173.9375 554.917969 164.167969 554.917969 152.195312 " fill-opacity="1" fill-rule="nonzero"/><path fill="#ab3a3a" d="M 631.015625 152.195312 L 631.015625 147.140625 C 631.015625 139.835938 627.40625 133.085938 621.335938 129.050781 L 598.402344 113.761719 L 598.402344 108.710938 L 631.015625 108.710938 L 631.015625 86.96875 L 598.402344 86.96875 C 586.429688 86.96875 576.660156 96.734375 576.660156 108.710938 L 576.660156 113.761719 C 576.660156 121.066406 580.269531 127.820312 586.34375 131.851562 L 609.273438 147.140625 L 609.273438 152.195312 L 576.660156 152.195312 L 576.660156 173.9375 L 609.273438 173.9375 C 621.25 173.9375 631.015625 164.167969 631.015625 152.195312 " fill-opacity="1" fill-rule="nonzero"/><path fill="#ab3a3a" d="M 587.53125 259.035156 C 587.53125 270.160156 591.863281 280.609375 599.71875 288.464844 L 604.773438 293.515625 L 599.71875 298.570312 C 591.863281 306.425781 587.53125 316.871094 587.53125 328 C 587.53125 338.953125 578.613281 347.871094 567.660156 347.871094 L 565.789062 347.871094 L 565.789062 369.613281 L 567.660156 369.613281 C 590.589844 369.613281 609.273438 350.929688 609.273438 328 C 609.273438 322.691406 611.355469 317.679688 615.09375 313.941406 L 635.519531 293.515625 L 615.09375 273.089844 C 611.355469 269.355469 609.273438 264.34375 609.273438 259.035156 C 609.273438 236.105469 590.589844 217.417969 567.660156 217.417969 L 565.789062 217.417969 L 565.789062 239.160156 L 567.660156 239.160156 C 578.613281 239.160156 587.53125 248.078125 587.53125 259.035156 " fill-opacity="1" fill-rule="nonzero"/><path fill="#ab3a3a" d="M 435.339844 328 C 435.339844 350.929688 454.023438 369.613281 476.953125 369.613281 L 478.824219 369.613281 L 478.824219 347.871094 L 476.953125 347.871094 C 466 347.871094 457.082031 338.953125 457.082031 328 C 457.082031 316.871094 452.75 306.425781 444.894531 298.570312 L 439.839844 293.515625 L 444.894531 288.464844 C 452.75 280.609375 457.082031 270.160156 457.082031 259.035156 C 457.082031 248.078125 466 239.160156 476.953125 239.160156 L 478.824219 239.160156 L 478.824219 217.417969 L 476.953125 217.417969 C 454.023438 217.417969 435.339844 236.105469 435.339844 259.035156 C 435.339844 264.34375 433.257812 269.355469 429.519531 273.089844 L 409.09375 293.515625 L 429.519531 313.941406 C 433.257812 317.679688 435.339844 322.691406 435.339844 328 " fill-opacity="1" fill-rule="nonzero"/><path fill="#ab3a3a" d="M 467.953125 304.386719 L 489.695312 304.386719 L 489.695312 282.644531 L 467.953125 282.644531 L 467.953125 304.386719 " fill-opacity="1" fill-rule="nonzero"/><path fill="#ab3a3a" d="M 511.4375 304.386719 L 533.179688 304.386719 L 533.179688 282.644531 L 511.4375 282.644531 L 511.4375 304.386719 " fill-opacity="1" fill-rule="nonzero"/><path fill="#ab3a3a" d="M 576.660156 282.644531 L 554.917969 282.644531 L 554.917969 304.386719 L 576.660156 304.386719 L 576.660156 282.644531 " fill-opacity="1" fill-rule="nonzero"/></svg>